M48
;Layer_Color=9474304
;FILE_FORMAT=4:2
METRIC
;TYPE=PLATED
T1F00S00C0.30
T2F00S00C0.60
T3F00S00C0.70
T4F00S00C0.85
T5F00S00C0.90
T6F00S00C1.10
T7F00S00C2.00
T8F00S00C2.70
%
T01
X004983Y002960
Y003722
X008143Y003732
Y002970
T02
X009330Y005852
X009880
Y006450
T03
X003670Y002980
Y003350
Y003717
X004000
Y003350
Y002980
X010418Y003430
X010618
Y003630
X010418
Y003830
X010618
Y004030
X010418
Y004230
X010618
Y004430
X010418
Y004630
X010618
Y004830
X010418
Y005030
X010618
Y005230
X010418
X009757Y005267
Y004597
Y004125
X009032Y005267
Y005638
Y006005
Y006690
X003670Y005047
Y004680
Y004310
X003020
Y004680
Y005047
T04
X010518Y003330
Y005330
T05
X008010Y004898
X009026
Y006422
X008772
X008264
X007248
X005892Y006394
X005130
X004114
Y004870
X004368
X004876
X005892
X007248Y004898
T06
X004030Y002176
Y002430
X004284
Y002176
X004538
X004792
Y002430
X005046
X005300
X005554
X005808
X006062
X006316
Y002176
X006062
X005808
X005554
X005300
X005046
X004538Y002430
X006824Y002430
Y002176
X007078
Y002430
X007332
Y002176
X007586
Y002430
X007840
Y002176
X008094
X008348
Y002430
X008094
X008602
X008856
X009110
Y002176
X008856
X008602
T07
X005253Y002960
Y003722
X006142
Y002960
X006993Y002965
Y003727
X007882
Y002965
T08
X004070Y001530
X009070
Y007130
X004070
X006570Y004330
M30
