G04*
G04 #@! TF.GenerationSoftware,Altium Limited,Altium Designer,22.1.2 (22)*
G04*
G04 Layer_Physical_Order=1*
G04 Layer_Color=5064179*
%FSAX42Y42*%
%MOMM*%
G71*
G04*
G04 #@! TF.SameCoordinates,E4BEF061-03AA-43A3-B299-508BB52D99EE*
G04*
G04*
G04 #@! TF.FilePolarity,Positive*
G04*
G01*
G75*
%ADD11C,0.30*%
%ADD33C,1.00*%
%ADD34R,0.80X1.30*%
%ADD35R,2.00X2.80*%
%ADD36R,2.30X2.50*%
%ADD37R,2.50X2.30*%
%ADD38R,3.20X2.60*%
%ADD39C,0.50*%
%ADD40C,0.70*%
%ADD41C,1.50*%
%ADD42R,1.52X1.52*%
%ADD43C,1.52*%
%ADD44C,1.10*%
%ADD45C,1.60*%
%ADD46R,1.60X1.60*%
%ADD47C,2.60*%
%ADD48C,1.30*%
%ADD49C,0.80*%
%ADD50C,6.00*%
%ADD51C,4.00*%
%ADD52C,0.60*%
G36*
X008947Y007319D02*
X008944Y007318D01*
X008910Y007290D01*
X008882Y007256D01*
X008861Y007217D01*
X008848Y007174D01*
X008845Y007145D01*
X009295D01*
X009292Y007174D01*
X009279Y007217D01*
X009258Y007256D01*
X009230Y007290D01*
X009222Y007296D01*
X009227Y007318D01*
X009235Y007319D01*
X009262Y007304D01*
X009279Y007291D01*
X009294Y007278D01*
X009308Y007264D01*
X010718Y005854D01*
X010720Y005852D01*
X010744Y005822D01*
X010764Y005786D01*
X010776Y005747D01*
X010780Y005706D01*
X010779Y005706D01*
X010779D01*
X010780Y005698D01*
Y002962D01*
X010779Y002954D01*
X010779D01*
X010780Y002954D01*
X010776Y002913D01*
X010764Y002874D01*
X010744Y002838D01*
X010731Y002821D01*
X010718Y002806D01*
X010704Y002792D01*
X009294Y001382D01*
X009294Y001382D01*
X009279Y001369D01*
X009262Y001356D01*
X009235Y001341D01*
X009227Y001342D01*
X009222Y001364D01*
X009230Y001370D01*
X009258Y001404D01*
X009279Y001443D01*
X009292Y001486D01*
X009295Y001515D01*
X008845D01*
X008848Y001486D01*
X008861Y001443D01*
X008882Y001404D01*
X008910Y001370D01*
X008944Y001342D01*
X008947Y001341D01*
X008942Y001321D01*
X008370D01*
X008368Y001320D01*
X008329Y001324D01*
X008290Y001336D01*
X008253Y001356D01*
X008222Y001382D01*
X008196Y001413D01*
X008176Y001450D01*
X008164Y001489D01*
X008162Y001510D01*
X008161Y001530D01*
X008161D01*
X008156Y001591D01*
X008142Y001651D01*
X008119Y001708D01*
X008086Y001760D01*
X008047Y001807D01*
X008000Y001846D01*
X007948Y001879D01*
X007891Y001902D01*
X007831Y001916D01*
X007770Y001921D01*
Y001921D01*
X005370D01*
Y001921D01*
X005309Y001916D01*
X005249Y001902D01*
X005192Y001879D01*
X005140Y001846D01*
X005093Y001807D01*
X005054Y001760D01*
X005021Y001708D01*
X004998Y001651D01*
X004984Y001591D01*
X004979Y001530D01*
X004979D01*
X004978Y001510D01*
X004976Y001489D01*
X004964Y001450D01*
X004944Y001413D01*
X004918Y001382D01*
X004887Y001356D01*
X004850Y001336D01*
X004811Y001324D01*
X004772Y001320D01*
X004770Y001321D01*
X004198D01*
X004193Y001341D01*
X004196Y001342D01*
X004230Y001370D01*
X004258Y001404D01*
X004279Y001443D01*
X004292Y001486D01*
X004295Y001515D01*
X003845D01*
X003848Y001486D01*
X003861Y001443D01*
X003882Y001404D01*
X003910Y001370D01*
X003918Y001364D01*
X003913Y001342D01*
X003905Y001341D01*
X003878Y001356D01*
X003848Y001380D01*
X003846Y001382D01*
X002436Y002792D01*
X002422Y002806D01*
X002409Y002821D01*
X002396Y002838D01*
X002376Y002874D01*
X002364Y002913D01*
X002362Y002935D01*
X002361Y002954D01*
X002361Y002954D01*
X002361Y002974D01*
Y005686D01*
X002361Y005686D01*
X002361Y005706D01*
X002362Y005725D01*
X002364Y005747D01*
X002376Y005786D01*
X002396Y005822D01*
X002409Y005839D01*
X002422Y005854D01*
X002422Y005854D01*
X003832Y007264D01*
X003846Y007278D01*
X003861Y007291D01*
X003878Y007304D01*
X003905Y007319D01*
X003913Y007318D01*
X003918Y007296D01*
X003910Y007290D01*
X003882Y007256D01*
X003861Y007217D01*
X003848Y007174D01*
X003845Y007145D01*
X004295D01*
X004292Y007174D01*
X004279Y007217D01*
X004258Y007256D01*
X004230Y007290D01*
X004196Y007318D01*
X004193Y007319D01*
X004198Y007339D01*
X005944D01*
X005944Y007339D01*
X005964Y007339D01*
X005983Y007338D01*
X006005Y007336D01*
X006044Y007324D01*
X006080Y007304D01*
X006112Y007278D01*
X006138Y007247D01*
X006145Y007234D01*
X006145Y007234D01*
X006180Y007181D01*
X006223Y007133D01*
X006271Y007090D01*
X006324Y007055D01*
X006382Y007026D01*
X006443Y007006D01*
X006506Y006993D01*
X006570Y006989D01*
X006634Y006993D01*
X006697Y007006D01*
X006758Y007026D01*
X006816Y007055D01*
X006869Y007090D01*
X006917Y007133D01*
X006960Y007181D01*
X006995Y007234D01*
X006995Y007234D01*
X007002Y007247D01*
X007028Y007278D01*
X007060Y007304D01*
X007096Y007324D01*
X007135Y007336D01*
X007157Y007338D01*
X007176Y007339D01*
Y007339D01*
X007176Y007339D01*
X008942D01*
X008947Y007319D01*
D02*
G37*
%LPC*%
G36*
X007684Y007290D02*
X007644D01*
Y007225D01*
X007684D01*
Y007290D01*
D02*
G37*
G36*
X007594D02*
X007554D01*
Y007225D01*
X007594D01*
Y007290D01*
D02*
G37*
G36*
X005696Y007270D02*
X005656D01*
Y007205D01*
X005696D01*
Y007270D01*
D02*
G37*
G36*
X005606D02*
X005566D01*
Y007205D01*
X005606D01*
Y007270D01*
D02*
G37*
G36*
X007684Y007175D02*
X007644D01*
Y007110D01*
X007684D01*
Y007175D01*
D02*
G37*
G36*
X007594D02*
X007554D01*
Y007110D01*
X007594D01*
Y007175D01*
D02*
G37*
G36*
X005696Y007155D02*
X005656D01*
Y007090D01*
X005696D01*
Y007155D01*
D02*
G37*
G36*
X005606D02*
X005566D01*
Y007090D01*
X005606D01*
Y007155D01*
D02*
G37*
G36*
X007655Y007065D02*
X007555D01*
Y006925D01*
X007655D01*
Y007065D01*
D02*
G37*
G36*
X007505D02*
X007405D01*
Y006925D01*
X007505D01*
Y007065D01*
D02*
G37*
G36*
X005845Y007065D02*
X005745D01*
Y006925D01*
X005845D01*
Y007065D01*
D02*
G37*
G36*
X005695D02*
X005595D01*
Y006925D01*
X005695D01*
Y007065D01*
D02*
G37*
G36*
X009295Y007115D02*
X009085D01*
Y006905D01*
X009114Y006908D01*
X009157Y006921D01*
X009196Y006942D01*
X009230Y006970D01*
X009258Y007004D01*
X009279Y007043D01*
X009292Y007086D01*
X009295Y007115D01*
D02*
G37*
G36*
X009055D02*
X008845D01*
X008848Y007086D01*
X008861Y007043D01*
X008882Y007004D01*
X008910Y006970D01*
X008944Y006942D01*
X008983Y006921D01*
X009026Y006908D01*
X009055Y006905D01*
Y007115D01*
D02*
G37*
G36*
X004295D02*
X004085D01*
Y006905D01*
X004114Y006908D01*
X004157Y006921D01*
X004196Y006942D01*
X004230Y006970D01*
X004258Y007004D01*
X004279Y007043D01*
X004292Y007086D01*
X004295Y007115D01*
D02*
G37*
G36*
X004055D02*
X003845D01*
X003848Y007086D01*
X003861Y007043D01*
X003882Y007004D01*
X003910Y006970D01*
X003944Y006942D01*
X003983Y006921D01*
X004026Y006908D01*
X004055Y006905D01*
Y007115D01*
D02*
G37*
G36*
X007655Y006875D02*
X007555D01*
Y006735D01*
X007655D01*
Y006875D01*
D02*
G37*
G36*
X007505D02*
X007405D01*
Y006735D01*
X007505D01*
Y006875D01*
D02*
G37*
G36*
X005845Y006875D02*
X005745D01*
Y006735D01*
X005845D01*
Y006875D01*
D02*
G37*
G36*
X005695D02*
X005595D01*
Y006735D01*
X005695D01*
Y006875D01*
D02*
G37*
G36*
X009895Y006513D02*
Y006465D01*
X009943D01*
X009941Y006475D01*
X009927Y006497D01*
X009905Y006511D01*
X009895Y006513D01*
D02*
G37*
G36*
X009865D02*
X009855Y006511D01*
X009833Y006497D01*
X009819Y006475D01*
X009817Y006465D01*
X009865D01*
Y006513D01*
D02*
G37*
G36*
X007263Y006522D02*
Y006437D01*
X007348D01*
X007346Y006448D01*
X007336Y006473D01*
X007320Y006494D01*
X007299Y006510D01*
X007274Y006521D01*
X007263Y006522D01*
D02*
G37*
G36*
X007233D02*
X007221Y006521D01*
X007197Y006510D01*
X007176Y006494D01*
X007159Y006473D01*
X007149Y006448D01*
X007148Y006437D01*
X007233D01*
Y006522D01*
D02*
G37*
G36*
X005907Y006494D02*
Y006409D01*
X005992D01*
X005990Y006420D01*
X005980Y006445D01*
X005964Y006466D01*
X005943Y006482D01*
X005918Y006493D01*
X005907Y006494D01*
D02*
G37*
G36*
X005877D02*
X005865Y006493D01*
X005841Y006482D01*
X005819Y006466D01*
X005803Y006445D01*
X005793Y006420D01*
X005791Y006409D01*
X005877D01*
Y006494D01*
D02*
G37*
G36*
X009943Y006435D02*
X009895D01*
Y006387D01*
X009905Y006389D01*
X009927Y006403D01*
X009941Y006425D01*
X009943Y006435D01*
D02*
G37*
G36*
X009865D02*
X009817D01*
X009819Y006425D01*
X009833Y006403D01*
X009855Y006389D01*
X009865Y006387D01*
Y006435D01*
D02*
G37*
G36*
X007348Y006407D02*
X007263D01*
Y006322D01*
X007274Y006323D01*
X007299Y006334D01*
X007320Y006350D01*
X007336Y006371D01*
X007346Y006396D01*
X007348Y006407D01*
D02*
G37*
G36*
X007233D02*
X007148D01*
X007149Y006396D01*
X007159Y006371D01*
X007176Y006350D01*
X007197Y006334D01*
X007221Y006323D01*
X007233Y006322D01*
Y006407D01*
D02*
G37*
G36*
X007889Y007305D02*
X007729D01*
Y007095D01*
X007743D01*
Y007029D01*
X007748Y007004D01*
X007758Y006988D01*
Y006720D01*
X008038D01*
Y006834D01*
X008153D01*
X008198Y006789D01*
Y006518D01*
X008181Y006505D01*
X008162Y006481D01*
X008151Y006452D01*
X008147Y006422D01*
X008151Y006392D01*
X008162Y006363D01*
X008181Y006339D01*
X008205Y006320D01*
X008233Y006309D01*
X008264Y006305D01*
X008294Y006309D01*
X008322Y006320D01*
X008347Y006339D01*
X008365Y006363D01*
X008377Y006392D01*
X008381Y006422D01*
X008377Y006452D01*
X008365Y006481D01*
X008347Y006505D01*
X008330Y006518D01*
Y006816D01*
X008325Y006842D01*
X008311Y006863D01*
X008227Y006947D01*
X008205Y006961D01*
X008180Y006966D01*
X008038D01*
Y007080D01*
X007901D01*
X007889Y007095D01*
Y007305D01*
D02*
G37*
G36*
X005992Y006379D02*
X005907D01*
Y006294D01*
X005918Y006295D01*
X005943Y006306D01*
X005964Y006322D01*
X005980Y006343D01*
X005990Y006368D01*
X005992Y006379D01*
D02*
G37*
G36*
X005877D02*
X005791D01*
X005793Y006368D01*
X005803Y006343D01*
X005819Y006322D01*
X005841Y006306D01*
X005865Y006295D01*
X005877Y006294D01*
Y006379D01*
D02*
G37*
G36*
X004114Y006511D02*
X004083Y006507D01*
X004055Y006496D01*
X004031Y006477D01*
X004012Y006453D01*
X004000Y006424D01*
X003996Y006394D01*
X004000Y006364D01*
X004012Y006335D01*
X004031Y006311D01*
X004055Y006292D01*
X004083Y006281D01*
X004114Y006277D01*
X004144Y006281D01*
X004172Y006292D01*
X004196Y006311D01*
X004215Y006335D01*
X004227Y006364D01*
X004231Y006394D01*
X004227Y006424D01*
X004215Y006453D01*
X004196Y006477D01*
X004172Y006496D01*
X004144Y006507D01*
X004114Y006511D01*
D02*
G37*
G36*
X005521Y007285D02*
X005361D01*
Y007080D01*
X005212D01*
Y006814D01*
X005083Y006685D01*
X005068Y006663D01*
X005063Y006638D01*
Y006490D01*
X005047Y006477D01*
X005028Y006453D01*
X005016Y006424D01*
X005012Y006394D01*
X005016Y006364D01*
X005028Y006335D01*
X005047Y006311D01*
X005071Y006292D01*
X005099Y006281D01*
X005117Y006278D01*
X006009Y005386D01*
Y004900D01*
X005990Y004896D01*
X005980Y004921D01*
X005964Y004942D01*
X005943Y004958D01*
X005918Y004969D01*
X005907Y004970D01*
Y004870D01*
Y004770D01*
X005918Y004771D01*
X005943Y004782D01*
X005964Y004798D01*
X005980Y004819D01*
X005990Y004844D01*
X006009Y004840D01*
Y004130D01*
X006012Y004107D01*
X006021Y004085D01*
X006036Y004066D01*
X006198Y003904D01*
X006187Y003886D01*
X006176Y003890D01*
X006142Y003893D01*
X006109Y003890D01*
X006077Y003880D01*
X006047Y003864D01*
X006021Y003843D01*
X006000Y003817D01*
X005984Y003787D01*
X005975Y003755D01*
X005971Y003722D01*
X005975Y003689D01*
X005984Y003657D01*
X006000Y003627D01*
X006021Y003601D01*
X006047Y003580D01*
X006077Y003564D01*
X006109Y003554D01*
X006142Y003551D01*
X006176Y003554D01*
X006208Y003564D01*
X006237Y003580D01*
X006263Y003601D01*
X006284Y003627D01*
X006300Y003657D01*
X006310Y003689D01*
X006313Y003722D01*
X006310Y003755D01*
X006306Y003767D01*
X006324Y003778D01*
X006936Y003166D01*
X006955Y003151D01*
X006955Y003151D01*
X006953Y003130D01*
X006927Y003123D01*
X006898Y003107D01*
X006872Y003085D01*
X006850Y003060D01*
X006835Y003030D01*
X006825Y002998D01*
X006822Y002965D01*
X006825Y002931D01*
X006835Y002899D01*
X006850Y002870D01*
X006872Y002844D01*
X006898Y002823D01*
X006927Y002807D01*
X006959Y002797D01*
X006993Y002794D01*
X007026Y002797D01*
X007058Y002807D01*
X007087Y002823D01*
X007113Y002844D01*
X007135Y002870D01*
X007150Y002899D01*
X007160Y002931D01*
X007163Y002965D01*
X007160Y002998D01*
X007150Y003030D01*
X007135Y003060D01*
X007113Y003085D01*
X007087Y003107D01*
X007064Y003119D01*
X007069Y003139D01*
X007805D01*
X007810Y003119D01*
X007787Y003107D01*
X007761Y003085D01*
X007739Y003060D01*
X007724Y003030D01*
X007714Y002998D01*
X007711Y002965D01*
X007714Y002931D01*
X007724Y002899D01*
X007739Y002870D01*
X007761Y002844D01*
X007787Y002823D01*
X007816Y002807D01*
X007848Y002797D01*
X007882Y002794D01*
X007915Y002797D01*
X007947Y002807D01*
X007976Y002823D01*
X008002Y002844D01*
X008004Y002846D01*
X008262D01*
Y002795D01*
X008662D01*
Y003119D01*
X008662Y003135D01*
X008681Y003139D01*
X009664D01*
X009682Y003137D01*
X009682Y003119D01*
Y002797D01*
X010082D01*
Y003119D01*
X010082Y003137D01*
X010101Y003139D01*
X010217D01*
X010241Y003142D01*
X010263Y003151D01*
X010282Y003166D01*
X010419Y003303D01*
X010442Y003298D01*
X010446Y003289D01*
X010459Y003272D01*
X010476Y003258D01*
X010496Y003250D01*
X010518Y003247D01*
X010539Y003250D01*
X010559Y003258D01*
X010577Y003272D01*
X010590Y003289D01*
X010598Y003309D01*
X010601Y003330D01*
X010621Y003335D01*
X010643Y003338D01*
X010666Y003347D01*
X010686Y003363D01*
X010701Y003382D01*
X010710Y003406D01*
X010714Y003430D01*
X010710Y003455D01*
X010701Y003478D01*
X010686Y003498D01*
X010666Y003513D01*
X010651Y003520D01*
Y003541D01*
X010666Y003547D01*
X010686Y003563D01*
X010701Y003582D01*
X010710Y003606D01*
X010714Y003630D01*
X010710Y003655D01*
X010701Y003678D01*
X010686Y003698D01*
X010666Y003713D01*
X010651Y003720D01*
Y003741D01*
X010666Y003747D01*
X010686Y003763D01*
X010701Y003782D01*
X010710Y003806D01*
X010714Y003830D01*
X010710Y003855D01*
X010701Y003878D01*
X010686Y003898D01*
X010666Y003913D01*
X010651Y003920D01*
Y003941D01*
X010666Y003947D01*
X010686Y003963D01*
X010701Y003982D01*
X010710Y004006D01*
X010714Y004030D01*
X010710Y004055D01*
X010701Y004078D01*
X010686Y004098D01*
X010666Y004113D01*
X010651Y004120D01*
Y004141D01*
X010666Y004147D01*
X010686Y004163D01*
X010701Y004182D01*
X010710Y004206D01*
X010714Y004230D01*
X010710Y004255D01*
X010701Y004278D01*
X010686Y004298D01*
X010666Y004313D01*
X010651Y004320D01*
Y004341D01*
X010666Y004347D01*
X010686Y004363D01*
X010701Y004382D01*
X010710Y004406D01*
X010714Y004430D01*
X010710Y004455D01*
X010701Y004478D01*
X010686Y004498D01*
X010666Y004513D01*
X010643Y004523D01*
X010618Y004526D01*
X010593Y004523D01*
X010570Y004513D01*
X010550Y004498D01*
X010549Y004497D01*
X010487D01*
X010486Y004498D01*
X010466Y004513D01*
X010443Y004523D01*
X010418Y004526D01*
X010393Y004523D01*
X010370Y004513D01*
X010350Y004498D01*
X010335Y004478D01*
X010325Y004455D01*
X010322Y004430D01*
X010325Y004406D01*
X010335Y004382D01*
X010350Y004363D01*
X010370Y004347D01*
X010385Y004341D01*
Y004320D01*
X010370Y004313D01*
X010350Y004298D01*
X010335Y004278D01*
X010325Y004255D01*
X010322Y004230D01*
X010325Y004206D01*
X010335Y004182D01*
X010350Y004163D01*
X010370Y004147D01*
X010385Y004141D01*
Y004120D01*
X010370Y004113D01*
X010350Y004098D01*
X010335Y004078D01*
X010325Y004055D01*
X010322Y004030D01*
X010325Y004006D01*
X010335Y003982D01*
X010350Y003963D01*
X010370Y003947D01*
X010385Y003941D01*
Y003920D01*
X010370Y003913D01*
X010350Y003898D01*
X010335Y003878D01*
X010325Y003855D01*
X010322Y003830D01*
X010325Y003806D01*
X010335Y003782D01*
X010350Y003763D01*
X010367Y003750D01*
X010370Y003741D01*
X010371Y003725D01*
X010365Y003719D01*
X010358D01*
X010335Y003716D01*
X010313Y003707D01*
X010294Y003693D01*
X010294Y003693D01*
X010151Y003549D01*
X010131Y003557D01*
Y005480D01*
X010128Y005496D01*
X010119Y005509D01*
X010106Y005518D01*
X010090Y005521D01*
X009471D01*
Y005697D01*
X009765D01*
Y005786D01*
X009835D01*
X009840Y005782D01*
X009859Y005774D01*
X009880Y005771D01*
X009901Y005774D01*
X009920Y005782D01*
X009937Y005795D01*
X009950Y005812D01*
X009958Y005831D01*
X009961Y005852D01*
X009958Y005873D01*
X009950Y005892D01*
X009937Y005909D01*
X009920Y005922D01*
X009901Y005930D01*
X009880Y005933D01*
X009859Y005930D01*
X009840Y005922D01*
X009835Y005918D01*
X009765D01*
Y006007D01*
X009471D01*
Y006267D01*
X009765D01*
Y006577D01*
X009471D01*
Y006800D01*
X009468Y006816D01*
X009459Y006829D01*
X009446Y006838D01*
X009430Y006841D01*
X008890Y006841D01*
X008874Y006838D01*
X008861Y006829D01*
X008852Y006816D01*
X008849Y006800D01*
Y006532D01*
X008831Y006523D01*
X008830Y006523D01*
X008802Y006535D01*
X008772Y006539D01*
X008741Y006535D01*
X008713Y006523D01*
X008689Y006505D01*
X008670Y006481D01*
X008659Y006452D01*
X008655Y006422D01*
X008659Y006392D01*
X008670Y006363D01*
X008689Y006339D01*
X008713Y006320D01*
X008741Y006309D01*
X008772Y006305D01*
X008802Y006309D01*
X008830Y006320D01*
X008831Y006321D01*
X008849Y006312D01*
Y005020D01*
X008852Y005004D01*
X008861Y004991D01*
X008874Y004982D01*
X008890Y004979D01*
X008919D01*
X008928Y004961D01*
X008924Y004957D01*
X008913Y004928D01*
X008909Y004898D01*
X008913Y004868D01*
X008924Y004839D01*
X008943Y004815D01*
X008967Y004796D01*
X008995Y004785D01*
X009026Y004781D01*
X009056Y004785D01*
X009084Y004796D01*
X009109Y004815D01*
X009127Y004839D01*
X009139Y004868D01*
X009143Y004898D01*
X009139Y004928D01*
X009127Y004957D01*
X009124Y004961D01*
X009133Y004979D01*
X009317D01*
Y003540D01*
X009301Y003521D01*
X009238D01*
X009001Y003758D01*
Y004640D01*
X008998Y004663D01*
X008989Y004685D01*
X008974Y004704D01*
X008716Y004962D01*
X008697Y004977D01*
X008676Y004986D01*
X008652Y004989D01*
X008082D01*
X008068Y004999D01*
X008040Y005011D01*
X008010Y005015D01*
X007979Y005011D01*
X007951Y004999D01*
X007927Y004981D01*
X007908Y004957D01*
X007897Y004928D01*
X007893Y004898D01*
X007897Y004868D01*
X007908Y004839D01*
X007927Y004815D01*
X007944Y004802D01*
Y004647D01*
X007846Y004550D01*
X007660D01*
Y004282D01*
X007650Y004266D01*
X007645Y004241D01*
Y004185D01*
X007631D01*
Y003975D01*
X007791D01*
Y004185D01*
X007809Y004190D01*
X007940D01*
Y004456D01*
X008057Y004573D01*
X008071Y004594D01*
X008076Y004620D01*
Y004802D01*
X008082Y004807D01*
X008614D01*
X008819Y004602D01*
Y003720D01*
X008822Y003697D01*
X008831Y003675D01*
X008846Y003656D01*
X009136Y003366D01*
X009155Y003351D01*
X009177Y003342D01*
X009188Y003341D01*
X009187Y003321D01*
X007038D01*
X006191Y004168D01*
Y005424D01*
X006188Y005447D01*
X006179Y005469D01*
X006164Y005488D01*
X005245Y006407D01*
X005243Y006424D01*
X005231Y006453D01*
X005212Y006477D01*
X005196Y006490D01*
Y006610D01*
X005305Y006720D01*
X005492D01*
Y006988D01*
X005502Y007004D01*
X005507Y007029D01*
Y007075D01*
X005521D01*
Y007285D01*
D02*
G37*
G36*
X010518Y005414D02*
X010496Y005411D01*
X010476Y005402D01*
X010459Y005389D01*
X010446Y005372D01*
X010437Y005352D01*
X010435Y005330D01*
X010415Y005326D01*
X010393Y005323D01*
X010370Y005313D01*
X010350Y005298D01*
X010335Y005278D01*
X010325Y005255D01*
X010322Y005230D01*
X010325Y005206D01*
X010335Y005182D01*
X010350Y005163D01*
X010370Y005147D01*
X010385Y005141D01*
Y005120D01*
X010370Y005113D01*
X010350Y005098D01*
X010335Y005078D01*
X010325Y005055D01*
X010322Y005030D01*
X010325Y005006D01*
X010335Y004982D01*
X010350Y004963D01*
X010370Y004947D01*
X010393Y004938D01*
X010418Y004935D01*
X010443Y004938D01*
X010466Y004947D01*
X010486Y004963D01*
X010487Y004964D01*
X010549D01*
X010550Y004963D01*
X010570Y004947D01*
X010593Y004938D01*
X010618Y004935D01*
X010643Y004938D01*
X010666Y004947D01*
X010686Y004963D01*
X010701Y004982D01*
X010710Y005006D01*
X010714Y005030D01*
X010710Y005055D01*
X010701Y005078D01*
X010686Y005098D01*
X010666Y005113D01*
X010651Y005120D01*
Y005141D01*
X010666Y005147D01*
X010686Y005163D01*
X010701Y005182D01*
X010710Y005206D01*
X010714Y005230D01*
X010710Y005255D01*
X010701Y005278D01*
X010686Y005298D01*
X010666Y005313D01*
X010643Y005323D01*
X010621Y005326D01*
X010601Y005330D01*
X010598Y005352D01*
X010590Y005372D01*
X010577Y005389D01*
X010559Y005402D01*
X010539Y005411D01*
X010518Y005414D01*
D02*
G37*
G36*
X007263Y004998D02*
Y004913D01*
X007348D01*
X007346Y004924D01*
X007336Y004949D01*
X007320Y004970D01*
X007299Y004986D01*
X007274Y004997D01*
X007263Y004998D01*
D02*
G37*
G36*
X007233D02*
X007221Y004997D01*
X007197Y004986D01*
X007176Y004970D01*
X007159Y004949D01*
X007149Y004924D01*
X007148Y004913D01*
X007233D01*
Y004998D01*
D02*
G37*
G36*
X005877Y004970D02*
X005865Y004969D01*
X005841Y004958D01*
X005819Y004942D01*
X005803Y004921D01*
X005793Y004896D01*
X005791Y004885D01*
X005877D01*
Y004970D01*
D02*
G37*
G36*
X010633Y004909D02*
Y004845D01*
X010697D01*
X010696Y004851D01*
X010688Y004871D01*
X010675Y004887D01*
X010658Y004900D01*
X010639Y004908D01*
X010633Y004909D01*
D02*
G37*
G36*
X010433D02*
Y004845D01*
X010497D01*
X010496Y004851D01*
X010488Y004871D01*
X010475Y004887D01*
X010458Y004900D01*
X010439Y004908D01*
X010433Y004909D01*
D02*
G37*
G36*
X010603D02*
X010597Y004908D01*
X010577Y004900D01*
X010561Y004887D01*
X010548Y004871D01*
X010540Y004851D01*
X010539Y004845D01*
X010603D01*
Y004909D01*
D02*
G37*
G36*
X010403D02*
X010397Y004908D01*
X010377Y004900D01*
X010361Y004887D01*
X010348Y004871D01*
X010340Y004851D01*
X010339Y004845D01*
X010403D01*
Y004909D01*
D02*
G37*
G36*
X007348Y004883D02*
X007263D01*
Y004798D01*
X007274Y004799D01*
X007299Y004810D01*
X007320Y004826D01*
X007336Y004847D01*
X007346Y004872D01*
X007348Y004883D01*
D02*
G37*
G36*
X007233D02*
X007148D01*
X007149Y004872D01*
X007159Y004847D01*
X007176Y004826D01*
X007197Y004810D01*
X007221Y004799D01*
X007233Y004798D01*
Y004883D01*
D02*
G37*
G36*
X005877Y004855D02*
X005791D01*
X005793Y004844D01*
X005803Y004819D01*
X005819Y004798D01*
X005841Y004782D01*
X005865Y004771D01*
X005877Y004770D01*
Y004855D01*
D02*
G37*
G36*
X010697Y004815D02*
X010633D01*
Y004752D01*
X010639Y004752D01*
X010658Y004761D01*
X010675Y004773D01*
X010688Y004790D01*
X010696Y004810D01*
X010697Y004815D01*
D02*
G37*
G36*
X010497D02*
X010433D01*
Y004752D01*
X010439Y004752D01*
X010458Y004761D01*
X010475Y004773D01*
X010488Y004790D01*
X010496Y004810D01*
X010497Y004815D01*
D02*
G37*
G36*
X010603D02*
X010539D01*
X010540Y004810D01*
X010548Y004790D01*
X010561Y004773D01*
X010577Y004761D01*
X010597Y004752D01*
X010603Y004752D01*
Y004815D01*
D02*
G37*
G36*
X010403D02*
X010339D01*
X010340Y004810D01*
X010348Y004790D01*
X010361Y004773D01*
X010377Y004761D01*
X010397Y004752D01*
X010403Y004752D01*
Y004815D01*
D02*
G37*
G36*
X010633Y004709D02*
Y004645D01*
X010697D01*
X010696Y004651D01*
X010688Y004671D01*
X010675Y004687D01*
X010658Y004700D01*
X010639Y004708D01*
X010633Y004709D01*
D02*
G37*
G36*
X010433D02*
Y004645D01*
X010497D01*
X010496Y004651D01*
X010488Y004671D01*
X010475Y004687D01*
X010458Y004700D01*
X010439Y004708D01*
X010433Y004709D01*
D02*
G37*
G36*
X010603D02*
X010597Y004708D01*
X010577Y004700D01*
X010561Y004687D01*
X010548Y004671D01*
X010540Y004651D01*
X010539Y004645D01*
X010603D01*
Y004709D01*
D02*
G37*
G36*
X010403D02*
X010397Y004708D01*
X010377Y004700D01*
X010361Y004687D01*
X010348Y004671D01*
X010340Y004651D01*
X010339Y004645D01*
X010403D01*
Y004709D01*
D02*
G37*
G36*
X010697Y004615D02*
X010633D01*
Y004552D01*
X010639Y004552D01*
X010658Y004561D01*
X010675Y004573D01*
X010688Y004590D01*
X010696Y004610D01*
X010697Y004615D01*
D02*
G37*
G36*
X010497D02*
X010433D01*
Y004552D01*
X010439Y004552D01*
X010458Y004561D01*
X010475Y004573D01*
X010488Y004590D01*
X010496Y004610D01*
X010497Y004615D01*
D02*
G37*
G36*
X010603D02*
X010539D01*
X010540Y004610D01*
X010548Y004590D01*
X010561Y004573D01*
X010577Y004561D01*
X010597Y004552D01*
X010603Y004552D01*
Y004615D01*
D02*
G37*
G36*
X010403D02*
X010339D01*
X010340Y004610D01*
X010348Y004590D01*
X010361Y004573D01*
X010377Y004561D01*
X010397Y004552D01*
X010403Y004552D01*
Y004615D01*
D02*
G37*
G36*
X005685Y004545D02*
X005585D01*
Y004405D01*
X005685D01*
Y004545D01*
D02*
G37*
G36*
X005535D02*
X005435D01*
Y004405D01*
X005535D01*
Y004545D01*
D02*
G37*
G36*
X007557Y004535D02*
X007457D01*
Y004395D01*
X007557D01*
Y004535D01*
D02*
G37*
G36*
X007407D02*
X007307D01*
Y004395D01*
X007407D01*
Y004535D01*
D02*
G37*
G36*
X005685Y004355D02*
X005585D01*
Y004215D01*
X005685D01*
Y004355D01*
D02*
G37*
G36*
X005535D02*
X005435D01*
Y004215D01*
X005535D01*
Y004355D01*
D02*
G37*
G36*
X007557Y004345D02*
X007457D01*
Y004205D01*
X007557D01*
Y004345D01*
D02*
G37*
G36*
X007407D02*
X007307D01*
Y004205D01*
X007407D01*
Y004345D01*
D02*
G37*
G36*
X004368Y004987D02*
X004337Y004983D01*
X004309Y004972D01*
X004285Y004953D01*
X004266Y004929D01*
X004254Y004900D01*
X004250Y004870D01*
X004254Y004840D01*
X004266Y004811D01*
X004285Y004787D01*
X004309Y004768D01*
X004337Y004757D01*
X004368Y004753D01*
X004398Y004757D01*
X004426Y004768D01*
X004450Y004787D01*
X004456Y004795D01*
X004491D01*
X004574Y004713D01*
Y004535D01*
X004485D01*
Y004205D01*
X004795D01*
Y004535D01*
X004706D01*
Y004740D01*
X004701Y004765D01*
X004687Y004787D01*
X004566Y004908D01*
X004544Y004922D01*
X004519Y004927D01*
X004470D01*
X004469Y004929D01*
X004450Y004953D01*
X004426Y004972D01*
X004398Y004983D01*
X004368Y004987D01*
D02*
G37*
G36*
X004876D02*
X004845Y004983D01*
X004817Y004972D01*
X004793Y004953D01*
X004774Y004929D01*
X004762Y004900D01*
X004758Y004870D01*
X004762Y004840D01*
X004774Y004811D01*
X004793Y004787D01*
X004817Y004768D01*
X004845Y004757D01*
X004876Y004753D01*
X004906Y004757D01*
X004934Y004768D01*
X004958Y004787D01*
X004971Y004804D01*
X005044D01*
X005125Y004723D01*
Y004560D01*
X005052D01*
Y004200D01*
X005332D01*
Y004560D01*
X005258D01*
Y004750D01*
X005253Y004775D01*
X005239Y004797D01*
X005119Y004917D01*
X005097Y004931D01*
X005072Y004936D01*
X004971D01*
X004958Y004953D01*
X004934Y004972D01*
X004906Y004983D01*
X004876Y004987D01*
D02*
G37*
G36*
X007586Y004170D02*
X007546D01*
Y004105D01*
X007586D01*
Y004170D01*
D02*
G37*
G36*
X007496D02*
X007456D01*
Y004105D01*
X007496D01*
Y004170D01*
D02*
G37*
G36*
X007586Y004055D02*
X007546D01*
Y003990D01*
X007586D01*
Y004055D01*
D02*
G37*
G36*
X007496D02*
X007456D01*
Y003990D01*
X007496D01*
Y004055D01*
D02*
G37*
G36*
X006570Y004671D02*
X006516Y004667D01*
X006464Y004654D01*
X006415Y004634D01*
X006369Y004606D01*
X006329Y004571D01*
X006294Y004531D01*
X006266Y004485D01*
X006245Y004435D01*
X006233Y004383D01*
X006229Y004330D01*
X006233Y004277D01*
X006245Y004225D01*
X006266Y004175D01*
X006294Y004130D01*
X006329Y004089D01*
X006369Y004054D01*
X006415Y004026D01*
X006464Y004006D01*
X006516Y003993D01*
X006570Y003989D01*
X006623Y003993D01*
X006675Y004006D01*
X006725Y004026D01*
X006770Y004054D01*
X006811Y004089D01*
X006846Y004130D01*
X006874Y004175D01*
X006894Y004225D01*
X006907Y004277D01*
X006911Y004330D01*
X006907Y004383D01*
X006894Y004435D01*
X006874Y004485D01*
X006846Y004531D01*
X006811Y004571D01*
X006770Y004606D01*
X006725Y004634D01*
X006675Y004654D01*
X006623Y004667D01*
X006570Y004671D01*
D02*
G37*
G36*
X005253Y003893D02*
X005220Y003890D01*
X005188Y003880D01*
X005158Y003864D01*
X005132Y003843D01*
X005128Y003838D01*
X004853D01*
Y003892D01*
X004453D01*
Y003552D01*
X004853D01*
Y003606D01*
X005128D01*
X005132Y003601D01*
X005158Y003580D01*
X005188Y003564D01*
X005220Y003554D01*
X005253Y003551D01*
X005287Y003554D01*
X005319Y003564D01*
X005348Y003580D01*
X005374Y003601D01*
X005395Y003627D01*
X005411Y003657D01*
X005421Y003689D01*
X005424Y003722D01*
X005421Y003755D01*
X005411Y003787D01*
X005395Y003817D01*
X005374Y003843D01*
X005348Y003864D01*
X005319Y003880D01*
X005287Y003890D01*
X005253Y003893D01*
D02*
G37*
G36*
X007882Y003898D02*
X007848Y003894D01*
X007816Y003885D01*
X007787Y003869D01*
X007761Y003847D01*
X007739Y003822D01*
X007724Y003792D01*
X007714Y003760D01*
X007711Y003727D01*
X007714Y003693D01*
X007724Y003661D01*
X007739Y003632D01*
X007761Y003606D01*
X007787Y003585D01*
X007816Y003569D01*
X007848Y003559D01*
X007882Y003556D01*
X007915Y003559D01*
X007947Y003569D01*
X007976Y003585D01*
X008002Y003606D01*
X008006Y003611D01*
X008262D01*
Y003557D01*
X008662D01*
Y003897D01*
X008262D01*
Y003843D01*
X008006D01*
X008002Y003847D01*
X007976Y003869D01*
X007947Y003885D01*
X007915Y003894D01*
X007882Y003898D01*
D02*
G37*
G36*
X006993D02*
X006959Y003894D01*
X006927Y003885D01*
X006898Y003869D01*
X006872Y003847D01*
X006850Y003822D01*
X006835Y003792D01*
X006825Y003760D01*
X006822Y003727D01*
X006825Y003693D01*
X006835Y003661D01*
X006850Y003632D01*
X006872Y003606D01*
X006898Y003585D01*
X006927Y003569D01*
X006959Y003559D01*
X006993Y003556D01*
X007026Y003559D01*
X007058Y003569D01*
X007087Y003585D01*
X007113Y003606D01*
X007135Y003632D01*
X007150Y003661D01*
X007160Y003693D01*
X007163Y003727D01*
X007160Y003760D01*
X007150Y003792D01*
X007135Y003822D01*
X007113Y003847D01*
X007087Y003869D01*
X007058Y003885D01*
X007026Y003894D01*
X006993Y003898D01*
D02*
G37*
G36*
X005253Y003131D02*
X005220Y003128D01*
X005188Y003118D01*
X005158Y003102D01*
X005132Y003081D01*
X005128Y003076D01*
X004853D01*
Y003130D01*
X004453D01*
Y002790D01*
X004853D01*
Y002844D01*
X005128D01*
X005132Y002839D01*
X005158Y002818D01*
X005188Y002802D01*
X005220Y002792D01*
X005253Y002789D01*
X005287Y002792D01*
X005319Y002802D01*
X005348Y002818D01*
X005374Y002839D01*
X005395Y002865D01*
X005411Y002895D01*
X005421Y002927D01*
X005424Y002960D01*
X005421Y002993D01*
X005411Y003025D01*
X005395Y003055D01*
X005374Y003081D01*
X005348Y003102D01*
X005319Y003118D01*
X005287Y003128D01*
X005253Y003131D01*
D02*
G37*
G36*
X006142D02*
X006109Y003128D01*
X006077Y003118D01*
X006047Y003102D01*
X006021Y003081D01*
X006000Y003055D01*
X005984Y003025D01*
X005975Y002993D01*
X005971Y002960D01*
X005975Y002927D01*
X005984Y002895D01*
X006000Y002865D01*
X006021Y002839D01*
X006047Y002818D01*
X006077Y002802D01*
X006109Y002792D01*
X006142Y002789D01*
X006176Y002792D01*
X006208Y002802D01*
X006237Y002818D01*
X006263Y002839D01*
X006284Y002865D01*
X006300Y002895D01*
X006310Y002927D01*
X006313Y002960D01*
X006310Y002993D01*
X006300Y003025D01*
X006284Y003055D01*
X006263Y003081D01*
X006237Y003102D01*
X006208Y003118D01*
X006176Y003128D01*
X006142Y003131D01*
D02*
G37*
G36*
X004185Y005366D02*
X002740D01*
X002724Y005363D01*
X002711Y005354D01*
X002702Y005341D01*
X002699Y005325D01*
Y004250D01*
Y002750D01*
X002702Y002734D01*
X002711Y002721D01*
X002724Y002712D01*
X002740Y002709D01*
X004185D01*
X004201Y002712D01*
X004214Y002721D01*
X004223Y002734D01*
X004226Y002750D01*
Y004140D01*
Y004220D01*
X004225Y004224D01*
Y004535D01*
X004170D01*
Y004754D01*
X004230D01*
Y004986D01*
X004226D01*
Y005325D01*
X004223Y005341D01*
X004214Y005354D01*
X004201Y005363D01*
X004185Y005366D01*
D02*
G37*
G36*
X006316Y002551D02*
X006284Y002547D01*
X006255Y002535D01*
X006230Y002516D01*
X006211Y002491D01*
X006199Y002461D01*
X006199Y002461D01*
X006179D01*
X006179Y002461D01*
X006167Y002491D01*
X006147Y002516D01*
X006122Y002535D01*
X006093Y002547D01*
X006062Y002551D01*
X006030Y002547D01*
X006001Y002535D01*
X005976Y002516D01*
X005957Y002491D01*
X005945Y002461D01*
X005945Y002461D01*
X005925D01*
X005925Y002461D01*
X005913Y002491D01*
X005893Y002516D01*
X005868Y002535D01*
X005839Y002547D01*
X005808Y002551D01*
X005776Y002547D01*
X005747Y002535D01*
X005722Y002516D01*
X005703Y002491D01*
X005691Y002461D01*
X005691Y002461D01*
X005671D01*
X005671Y002461D01*
X005659Y002491D01*
X005639Y002516D01*
X005614Y002535D01*
X005585Y002547D01*
X005554Y002551D01*
X005522Y002547D01*
X005493Y002535D01*
X005468Y002516D01*
X005449Y002491D01*
X005437Y002461D01*
X005433Y002430D01*
X005437Y002399D01*
X005449Y002369D01*
X005468Y002344D01*
X005493Y002325D01*
X005522Y002313D01*
X005522Y002313D01*
Y002293D01*
X005522Y002293D01*
X005493Y002281D01*
X005468Y002262D01*
X005449Y002237D01*
X005437Y002207D01*
X005433Y002176D01*
X005437Y002145D01*
X005449Y002115D01*
X005468Y002090D01*
X005493Y002071D01*
X005522Y002059D01*
X005554Y002055D01*
X005585Y002059D01*
X005614Y002071D01*
X005639Y002090D01*
X005659Y002115D01*
X005671Y002145D01*
X005671Y002145D01*
X005691D01*
X005691Y002145D01*
X005703Y002115D01*
X005722Y002090D01*
X005747Y002071D01*
X005776Y002059D01*
X005808Y002055D01*
X005839Y002059D01*
X005868Y002071D01*
X005893Y002090D01*
X005913Y002115D01*
X005925Y002145D01*
X005925Y002145D01*
X005945D01*
X005945Y002145D01*
X005957Y002115D01*
X005976Y002090D01*
X006001Y002071D01*
X006030Y002059D01*
X006062Y002055D01*
X006093Y002059D01*
X006122Y002071D01*
X006147Y002090D01*
X006167Y002115D01*
X006179Y002145D01*
X006179Y002145D01*
X006199D01*
X006199Y002145D01*
X006211Y002115D01*
X006230Y002090D01*
X006255Y002071D01*
X006284Y002059D01*
X006316Y002055D01*
X006347Y002059D01*
X006376Y002071D01*
X006401Y002090D01*
X006421Y002115D01*
X006433Y002145D01*
X006437Y002176D01*
X006433Y002207D01*
X006421Y002237D01*
X006401Y002262D01*
X006376Y002281D01*
X006347Y002293D01*
X006347Y002293D01*
Y002313D01*
X006347Y002313D01*
X006376Y002325D01*
X006401Y002344D01*
X006421Y002369D01*
X006433Y002399D01*
X006437Y002430D01*
X006433Y002461D01*
X006421Y002491D01*
X006401Y002516D01*
X006376Y002535D01*
X006347Y002547D01*
X006316Y002551D01*
D02*
G37*
G36*
X004792D02*
X004760Y002547D01*
X004731Y002535D01*
X004706Y002516D01*
X004687Y002491D01*
X004675Y002461D01*
X004675Y002461D01*
X004655D01*
X004655Y002461D01*
X004643Y002491D01*
X004623Y002516D01*
X004598Y002535D01*
X004569Y002547D01*
X004538Y002551D01*
X004506Y002547D01*
X004477Y002535D01*
X004452Y002516D01*
X004433Y002491D01*
X004421Y002461D01*
X004421Y002461D01*
X004401D01*
X004401Y002461D01*
X004389Y002491D01*
X004369Y002516D01*
X004344Y002535D01*
X004315Y002547D01*
X004284Y002551D01*
X004252Y002547D01*
X004223Y002535D01*
X004198Y002516D01*
X004179Y002491D01*
X004167Y002461D01*
X004167Y002461D01*
X004147D01*
X004147Y002461D01*
X004135Y002491D01*
X004115Y002516D01*
X004090Y002535D01*
X004061Y002547D01*
X004030Y002551D01*
X003998Y002547D01*
X003969Y002535D01*
X003944Y002516D01*
X003925Y002491D01*
X003913Y002461D01*
X003909Y002430D01*
X003913Y002399D01*
X003925Y002369D01*
X003944Y002344D01*
X003963Y002330D01*
Y002296D01*
X003910D01*
Y002056D01*
X004150D01*
Y002134D01*
X004170Y002138D01*
X004179Y002115D01*
X004198Y002090D01*
X004223Y002071D01*
X004252Y002059D01*
X004284Y002055D01*
X004315Y002059D01*
X004344Y002071D01*
X004369Y002090D01*
X004389Y002115D01*
X004401Y002145D01*
X004401Y002145D01*
X004421D01*
X004421Y002145D01*
X004433Y002115D01*
X004452Y002090D01*
X004477Y002071D01*
X004506Y002059D01*
X004538Y002055D01*
X004569Y002059D01*
X004598Y002071D01*
X004623Y002090D01*
X004643Y002115D01*
X004655Y002145D01*
X004655Y002145D01*
X004675D01*
X004675Y002145D01*
X004687Y002115D01*
X004706Y002090D01*
X004731Y002071D01*
X004760Y002059D01*
X004792Y002055D01*
X004823Y002059D01*
X004852Y002071D01*
X004877Y002090D01*
X004897Y002115D01*
X004909Y002145D01*
X004913Y002176D01*
X004909Y002207D01*
X004897Y002237D01*
X004877Y002262D01*
X004858Y002276D01*
Y002330D01*
X004877Y002344D01*
X004897Y002369D01*
X004909Y002399D01*
X004913Y002430D01*
X004909Y002461D01*
X004897Y002491D01*
X004877Y002516D01*
X004852Y002535D01*
X004823Y002547D01*
X004792Y002551D01*
D02*
G37*
G36*
X008856Y002551D02*
X008824Y002547D01*
X008795Y002535D01*
X008770Y002516D01*
X008751Y002491D01*
X008739Y002461D01*
X008739Y002461D01*
X008719D01*
X008719Y002461D01*
X008707Y002491D01*
X008687Y002516D01*
X008662Y002535D01*
X008633Y002547D01*
X008602Y002551D01*
X008570Y002547D01*
X008541Y002535D01*
X008516Y002516D01*
X008497Y002491D01*
X008485Y002461D01*
X008485Y002461D01*
X008465D01*
X008465Y002461D01*
X008453Y002491D01*
X008433Y002516D01*
X008408Y002535D01*
X008379Y002547D01*
X008348Y002551D01*
X008316Y002547D01*
X008287Y002535D01*
X008262Y002516D01*
X008243Y002491D01*
X008231Y002461D01*
X008227Y002430D01*
X008231Y002399D01*
X008243Y002369D01*
X008262Y002344D01*
X008281Y002330D01*
Y002276D01*
X008262Y002262D01*
X008243Y002237D01*
X008231Y002207D01*
X008227Y002176D01*
X008231Y002145D01*
X008243Y002115D01*
X008262Y002090D01*
X008287Y002071D01*
X008316Y002059D01*
X008348Y002055D01*
X008379Y002059D01*
X008408Y002071D01*
X008433Y002090D01*
X008453Y002115D01*
X008465Y002145D01*
X008465Y002145D01*
X008485D01*
X008485Y002145D01*
X008497Y002115D01*
X008516Y002090D01*
X008541Y002071D01*
X008570Y002059D01*
X008602Y002055D01*
X008633Y002059D01*
X008662Y002071D01*
X008687Y002090D01*
X008707Y002115D01*
X008719Y002145D01*
X008719Y002145D01*
X008739D01*
X008739Y002145D01*
X008751Y002115D01*
X008770Y002090D01*
X008795Y002071D01*
X008824Y002059D01*
X008856Y002055D01*
X008887Y002059D01*
X008916Y002071D01*
X008941Y002090D01*
X008961Y002115D01*
X008973Y002145D01*
X008973Y002145D01*
X008993D01*
X008993Y002145D01*
X009005Y002115D01*
X009024Y002090D01*
X009049Y002071D01*
X009078Y002059D01*
X009110Y002055D01*
X009141Y002059D01*
X009170Y002071D01*
X009195Y002090D01*
X009215Y002115D01*
X009227Y002145D01*
X009231Y002176D01*
X009227Y002207D01*
X009215Y002237D01*
X009195Y002262D01*
X009176Y002276D01*
Y002310D01*
X009230D01*
Y002550D01*
X008990D01*
Y002472D01*
X008970Y002468D01*
X008961Y002491D01*
X008941Y002516D01*
X008916Y002535D01*
X008887Y002547D01*
X008856Y002551D01*
D02*
G37*
G36*
X007586D02*
X007554Y002547D01*
X007525Y002535D01*
X007500Y002516D01*
X007481Y002491D01*
X007469Y002461D01*
X007469Y002461D01*
X007449D01*
X007449Y002461D01*
X007437Y002491D01*
X007417Y002516D01*
X007392Y002535D01*
X007363Y002547D01*
X007332Y002551D01*
X007300Y002547D01*
X007271Y002535D01*
X007246Y002516D01*
X007227Y002491D01*
X007215Y002461D01*
X007215Y002461D01*
X007195D01*
X007195Y002461D01*
X007183Y002491D01*
X007163Y002516D01*
X007138Y002535D01*
X007109Y002547D01*
X007078Y002551D01*
X007046Y002547D01*
X007017Y002535D01*
X006992Y002516D01*
X006973Y002491D01*
X006961Y002461D01*
X006961Y002461D01*
X006941D01*
X006941Y002461D01*
X006929Y002491D01*
X006909Y002516D01*
X006884Y002535D01*
X006855Y002547D01*
X006824Y002551D01*
X006792Y002547D01*
X006763Y002535D01*
X006738Y002516D01*
X006719Y002491D01*
X006707Y002461D01*
X006703Y002430D01*
X006707Y002399D01*
X006719Y002369D01*
X006738Y002344D01*
X006763Y002325D01*
X006792Y002313D01*
X006792Y002313D01*
Y002293D01*
X006792Y002293D01*
X006763Y002281D01*
X006738Y002262D01*
X006719Y002237D01*
X006707Y002207D01*
X006703Y002176D01*
X006707Y002145D01*
X006719Y002115D01*
X006738Y002090D01*
X006763Y002071D01*
X006792Y002059D01*
X006824Y002055D01*
X006855Y002059D01*
X006884Y002071D01*
X006909Y002090D01*
X006929Y002115D01*
X006941Y002145D01*
X006941Y002145D01*
X006961D01*
X006961Y002145D01*
X006973Y002115D01*
X006992Y002090D01*
X007017Y002071D01*
X007046Y002059D01*
X007078Y002055D01*
X007109Y002059D01*
X007138Y002071D01*
X007163Y002090D01*
X007183Y002115D01*
X007195Y002145D01*
X007195Y002145D01*
X007215D01*
X007215Y002145D01*
X007227Y002115D01*
X007246Y002090D01*
X007271Y002071D01*
X007300Y002059D01*
X007332Y002055D01*
X007363Y002059D01*
X007392Y002071D01*
X007417Y002090D01*
X007437Y002115D01*
X007449Y002145D01*
X007449Y002145D01*
X007469D01*
X007469Y002145D01*
X007481Y002115D01*
X007500Y002090D01*
X007525Y002071D01*
X007554Y002059D01*
X007586Y002055D01*
X007617Y002059D01*
X007646Y002071D01*
X007671Y002090D01*
X007691Y002115D01*
X007703Y002145D01*
X007707Y002176D01*
X007703Y002207D01*
X007691Y002237D01*
X007671Y002262D01*
X007646Y002281D01*
X007617Y002293D01*
X007617Y002293D01*
Y002313D01*
X007617Y002313D01*
X007646Y002325D01*
X007671Y002344D01*
X007691Y002369D01*
X007703Y002399D01*
X007707Y002430D01*
X007703Y002461D01*
X007691Y002491D01*
X007671Y002516D01*
X007646Y002535D01*
X007617Y002547D01*
X007586Y002551D01*
D02*
G37*
G36*
X005315Y002534D02*
Y002445D01*
X005404D01*
X005402Y002457D01*
X005391Y002483D01*
X005375Y002505D01*
X005353Y002522D01*
X005327Y002532D01*
X005315Y002534D01*
D02*
G37*
G36*
X005285D02*
X005272Y002532D01*
X005247Y002522D01*
X005225Y002505D01*
X005208Y002483D01*
X005197Y002457D01*
X005196Y002445D01*
X005285D01*
Y002534D01*
D02*
G37*
G36*
X005061D02*
Y002445D01*
X005150D01*
X005148Y002457D01*
X005137Y002483D01*
X005121Y002505D01*
X005099Y002522D01*
X005073Y002532D01*
X005061Y002534D01*
D02*
G37*
G36*
X005031D02*
X005018Y002532D01*
X004993Y002522D01*
X004971Y002505D01*
X004954Y002483D01*
X004943Y002457D01*
X004942Y002445D01*
X005031D01*
Y002534D01*
D02*
G37*
G36*
X007855Y002534D02*
Y002445D01*
X007944D01*
X007942Y002457D01*
X007931Y002483D01*
X007915Y002505D01*
X007893Y002522D01*
X007867Y002532D01*
X007855Y002534D01*
D02*
G37*
G36*
X008109D02*
Y002445D01*
X008198D01*
X008196Y002457D01*
X008185Y002483D01*
X008169Y002505D01*
X008147Y002522D01*
X008121Y002532D01*
X008109Y002534D01*
D02*
G37*
G36*
X007825Y002534D02*
X007812Y002532D01*
X007787Y002522D01*
X007765Y002505D01*
X007748Y002483D01*
X007737Y002457D01*
X007736Y002445D01*
X007825D01*
Y002534D01*
D02*
G37*
G36*
X008079D02*
X008066Y002532D01*
X008041Y002522D01*
X008019Y002505D01*
X008002Y002483D01*
X007991Y002457D01*
X007990Y002445D01*
X008079D01*
Y002534D01*
D02*
G37*
G36*
X005404Y002415D02*
X005315D01*
Y002326D01*
X005327Y002328D01*
X005353Y002338D01*
X005375Y002355D01*
X005391Y002377D01*
X005402Y002403D01*
X005404Y002415D01*
D02*
G37*
G36*
X005285D02*
X005196D01*
X005197Y002403D01*
X005208Y002377D01*
X005225Y002355D01*
X005247Y002338D01*
X005272Y002328D01*
X005285Y002326D01*
Y002415D01*
D02*
G37*
G36*
X005150D02*
X005061D01*
Y002326D01*
X005073Y002328D01*
X005099Y002338D01*
X005121Y002355D01*
X005137Y002377D01*
X005148Y002403D01*
X005150Y002415D01*
D02*
G37*
G36*
X005031D02*
X004942D01*
X004943Y002403D01*
X004954Y002377D01*
X004971Y002355D01*
X004993Y002338D01*
X005018Y002328D01*
X005031Y002326D01*
Y002415D01*
D02*
G37*
G36*
X008079Y002415D02*
X007990D01*
X007991Y002403D01*
X008002Y002377D01*
X008019Y002355D01*
X008041Y002338D01*
X008066Y002328D01*
X008079Y002326D01*
Y002415D01*
D02*
G37*
G36*
X007825D02*
X007736D01*
X007737Y002403D01*
X007748Y002377D01*
X007765Y002355D01*
X007787Y002338D01*
X007812Y002328D01*
X007825Y002326D01*
Y002415D01*
D02*
G37*
G36*
X008198D02*
X008109D01*
Y002326D01*
X008121Y002328D01*
X008147Y002338D01*
X008169Y002355D01*
X008185Y002377D01*
X008196Y002403D01*
X008198Y002415D01*
D02*
G37*
G36*
X007944D02*
X007855D01*
Y002326D01*
X007867Y002328D01*
X007893Y002338D01*
X007915Y002355D01*
X007931Y002377D01*
X007942Y002403D01*
X007944Y002415D01*
D02*
G37*
G36*
X005315Y002280D02*
Y002191D01*
X005404D01*
X005402Y002203D01*
X005391Y002229D01*
X005375Y002251D01*
X005353Y002268D01*
X005327Y002278D01*
X005315Y002280D01*
D02*
G37*
G36*
X005285D02*
X005272Y002278D01*
X005247Y002268D01*
X005225Y002251D01*
X005208Y002229D01*
X005197Y002203D01*
X005196Y002191D01*
X005285D01*
Y002280D01*
D02*
G37*
G36*
X005061D02*
Y002191D01*
X005150D01*
X005148Y002203D01*
X005137Y002229D01*
X005121Y002251D01*
X005099Y002268D01*
X005073Y002278D01*
X005061Y002280D01*
D02*
G37*
G36*
X005031D02*
X005018Y002278D01*
X004993Y002268D01*
X004971Y002251D01*
X004954Y002229D01*
X004943Y002203D01*
X004942Y002191D01*
X005031D01*
Y002280D01*
D02*
G37*
G36*
X007855Y002280D02*
Y002191D01*
X007944D01*
X007942Y002203D01*
X007931Y002229D01*
X007915Y002251D01*
X007893Y002268D01*
X007867Y002278D01*
X007855Y002280D01*
D02*
G37*
G36*
X008109D02*
Y002191D01*
X008198D01*
X008196Y002203D01*
X008185Y002229D01*
X008169Y002251D01*
X008147Y002268D01*
X008121Y002278D01*
X008109Y002280D01*
D02*
G37*
G36*
X007825Y002280D02*
X007812Y002278D01*
X007787Y002268D01*
X007765Y002251D01*
X007748Y002229D01*
X007737Y002203D01*
X007736Y002191D01*
X007825D01*
Y002280D01*
D02*
G37*
G36*
X008079D02*
X008066Y002278D01*
X008041Y002268D01*
X008019Y002251D01*
X008002Y002229D01*
X007991Y002203D01*
X007990Y002191D01*
X008079D01*
Y002280D01*
D02*
G37*
G36*
X005404Y002161D02*
X005315D01*
Y002072D01*
X005327Y002074D01*
X005353Y002084D01*
X005375Y002101D01*
X005391Y002123D01*
X005402Y002149D01*
X005404Y002161D01*
D02*
G37*
G36*
X005285D02*
X005196D01*
X005197Y002149D01*
X005208Y002123D01*
X005225Y002101D01*
X005247Y002084D01*
X005272Y002074D01*
X005285Y002072D01*
Y002161D01*
D02*
G37*
G36*
X005150D02*
X005061D01*
Y002072D01*
X005073Y002074D01*
X005099Y002084D01*
X005121Y002101D01*
X005137Y002123D01*
X005148Y002149D01*
X005150Y002161D01*
D02*
G37*
G36*
X005031D02*
X004942D01*
X004943Y002149D01*
X004954Y002123D01*
X004971Y002101D01*
X004993Y002084D01*
X005018Y002074D01*
X005031Y002072D01*
Y002161D01*
D02*
G37*
G36*
X008079Y002161D02*
X007990D01*
X007991Y002149D01*
X008002Y002123D01*
X008019Y002101D01*
X008041Y002084D01*
X008066Y002074D01*
X008079Y002072D01*
Y002161D01*
D02*
G37*
G36*
X007825D02*
X007736D01*
X007737Y002149D01*
X007748Y002123D01*
X007765Y002101D01*
X007787Y002084D01*
X007812Y002074D01*
X007825Y002072D01*
Y002161D01*
D02*
G37*
G36*
X008198D02*
X008109D01*
Y002072D01*
X008121Y002074D01*
X008147Y002084D01*
X008169Y002101D01*
X008185Y002123D01*
X008196Y002149D01*
X008198Y002161D01*
D02*
G37*
G36*
X007944D02*
X007855D01*
Y002072D01*
X007867Y002074D01*
X007893Y002084D01*
X007915Y002101D01*
X007931Y002123D01*
X007942Y002149D01*
X007944Y002161D01*
D02*
G37*
G36*
X009085Y001755D02*
Y001545D01*
X009295D01*
X009292Y001574D01*
X009279Y001617D01*
X009258Y001656D01*
X009230Y001690D01*
X009196Y001718D01*
X009157Y001739D01*
X009114Y001752D01*
X009085Y001755D01*
D02*
G37*
G36*
X009055D02*
X009026Y001752D01*
X008983Y001739D01*
X008944Y001718D01*
X008910Y001690D01*
X008882Y001656D01*
X008861Y001617D01*
X008848Y001574D01*
X008845Y001545D01*
X009055D01*
Y001755D01*
D02*
G37*
G36*
X004085D02*
Y001545D01*
X004295D01*
X004292Y001574D01*
X004279Y001617D01*
X004258Y001656D01*
X004230Y001690D01*
X004196Y001718D01*
X004157Y001739D01*
X004114Y001752D01*
X004085Y001755D01*
D02*
G37*
G36*
X004055D02*
X004026Y001752D01*
X003983Y001739D01*
X003944Y001718D01*
X003910Y001690D01*
X003882Y001656D01*
X003861Y001617D01*
X003848Y001574D01*
X003845Y001545D01*
X004055D01*
Y001755D01*
D02*
G37*
%LPD*%
G36*
X009430Y006800D02*
Y005918D01*
X009376D01*
X009361Y005926D01*
X009341Y005932D01*
X009319D01*
X009299Y005926D01*
X009281Y005916D01*
X009266Y005901D01*
X009255Y005883D01*
X009250Y005862D01*
Y005841D01*
X009255Y005821D01*
X009266Y005803D01*
X009281Y005788D01*
X009299Y005777D01*
X009319Y005772D01*
X009341D01*
X009361Y005777D01*
X009376Y005786D01*
X009430D01*
Y005480D01*
X010090D01*
Y003540D01*
X009358D01*
Y005020D01*
X008890D01*
Y006800D01*
X009430Y006800D01*
D02*
G37*
%LPC*%
G36*
X009047Y006779D02*
Y006705D01*
X009122D01*
X009116Y006725D01*
X009105Y006745D01*
X009088Y006762D01*
X009067Y006774D01*
X009047Y006779D01*
D02*
G37*
G36*
X009018D02*
X008998Y006774D01*
X008977Y006762D01*
X008960Y006745D01*
X008949Y006725D01*
X008943Y006705D01*
X009018D01*
Y006779D01*
D02*
G37*
G36*
X009122Y006675D02*
X009047D01*
Y006601D01*
X009067Y006606D01*
X009088Y006618D01*
X009105Y006635D01*
X009116Y006655D01*
X009122Y006675D01*
D02*
G37*
G36*
X009018D02*
X008943D01*
X008949Y006655D01*
X008960Y006635D01*
X008977Y006618D01*
X008998Y006606D01*
X009018Y006601D01*
Y006675D01*
D02*
G37*
G36*
X009127Y006523D02*
X009041D01*
Y006437D01*
X009127D01*
Y006523D01*
D02*
G37*
G36*
X009011D02*
X008925D01*
Y006437D01*
X009011D01*
Y006523D01*
D02*
G37*
G36*
X009127Y006407D02*
X009041D01*
Y006321D01*
X009127D01*
Y006407D01*
D02*
G37*
G36*
X009011D02*
X008925D01*
Y006321D01*
X009011D01*
Y006407D01*
D02*
G37*
G36*
X009047Y006094D02*
Y006020D01*
X009122D01*
X009116Y006040D01*
X009105Y006060D01*
X009088Y006077D01*
X009067Y006089D01*
X009047Y006094D01*
D02*
G37*
G36*
X009018D02*
X008998Y006089D01*
X008977Y006077D01*
X008960Y006060D01*
X008949Y006040D01*
X008943Y006020D01*
X009018D01*
Y006094D01*
D02*
G37*
G36*
X009122Y005990D02*
X009047D01*
Y005916D01*
X009067Y005921D01*
X009088Y005933D01*
X009105Y005950D01*
X009116Y005970D01*
X009122Y005990D01*
D02*
G37*
G36*
X009018D02*
X008943D01*
X008949Y005970D01*
X008960Y005950D01*
X008977Y005933D01*
X008998Y005921D01*
X009018Y005916D01*
Y005990D01*
D02*
G37*
G36*
X009047Y005727D02*
Y005653D01*
X009122D01*
X009116Y005672D01*
X009105Y005693D01*
X009088Y005710D01*
X009067Y005721D01*
X009047Y005727D01*
D02*
G37*
G36*
X009018D02*
X008998Y005721D01*
X008977Y005710D01*
X008960Y005693D01*
X008949Y005672D01*
X008943Y005653D01*
X009018D01*
Y005727D01*
D02*
G37*
G36*
X009122Y005622D02*
X009047D01*
Y005548D01*
X009067Y005554D01*
X009088Y005565D01*
X009105Y005582D01*
X009116Y005603D01*
X009122Y005622D01*
D02*
G37*
G36*
X009018D02*
X008943D01*
X008949Y005603D01*
X008960Y005582D01*
X008977Y005565D01*
X008998Y005554D01*
X009018Y005548D01*
Y005622D01*
D02*
G37*
G36*
X009772Y005357D02*
Y005283D01*
X009847D01*
X009841Y005302D01*
X009830Y005323D01*
X009813Y005340D01*
X009792Y005351D01*
X009772Y005357D01*
D02*
G37*
G36*
X009743D02*
X009723Y005351D01*
X009702Y005340D01*
X009685Y005323D01*
X009674Y005302D01*
X009668Y005283D01*
X009743D01*
Y005357D01*
D02*
G37*
G36*
X009047D02*
Y005283D01*
X009122D01*
X009116Y005302D01*
X009105Y005323D01*
X009088Y005340D01*
X009067Y005351D01*
X009047Y005357D01*
D02*
G37*
G36*
X009018D02*
X008998Y005351D01*
X008977Y005340D01*
X008960Y005323D01*
X008949Y005302D01*
X008943Y005283D01*
X009018D01*
Y005357D01*
D02*
G37*
G36*
X009847Y005253D02*
X009772D01*
Y005178D01*
X009792Y005184D01*
X009813Y005195D01*
X009830Y005212D01*
X009841Y005233D01*
X009847Y005253D01*
D02*
G37*
G36*
X009743D02*
X009668D01*
X009674Y005233D01*
X009685Y005212D01*
X009702Y005195D01*
X009723Y005184D01*
X009743Y005178D01*
Y005253D01*
D02*
G37*
G36*
X009122D02*
X009047D01*
Y005178D01*
X009067Y005184D01*
X009088Y005195D01*
X009105Y005212D01*
X009116Y005233D01*
X009122Y005253D01*
D02*
G37*
G36*
X009018D02*
X008943D01*
X008949Y005233D01*
X008960Y005212D01*
X008977Y005195D01*
X008998Y005184D01*
X009018Y005178D01*
Y005253D01*
D02*
G37*
G36*
X009771Y004703D02*
X009744D01*
X009717Y004695D01*
X009693Y004682D01*
X009673Y004662D01*
X009660Y004638D01*
X009653Y004611D01*
Y004584D01*
X009660Y004557D01*
X009673Y004533D01*
X009693Y004513D01*
X009717Y004500D01*
X009744Y004492D01*
X009771D01*
X009798Y004500D01*
X009822Y004513D01*
X009842Y004533D01*
X009855Y004557D01*
X009862Y004584D01*
Y004611D01*
X009855Y004638D01*
X009842Y004662D01*
X009822Y004682D01*
X009798Y004695D01*
X009771Y004703D01*
D02*
G37*
G36*
X009772Y004214D02*
Y004140D01*
X009847D01*
X009841Y004160D01*
X009830Y004180D01*
X009813Y004197D01*
X009792Y004209D01*
X009772Y004214D01*
D02*
G37*
G36*
X009743D02*
X009723Y004209D01*
X009702Y004197D01*
X009685Y004180D01*
X009674Y004160D01*
X009668Y004140D01*
X009743D01*
Y004214D01*
D02*
G37*
G36*
X009847Y004110D02*
X009772D01*
Y004036D01*
X009792Y004041D01*
X009813Y004053D01*
X009830Y004070D01*
X009841Y004090D01*
X009847Y004110D01*
D02*
G37*
G36*
X009743D02*
X009668D01*
X009674Y004090D01*
X009685Y004070D01*
X009702Y004053D01*
X009723Y004041D01*
X009743Y004036D01*
Y004110D01*
D02*
G37*
G36*
X010068Y003884D02*
X009907D01*
Y003754D01*
X010068D01*
Y003884D01*
D02*
G37*
G36*
X009857D02*
X009697D01*
Y003754D01*
X009857D01*
Y003884D01*
D02*
G37*
G36*
X010068Y003704D02*
X009907D01*
Y003574D01*
X010068D01*
Y003704D01*
D02*
G37*
G36*
X009857D02*
X009697D01*
Y003574D01*
X009857D01*
Y003704D01*
D02*
G37*
%LPD*%
G36*
X004185Y004971D02*
X004129D01*
Y004870D01*
X004114D01*
Y004855D01*
X004012D01*
Y004769D01*
X004058D01*
Y004520D01*
X003930D01*
Y004395D01*
X004070D01*
Y004370D01*
X004095D01*
Y004220D01*
X004185D01*
Y004140D01*
Y002750D01*
X002740D01*
Y004250D01*
Y005325D01*
X004185D01*
Y004971D01*
D02*
G37*
%LPC*%
G36*
X003685Y005136D02*
Y005062D01*
X003759D01*
X003758Y005071D01*
X003749Y005093D01*
X003734Y005112D01*
X003715Y005126D01*
X003693Y005135D01*
X003685Y005136D01*
D02*
G37*
G36*
X003655D02*
X003647Y005135D01*
X003625Y005126D01*
X003606Y005112D01*
X003591Y005093D01*
X003582Y005071D01*
X003581Y005062D01*
X003655D01*
Y005136D01*
D02*
G37*
G36*
X003035D02*
Y005062D01*
X003109D01*
X003108Y005071D01*
X003099Y005093D01*
X003084Y005112D01*
X003065Y005126D01*
X003043Y005135D01*
X003035Y005136D01*
D02*
G37*
G36*
X003005D02*
X002997Y005135D01*
X002975Y005126D01*
X002956Y005112D01*
X002941Y005093D01*
X002932Y005071D01*
X002931Y005062D01*
X003005D01*
Y005136D01*
D02*
G37*
G36*
X003759Y005033D02*
X003685D01*
Y004959D01*
X003693Y004960D01*
X003715Y004969D01*
X003734Y004983D01*
X003749Y005002D01*
X003758Y005024D01*
X003759Y005033D01*
D02*
G37*
G36*
X003655D02*
X003581D01*
X003582Y005024D01*
X003591Y005002D01*
X003606Y004983D01*
X003625Y004969D01*
X003647Y004960D01*
X003655Y004959D01*
Y005033D01*
D02*
G37*
G36*
X003109D02*
X003035D01*
Y004959D01*
X003043Y004960D01*
X003065Y004969D01*
X003084Y004983D01*
X003099Y005002D01*
X003108Y005024D01*
X003109Y005033D01*
D02*
G37*
G36*
X003005D02*
X002931D01*
X002932Y005024D01*
X002941Y005002D01*
X002956Y004983D01*
X002975Y004969D01*
X002997Y004960D01*
X003005Y004959D01*
Y005033D01*
D02*
G37*
G36*
X004099Y004971D02*
X004012D01*
Y004885D01*
X004099D01*
Y004971D01*
D02*
G37*
G36*
X003685Y004769D02*
Y004695D01*
X003759D01*
X003758Y004703D01*
X003749Y004725D01*
X003734Y004744D01*
X003715Y004759D01*
X003693Y004768D01*
X003685Y004769D01*
D02*
G37*
G36*
X003655D02*
X003647Y004768D01*
X003625Y004759D01*
X003606Y004744D01*
X003591Y004725D01*
X003582Y004703D01*
X003581Y004695D01*
X003655D01*
Y004769D01*
D02*
G37*
G36*
X003035D02*
Y004695D01*
X003109D01*
X003108Y004703D01*
X003099Y004725D01*
X003084Y004744D01*
X003065Y004759D01*
X003043Y004768D01*
X003035Y004769D01*
D02*
G37*
G36*
X003005D02*
X002997Y004768D01*
X002975Y004759D01*
X002956Y004744D01*
X002941Y004725D01*
X002932Y004703D01*
X002931Y004695D01*
X003005D01*
Y004769D01*
D02*
G37*
G36*
X003759Y004665D02*
X003685D01*
Y004591D01*
X003693Y004592D01*
X003715Y004601D01*
X003734Y004616D01*
X003749Y004635D01*
X003758Y004657D01*
X003759Y004665D01*
D02*
G37*
G36*
X003655D02*
X003581D01*
X003582Y004657D01*
X003591Y004635D01*
X003606Y004616D01*
X003625Y004601D01*
X003647Y004592D01*
X003655Y004591D01*
Y004665D01*
D02*
G37*
G36*
X003109D02*
X003035D01*
Y004591D01*
X003043Y004592D01*
X003065Y004601D01*
X003084Y004616D01*
X003099Y004635D01*
X003108Y004657D01*
X003109Y004665D01*
D02*
G37*
G36*
X003005D02*
X002931D01*
X002932Y004657D01*
X002941Y004635D01*
X002956Y004616D01*
X002975Y004601D01*
X002997Y004592D01*
X003005Y004591D01*
Y004665D01*
D02*
G37*
G36*
X003685Y004399D02*
Y004325D01*
X003759D01*
X003758Y004333D01*
X003749Y004355D01*
X003734Y004374D01*
X003715Y004389D01*
X003693Y004398D01*
X003685Y004399D01*
D02*
G37*
G36*
X003655D02*
X003647Y004398D01*
X003625Y004389D01*
X003606Y004374D01*
X003591Y004355D01*
X003582Y004333D01*
X003581Y004325D01*
X003655D01*
Y004399D01*
D02*
G37*
G36*
X003035D02*
Y004325D01*
X003109D01*
X003108Y004333D01*
X003099Y004355D01*
X003084Y004374D01*
X003065Y004389D01*
X003043Y004398D01*
X003035Y004399D01*
D02*
G37*
G36*
X003005D02*
X002997Y004398D01*
X002975Y004389D01*
X002956Y004374D01*
X002941Y004355D01*
X002932Y004333D01*
X002931Y004325D01*
X003005D01*
Y004399D01*
D02*
G37*
G36*
X003759Y004295D02*
X003685D01*
Y004221D01*
X003693Y004222D01*
X003715Y004231D01*
X003734Y004246D01*
X003749Y004265D01*
X003758Y004287D01*
X003759Y004295D01*
D02*
G37*
G36*
X003655D02*
X003581D01*
X003582Y004287D01*
X003591Y004265D01*
X003606Y004246D01*
X003625Y004231D01*
X003647Y004222D01*
X003655Y004221D01*
Y004295D01*
D02*
G37*
G36*
X003109D02*
X003035D01*
Y004221D01*
X003043Y004222D01*
X003065Y004231D01*
X003084Y004246D01*
X003099Y004265D01*
X003108Y004287D01*
X003109Y004295D01*
D02*
G37*
G36*
X003005D02*
X002931D01*
X002932Y004287D01*
X002941Y004265D01*
X002956Y004246D01*
X002975Y004231D01*
X002997Y004222D01*
X003005Y004221D01*
Y004295D01*
D02*
G37*
G36*
X004045Y004345D02*
X003930D01*
Y004220D01*
X004045D01*
Y004345D01*
D02*
G37*
G36*
X004015Y003806D02*
Y003733D01*
X004089D01*
X004088Y003741D01*
X004079Y003763D01*
X004064Y003782D01*
X004045Y003796D01*
X004023Y003805D01*
X004015Y003806D01*
D02*
G37*
G36*
X003985D02*
X003977Y003805D01*
X003955Y003796D01*
X003936Y003782D01*
X003921Y003763D01*
X003912Y003741D01*
X003911Y003733D01*
X003985D01*
Y003806D01*
D02*
G37*
G36*
X003685D02*
Y003733D01*
X003759D01*
X003758Y003741D01*
X003749Y003763D01*
X003734Y003782D01*
X003715Y003796D01*
X003693Y003805D01*
X003685Y003806D01*
D02*
G37*
G36*
X003655D02*
X003647Y003805D01*
X003625Y003796D01*
X003606Y003782D01*
X003591Y003763D01*
X003582Y003741D01*
X003581Y003733D01*
X003655D01*
Y003806D01*
D02*
G37*
G36*
X004089Y003703D02*
X004015D01*
Y003629D01*
X004023Y003630D01*
X004045Y003639D01*
X004064Y003653D01*
X004079Y003672D01*
X004088Y003694D01*
X004089Y003703D01*
D02*
G37*
G36*
X003985D02*
X003911D01*
X003912Y003694D01*
X003921Y003672D01*
X003936Y003653D01*
X003955Y003639D01*
X003977Y003630D01*
X003985Y003629D01*
Y003703D01*
D02*
G37*
G36*
X003759D02*
X003685D01*
Y003629D01*
X003693Y003630D01*
X003715Y003639D01*
X003734Y003653D01*
X003749Y003672D01*
X003758Y003694D01*
X003759Y003703D01*
D02*
G37*
G36*
X003655D02*
X003581D01*
X003582Y003694D01*
X003591Y003672D01*
X003606Y003653D01*
X003625Y003639D01*
X003647Y003630D01*
X003655Y003629D01*
Y003703D01*
D02*
G37*
G36*
X003433Y003890D02*
X003033D01*
Y003550D01*
X003433D01*
Y003890D01*
D02*
G37*
G36*
X004015Y003439D02*
Y003365D01*
X004089D01*
X004088Y003373D01*
X004079Y003395D01*
X004064Y003414D01*
X004045Y003429D01*
X004023Y003438D01*
X004015Y003439D01*
D02*
G37*
G36*
X003985D02*
X003977Y003438D01*
X003955Y003429D01*
X003936Y003414D01*
X003921Y003395D01*
X003912Y003373D01*
X003911Y003365D01*
X003985D01*
Y003439D01*
D02*
G37*
G36*
X003685D02*
Y003365D01*
X003759D01*
X003758Y003373D01*
X003749Y003395D01*
X003734Y003414D01*
X003715Y003429D01*
X003693Y003438D01*
X003685Y003439D01*
D02*
G37*
G36*
X003655D02*
X003647Y003438D01*
X003625Y003429D01*
X003606Y003414D01*
X003591Y003395D01*
X003582Y003373D01*
X003581Y003365D01*
X003655D01*
Y003439D01*
D02*
G37*
G36*
X004089Y003335D02*
X004015D01*
Y003261D01*
X004023Y003262D01*
X004045Y003271D01*
X004064Y003286D01*
X004079Y003305D01*
X004088Y003327D01*
X004089Y003335D01*
D02*
G37*
G36*
X003985D02*
X003911D01*
X003912Y003327D01*
X003921Y003305D01*
X003936Y003286D01*
X003955Y003271D01*
X003977Y003262D01*
X003985Y003261D01*
Y003335D01*
D02*
G37*
G36*
X003759D02*
X003685D01*
Y003261D01*
X003693Y003262D01*
X003715Y003271D01*
X003734Y003286D01*
X003749Y003305D01*
X003758Y003327D01*
X003759Y003335D01*
D02*
G37*
G36*
X003655D02*
X003581D01*
X003582Y003327D01*
X003591Y003305D01*
X003606Y003286D01*
X003625Y003271D01*
X003647Y003262D01*
X003655Y003261D01*
Y003335D01*
D02*
G37*
G36*
X004015Y003069D02*
Y002995D01*
X004089D01*
X004088Y003003D01*
X004079Y003025D01*
X004064Y003044D01*
X004045Y003059D01*
X004023Y003068D01*
X004015Y003069D01*
D02*
G37*
G36*
X003985D02*
X003977Y003068D01*
X003955Y003059D01*
X003936Y003044D01*
X003921Y003025D01*
X003912Y003003D01*
X003911Y002995D01*
X003985D01*
Y003069D01*
D02*
G37*
G36*
X003685D02*
Y002995D01*
X003759D01*
X003758Y003003D01*
X003749Y003025D01*
X003734Y003044D01*
X003715Y003059D01*
X003693Y003068D01*
X003685Y003069D01*
D02*
G37*
G36*
X003655D02*
X003647Y003068D01*
X003625Y003059D01*
X003606Y003044D01*
X003591Y003025D01*
X003582Y003003D01*
X003581Y002995D01*
X003655D01*
Y003069D01*
D02*
G37*
G36*
X003417Y003113D02*
X003258D01*
Y002983D01*
X003417D01*
Y003113D01*
D02*
G37*
G36*
X003208D02*
X003048D01*
Y002983D01*
X003208D01*
Y003113D01*
D02*
G37*
G36*
X004089Y002965D02*
X004015D01*
Y002891D01*
X004023Y002892D01*
X004045Y002901D01*
X004064Y002916D01*
X004079Y002935D01*
X004088Y002957D01*
X004089Y002965D01*
D02*
G37*
G36*
X003985D02*
X003911D01*
X003912Y002957D01*
X003921Y002935D01*
X003936Y002916D01*
X003955Y002901D01*
X003977Y002892D01*
X003985Y002891D01*
Y002965D01*
D02*
G37*
G36*
X003759D02*
X003685D01*
Y002891D01*
X003693Y002892D01*
X003715Y002901D01*
X003734Y002916D01*
X003749Y002935D01*
X003758Y002957D01*
X003759Y002965D01*
D02*
G37*
G36*
X003655D02*
X003581D01*
X003582Y002957D01*
X003591Y002935D01*
X003606Y002916D01*
X003625Y002901D01*
X003647Y002892D01*
X003655Y002891D01*
Y002965D01*
D02*
G37*
G36*
X003417Y002933D02*
X003258D01*
Y002803D01*
X003417D01*
Y002933D01*
D02*
G37*
G36*
X003208D02*
X003048D01*
Y002803D01*
X003208D01*
Y002933D01*
D02*
G37*
%LPD*%
D11*
X004114Y004414D02*
Y004870D01*
X004070Y004370D02*
X004114Y004414D01*
D33*
X007176Y007430D02*
G03*
X006916Y007280I000000J-000300D01*
G01*
X008070Y001530D02*
G03*
X007770Y001830I-000300J000000D01*
G01*
X003994Y007430D02*
G03*
X003782Y007342I000000J-000300D01*
G01*
X006224Y007280D02*
G03*
X006916Y007280I000346J000200D01*
G01*
X003782Y001318D02*
G03*
X003994Y001230I000212J000212D01*
G01*
X010870Y005706D02*
G03*
X010782Y005918I-000300J000000D01*
G01*
X009358Y007342D02*
G03*
X009146Y007430I-000212J-000212D01*
G01*
X006224Y007280D02*
G03*
X005964Y007430I-000260J-000150D01*
G01*
X005370Y001830D02*
G03*
X005070Y001530I000000J-000300D01*
G01*
X002358Y005918D02*
G03*
X002270Y005706I000212J-000212D01*
G01*
X010782Y002742D02*
G03*
X010870Y002954I-000212J000212D01*
G01*
X009146Y001230D02*
G03*
X009358Y001318I000000J000300D01*
G01*
X008070Y001530D02*
G03*
X008370Y001230I000300J000000D01*
G01*
X004770D02*
G03*
X005070Y001530I000000J000300D01*
G01*
X002270Y002954D02*
G03*
X002358Y002742I000300J000000D01*
G01*
X006100Y004130D02*
X007000Y003230D01*
X006100Y004130D02*
Y005424D01*
X007000Y003230D02*
X010217D01*
X005130Y006394D02*
X006100Y005424D01*
X008910Y003720D02*
Y004640D01*
X009200Y003430D02*
X010160D01*
X008910Y003720D02*
X009200Y003430D01*
X008652Y004898D02*
X008910Y004640D01*
X008010Y004898D02*
X008652D01*
X010358Y003628D02*
X010416D01*
X010160Y003430D02*
X010358Y003628D01*
X010416D02*
X010418Y003630D01*
X007800Y004370D02*
Y004410D01*
X010217Y003230D02*
X010418Y003430D01*
X005352Y006860D02*
Y006900D01*
X010871Y002962D02*
Y005713D01*
X003994Y007430D02*
X005964D01*
X002358Y005918D02*
X003782Y007342D01*
X002358Y002742D02*
X003782Y001318D01*
X007176Y007430D02*
X009146D01*
X005370Y001830D02*
X007770D01*
X008370Y001230D02*
X009146D01*
X009358Y007342D02*
X010782Y005918D01*
X009358Y001318D02*
X010782Y002742D01*
X003994Y001230D02*
X004770D01*
X002270Y002954D02*
Y005706D01*
D34*
X005631Y007180D02*
D03*
X005441D02*
D03*
X007521Y004080D02*
D03*
X007711D02*
D03*
X007809Y007200D02*
D03*
X007619D02*
D03*
D35*
X005720Y006900D02*
D03*
X005352D02*
D03*
X007432Y004370D02*
D03*
X007800D02*
D03*
X005560Y004380D02*
D03*
X005192D02*
D03*
X007898Y006900D02*
D03*
X007530D02*
D03*
D36*
X004640Y004370D02*
D03*
X004070D02*
D03*
D37*
X009600Y006422D02*
D03*
Y005852D02*
D03*
D38*
X008462Y003727D02*
D03*
Y002965D02*
D03*
X009882Y003729D02*
D03*
Y002967D02*
D03*
X004653Y002960D02*
D03*
Y003722D02*
D03*
X003233Y002958D02*
D03*
Y003720D02*
D03*
D39*
X007711Y004080D02*
Y004241D01*
X007765Y004295D01*
X007521Y004080D02*
Y004241D01*
X007432Y004330D02*
X007521Y004241D01*
X007809Y007029D02*
X007898Y006940D01*
X007809Y007029D02*
Y007200D01*
X007898Y006900D02*
Y006940D01*
X007530D02*
X007619Y007029D01*
X007530Y006900D02*
Y006940D01*
X007619Y007029D02*
Y007200D01*
X005720Y006900D02*
Y006940D01*
X005631Y007029D02*
Y007180D01*
Y007029D02*
X005720Y006940D01*
X005352D02*
X005441Y007029D01*
X005352Y006900D02*
Y006940D01*
X005441Y007029D02*
Y007180D01*
X007432Y004330D02*
Y004370D01*
X007800Y004410D02*
X008010Y004620D01*
Y004898D01*
X010418Y003630D02*
X010618D01*
X010418Y003430D02*
X010618D01*
X009872Y005852D02*
X009880Y005860D01*
X009872Y005852D02*
X009880D01*
X009600D02*
X009872D01*
X005680Y004870D02*
X005892D01*
X005560Y004750D02*
X005680Y004870D01*
X005560Y004380D02*
Y004750D01*
X007248Y004594D02*
X007432Y004410D01*
Y004370D02*
Y004410D01*
X007248Y004594D02*
Y004898D01*
X005720Y006860D02*
Y006900D01*
X005892Y006394D02*
Y006688D01*
X005720Y006860D02*
X005892Y006688D01*
X005130Y006638D02*
X005352Y006860D01*
X005130Y006394D02*
Y006638D01*
X007248Y006828D02*
X007320Y006900D01*
X007530D01*
X008180D02*
X008264Y006816D01*
X007898Y006900D02*
X008180D01*
X009110Y002176D02*
Y002430D01*
X008856Y002176D02*
Y002430D01*
X008602Y002176D02*
Y002430D01*
X008348Y002176D02*
Y002430D01*
X004792Y002176D02*
Y002430D01*
X004538Y002176D02*
Y002430D01*
X004284Y002176D02*
Y002430D01*
X004030Y002176D02*
Y002430D01*
X009026Y006422D02*
X009600D01*
X009330Y005852D02*
X009600D01*
X004519Y004861D02*
X004640Y004740D01*
Y004370D02*
Y004740D01*
X004376Y004861D02*
X004519D01*
X004368Y004870D02*
X004376Y004861D01*
X005072Y004870D02*
X005192Y004750D01*
X004876Y004870D02*
X005072D01*
X005192Y004380D02*
Y004750D01*
X010418Y003830D02*
X010618D01*
X010418Y004030D02*
X010618D01*
X010418Y004630D02*
X010618D01*
X010418Y004830D02*
X010618D01*
X010418Y005030D02*
X010618D01*
X010418Y004430D02*
X010618D01*
X010418Y004230D02*
X010618D01*
X008264Y006422D02*
Y006816D01*
X007248Y006422D02*
Y006828D01*
D40*
X007765Y004295D02*
X007800Y004330D01*
Y004370D01*
D41*
X007882Y003727D02*
X008462D01*
X007884Y002962D02*
X008460D01*
X004653Y002960D02*
X005253D01*
X004653Y003722D02*
X005253D01*
D42*
X004114Y004870D02*
D03*
X009026Y006422D02*
D03*
D43*
X004368Y004870D02*
D03*
X004876D02*
D03*
X005892D02*
D03*
Y006394D02*
D03*
X005130D02*
D03*
X004114D02*
D03*
X008772Y006422D02*
D03*
X008264D02*
D03*
X007248D02*
D03*
Y004898D02*
D03*
X008010D02*
D03*
X009026D02*
D03*
D44*
X010618Y003430D02*
D03*
X010418D02*
D03*
X010618Y003630D02*
D03*
X010418D02*
D03*
X010618Y003830D02*
D03*
X010418D02*
D03*
X010618Y004030D02*
D03*
X010418D02*
D03*
Y005230D02*
D03*
X010618D02*
D03*
X010418Y005030D02*
D03*
X010618D02*
D03*
X010418Y004830D02*
D03*
X010618D02*
D03*
X010418Y004630D02*
D03*
X010618D02*
D03*
X010418Y004430D02*
D03*
X010618D02*
D03*
X010418Y004230D02*
D03*
X010618D02*
D03*
D45*
X006316Y002176D02*
D03*
Y002430D02*
D03*
X005554D02*
D03*
X006062Y002176D02*
D03*
Y002430D02*
D03*
X005808Y002176D02*
D03*
Y002430D02*
D03*
X005554Y002176D02*
D03*
X004792Y002430D02*
D03*
X005300Y002176D02*
D03*
Y002430D02*
D03*
X005046Y002176D02*
D03*
Y002430D02*
D03*
X004792Y002176D02*
D03*
X004030Y002430D02*
D03*
X004284Y002176D02*
D03*
Y002430D02*
D03*
X004538Y002176D02*
D03*
Y002430D02*
D03*
X006824Y002430D02*
D03*
Y002176D02*
D03*
X007586D02*
D03*
X007078Y002430D02*
D03*
Y002176D02*
D03*
X007332Y002430D02*
D03*
Y002176D02*
D03*
X007586Y002430D02*
D03*
X008348Y002176D02*
D03*
X007840Y002430D02*
D03*
Y002176D02*
D03*
X008094Y002430D02*
D03*
Y002176D02*
D03*
X008348Y002430D02*
D03*
X009110Y002176D02*
D03*
X008856Y002430D02*
D03*
Y002176D02*
D03*
X008602Y002430D02*
D03*
Y002176D02*
D03*
D46*
X004030Y002176D02*
D03*
X009110Y002430D02*
D03*
D47*
X006993Y003727D02*
D03*
X007882D02*
D03*
X006142Y002960D02*
D03*
X005253D02*
D03*
Y003722D02*
D03*
X006142D02*
D03*
X006993Y002965D02*
D03*
X007882D02*
D03*
D48*
X003020Y004680D02*
D03*
Y005047D02*
D03*
Y004310D02*
D03*
X003670Y004680D02*
D03*
Y005047D02*
D03*
Y004310D02*
D03*
X004000Y002980D02*
D03*
Y003717D02*
D03*
Y003350D02*
D03*
X003670Y002980D02*
D03*
Y003717D02*
D03*
Y003350D02*
D03*
X009757Y005267D02*
D03*
X009032Y006690D02*
D03*
X009757Y004597D02*
D03*
X009032Y005638D02*
D03*
Y006005D02*
D03*
Y005267D02*
D03*
X009757Y004125D02*
D03*
D49*
X009880Y006450D02*
D03*
Y005852D02*
D03*
X009330D02*
D03*
D50*
X006570Y004330D02*
D03*
D51*
X009070Y007130D02*
D03*
X004070D02*
D03*
X009070Y001530D02*
D03*
X004070D02*
D03*
D52*
X008143Y003732D02*
D03*
Y002970D02*
D03*
X004983Y003722D02*
D03*
Y002960D02*
D03*
M02*
