G04*
G04 #@! TF.GenerationSoftware,Altium Limited,Altium Designer,22.1.2 (22)*
G04*
G04 Layer_Physical_Order=4*
G04 Layer_Color=16737819*
%FSAX42Y42*%
%MOMM*%
G71*
G04*
G04 #@! TF.SameCoordinates,E4BEF061-03AA-43A3-B299-508BB52D99EE*
G04*
G04*
G04 #@! TF.FilePolarity,Positive*
G04*
G01*
G75*
%ADD11C,0.30*%
%ADD33C,1.00*%
%ADD34R,0.80X1.30*%
%ADD39C,0.50*%
%ADD42R,1.52X1.52*%
%ADD43C,1.52*%
%ADD44C,1.10*%
%ADD45C,1.60*%
%ADD46R,1.60X1.60*%
%ADD47C,2.60*%
%ADD48C,1.30*%
%ADD49C,0.80*%
%ADD50C,6.00*%
%ADD51C,4.00*%
%ADD52C,0.60*%
%ADD68R,1.30X0.80*%
%ADD69R,1.63X0.81*%
%ADD70R,1.50X0.50*%
%ADD71C,0.75*%
G36*
X008925Y007302D02*
X008910Y007290D01*
X008882Y007256D01*
X008861Y007217D01*
X008848Y007174D01*
X008845Y007145D01*
X009295D01*
X009292Y007174D01*
X009279Y007217D01*
X009266Y007240D01*
X009291Y007276D01*
X009303Y007274D01*
X009324Y007252D01*
X010692Y005884D01*
X010720Y005856D01*
X010745Y005827D01*
X010747Y005825D01*
X010766Y005788D01*
X010778Y005749D01*
X010778Y005747D01*
X010782Y005708D01*
X010785Y005685D01*
X010794Y005663D01*
X010808Y005644D01*
X010827Y005630D01*
X010849Y005621D01*
X010872Y005617D01*
Y005311D01*
X010833D01*
X010816Y005318D01*
X010793Y005321D01*
X010647D01*
X010643Y005323D01*
X010640Y005323D01*
X010601Y005330D01*
X010598Y005352D01*
X010590Y005372D01*
X010577Y005389D01*
X010559Y005402D01*
X010539Y005411D01*
X010518Y005414D01*
X010496Y005411D01*
X010476Y005402D01*
X010459Y005389D01*
X010446Y005372D01*
X010437Y005352D01*
X010435Y005330D01*
X010395Y005323D01*
X010393Y005323D01*
X010389Y005321D01*
X010161D01*
X010161Y005475D01*
X010158Y005491D01*
X010149Y005504D01*
X010136Y005513D01*
X010120Y005516D01*
X009112Y005516D01*
X009098Y005556D01*
X009107Y005563D01*
X009124Y005585D01*
X009135Y005610D01*
X009138Y005638D01*
X009135Y005665D01*
X009124Y005690D01*
X009107Y005712D01*
X009085Y005729D01*
X009060Y005740D01*
X009032Y005743D01*
X009008Y005740D01*
X009004Y005741D01*
X008968Y005768D01*
Y005875D01*
X009004Y005902D01*
X009008Y005902D01*
X009032Y005899D01*
X009060Y005903D01*
X009085Y005913D01*
X009107Y005930D01*
X009124Y005952D01*
X009135Y005978D01*
X009138Y006005D01*
X009135Y006032D01*
X009124Y006058D01*
X009107Y006080D01*
X009085Y006097D01*
X009060Y006107D01*
X009032Y006111D01*
X009008Y006108D01*
X009004Y006108D01*
X008968Y006135D01*
X008968Y006306D01*
X009142D01*
Y006374D01*
X009201D01*
X009225Y006350D01*
Y006320D01*
X009225Y006310D01*
Y006160D01*
X009274D01*
Y005910D01*
X009273Y005909D01*
X009260Y005892D01*
X009252Y005873D01*
X009249Y005852D01*
X009252Y005831D01*
X009260Y005812D01*
X009273Y005795D01*
X009290Y005782D01*
X009309Y005774D01*
X009330Y005771D01*
X009351Y005774D01*
X009370Y005782D01*
X009387Y005795D01*
X009400Y005812D01*
X009408Y005831D01*
X009411Y005852D01*
X009408Y005873D01*
X009400Y005892D01*
X009387Y005909D01*
X009386Y005910D01*
Y006160D01*
X009435D01*
Y006310D01*
X009435Y006320D01*
Y006350D01*
X009435Y006360D01*
Y006510D01*
X009225D01*
Y006486D01*
X009142D01*
Y006538D01*
X009006D01*
X009003Y006548D01*
X009032Y006584D01*
X009060Y006588D01*
X009085Y006598D01*
X009107Y006615D01*
X009124Y006637D01*
X009135Y006663D01*
X009138Y006690D01*
X009135Y006717D01*
X009124Y006743D01*
X009107Y006765D01*
X009085Y006782D01*
X009060Y006792D01*
X009032Y006796D01*
X009008Y006793D01*
X009004Y006793D01*
X008968Y006820D01*
Y006885D01*
X008968Y006886D01*
X009008Y006914D01*
X009026Y006908D01*
X009055Y006905D01*
Y007115D01*
X008845D01*
X008848Y007086D01*
X008861Y007043D01*
X008879Y007011D01*
X008865Y006971D01*
X008607Y006971D01*
X007390Y006971D01*
X007374Y006968D01*
X007361Y006959D01*
X007352Y006946D01*
X007349Y006930D01*
Y006520D01*
X007344Y006516D01*
X007309Y006502D01*
X007299Y006510D01*
X007274Y006521D01*
X007263Y006522D01*
Y006422D01*
Y006322D01*
X007274Y006323D01*
X007299Y006334D01*
X007309Y006342D01*
X007344Y006328D01*
X007349Y006324D01*
X007349Y005339D01*
X007321Y005311D01*
X004689Y005311D01*
X004674Y005308D01*
X004660Y005299D01*
X004660Y005299D01*
X004646Y005285D01*
X004637Y005271D01*
X004634Y005256D01*
X004634Y005256D01*
Y004585D01*
X004637Y004569D01*
X004646Y004556D01*
X004659Y004547D01*
X004675Y004544D01*
X005182D01*
X005220Y004540D01*
Y004540D01*
X005380D01*
Y004709D01*
X005425D01*
Y004670D01*
X005555D01*
Y004709D01*
X005628D01*
X005633Y004710D01*
X005638Y004710D01*
X005641Y004712D01*
X005644Y004712D01*
X005648Y004715D01*
X005652Y004717D01*
X005769Y004801D01*
X005803Y004819D01*
X005819Y004798D01*
X005841Y004782D01*
X005865Y004771D01*
X005877Y004770D01*
Y004870D01*
X005907D01*
Y004764D01*
X005912Y004763D01*
X005913Y004755D01*
X005915Y004748D01*
X005920Y004735D01*
X005920Y004734D01*
X005920Y004734D01*
X005925Y004728D01*
X005929Y004721D01*
X005929Y004721D01*
X005929Y004721D01*
X005936Y004717D01*
X005942Y004712D01*
X005942Y004712D01*
X005942Y004712D01*
X005950Y004711D01*
X005958Y004709D01*
X005958Y004709D01*
X005958Y004709D01*
X006544D01*
X006546Y004669D01*
X006516Y004667D01*
X006464Y004654D01*
X006415Y004634D01*
X006369Y004606D01*
X006329Y004571D01*
X006294Y004531D01*
X006266Y004485D01*
X006245Y004435D01*
X006233Y004383D01*
X006229Y004330D01*
X006233Y004277D01*
X006245Y004225D01*
X006266Y004175D01*
X006294Y004130D01*
X006329Y004089D01*
X006369Y004054D01*
X006415Y004026D01*
X006464Y004006D01*
X006516Y003993D01*
X006570Y003989D01*
X006623Y003993D01*
X006675Y004006D01*
X006725Y004026D01*
X006770Y004054D01*
X006811Y004089D01*
X006846Y004130D01*
X006874Y004175D01*
X006894Y004225D01*
X006907Y004277D01*
X006911Y004330D01*
X006907Y004383D01*
X006894Y004435D01*
X006874Y004485D01*
X006846Y004531D01*
X006811Y004571D01*
X006770Y004606D01*
X006725Y004634D01*
X006675Y004654D01*
X006623Y004667D01*
X006594Y004669D01*
X006595Y004709D01*
X007740D01*
X007756Y004712D01*
X007767Y004720D01*
X007779Y004712D01*
X007795Y004709D01*
X009692D01*
X009703Y004669D01*
X009693Y004662D01*
X009679Y004643D01*
X009670Y004621D01*
X009669Y004612D01*
X009846D01*
X009845Y004621D01*
X009836Y004643D01*
X009822Y004662D01*
X009812Y004669D01*
X009823Y004709D01*
X010102D01*
X010124Y004701D01*
X010137Y004672D01*
Y004655D01*
X010243D01*
Y004630D01*
X010268D01*
Y004565D01*
X010341D01*
X010360Y004552D01*
X010360Y004546D01*
X010349Y004511D01*
X010122D01*
Y004436D01*
X009340D01*
X009315Y004431D01*
X009293Y004417D01*
X008993Y004116D01*
X007740D01*
X007715Y004111D01*
X007693Y004097D01*
X006963Y003366D01*
X006030D01*
X006005Y003361D01*
X005983Y003347D01*
X005761Y003125D01*
X005746Y003103D01*
X005741Y003078D01*
Y002530D01*
X005722Y002516D01*
X005707Y002496D01*
X005654D01*
X005639Y002516D01*
X005614Y002535D01*
X005585Y002547D01*
X005554Y002551D01*
X005522Y002547D01*
X005493Y002535D01*
X005468Y002516D01*
X005449Y002491D01*
X005439Y002467D01*
X005436Y002466D01*
X005418Y002464D01*
X005398Y002468D01*
X005391Y002483D01*
X005375Y002505D01*
X005353Y002522D01*
X005327Y002532D01*
X005315Y002534D01*
Y002430D01*
Y002326D01*
X005327Y002328D01*
X005353Y002338D01*
X005375Y002355D01*
X005391Y002377D01*
X005398Y002392D01*
X005418Y002396D01*
X005436Y002394D01*
X005439Y002393D01*
X005449Y002369D01*
X005468Y002344D01*
X005487Y002330D01*
Y002276D01*
X005468Y002262D01*
X005449Y002237D01*
X005439Y002213D01*
X005436Y002212D01*
X005418Y002210D01*
X005398Y002214D01*
X005391Y002229D01*
X005375Y002251D01*
X005353Y002268D01*
X005327Y002278D01*
X005315Y002280D01*
Y002176D01*
Y002072D01*
X005327Y002074D01*
X005353Y002084D01*
X005375Y002101D01*
X005391Y002123D01*
X005398Y002138D01*
X005418Y002142D01*
X005436Y002140D01*
X005439Y002139D01*
X005449Y002115D01*
X005468Y002090D01*
X005493Y002071D01*
X005522Y002059D01*
X005554Y002055D01*
X005585Y002059D01*
X005614Y002071D01*
X005639Y002090D01*
X005654Y002110D01*
X005707D01*
X005722Y002090D01*
X005747Y002071D01*
X005776Y002059D01*
X005808Y002055D01*
X005839Y002059D01*
X005868Y002071D01*
X005893Y002090D01*
X005913Y002115D01*
X005913Y002117D01*
X005956D01*
X005957Y002115D01*
X005976Y002090D01*
X006001Y002071D01*
X006030Y002059D01*
X006062Y002055D01*
X006093Y002059D01*
X006122Y002071D01*
X006147Y002090D01*
X006162Y002110D01*
X006215D01*
X006230Y002090D01*
X006255Y002071D01*
X006284Y002059D01*
X006316Y002055D01*
X006347Y002059D01*
X006376Y002071D01*
X006401Y002090D01*
X006421Y002115D01*
X006433Y002145D01*
X006437Y002176D01*
X006433Y002207D01*
X006421Y002237D01*
X006401Y002262D01*
X006382Y002276D01*
Y002330D01*
X006401Y002344D01*
X006421Y002369D01*
X006433Y002399D01*
X006437Y002430D01*
X006433Y002461D01*
X006421Y002491D01*
X006401Y002516D01*
X006376Y002535D01*
X006347Y002547D01*
X006316Y002551D01*
X006284Y002547D01*
X006255Y002535D01*
X006230Y002516D01*
X006215Y002496D01*
X006162D01*
X006147Y002516D01*
X006122Y002535D01*
X006093Y002547D01*
X006062Y002551D01*
X006038Y002548D01*
X005966Y002619D01*
Y002845D01*
X005978Y002852D01*
X006006Y002858D01*
X006021Y002839D01*
X006047Y002818D01*
X006077Y002802D01*
X006109Y002792D01*
X006142Y002789D01*
X006176Y002792D01*
X006208Y002802D01*
X006237Y002818D01*
X006263Y002839D01*
X006284Y002865D01*
X006300Y002895D01*
X006310Y002927D01*
X006313Y002960D01*
X006310Y002993D01*
X006300Y003025D01*
X006284Y003055D01*
X006263Y003081D01*
X006237Y003102D01*
X006234Y003104D01*
X006244Y003144D01*
X006882D01*
X006893Y003117D01*
X006894Y003104D01*
X006872Y003085D01*
X006850Y003060D01*
X006835Y003030D01*
X006825Y002998D01*
X006822Y002965D01*
X006825Y002931D01*
X006835Y002899D01*
X006850Y002870D01*
X006872Y002844D01*
X006898Y002823D01*
X006927Y002807D01*
X006959Y002797D01*
X006993Y002794D01*
X007026Y002797D01*
X007058Y002807D01*
X007087Y002823D01*
X007113Y002844D01*
X007135Y002870D01*
X007150Y002899D01*
X007160Y002931D01*
X007163Y002965D01*
X007160Y002998D01*
X007150Y003030D01*
X007135Y003060D01*
X007113Y003085D01*
X007087Y003107D01*
X007073Y003115D01*
X007070Y003156D01*
X007071Y003159D01*
X007077Y003163D01*
X007674Y003760D01*
X007712Y003742D01*
X007711Y003727D01*
X007714Y003693D01*
X007724Y003661D01*
X007739Y003632D01*
X007761Y003606D01*
X007787Y003585D01*
X007816Y003569D01*
X007848Y003559D01*
X007882Y003556D01*
X007915Y003559D01*
X007947Y003569D01*
X007976Y003585D01*
X008002Y003606D01*
X008024Y003632D01*
X008039Y003661D01*
X008045Y003681D01*
X008057Y003686D01*
X008080Y003689D01*
X008088Y003688D01*
X008093Y003682D01*
X008107Y003671D01*
X008124Y003664D01*
X008143Y003661D01*
X008161Y003664D01*
X008178Y003671D01*
X008192Y003682D01*
X008204Y003697D01*
X008211Y003714D01*
X008213Y003732D01*
X008211Y003750D01*
X008204Y003767D01*
X008192Y003782D01*
X008178Y003793D01*
X008161Y003800D01*
X008143Y003803D01*
X008124Y003800D01*
X008107Y003793D01*
X008093Y003782D01*
X008087Y003774D01*
X008061Y003774D01*
X008043Y003780D01*
X008039Y003792D01*
X008024Y003822D01*
X008002Y003847D01*
X007995Y003854D01*
X008009Y003894D01*
X009060D01*
X009085Y003899D01*
X009107Y003913D01*
X009411Y004218D01*
X009646D01*
X009666Y004178D01*
X009655Y004152D01*
X009652Y004125D01*
X009655Y004098D01*
X009666Y004072D01*
X009683Y004050D01*
X009701Y004036D01*
X009700Y004023D01*
X009689Y003996D01*
X009650D01*
X009625Y003991D01*
X009603Y003977D01*
X009093Y003466D01*
X007800D01*
X007775Y003461D01*
X007753Y003447D01*
X007203Y002897D01*
X007189Y002875D01*
X007184Y002850D01*
Y002630D01*
X007102Y002548D01*
X007078Y002551D01*
X007046Y002547D01*
X007017Y002535D01*
X006992Y002516D01*
X006977Y002496D01*
X006924D01*
X006909Y002516D01*
X006884Y002535D01*
X006855Y002547D01*
X006824Y002551D01*
X006792Y002547D01*
X006763Y002535D01*
X006738Y002516D01*
X006719Y002491D01*
X006707Y002461D01*
X006703Y002430D01*
X006707Y002399D01*
X006719Y002369D01*
X006738Y002344D01*
X006757Y002330D01*
Y002276D01*
X006738Y002262D01*
X006719Y002237D01*
X006707Y002207D01*
X006703Y002176D01*
X006707Y002145D01*
X006719Y002115D01*
X006738Y002090D01*
X006763Y002071D01*
X006792Y002059D01*
X006824Y002055D01*
X006855Y002059D01*
X006884Y002071D01*
X006909Y002090D01*
X006924Y002110D01*
X006977D01*
X006992Y002090D01*
X007017Y002071D01*
X007046Y002059D01*
X007078Y002055D01*
X007109Y002059D01*
X007138Y002071D01*
X007163Y002090D01*
X007183Y002115D01*
X007183Y002117D01*
X007226D01*
X007227Y002115D01*
X007246Y002090D01*
X007271Y002071D01*
X007300Y002059D01*
X007332Y002055D01*
X007363Y002059D01*
X007392Y002071D01*
X007417Y002090D01*
X007432Y002110D01*
X007485D01*
X007500Y002090D01*
X007525Y002071D01*
X007554Y002059D01*
X007586Y002055D01*
X007617Y002059D01*
X007646Y002071D01*
X007671Y002090D01*
X007691Y002115D01*
X007700Y002139D01*
X007703Y002140D01*
X007722Y002142D01*
X007742Y002138D01*
X007748Y002123D01*
X007765Y002101D01*
X007787Y002084D01*
X007812Y002074D01*
X007825Y002072D01*
Y002176D01*
Y002280D01*
X007812Y002278D01*
X007787Y002268D01*
X007765Y002251D01*
X007748Y002229D01*
X007742Y002214D01*
X007722Y002210D01*
X007703Y002212D01*
X007700Y002213D01*
X007691Y002237D01*
X007671Y002262D01*
X007652Y002276D01*
Y002330D01*
X007671Y002344D01*
X007691Y002369D01*
X007700Y002393D01*
X007703Y002394D01*
X007722Y002396D01*
X007742Y002392D01*
X007748Y002377D01*
X007765Y002355D01*
X007787Y002338D01*
X007812Y002328D01*
X007825Y002326D01*
Y002430D01*
Y002534D01*
X007812Y002532D01*
X007787Y002522D01*
X007765Y002505D01*
X007748Y002483D01*
X007742Y002468D01*
X007722Y002464D01*
X007703Y002466D01*
X007700Y002467D01*
X007691Y002491D01*
X007671Y002516D01*
X007646Y002535D01*
X007617Y002547D01*
X007586Y002551D01*
X007554Y002547D01*
X007525Y002535D01*
X007500Y002516D01*
X007485Y002496D01*
X007432D01*
X007417Y002516D01*
X007398Y002530D01*
Y002774D01*
X007708Y003085D01*
X007739Y003060D01*
X007724Y003030D01*
X007714Y002998D01*
X007711Y002965D01*
X007714Y002931D01*
X007724Y002899D01*
X007739Y002870D01*
X007761Y002844D01*
X007787Y002823D01*
X007816Y002807D01*
X007848Y002797D01*
X007882Y002794D01*
X007915Y002797D01*
X007947Y002807D01*
X007976Y002823D01*
X008002Y002844D01*
X008024Y002870D01*
X008039Y002899D01*
X008045Y002919D01*
X008057Y002924D01*
X008080Y002927D01*
X008088Y002926D01*
X008093Y002920D01*
X008107Y002909D01*
X008124Y002902D01*
X008143Y002899D01*
X008161Y002902D01*
X008178Y002909D01*
X008192Y002920D01*
X008204Y002935D01*
X008211Y002952D01*
X008213Y002970D01*
X008211Y002988D01*
X008204Y003005D01*
X008192Y003020D01*
X008178Y003031D01*
X008161Y003038D01*
X008143Y003041D01*
X008124Y003038D01*
X008107Y003031D01*
X008093Y003020D01*
X008087Y003012D01*
X008061Y003012D01*
X008043Y003018D01*
X008039Y003030D01*
X008024Y003060D01*
X008002Y003085D01*
X007976Y003107D01*
X007947Y003123D01*
X007915Y003132D01*
X007882Y003136D01*
X007848Y003132D01*
X007816Y003123D01*
X007787Y003107D01*
X007761Y003138D01*
X007857Y003234D01*
X009159D01*
X009184Y003239D01*
X009206Y003253D01*
X009717Y003764D01*
X010087D01*
X010122Y003750D01*
Y003711D01*
X010122D01*
Y003550D01*
X010122D01*
Y003511D01*
X010122D01*
Y003350D01*
X010364D01*
X010364Y003350D01*
X010393Y003338D01*
X010395Y003338D01*
X010435Y003330D01*
X010437Y003309D01*
X010446Y003289D01*
X010459Y003272D01*
X010476Y003258D01*
X010496Y003250D01*
X010518Y003247D01*
X010539Y003250D01*
X010559Y003258D01*
X010577Y003272D01*
X010590Y003289D01*
X010598Y003309D01*
X010601Y003330D01*
X010640Y003338D01*
X010643Y003338D01*
X010672Y003350D01*
X010672Y003350D01*
Y003350D01*
X010672Y003350D01*
X010872D01*
Y003048D01*
X010849Y003044D01*
X010827Y003035D01*
X010808Y003021D01*
X010794Y003002D01*
X010785Y002980D01*
X010782Y002957D01*
X010778Y002918D01*
X010778Y002916D01*
X010766Y002877D01*
X010747Y002840D01*
X010745Y002838D01*
X010720Y002809D01*
X010692Y002781D01*
X009315Y001403D01*
X009302Y001402D01*
X009277Y001441D01*
X009279Y001443D01*
X009292Y001486D01*
X009295Y001515D01*
X008845D01*
X008848Y001486D01*
X008861Y001443D01*
X008882Y001404D01*
X008910Y001370D01*
X008918Y001363D01*
X008904Y001323D01*
X008372D01*
X008370Y001323D01*
X008332Y001327D01*
X008292Y001339D01*
X008256Y001358D01*
X008224Y001384D01*
X008198Y001416D01*
X008179Y001452D01*
X008167Y001492D01*
X008167Y001494D01*
X008164Y001532D01*
X008164D01*
X008159Y001594D01*
X008145Y001653D01*
X008121Y001710D01*
X008089Y001762D01*
X008049Y001809D01*
X008002Y001849D01*
X007950Y001881D01*
X007893Y001905D01*
X007834Y001919D01*
X007772Y001924D01*
Y001923D01*
X005372D01*
Y001924D01*
X005311Y001919D01*
X005252Y001905D01*
X005195Y001881D01*
X005143Y001849D01*
X005096Y001809D01*
X005056Y001762D01*
X005024Y001710D01*
X005000Y001653D01*
X004986Y001594D01*
X004981Y001532D01*
X004981D01*
X004978Y001494D01*
X004978Y001492D01*
X004966Y001452D01*
X004947Y001416D01*
X004921Y001384D01*
X004889Y001358D01*
X004853Y001339D01*
X004813Y001327D01*
X004775Y001323D01*
X004772Y001323D01*
X004236D01*
X004222Y001363D01*
X004230Y001370D01*
X004258Y001404D01*
X004279Y001443D01*
X004292Y001486D01*
X004295Y001515D01*
X003845D01*
X003848Y001486D01*
X003859Y001449D01*
X003855Y001434D01*
X003836Y001406D01*
X003828Y001406D01*
X002453Y002781D01*
X002425Y002809D01*
X002400Y002838D01*
X002398Y002840D01*
X002379Y002877D01*
X002367Y002916D01*
X002367Y002918D01*
X002363Y002957D01*
X002363Y002957D01*
X002363Y002997D01*
Y005668D01*
X002363Y005708D01*
X002367Y005747D01*
X002367Y005749D01*
X002379Y005788D01*
X002398Y005825D01*
X002400Y005827D01*
X002425Y005856D01*
X002425Y005856D01*
X003821Y007252D01*
X003849Y007280D01*
X003856Y007287D01*
X003884Y007258D01*
X003882Y007256D01*
X003861Y007217D01*
X003848Y007174D01*
X003845Y007145D01*
X004295D01*
X004292Y007174D01*
X004279Y007217D01*
X004258Y007256D01*
X004230Y007290D01*
X004215Y007302D01*
X004230Y007342D01*
X005926D01*
X005966Y007342D01*
X006005Y007338D01*
X006007Y007338D01*
X006047Y007326D01*
X006083Y007307D01*
X006115Y007281D01*
X006141Y007249D01*
X006147Y007237D01*
X006147Y007237D01*
X006183Y007184D01*
X006225Y007135D01*
X006274Y007093D01*
X006327Y007057D01*
X006385Y007029D01*
X006445Y007008D01*
X006508Y006996D01*
X006572Y006991D01*
X006637Y006996D01*
X006700Y007008D01*
X006760Y007029D01*
X006818Y007057D01*
X006871Y007093D01*
X006920Y007135D01*
X006962Y007184D01*
X006998Y007237D01*
X006998Y007237D01*
X007004Y007249D01*
X007030Y007281D01*
X007062Y007307D01*
X007098Y007326D01*
X007138Y007338D01*
X007140Y007338D01*
X007179Y007342D01*
Y007342D01*
X007179Y007342D01*
X008910D01*
X008925Y007302D01*
D02*
G37*
G36*
X008928Y006916D02*
Y006697D01*
X008927Y006690D01*
X008928Y006683D01*
Y006538D01*
X008910D01*
Y006306D01*
X008928D01*
X008928Y006012D01*
X008927Y006005D01*
X008928Y005998D01*
Y005644D01*
X008927Y005638D01*
X008928Y005631D01*
Y005475D01*
X010120Y005475D01*
X010120Y005135D01*
X008590D01*
X008590Y006535D01*
X008590Y006670D01*
X007740Y006670D01*
Y004750D01*
X005958D01*
X005952Y004763D01*
X005952Y004770D01*
X005974Y004787D01*
X005993Y004811D01*
X006005Y004840D01*
X006009Y004870D01*
X006005Y004900D01*
X005993Y004929D01*
X005974Y004953D01*
X005950Y004972D01*
X005922Y004983D01*
X005892Y004987D01*
X005861Y004983D01*
X005833Y004972D01*
X005809Y004953D01*
X005790Y004929D01*
X005778Y004900D01*
X005774Y004870D01*
X005776Y004856D01*
X005628Y004750D01*
X005200D01*
Y004585D01*
X004675D01*
Y005256D01*
X004689Y005270D01*
X007390Y005270D01*
X007390Y006930D01*
X008607Y006930D01*
X008913Y006930D01*
X008928Y006916D01*
D02*
G37*
G36*
X008545Y006570D02*
Y005080D01*
X010120D01*
Y004750D01*
X007795D01*
Y006570D01*
X008545Y006570D01*
D02*
G37*
%LPC*%
G36*
X009295Y007115D02*
X009085D01*
Y006905D01*
X009114Y006908D01*
X009157Y006921D01*
X009196Y006942D01*
X009230Y006970D01*
X009258Y007004D01*
X009279Y007043D01*
X009292Y007086D01*
X009295Y007115D01*
D02*
G37*
G36*
X004295D02*
X004085D01*
Y006905D01*
X004114Y006908D01*
X004157Y006921D01*
X004196Y006942D01*
X004230Y006970D01*
X004258Y007004D01*
X004279Y007043D01*
X004292Y007086D01*
X004295Y007115D01*
D02*
G37*
G36*
X004055D02*
X003845D01*
X003848Y007086D01*
X003861Y007043D01*
X003882Y007004D01*
X003910Y006970D01*
X003944Y006942D01*
X003983Y006921D01*
X004026Y006908D01*
X004055Y006905D01*
Y007115D01*
D02*
G37*
G36*
X009895Y006513D02*
Y006465D01*
X009943D01*
X009941Y006475D01*
X009927Y006497D01*
X009905Y006511D01*
X009895Y006513D01*
D02*
G37*
G36*
X009865D02*
X009855Y006511D01*
X009833Y006497D01*
X009819Y006475D01*
X009817Y006465D01*
X009865D01*
Y006513D01*
D02*
G37*
G36*
X007233Y006522D02*
X007221Y006521D01*
X007197Y006510D01*
X007176Y006494D01*
X007159Y006473D01*
X007149Y006448D01*
X007148Y006437D01*
X007233D01*
Y006522D01*
D02*
G37*
G36*
X005907Y006494D02*
Y006409D01*
X005992D01*
X005990Y006420D01*
X005980Y006445D01*
X005964Y006466D01*
X005943Y006482D01*
X005918Y006493D01*
X005907Y006494D01*
D02*
G37*
G36*
X005877D02*
X005865Y006493D01*
X005841Y006482D01*
X005819Y006466D01*
X005803Y006445D01*
X005793Y006420D01*
X005791Y006409D01*
X005877D01*
Y006494D01*
D02*
G37*
G36*
X009943Y006435D02*
X009895D01*
Y006387D01*
X009905Y006389D01*
X009927Y006403D01*
X009941Y006425D01*
X009943Y006435D01*
D02*
G37*
G36*
X009865D02*
X009817D01*
X009819Y006425D01*
X009833Y006403D01*
X009855Y006389D01*
X009865Y006387D01*
Y006435D01*
D02*
G37*
G36*
X007233Y006407D02*
X007148D01*
X007149Y006396D01*
X007159Y006371D01*
X007176Y006350D01*
X007197Y006334D01*
X007221Y006323D01*
X007233Y006322D01*
Y006407D01*
D02*
G37*
G36*
X005992Y006379D02*
X005907D01*
Y006294D01*
X005918Y006295D01*
X005943Y006306D01*
X005964Y006322D01*
X005980Y006343D01*
X005990Y006368D01*
X005992Y006379D01*
D02*
G37*
G36*
X005877D02*
X005791D01*
X005793Y006368D01*
X005803Y006343D01*
X005819Y006322D01*
X005841Y006306D01*
X005865Y006295D01*
X005877Y006294D01*
Y006379D01*
D02*
G37*
G36*
X005130Y006511D02*
X005099Y006507D01*
X005071Y006496D01*
X005047Y006477D01*
X005028Y006453D01*
X005016Y006424D01*
X005012Y006394D01*
X005016Y006364D01*
X005028Y006335D01*
X005047Y006311D01*
X005071Y006292D01*
X005099Y006281D01*
X005130Y006277D01*
X005160Y006281D01*
X005188Y006292D01*
X005212Y006311D01*
X005231Y006335D01*
X005243Y006364D01*
X005247Y006394D01*
X005243Y006424D01*
X005231Y006453D01*
X005212Y006477D01*
X005188Y006496D01*
X005160Y006507D01*
X005130Y006511D01*
D02*
G37*
G36*
X004114D02*
X004083Y006507D01*
X004055Y006496D01*
X004031Y006477D01*
X004012Y006453D01*
X004000Y006424D01*
X003996Y006394D01*
X004000Y006364D01*
X004012Y006335D01*
X004031Y006311D01*
X004055Y006292D01*
X004083Y006281D01*
X004114Y006277D01*
X004144Y006281D01*
X004172Y006292D01*
X004196Y006311D01*
X004215Y006335D01*
X004227Y006364D01*
X004231Y006394D01*
X004227Y006424D01*
X004215Y006453D01*
X004196Y006477D01*
X004172Y006496D01*
X004144Y006507D01*
X004114Y006511D01*
D02*
G37*
G36*
X009970Y006297D02*
X009905D01*
Y006257D01*
X009970D01*
Y006297D01*
D02*
G37*
G36*
X009855D02*
X009790D01*
Y006257D01*
X009855D01*
Y006297D01*
D02*
G37*
G36*
X009970Y006207D02*
X009905D01*
Y006167D01*
X009970D01*
Y006207D01*
D02*
G37*
G36*
X009855D02*
X009790D01*
Y006167D01*
X009855D01*
Y006207D01*
D02*
G37*
G36*
X009985Y006122D02*
X009775D01*
Y005962D01*
X009814D01*
Y005897D01*
X009810Y005892D01*
X009802Y005873D01*
X009799Y005852D01*
X009802Y005831D01*
X009810Y005812D01*
X009823Y005795D01*
X009840Y005782D01*
X009859Y005774D01*
X009880Y005771D01*
X009901Y005774D01*
X009920Y005782D01*
X009937Y005795D01*
X009950Y005812D01*
X009958Y005831D01*
X009961Y005852D01*
X009958Y005873D01*
X009950Y005892D01*
X009946Y005897D01*
Y005962D01*
X009985D01*
Y006122D01*
D02*
G37*
G36*
X004243Y005210D02*
X004203D01*
Y005145D01*
X004243D01*
Y005210D01*
D02*
G37*
G36*
X004153D02*
X004113D01*
Y005145D01*
X004153D01*
Y005210D01*
D02*
G37*
G36*
X004243Y005095D02*
X004203D01*
Y005030D01*
X004243D01*
Y005095D01*
D02*
G37*
G36*
X004153D02*
X004113D01*
Y005030D01*
X004153D01*
Y005095D01*
D02*
G37*
G36*
X003670Y005153D02*
X003643Y005150D01*
X003617Y005139D01*
X003595Y005122D01*
X003578Y005100D01*
X003568Y005075D01*
X003564Y005047D01*
X003568Y005020D01*
X003578Y004995D01*
X003595Y004973D01*
X003617Y004956D01*
X003643Y004945D01*
X003670Y004942D01*
X003697Y004945D01*
X003723Y004956D01*
X003745Y004973D01*
X003762Y004995D01*
X003772Y005020D01*
X003776Y005047D01*
X003772Y005075D01*
X003762Y005100D01*
X003745Y005122D01*
X003723Y005139D01*
X003697Y005150D01*
X003670Y005153D01*
D02*
G37*
G36*
X003020D02*
X002993Y005150D01*
X002967Y005139D01*
X002945Y005122D01*
X002928Y005100D01*
X002918Y005075D01*
X002914Y005047D01*
X002918Y005020D01*
X002928Y004995D01*
X002945Y004973D01*
X002967Y004956D01*
X002993Y004945D01*
X003020Y004942D01*
X003047Y004945D01*
X003073Y004956D01*
X003095Y004973D01*
X003112Y004995D01*
X003122Y005020D01*
X003126Y005047D01*
X003122Y005075D01*
X003112Y005100D01*
X003095Y005122D01*
X003073Y005139D01*
X003047Y005150D01*
X003020Y005153D01*
D02*
G37*
G36*
X004448Y005225D02*
X004288D01*
Y005015D01*
X004312D01*
Y004973D01*
X004309Y004972D01*
X004285Y004953D01*
X004270Y004933D01*
X004253Y004934D01*
X004230Y004945D01*
Y004986D01*
X003997D01*
Y004754D01*
X004058D01*
Y004734D01*
X004062Y004713D01*
X004074Y004694D01*
X004098Y004671D01*
Y004540D01*
X004248D01*
X004258Y004540D01*
X004288D01*
X004298Y004540D01*
X004448D01*
Y004750D01*
X004448D01*
X004451Y004788D01*
X004469Y004811D01*
X004481Y004840D01*
X004485Y004870D01*
X004481Y004900D01*
X004469Y004929D01*
X004450Y004953D01*
X004426Y004972D01*
X004424Y004973D01*
Y005015D01*
X004448D01*
Y005225D01*
D02*
G37*
G36*
X003670Y004786D02*
X003643Y004782D01*
X003617Y004772D01*
X003595Y004755D01*
X003578Y004733D01*
X003568Y004707D01*
X003564Y004680D01*
X003568Y004653D01*
X003578Y004627D01*
X003595Y004605D01*
X003617Y004588D01*
X003643Y004578D01*
X003670Y004574D01*
X003697Y004578D01*
X003723Y004588D01*
X003745Y004605D01*
X003762Y004627D01*
X003772Y004653D01*
X003776Y004680D01*
X003772Y004707D01*
X003762Y004733D01*
X003745Y004755D01*
X003723Y004772D01*
X003697Y004782D01*
X003670Y004786D01*
D02*
G37*
G36*
X003020D02*
X002993Y004782D01*
X002967Y004772D01*
X002945Y004755D01*
X002928Y004733D01*
X002918Y004707D01*
X002914Y004680D01*
X002918Y004653D01*
X002928Y004627D01*
X002945Y004605D01*
X002967Y004588D01*
X002993Y004578D01*
X003020Y004574D01*
X003047Y004578D01*
X003073Y004588D01*
X003095Y004605D01*
X003112Y004627D01*
X003122Y004653D01*
X003126Y004680D01*
X003122Y004707D01*
X003112Y004733D01*
X003095Y004755D01*
X003073Y004772D01*
X003047Y004782D01*
X003020Y004786D01*
D02*
G37*
G36*
X010218Y004605D02*
X010137D01*
Y004565D01*
X010218D01*
Y004605D01*
D02*
G37*
G36*
X005555Y004620D02*
X005515D01*
Y004555D01*
X005555D01*
Y004620D01*
D02*
G37*
G36*
X005465D02*
X005425D01*
Y004555D01*
X005465D01*
Y004620D01*
D02*
G37*
G36*
X009846Y004583D02*
X009772D01*
Y004509D01*
X009781Y004510D01*
X009803Y004519D01*
X009822Y004533D01*
X009836Y004552D01*
X009845Y004574D01*
X009846Y004583D01*
D02*
G37*
G36*
X009743D02*
X009669D01*
X009670Y004574D01*
X009679Y004552D01*
X009693Y004533D01*
X009712Y004519D01*
X009734Y004510D01*
X009743Y004509D01*
Y004583D01*
D02*
G37*
G36*
X003670Y004416D02*
X003643Y004412D01*
X003617Y004402D01*
X003595Y004385D01*
X003578Y004363D01*
X003568Y004337D01*
X003564Y004310D01*
X003568Y004283D01*
X003578Y004257D01*
X003595Y004235D01*
X003617Y004218D01*
X003643Y004208D01*
X003670Y004204D01*
X003697Y004208D01*
X003723Y004218D01*
X003745Y004235D01*
X003762Y004257D01*
X003772Y004283D01*
X003776Y004310D01*
X003772Y004337D01*
X003762Y004363D01*
X003745Y004385D01*
X003723Y004402D01*
X003697Y004412D01*
X003670Y004416D01*
D02*
G37*
G36*
X003020D02*
X002993Y004412D01*
X002967Y004402D01*
X002945Y004385D01*
X002928Y004363D01*
X002918Y004337D01*
X002914Y004310D01*
X002918Y004283D01*
X002928Y004257D01*
X002945Y004235D01*
X002967Y004218D01*
X002993Y004208D01*
X003020Y004204D01*
X003047Y004208D01*
X003073Y004218D01*
X003095Y004235D01*
X003112Y004257D01*
X003122Y004283D01*
X003126Y004310D01*
X003122Y004337D01*
X003112Y004363D01*
X003095Y004385D01*
X003073Y004402D01*
X003047Y004412D01*
X003020Y004416D01*
D02*
G37*
G36*
X005253Y003893D02*
X005220Y003890D01*
X005188Y003880D01*
X005158Y003864D01*
X005132Y003843D01*
X005111Y003817D01*
X005095Y003787D01*
X005087Y003758D01*
X005082Y003756D01*
X005044Y003757D01*
X005032Y003772D01*
X005018Y003783D01*
X005001Y003790D01*
X004983Y003793D01*
X004964Y003790D01*
X004947Y003783D01*
X004933Y003772D01*
X004921Y003757D01*
X004914Y003740D01*
X004912Y003722D01*
X004914Y003704D01*
X004921Y003687D01*
X004933Y003672D01*
X004947Y003661D01*
X004964Y003654D01*
X004983Y003651D01*
X005001Y003654D01*
X005018Y003661D01*
X005032Y003672D01*
X005044Y003687D01*
X005082Y003688D01*
X005087Y003686D01*
X005095Y003657D01*
X005111Y003627D01*
X005132Y003601D01*
X005158Y003580D01*
X005188Y003564D01*
X005220Y003554D01*
X005253Y003551D01*
X005287Y003554D01*
X005319Y003564D01*
X005348Y003580D01*
X005374Y003601D01*
X005395Y003627D01*
X005411Y003657D01*
X005421Y003689D01*
X005424Y003722D01*
X005421Y003755D01*
X005411Y003787D01*
X005395Y003817D01*
X005374Y003843D01*
X005348Y003864D01*
X005319Y003880D01*
X005287Y003890D01*
X005253Y003893D01*
D02*
G37*
G36*
X004000Y003823D02*
X003973Y003820D01*
X003947Y003809D01*
X003925Y003792D01*
X003908Y003770D01*
X003898Y003745D01*
X003894Y003717D01*
X003898Y003690D01*
X003908Y003665D01*
X003925Y003643D01*
X003947Y003626D01*
X003973Y003615D01*
X004000Y003612D01*
X004027Y003615D01*
X004053Y003626D01*
X004075Y003643D01*
X004092Y003665D01*
X004102Y003690D01*
X004106Y003717D01*
X004102Y003745D01*
X004092Y003770D01*
X004075Y003792D01*
X004053Y003809D01*
X004027Y003820D01*
X004000Y003823D01*
D02*
G37*
G36*
X003670D02*
X003643Y003820D01*
X003617Y003809D01*
X003595Y003792D01*
X003578Y003770D01*
X003568Y003745D01*
X003564Y003717D01*
X003568Y003690D01*
X003578Y003665D01*
X003595Y003643D01*
X003617Y003626D01*
X003643Y003615D01*
X003670Y003612D01*
X003697Y003615D01*
X003723Y003626D01*
X003745Y003643D01*
X003762Y003665D01*
X003772Y003690D01*
X003776Y003717D01*
X003772Y003745D01*
X003762Y003770D01*
X003745Y003792D01*
X003723Y003809D01*
X003697Y003820D01*
X003670Y003823D01*
D02*
G37*
G36*
X006993Y003898D02*
X006959Y003894D01*
X006927Y003885D01*
X006898Y003869D01*
X006872Y003847D01*
X006850Y003822D01*
X006835Y003792D01*
X006825Y003760D01*
X006822Y003727D01*
X006825Y003693D01*
X006835Y003661D01*
X006850Y003632D01*
X006872Y003606D01*
X006898Y003585D01*
X006927Y003569D01*
X006959Y003559D01*
X006993Y003556D01*
X007026Y003559D01*
X007058Y003569D01*
X007087Y003585D01*
X007113Y003606D01*
X007135Y003632D01*
X007150Y003661D01*
X007160Y003693D01*
X007163Y003727D01*
X007160Y003760D01*
X007150Y003792D01*
X007135Y003822D01*
X007113Y003847D01*
X007087Y003869D01*
X007058Y003885D01*
X007026Y003894D01*
X006993Y003898D01*
D02*
G37*
G36*
X006142Y003893D02*
X006109Y003890D01*
X006077Y003880D01*
X006047Y003864D01*
X006021Y003843D01*
X006000Y003817D01*
X005984Y003787D01*
X005975Y003755D01*
X005971Y003722D01*
X005975Y003689D01*
X005984Y003657D01*
X006000Y003627D01*
X006021Y003601D01*
X006047Y003580D01*
X006077Y003564D01*
X006109Y003554D01*
X006142Y003551D01*
X006176Y003554D01*
X006208Y003564D01*
X006237Y003580D01*
X006263Y003601D01*
X006284Y003627D01*
X006300Y003657D01*
X006310Y003689D01*
X006313Y003722D01*
X006310Y003755D01*
X006300Y003787D01*
X006284Y003817D01*
X006263Y003843D01*
X006237Y003864D01*
X006208Y003880D01*
X006176Y003890D01*
X006142Y003893D01*
D02*
G37*
G36*
X004000Y003456D02*
X003973Y003452D01*
X003947Y003442D01*
X003925Y003425D01*
X003908Y003403D01*
X003898Y003377D01*
X003894Y003350D01*
X003898Y003323D01*
X003908Y003297D01*
X003925Y003275D01*
X003947Y003258D01*
X003973Y003248D01*
X004000Y003244D01*
X004027Y003248D01*
X004053Y003258D01*
X004075Y003275D01*
X004092Y003297D01*
X004102Y003323D01*
X004106Y003350D01*
X004102Y003377D01*
X004092Y003403D01*
X004075Y003425D01*
X004053Y003442D01*
X004027Y003452D01*
X004000Y003456D01*
D02*
G37*
G36*
X003670D02*
X003643Y003452D01*
X003617Y003442D01*
X003595Y003425D01*
X003578Y003403D01*
X003568Y003377D01*
X003564Y003350D01*
X003568Y003323D01*
X003578Y003297D01*
X003595Y003275D01*
X003617Y003258D01*
X003643Y003248D01*
X003670Y003244D01*
X003697Y003248D01*
X003723Y003258D01*
X003745Y003275D01*
X003762Y003297D01*
X003772Y003323D01*
X003776Y003350D01*
X003772Y003377D01*
X003762Y003403D01*
X003745Y003425D01*
X003723Y003442D01*
X003697Y003452D01*
X003670Y003456D01*
D02*
G37*
G36*
X005253Y003131D02*
X005220Y003128D01*
X005188Y003118D01*
X005158Y003102D01*
X005132Y003081D01*
X005111Y003055D01*
X005095Y003025D01*
X005087Y002996D01*
X005082Y002994D01*
X005044Y002995D01*
X005032Y003010D01*
X005018Y003021D01*
X005001Y003028D01*
X004983Y003031D01*
X004964Y003028D01*
X004947Y003021D01*
X004933Y003010D01*
X004921Y002995D01*
X004914Y002978D01*
X004912Y002960D01*
X004914Y002942D01*
X004921Y002925D01*
X004933Y002910D01*
X004947Y002899D01*
X004964Y002892D01*
X004983Y002889D01*
X005001Y002892D01*
X005018Y002899D01*
X005032Y002910D01*
X005044Y002925D01*
X005082Y002926D01*
X005087Y002924D01*
X005095Y002895D01*
X005111Y002865D01*
X005132Y002839D01*
X005158Y002818D01*
X005188Y002802D01*
X005220Y002792D01*
X005253Y002789D01*
X005287Y002792D01*
X005319Y002802D01*
X005348Y002818D01*
X005374Y002839D01*
X005395Y002865D01*
X005411Y002895D01*
X005421Y002927D01*
X005424Y002960D01*
X005421Y002993D01*
X005411Y003025D01*
X005395Y003055D01*
X005374Y003081D01*
X005348Y003102D01*
X005319Y003118D01*
X005287Y003128D01*
X005253Y003131D01*
D02*
G37*
G36*
X004000Y003086D02*
X003973Y003082D01*
X003947Y003072D01*
X003925Y003055D01*
X003908Y003033D01*
X003898Y003007D01*
X003894Y002980D01*
X003898Y002953D01*
X003908Y002927D01*
X003925Y002905D01*
X003947Y002888D01*
X003973Y002878D01*
X004000Y002874D01*
X004027Y002878D01*
X004053Y002888D01*
X004075Y002905D01*
X004092Y002927D01*
X004102Y002953D01*
X004106Y002980D01*
X004102Y003007D01*
X004092Y003033D01*
X004075Y003055D01*
X004053Y003072D01*
X004027Y003082D01*
X004000Y003086D01*
D02*
G37*
G36*
X003670D02*
X003643Y003082D01*
X003617Y003072D01*
X003595Y003055D01*
X003578Y003033D01*
X003568Y003007D01*
X003564Y002980D01*
X003568Y002953D01*
X003578Y002927D01*
X003595Y002905D01*
X003617Y002888D01*
X003643Y002878D01*
X003670Y002874D01*
X003697Y002878D01*
X003723Y002888D01*
X003745Y002905D01*
X003762Y002927D01*
X003772Y002953D01*
X003776Y002980D01*
X003772Y003007D01*
X003762Y003033D01*
X003745Y003055D01*
X003723Y003072D01*
X003697Y003082D01*
X003670Y003086D01*
D02*
G37*
G36*
X004792Y002551D02*
X004760Y002547D01*
X004731Y002535D01*
X004706Y002516D01*
X004687Y002491D01*
X004686Y002489D01*
X004643D01*
X004643Y002491D01*
X004623Y002516D01*
X004598Y002535D01*
X004569Y002547D01*
X004538Y002551D01*
X004506Y002547D01*
X004477Y002535D01*
X004452Y002516D01*
X004433Y002491D01*
X004432Y002489D01*
X004389D01*
X004389Y002491D01*
X004369Y002516D01*
X004344Y002535D01*
X004315Y002547D01*
X004284Y002551D01*
X004252Y002547D01*
X004223Y002535D01*
X004198Y002516D01*
X004179Y002491D01*
X004178Y002489D01*
X004135D01*
X004135Y002491D01*
X004115Y002516D01*
X004090Y002535D01*
X004061Y002547D01*
X004030Y002551D01*
X003998Y002547D01*
X003969Y002535D01*
X003944Y002516D01*
X003925Y002491D01*
X003913Y002461D01*
X003909Y002430D01*
X003913Y002399D01*
X003925Y002369D01*
X003944Y002344D01*
X003955Y002336D01*
X003942Y002296D01*
X003910D01*
Y002056D01*
X004150D01*
Y002088D01*
X004190Y002101D01*
X004198Y002090D01*
X004223Y002071D01*
X004252Y002059D01*
X004284Y002055D01*
X004315Y002059D01*
X004344Y002071D01*
X004369Y002090D01*
X004389Y002115D01*
X004389Y002117D01*
X004432D01*
X004433Y002115D01*
X004452Y002090D01*
X004477Y002071D01*
X004506Y002059D01*
X004538Y002055D01*
X004569Y002059D01*
X004598Y002071D01*
X004623Y002090D01*
X004643Y002115D01*
X004643Y002117D01*
X004686D01*
X004687Y002115D01*
X004706Y002090D01*
X004731Y002071D01*
X004760Y002059D01*
X004792Y002055D01*
X004823Y002059D01*
X004852Y002071D01*
X004877Y002090D01*
X004897Y002115D01*
X004906Y002139D01*
X004909Y002140D01*
X004928Y002142D01*
X004948Y002138D01*
X004954Y002123D01*
X004971Y002101D01*
X004993Y002084D01*
X005018Y002074D01*
X005031Y002072D01*
Y002176D01*
Y002280D01*
X005018Y002278D01*
X004993Y002268D01*
X004971Y002251D01*
X004954Y002229D01*
X004948Y002214D01*
X004928Y002210D01*
X004909Y002212D01*
X004906Y002213D01*
X004897Y002237D01*
X004877Y002262D01*
X004852Y002281D01*
X004851Y002281D01*
Y002325D01*
X004852Y002325D01*
X004877Y002344D01*
X004897Y002369D01*
X004906Y002393D01*
X004909Y002394D01*
X004928Y002396D01*
X004948Y002392D01*
X004954Y002377D01*
X004971Y002355D01*
X004993Y002338D01*
X005018Y002328D01*
X005031Y002326D01*
Y002430D01*
Y002534D01*
X005018Y002532D01*
X004993Y002522D01*
X004971Y002505D01*
X004954Y002483D01*
X004948Y002468D01*
X004928Y002464D01*
X004909Y002466D01*
X004906Y002467D01*
X004897Y002491D01*
X004877Y002516D01*
X004852Y002535D01*
X004823Y002547D01*
X004792Y002551D01*
D02*
G37*
G36*
X008856Y002551D02*
X008824Y002547D01*
X008795Y002535D01*
X008770Y002516D01*
X008751Y002491D01*
X008750Y002489D01*
X008707D01*
X008707Y002491D01*
X008687Y002516D01*
X008662Y002535D01*
X008633Y002547D01*
X008602Y002551D01*
X008570Y002547D01*
X008541Y002535D01*
X008516Y002516D01*
X008497Y002491D01*
X008496Y002489D01*
X008453D01*
X008453Y002491D01*
X008433Y002516D01*
X008408Y002535D01*
X008379Y002547D01*
X008348Y002551D01*
X008316Y002547D01*
X008287Y002535D01*
X008262Y002516D01*
X008243Y002491D01*
X008233Y002467D01*
X008230Y002466D01*
X008212Y002464D01*
X008192Y002468D01*
X008185Y002483D01*
X008169Y002505D01*
X008147Y002522D01*
X008121Y002532D01*
X008109Y002534D01*
Y002430D01*
Y002326D01*
X008121Y002328D01*
X008147Y002338D01*
X008169Y002355D01*
X008185Y002377D01*
X008192Y002392D01*
X008212Y002396D01*
X008230Y002394D01*
X008233Y002393D01*
X008243Y002369D01*
X008262Y002344D01*
X008287Y002325D01*
X008288Y002325D01*
Y002281D01*
X008287Y002281D01*
X008262Y002262D01*
X008243Y002237D01*
X008233Y002213D01*
X008230Y002212D01*
X008212Y002210D01*
X008192Y002214D01*
X008185Y002229D01*
X008169Y002251D01*
X008147Y002268D01*
X008121Y002278D01*
X008109Y002280D01*
Y002176D01*
Y002072D01*
X008121Y002074D01*
X008147Y002084D01*
X008169Y002101D01*
X008185Y002123D01*
X008192Y002138D01*
X008212Y002142D01*
X008230Y002140D01*
X008233Y002139D01*
X008243Y002115D01*
X008262Y002090D01*
X008287Y002071D01*
X008316Y002059D01*
X008348Y002055D01*
X008379Y002059D01*
X008408Y002071D01*
X008433Y002090D01*
X008453Y002115D01*
X008453Y002117D01*
X008496D01*
X008497Y002115D01*
X008516Y002090D01*
X008541Y002071D01*
X008570Y002059D01*
X008602Y002055D01*
X008633Y002059D01*
X008662Y002071D01*
X008687Y002090D01*
X008707Y002115D01*
X008707Y002117D01*
X008750D01*
X008751Y002115D01*
X008770Y002090D01*
X008795Y002071D01*
X008824Y002059D01*
X008856Y002055D01*
X008887Y002059D01*
X008916Y002071D01*
X008941Y002090D01*
X008961Y002115D01*
X008961Y002117D01*
X009004D01*
X009005Y002115D01*
X009024Y002090D01*
X009049Y002071D01*
X009078Y002059D01*
X009110Y002055D01*
X009141Y002059D01*
X009170Y002071D01*
X009195Y002090D01*
X009215Y002115D01*
X009227Y002145D01*
X009231Y002176D01*
X009227Y002207D01*
X009215Y002237D01*
X009195Y002262D01*
X009184Y002270D01*
X009198Y002310D01*
X009230D01*
Y002550D01*
X008990D01*
Y002518D01*
X008950Y002505D01*
X008941Y002516D01*
X008916Y002535D01*
X008887Y002547D01*
X008856Y002551D01*
D02*
G37*
G36*
X005285Y002534D02*
X005272Y002532D01*
X005247Y002522D01*
X005225Y002505D01*
X005208Y002483D01*
X005197Y002457D01*
X005196Y002445D01*
X005285D01*
Y002534D01*
D02*
G37*
G36*
X005061D02*
Y002445D01*
X005150D01*
X005148Y002457D01*
X005137Y002483D01*
X005121Y002505D01*
X005099Y002522D01*
X005073Y002532D01*
X005061Y002534D01*
D02*
G37*
G36*
X007855Y002534D02*
Y002445D01*
X007944D01*
X007942Y002457D01*
X007931Y002483D01*
X007915Y002505D01*
X007893Y002522D01*
X007867Y002532D01*
X007855Y002534D01*
D02*
G37*
G36*
X008079Y002534D02*
X008066Y002532D01*
X008041Y002522D01*
X008019Y002505D01*
X008002Y002483D01*
X007991Y002457D01*
X007990Y002445D01*
X008079D01*
Y002534D01*
D02*
G37*
G36*
X005285Y002415D02*
X005196D01*
X005197Y002403D01*
X005208Y002377D01*
X005225Y002355D01*
X005247Y002338D01*
X005272Y002328D01*
X005285Y002326D01*
Y002415D01*
D02*
G37*
G36*
X005150D02*
X005061D01*
Y002326D01*
X005073Y002328D01*
X005099Y002338D01*
X005121Y002355D01*
X005137Y002377D01*
X005148Y002403D01*
X005150Y002415D01*
D02*
G37*
G36*
X008079Y002415D02*
X007990D01*
X007991Y002403D01*
X008002Y002377D01*
X008019Y002355D01*
X008041Y002338D01*
X008066Y002328D01*
X008079Y002326D01*
Y002415D01*
D02*
G37*
G36*
X007944D02*
X007855D01*
Y002326D01*
X007867Y002328D01*
X007893Y002338D01*
X007915Y002355D01*
X007931Y002377D01*
X007942Y002403D01*
X007944Y002415D01*
D02*
G37*
G36*
X005285Y002280D02*
X005272Y002278D01*
X005247Y002268D01*
X005225Y002251D01*
X005208Y002229D01*
X005197Y002203D01*
X005196Y002191D01*
X005285D01*
Y002280D01*
D02*
G37*
G36*
X005061D02*
Y002191D01*
X005150D01*
X005148Y002203D01*
X005137Y002229D01*
X005121Y002251D01*
X005099Y002268D01*
X005073Y002278D01*
X005061Y002280D01*
D02*
G37*
G36*
X007855Y002280D02*
Y002191D01*
X007944D01*
X007942Y002203D01*
X007931Y002229D01*
X007915Y002251D01*
X007893Y002268D01*
X007867Y002278D01*
X007855Y002280D01*
D02*
G37*
G36*
X008079Y002280D02*
X008066Y002278D01*
X008041Y002268D01*
X008019Y002251D01*
X008002Y002229D01*
X007991Y002203D01*
X007990Y002191D01*
X008079D01*
Y002280D01*
D02*
G37*
G36*
X005285Y002161D02*
X005196D01*
X005197Y002149D01*
X005208Y002123D01*
X005225Y002101D01*
X005247Y002084D01*
X005272Y002074D01*
X005285Y002072D01*
Y002161D01*
D02*
G37*
G36*
X005150D02*
X005061D01*
Y002072D01*
X005073Y002074D01*
X005099Y002084D01*
X005121Y002101D01*
X005137Y002123D01*
X005148Y002149D01*
X005150Y002161D01*
D02*
G37*
G36*
X008079Y002161D02*
X007990D01*
X007991Y002149D01*
X008002Y002123D01*
X008019Y002101D01*
X008041Y002084D01*
X008066Y002074D01*
X008079Y002072D01*
Y002161D01*
D02*
G37*
G36*
X007944D02*
X007855D01*
Y002072D01*
X007867Y002074D01*
X007893Y002084D01*
X007915Y002101D01*
X007931Y002123D01*
X007942Y002149D01*
X007944Y002161D01*
D02*
G37*
G36*
X009085Y001755D02*
Y001545D01*
X009295D01*
X009292Y001574D01*
X009279Y001617D01*
X009258Y001656D01*
X009230Y001690D01*
X009196Y001718D01*
X009157Y001739D01*
X009114Y001752D01*
X009085Y001755D01*
D02*
G37*
G36*
X009055D02*
X009026Y001752D01*
X008983Y001739D01*
X008944Y001718D01*
X008910Y001690D01*
X008882Y001656D01*
X008861Y001617D01*
X008848Y001574D01*
X008845Y001545D01*
X009055D01*
Y001755D01*
D02*
G37*
G36*
X004085D02*
Y001545D01*
X004295D01*
X004292Y001574D01*
X004279Y001617D01*
X004258Y001656D01*
X004230Y001690D01*
X004196Y001718D01*
X004157Y001739D01*
X004114Y001752D01*
X004085Y001755D01*
D02*
G37*
G36*
X004055D02*
X004026Y001752D01*
X003983Y001739D01*
X003944Y001718D01*
X003910Y001690D01*
X003882Y001656D01*
X003861Y001617D01*
X003848Y001574D01*
X003845Y001545D01*
X004055D01*
Y001755D01*
D02*
G37*
G36*
X008772Y006539D02*
X008741Y006535D01*
X008713Y006523D01*
X008689Y006505D01*
X008670Y006481D01*
X008659Y006452D01*
X008655Y006422D01*
X008659Y006392D01*
X008670Y006363D01*
X008689Y006339D01*
X008713Y006320D01*
X008741Y006309D01*
X008772Y006305D01*
X008802Y006309D01*
X008830Y006320D01*
X008855Y006339D01*
X008873Y006363D01*
X008885Y006392D01*
X008889Y006422D01*
X008885Y006452D01*
X008873Y006481D01*
X008855Y006505D01*
X008830Y006523D01*
X008802Y006535D01*
X008772Y006539D01*
D02*
G37*
G36*
X009757Y005373D02*
X009730Y005370D01*
X009705Y005359D01*
X009683Y005342D01*
X009666Y005320D01*
X009655Y005295D01*
X009652Y005267D01*
X009655Y005240D01*
X009666Y005215D01*
X009683Y005193D01*
X009705Y005176D01*
X009730Y005165D01*
X009757Y005162D01*
X009785Y005165D01*
X009810Y005176D01*
X009832Y005193D01*
X009849Y005215D01*
X009860Y005240D01*
X009863Y005267D01*
X009860Y005295D01*
X009849Y005320D01*
X009832Y005342D01*
X009810Y005359D01*
X009785Y005370D01*
X009757Y005373D01*
D02*
G37*
G36*
X009032D02*
X009005Y005370D01*
X008980Y005359D01*
X008958Y005342D01*
X008941Y005320D01*
X008930Y005295D01*
X008927Y005267D01*
X008930Y005240D01*
X008941Y005215D01*
X008958Y005193D01*
X008980Y005176D01*
X009005Y005165D01*
X009032Y005162D01*
X009060Y005165D01*
X009085Y005176D01*
X009107Y005193D01*
X009124Y005215D01*
X009135Y005240D01*
X009138Y005267D01*
X009135Y005295D01*
X009124Y005320D01*
X009107Y005342D01*
X009085Y005359D01*
X009060Y005370D01*
X009032Y005373D01*
D02*
G37*
G36*
X004891Y004970D02*
Y004885D01*
X004976D01*
X004974Y004896D01*
X004964Y004921D01*
X004948Y004942D01*
X004927Y004958D01*
X004902Y004969D01*
X004891Y004970D01*
D02*
G37*
G36*
X004861D02*
X004849Y004969D01*
X004825Y004958D01*
X004803Y004942D01*
X004787Y004921D01*
X004777Y004896D01*
X004775Y004885D01*
X004861D01*
Y004970D01*
D02*
G37*
G36*
X007248Y005015D02*
X007217Y005011D01*
X007189Y004999D01*
X007165Y004981D01*
X007146Y004957D01*
X007135Y004928D01*
X007131Y004898D01*
X007135Y004868D01*
X007146Y004839D01*
X007165Y004815D01*
X007189Y004796D01*
X007217Y004785D01*
X007248Y004781D01*
X007278Y004785D01*
X007306Y004796D01*
X007331Y004815D01*
X007349Y004839D01*
X007361Y004868D01*
X007365Y004898D01*
X007361Y004928D01*
X007349Y004957D01*
X007331Y004981D01*
X007306Y004999D01*
X007278Y005011D01*
X007248Y005015D01*
D02*
G37*
G36*
X004976Y004855D02*
X004891D01*
Y004770D01*
X004902Y004771D01*
X004927Y004782D01*
X004948Y004798D01*
X004964Y004819D01*
X004974Y004844D01*
X004976Y004855D01*
D02*
G37*
G36*
X004861D02*
X004775D01*
X004777Y004844D01*
X004787Y004819D01*
X004803Y004798D01*
X004825Y004782D01*
X004849Y004771D01*
X004861Y004770D01*
Y004855D01*
D02*
G37*
G36*
X008279Y006522D02*
Y006437D01*
X008364D01*
X008362Y006448D01*
X008352Y006473D01*
X008336Y006494D01*
X008315Y006510D01*
X008290Y006521D01*
X008279Y006522D01*
D02*
G37*
G36*
X008249D02*
X008237Y006521D01*
X008213Y006510D01*
X008192Y006494D01*
X008175Y006473D01*
X008165Y006448D01*
X008164Y006437D01*
X008249D01*
Y006522D01*
D02*
G37*
G36*
X008364Y006407D02*
X008279D01*
Y006322D01*
X008290Y006323D01*
X008315Y006334D01*
X008336Y006350D01*
X008352Y006371D01*
X008362Y006396D01*
X008364Y006407D01*
D02*
G37*
G36*
X008249D02*
X008164D01*
X008165Y006396D01*
X008175Y006371D01*
X008192Y006350D01*
X008213Y006334D01*
X008237Y006323D01*
X008249Y006322D01*
Y006407D01*
D02*
G37*
G36*
X009026Y005015D02*
X008995Y005011D01*
X008967Y004999D01*
X008943Y004981D01*
X008924Y004957D01*
X008913Y004928D01*
X008909Y004898D01*
X008913Y004868D01*
X008924Y004839D01*
X008943Y004815D01*
X008967Y004796D01*
X008995Y004785D01*
X009026Y004781D01*
X009056Y004785D01*
X009084Y004796D01*
X009109Y004815D01*
X009127Y004839D01*
X009139Y004868D01*
X009143Y004898D01*
X009139Y004928D01*
X009127Y004957D01*
X009109Y004981D01*
X009084Y004999D01*
X009056Y005011D01*
X009026Y005015D01*
D02*
G37*
G36*
X008010D02*
X007979Y005011D01*
X007951Y004999D01*
X007927Y004981D01*
X007908Y004957D01*
X007897Y004928D01*
X007893Y004898D01*
X007897Y004868D01*
X007908Y004839D01*
X007927Y004815D01*
X007951Y004796D01*
X007979Y004785D01*
X008010Y004781D01*
X008040Y004785D01*
X008068Y004796D01*
X008093Y004815D01*
X008111Y004839D01*
X008123Y004868D01*
X008127Y004898D01*
X008123Y004928D01*
X008111Y004957D01*
X008093Y004981D01*
X008068Y004999D01*
X008040Y005011D01*
X008010Y005015D01*
D02*
G37*
%LPD*%
D11*
X004368Y004645D02*
Y004870D01*
X009330Y005852D02*
Y006240D01*
X004368Y004870D02*
Y005120D01*
X004114Y004734D02*
Y004870D01*
Y004734D02*
X004178Y004670D01*
Y004645D02*
Y004670D01*
X009880Y006232D02*
Y006450D01*
X005758Y006260D02*
X005892Y006394D01*
X005620Y006260D02*
X005758D01*
X005490Y004645D02*
X005578D01*
X005892Y004870D01*
X009034Y006430D02*
X009330D01*
D33*
X008072Y001532D02*
G03*
X008372Y001232I000300J000000D01*
G01*
X006226Y007282D02*
G03*
X006919Y007282I000346J000200D01*
G01*
X004772Y001232D02*
G03*
X005072Y001532I000000J000300D01*
G01*
X010872Y005708D02*
G03*
X010785Y005920I-000300J000000D01*
G01*
X009360Y007345D02*
G03*
X009148Y007432I-000212J-000212D01*
G01*
X008072Y001532D02*
G03*
X007772Y001833I-000300J000000D01*
G01*
X007179Y007432D02*
G03*
X006919Y007282I000000J-000300D01*
G01*
X006226D02*
G03*
X005966Y007432I-000260J-000150D01*
G01*
X005372Y001833D02*
G03*
X005072Y001532I000000J-000300D01*
G01*
X003997Y007432D02*
G03*
X003785Y007345I000000J-000300D01*
G01*
X002360Y005920D02*
G03*
X002272Y005708I000212J-000212D01*
G01*
X010785Y002745D02*
G03*
X010872Y002957I-000212J000212D01*
G01*
X009148Y001232D02*
G03*
X009360Y001320I000000J000300D01*
G01*
X003785Y001320D02*
G03*
X003997Y001232I000212J000212D01*
G01*
X002272Y002957D02*
G03*
X002360Y002745I000300J000000D01*
G01*
X010418Y004830D02*
Y004830D01*
Y004630D02*
Y004830D01*
X010618Y004630D02*
Y004830D01*
Y004830D01*
X010418Y004630D02*
X010618Y004630D01*
X010683Y004630D01*
X010793Y004630D01*
X010243Y004830D02*
X010793D01*
X010243Y004630D02*
X010353Y004630D01*
X010418Y004630D01*
X010080Y004630D02*
X010243Y004630D01*
X010353Y005030D02*
X010418Y005030D01*
X010243Y005030D02*
X010353Y005030D01*
X010110Y005030D02*
X010243Y005030D01*
X010683Y005030D02*
X010793Y005030D01*
X010618Y005030D02*
X010683Y005030D01*
X010618Y005230D02*
X010793D01*
X010243D02*
X010418D01*
X010070D02*
X010243D01*
X002360Y005920D02*
X003785Y007345D01*
X009360Y007345D02*
X010785Y005920D01*
X002360Y002745D02*
X003785Y001320D01*
X009360Y001320D02*
X010785Y002745D01*
X005372Y001833D02*
X007772D01*
X008372Y001232D02*
X009148D01*
X003997D02*
X004772D01*
X007179Y007432D02*
X009148D01*
X003997D02*
X005966D01*
X002272Y002957D02*
Y005708D01*
D34*
X004178Y005120D02*
D03*
X004368D02*
D03*
X005490Y004645D02*
D03*
X005300D02*
D03*
X004368D02*
D03*
X004178D02*
D03*
D39*
X010418Y004830D02*
X010618D01*
X010353Y004630D02*
X010683D01*
X007250Y002850D02*
X007800Y003400D01*
X007250Y002602D02*
Y002850D01*
X007078Y002430D02*
X007250Y002602D01*
X007800Y003400D02*
X009120D01*
X009650Y003930D01*
X007332Y002802D02*
X007830Y003300D01*
X007332Y002430D02*
Y002802D01*
Y002430D02*
X007586D01*
X007740Y004050D02*
X009020D01*
X006990Y003300D02*
X007740Y004050D01*
X006030Y003300D02*
X006990D01*
X006060Y003210D02*
X007030D01*
X005900Y003050D02*
X006060Y003210D01*
X007030D02*
X007780Y003960D01*
X005808Y003078D02*
X006030Y003300D01*
X007830D02*
X009159D01*
X007780Y003960D02*
X009060D01*
X010157Y004370D02*
X010187Y004399D01*
X009020Y004050D02*
X009340Y004370D01*
X010187Y004399D02*
Y004415D01*
X009340Y004370D02*
X010157D01*
X010202Y004430D02*
X010243D01*
X010187Y004415D02*
X010202Y004430D01*
Y004230D02*
X010243D01*
X010187Y004246D02*
Y004255D01*
X009384Y004284D02*
X010157D01*
X009060Y003960D02*
X009384Y004284D01*
X010187Y004246D02*
X010202Y004230D01*
X010157Y004284D02*
X010187Y004255D01*
X005808Y002430D02*
Y003078D01*
X005900Y002592D02*
Y003050D01*
Y002592D02*
X006062Y002430D01*
X010000Y003930D02*
X010100Y004030D01*
X010243D01*
X009159Y003300D02*
X009689Y003830D01*
X010243D01*
X010353Y003630D02*
X010683D01*
X010353Y003430D02*
X010683D01*
X010418Y003830D02*
X010618D01*
X010418Y004030D02*
X010618D01*
X010418Y004230D02*
X010618D01*
X010418Y004430D02*
X010618D01*
X009650Y003930D02*
X010000D01*
X009880Y005860D02*
Y006042D01*
X005808Y002176D02*
Y002430D01*
X006062Y002176D02*
Y002430D01*
X007078Y002176D02*
Y002430D01*
X006824Y002176D02*
X007078D01*
X006824Y002430D02*
X007078D01*
X006824Y002176D02*
Y002430D01*
X007586Y002176D02*
Y002430D01*
X007332Y002176D02*
X007586D01*
X006062Y002430D02*
X006316D01*
Y002176D02*
Y002430D01*
X006062Y002176D02*
X006316D01*
X005554Y002430D02*
X005808D01*
X005554Y002176D02*
X005808D01*
X005554D02*
Y002430D01*
X009026Y006422D02*
X009034Y006430D01*
X005101Y004645D02*
X005300D01*
X004876Y004870D02*
X005101Y004645D01*
D42*
X004114Y004870D02*
D03*
X009026Y006422D02*
D03*
D43*
X004368Y004870D02*
D03*
X004876D02*
D03*
X005892D02*
D03*
Y006394D02*
D03*
X005130D02*
D03*
X004114D02*
D03*
X008772Y006422D02*
D03*
X008264D02*
D03*
X007248D02*
D03*
Y004898D02*
D03*
X008010D02*
D03*
X009026D02*
D03*
D44*
X010618Y003430D02*
D03*
X010418D02*
D03*
X010618Y003630D02*
D03*
X010418D02*
D03*
X010618Y003830D02*
D03*
X010418D02*
D03*
X010618Y004030D02*
D03*
X010418D02*
D03*
Y005230D02*
D03*
X010618D02*
D03*
X010418Y005030D02*
D03*
X010618D02*
D03*
X010418Y004830D02*
D03*
X010618D02*
D03*
X010418Y004630D02*
D03*
X010618D02*
D03*
X010418Y004430D02*
D03*
X010618D02*
D03*
X010418Y004230D02*
D03*
X010618D02*
D03*
D45*
X006316Y002176D02*
D03*
Y002430D02*
D03*
X005554D02*
D03*
X006062Y002176D02*
D03*
Y002430D02*
D03*
X005808Y002176D02*
D03*
Y002430D02*
D03*
X005554Y002176D02*
D03*
X004792Y002430D02*
D03*
X005300Y002176D02*
D03*
Y002430D02*
D03*
X005046Y002176D02*
D03*
Y002430D02*
D03*
X004792Y002176D02*
D03*
X004030Y002430D02*
D03*
X004284Y002176D02*
D03*
Y002430D02*
D03*
X004538Y002176D02*
D03*
Y002430D02*
D03*
X006824Y002430D02*
D03*
Y002176D02*
D03*
X007586D02*
D03*
X007078Y002430D02*
D03*
Y002176D02*
D03*
X007332Y002430D02*
D03*
Y002176D02*
D03*
X007586Y002430D02*
D03*
X008348Y002176D02*
D03*
X007840Y002430D02*
D03*
Y002176D02*
D03*
X008094Y002430D02*
D03*
Y002176D02*
D03*
X008348Y002430D02*
D03*
X009110Y002176D02*
D03*
X008856Y002430D02*
D03*
Y002176D02*
D03*
X008602Y002430D02*
D03*
Y002176D02*
D03*
D46*
X004030Y002176D02*
D03*
X009110Y002430D02*
D03*
D47*
X006993Y003727D02*
D03*
X007882D02*
D03*
X006142Y002960D02*
D03*
X005253D02*
D03*
Y003722D02*
D03*
X006142D02*
D03*
X006993Y002965D02*
D03*
X007882D02*
D03*
D48*
X003020Y004680D02*
D03*
Y005047D02*
D03*
Y004310D02*
D03*
X003670Y004680D02*
D03*
Y005047D02*
D03*
Y004310D02*
D03*
X004000Y002980D02*
D03*
Y003717D02*
D03*
Y003350D02*
D03*
X003670Y002980D02*
D03*
Y003717D02*
D03*
Y003350D02*
D03*
X009757Y005267D02*
D03*
X009032Y006690D02*
D03*
X009757Y004597D02*
D03*
X009032Y005638D02*
D03*
Y006005D02*
D03*
Y005267D02*
D03*
X009757Y004125D02*
D03*
D49*
X009880Y006450D02*
D03*
Y005852D02*
D03*
X009330D02*
D03*
D50*
X006570Y004330D02*
D03*
D51*
X009070Y007130D02*
D03*
X004070D02*
D03*
X009070Y001530D02*
D03*
X004070D02*
D03*
D52*
X008143Y003732D02*
D03*
Y002970D02*
D03*
X004983Y003722D02*
D03*
Y002960D02*
D03*
D68*
X009880Y006232D02*
D03*
Y006042D02*
D03*
X009330Y006240D02*
D03*
Y006430D02*
D03*
D69*
X010793Y003830D02*
D03*
Y003430D02*
D03*
Y003630D02*
D03*
Y004030D02*
D03*
Y004830D02*
D03*
Y004430D02*
D03*
Y004230D02*
D03*
Y004630D02*
D03*
Y005230D02*
D03*
Y005030D02*
D03*
X010243D02*
D03*
Y004430D02*
D03*
Y004230D02*
D03*
Y004630D02*
D03*
Y004830D02*
D03*
Y004030D02*
D03*
Y003830D02*
D03*
Y003430D02*
D03*
Y003630D02*
D03*
Y005230D02*
D03*
D70*
X010683Y005230D02*
D03*
Y005030D02*
D03*
Y004830D02*
D03*
Y004630D02*
D03*
Y004430D02*
D03*
Y004230D02*
D03*
Y004030D02*
D03*
Y003830D02*
D03*
Y003630D02*
D03*
X010353Y005230D02*
D03*
Y005030D02*
D03*
Y004830D02*
D03*
Y004630D02*
D03*
Y004430D02*
D03*
Y004230D02*
D03*
Y004030D02*
D03*
Y003830D02*
D03*
Y003630D02*
D03*
Y003430D02*
D03*
X010683D02*
D03*
D71*
X010243Y005030D02*
X010287Y005030D01*
X010418D02*
X010618D01*
X010418Y005230D02*
X010618D01*
M02*
