G04*
G04 #@! TF.GenerationSoftware,Altium Limited,Altium Designer,22.1.2 (22)*
G04*
G04 Layer_Color=439754*
%FSAX42Y42*%
%MOMM*%
G71*
G04*
G04 #@! TF.SameCoordinates,B33CA4CF-0794-4EA4-91B4-66363FEF3F54*
G04*
G04*
G04 #@! TF.FilePolarity,Positive*
G04*
G01*
G75*
%ADD10C,0.25*%
%ADD11C,0.30*%
%ADD12C,0.40*%
%ADD13C,0.15*%
%ADD14C,0.20*%
%ADD15C,0.20*%
D10*
X003898Y006668D02*
G03*
X003771Y006541I000000J-000127D01*
G01*
X006133Y004624D02*
G03*
X006247Y004751I-000006J000121D01*
G01*
X006247Y006541D02*
G03*
X006133Y006668I-000121J000006D01*
G01*
X006892Y004751D02*
G03*
X007007Y004624I000121J-000006D01*
G01*
Y006668D02*
G03*
X006892Y006541I000006J-000121D01*
G01*
X009242Y004624D02*
G03*
X009369Y004751I000000J000127D01*
G01*
X005593Y006773D02*
Y007027D01*
X007559Y004243D02*
Y004497D01*
X003771Y004624D02*
X006120D01*
X003898Y006668D02*
X006120D01*
X006247Y004751D02*
Y006541D01*
X003771Y004624D02*
Y006541D01*
X007019Y006668D02*
X009369D01*
X007019Y004624D02*
X009242D01*
X006892Y004751D02*
Y006541D01*
X009369Y004751D02*
Y006668D01*
X005319Y004253D02*
Y004507D01*
X009647Y002865D02*
Y003957D01*
X009520Y002738D02*
X009647Y002865D01*
X008695Y002738D02*
X009520D01*
X008695Y003957D02*
X009647D01*
X008695Y002738D02*
Y003957D01*
X007771Y006773D02*
Y007027D01*
X003468Y002729D02*
Y003822D01*
X003595Y003949D01*
X004420D01*
X003468Y002729D02*
X004420D01*
Y003949D01*
D11*
X009817Y001825D02*
G03*
X009864Y001828I000000J000300D01*
G01*
X008702Y001232D02*
G03*
X008773Y001425I-000230J000193D01*
G01*
X007176Y007430D02*
G03*
X006916Y007280I000000J-000300D01*
G01*
X004073Y006825D02*
G03*
X004373Y007125I000000J000300D01*
G01*
X006224Y007280D02*
G03*
X005964Y007430I-000260J-000150D01*
G01*
X009073Y001825D02*
G03*
X008773Y001525I000000J-000300D01*
G01*
X008070Y001530D02*
G03*
X008370Y001230I000300J000000D01*
G01*
X004770D02*
G03*
X005070Y001530I000000J000300D01*
G01*
X008773Y007125D02*
G03*
X009073Y006825I000300J000000D01*
G01*
X009879Y006818D02*
G03*
X009817Y006825I-000062J-000293D01*
G01*
X003782Y001318D02*
G03*
X003994Y001230I000212J000212D01*
G01*
X002358Y005918D02*
G03*
X002270Y005706I000212J-000212D01*
G01*
X009146Y001230D02*
G03*
X009358Y001318I000000J000300D01*
G01*
X004373Y001525D02*
G03*
X004073Y001825I-000300J000000D01*
G01*
X003328Y006825D02*
G03*
X003261Y006817I000000J-000300D01*
G01*
X010782Y002742D02*
G03*
X010870Y002954I-000212J000212D01*
G01*
X004373Y001425D02*
G03*
X004450Y001224I000300J000000D01*
G01*
X009358Y007342D02*
G03*
X009146Y007430I-000212J-000212D01*
G01*
X002270Y002954D02*
G03*
X002358Y002742I000300J000000D01*
G01*
X006224Y007280D02*
G03*
X006916Y007280I000346J000200D01*
G01*
X008070Y001530D02*
G03*
X007770Y001830I-000300J000000D01*
G01*
X010870Y005706D02*
G03*
X010782Y005918I-000300J000000D01*
G01*
X003276Y001829D02*
G03*
X003328Y001825I000052J000295D01*
G01*
X004450Y007425D02*
G03*
X004373Y007225I000223J-000201D01*
G01*
X003994Y007430D02*
G03*
X003782Y007342I000000J-000300D01*
G01*
X005370Y001830D02*
G03*
X005070Y001530I000000J-000300D01*
G01*
X008773Y007225D02*
G03*
X008694Y007427I-000300J000000D01*
G01*
X009358Y001318D02*
X010782Y002742D01*
X010870Y002954D02*
Y005706D01*
X007176Y007430D02*
X009146D01*
X002358Y002742D02*
X003782Y001318D01*
X003994Y007430D02*
X005964D01*
X003328Y006825D02*
X004073D01*
X005370Y001830D02*
X007770D01*
X004373Y001425D02*
Y001525D01*
X003994Y001230D02*
X004770D01*
X009073Y001825D02*
X009817D01*
X009358Y007342D02*
X010782Y005918D01*
X002270Y002954D02*
Y005706D01*
X002358Y005918D02*
X003782Y007342D01*
X009073Y006825D02*
X009817D01*
X003328Y001825D02*
X004073D01*
X004373Y007125D02*
Y007225D01*
X008773Y001425D02*
Y001525D01*
X008370Y001230D02*
X009146D01*
X008773Y007125D02*
Y007225D01*
D12*
X009903Y002757D02*
G03*
X009903Y002757I-000020J000000D01*
G01*
X003253Y003930D02*
G03*
X003253Y003930I-000020J000000D01*
G01*
D13*
X005377Y007117D02*
Y007243D01*
X005695Y007117D02*
Y007243D01*
X005504Y007256D02*
X005568D01*
X005504Y007104D02*
X005568D01*
X007775Y004017D02*
Y004144D01*
X007457Y004017D02*
Y004144D01*
X007584Y004004D02*
X007648D01*
X007584Y004156D02*
X007648D01*
X007555Y007136D02*
Y007264D01*
X007873Y007136D02*
Y007264D01*
X007682Y007276D02*
X007746D01*
X007682Y007124D02*
X007746D01*
D14*
X005847Y006730D02*
Y007070D01*
X005707D02*
X005847D01*
X005707Y006730D02*
X005847D01*
X005225D02*
Y007070D01*
Y006730D02*
X005364D01*
X005225Y007070D02*
X005364D01*
X003930Y004195D02*
X004170D01*
X004210Y004230D02*
Y004512D01*
X003930Y004195D02*
Y004550D01*
X004170D01*
X004780Y004190D02*
Y004545D01*
X004540Y004190D02*
X004780D01*
X004540Y004545D02*
X004780D01*
X007305Y004200D02*
Y004540D01*
Y004200D02*
X007444D01*
X007305Y004540D02*
X007444D01*
X007927Y004200D02*
Y004540D01*
X007787D02*
X007927D01*
X007787Y004200D02*
X007927D01*
X009775Y005712D02*
Y005952D01*
X009420Y005712D02*
Y005952D01*
Y005712D02*
X009775D01*
X009780Y006322D02*
Y006562D01*
X009425D02*
X009780D01*
X009460Y006282D02*
X009742D01*
X009425Y006322D02*
Y006562D01*
X005547Y004210D02*
X005687D01*
X005547Y004550D02*
X005687D01*
Y004210D02*
Y004550D01*
X005065D02*
X005204D01*
X005065Y004210D02*
X005204D01*
X005065D02*
Y004550D01*
X008025Y006730D02*
Y007070D01*
X007886D02*
X008025D01*
X007886Y006730D02*
X008025D01*
X007403D02*
Y007070D01*
Y006730D02*
X007543D01*
X007403Y007070D02*
X007543D01*
X006506Y002048D02*
Y002558D01*
X003905D02*
X006506D01*
X003903Y002048D02*
X006506D01*
X003903D02*
Y002557D01*
X006633Y002048D02*
Y002558D01*
Y002048D02*
X009234D01*
X006633Y002558D02*
X009237D01*
Y002049D02*
Y002558D01*
X007043Y003930D02*
X007818D01*
X007043Y003524D02*
X007818D01*
X008212Y003473D02*
Y003981D01*
X005317Y002757D02*
X006091D01*
X005317Y003163D02*
X006091D01*
X004923Y002706D02*
Y003214D01*
Y003468D02*
Y003976D01*
X005317Y003925D02*
X006091D01*
X005317Y003519D02*
X006091D01*
X007043Y003168D02*
X007818D01*
X007043Y002761D02*
X007818D01*
X008212Y002711D02*
Y003219D01*
X003895Y004145D02*
Y004085D01*
X003925Y004055D01*
X003955Y004085D01*
Y004145D01*
X003985D02*
Y004055D01*
X004030D01*
X004045Y004070D01*
Y004130D01*
X004030Y004145D01*
X003985D01*
X004075Y004055D02*
X004105D01*
X004090D01*
Y004145D01*
X004075Y004130D01*
X009033Y004145D02*
Y004085D01*
X009063Y004055D01*
X009093Y004085D01*
Y004145D01*
X009123D02*
Y004055D01*
X009167D01*
X009182Y004070D01*
Y004130D01*
X009167Y004145D01*
X009123D01*
X009272Y004055D02*
X009212D01*
X009272Y004115D01*
Y004130D01*
X009257Y004145D01*
X009227D01*
X009212Y004130D01*
X004983Y007238D02*
X004967Y007255D01*
X004933D01*
X004917Y007238D01*
Y007172D01*
X004933Y007155D01*
X004967D01*
X004983Y007172D01*
X005067Y007155D02*
Y007255D01*
X005017Y007205D01*
X005083D01*
X004983Y006933D02*
X004967Y006950D01*
X004933D01*
X004917Y006933D01*
Y006867D01*
X004933Y006850D01*
X004967D01*
X004983Y006867D01*
X005083Y006950D02*
X005017D01*
Y006900D01*
X005050Y006917D01*
X005067D01*
X005083Y006900D01*
Y006867D01*
X005067Y006850D01*
X005033D01*
X005017Y006867D01*
X003733Y004508D02*
X003717Y004525D01*
X003683D01*
X003667Y004508D01*
Y004442D01*
X003683Y004425D01*
X003717D01*
X003733Y004442D01*
X003767Y004525D02*
X003833D01*
Y004508D01*
X003767Y004442D01*
Y004425D01*
X008167Y004508D02*
X008150Y004525D01*
X008117D01*
X008100Y004508D01*
Y004442D01*
X008117Y004425D01*
X008150D01*
X008167Y004442D01*
X008200Y004425D02*
X008233D01*
X008217D01*
Y004525D01*
X008200Y004508D01*
X008283D02*
X008300Y004525D01*
X008333D01*
X008350Y004508D01*
Y004492D01*
X008333Y004475D01*
X008317D01*
X008333D01*
X008350Y004458D01*
Y004442D01*
X008333Y004425D01*
X008300D01*
X008283Y004442D01*
X008167Y004233D02*
X008150Y004250D01*
X008117D01*
X008100Y004233D01*
Y004167D01*
X008117Y004150D01*
X008150D01*
X008167Y004167D01*
X008200Y004150D02*
X008233D01*
X008217D01*
Y004250D01*
X008200Y004233D01*
X008350Y004150D02*
X008283D01*
X008350Y004217D01*
Y004233D01*
X008333Y004250D01*
X008300D01*
X008283Y004233D01*
X007016Y003410D02*
X006956D01*
Y003365D01*
X006986D01*
X006956D01*
Y003320D01*
X007046Y003410D02*
Y003335D01*
X007061Y003320D01*
X007091D01*
X007106Y003335D01*
Y003410D01*
X007181Y003320D02*
Y003410D01*
X007136Y003365D01*
X007196D01*
X007016Y004180D02*
X006956D01*
Y004135D01*
X006986D01*
X006956D01*
Y004090D01*
X007046Y004180D02*
Y004105D01*
X007061Y004090D01*
X007091D01*
X007106Y004105D01*
Y004180D01*
X007136Y004165D02*
X007151Y004180D01*
X007181D01*
X007196Y004165D01*
Y004150D01*
X007181Y004135D01*
X007166D01*
X007181D01*
X007196Y004120D01*
Y004105D01*
X007181Y004090D01*
X007151D01*
X007136Y004105D01*
X004415Y006845D02*
Y006770D01*
X004430Y006755D01*
X004460D01*
X004475Y006770D01*
Y006845D01*
X004505Y006755D02*
X004535D01*
X004520D01*
Y006845D01*
X004505Y006830D01*
X007148Y007230D02*
X007133Y007245D01*
X007103D01*
X007088Y007230D01*
Y007170D01*
X007103Y007155D01*
X007133D01*
X007148Y007170D01*
X007178D02*
X007193Y007155D01*
X007222D01*
X007237Y007170D01*
Y007230D01*
X007222Y007245D01*
X007193D01*
X007178Y007230D01*
Y007215D01*
X007193Y007200D01*
X007237D01*
X008450Y006845D02*
Y006770D01*
X008465Y006755D01*
X008495D01*
X008510Y006770D01*
Y006845D01*
X008600Y006755D02*
X008540D01*
X008600Y006815D01*
Y006830D01*
X008585Y006845D01*
X008555D01*
X008540Y006830D01*
X009498Y006725D02*
X009481Y006742D01*
X009448D01*
X009431Y006725D01*
Y006658D01*
X009448Y006642D01*
X009481D01*
X009498Y006658D01*
X009531Y006642D02*
X009564D01*
X009548D01*
Y006742D01*
X009531Y006725D01*
X009681Y006742D02*
X009614D01*
Y006692D01*
X009648Y006708D01*
X009664D01*
X009681Y006692D01*
Y006658D01*
X009664Y006642D01*
X009631D01*
X009614Y006658D01*
X005840Y004180D02*
X005780D01*
Y004135D01*
X005810D01*
X005780D01*
Y004090D01*
X005870Y004180D02*
Y004105D01*
X005885Y004090D01*
X005915D01*
X005930Y004105D01*
Y004180D01*
X006020Y004090D02*
X005960D01*
X006020Y004150D01*
Y004165D01*
X006005Y004180D01*
X005975D01*
X005960Y004165D01*
X005870Y003410D02*
X005810D01*
Y003365D01*
X005840D01*
X005810D01*
Y003320D01*
X005900Y003410D02*
Y003335D01*
X005915Y003320D01*
X005945D01*
X005960Y003335D01*
Y003410D01*
X005990Y003320D02*
X006020D01*
X006005D01*
Y003410D01*
X005990Y003395D01*
X009325Y002375D02*
X009385Y002285D01*
Y002375D02*
X009325Y002285D01*
X009415Y002360D02*
X009430Y002375D01*
X009460D01*
X009475Y002360D01*
Y002345D01*
X009460Y002330D01*
X009445D01*
X009460D01*
X009475Y002315D01*
Y002300D01*
X009460Y002285D01*
X009430D01*
X009415Y002300D01*
X003680Y002375D02*
X003740Y002285D01*
Y002375D02*
X003680Y002285D01*
X003770D02*
X003800D01*
X003785D01*
Y002375D01*
X003770Y002360D01*
X007148Y006930D02*
X007133Y006945D01*
X007103D01*
X007088Y006930D01*
Y006870D01*
X007103Y006855D01*
X007133D01*
X007148Y006870D01*
X007178Y006855D02*
X007207D01*
X007193D01*
Y006945D01*
X007178Y006930D01*
X007252D02*
X007267Y006945D01*
X007297D01*
X007312Y006930D01*
Y006870D01*
X007297Y006855D01*
X007267D01*
X007252Y006870D01*
Y006930D01*
X005885Y004510D02*
X005870Y004525D01*
X005840D01*
X005825Y004510D01*
Y004450D01*
X005840Y004435D01*
X005870D01*
X005885Y004450D01*
X005975Y004435D02*
X005915D01*
X005975Y004495D01*
Y004510D01*
X005960Y004525D01*
X005930D01*
X005915Y004510D01*
D15*
X007818Y003930D02*
X007869Y003981D01*
X007818Y003524D02*
X007869Y003473D01*
X006662D02*
X006993D01*
X006662Y003981D02*
X006993D01*
X006662Y003473D02*
Y003981D01*
X006993D02*
X007043Y003930D01*
X007869Y003981D02*
X008212D01*
X006993Y003473D02*
X007043Y003524D01*
X007869Y003473D02*
X008212D01*
X005266Y002706D02*
X005317Y002757D01*
X005266Y003214D02*
X005317Y003163D01*
X006142Y003214D02*
X006472D01*
X006142Y002706D02*
X006472D01*
Y003214D01*
X006091Y002757D02*
X006142Y002706D01*
X004923D02*
X005266D01*
X006091Y003163D02*
X006142Y003214D01*
X004923D02*
X005266D01*
X004923Y003976D02*
X005266D01*
X006091Y003925D02*
X006142Y003976D01*
X004923Y003468D02*
X005266D01*
X006091Y003519D02*
X006142Y003468D01*
X006472D02*
Y003976D01*
X006142Y003468D02*
X006472D01*
X006142Y003976D02*
X006472D01*
X005266D02*
X005317Y003925D01*
X005266Y003468D02*
X005317Y003519D01*
X007818Y003168D02*
X007869Y003219D01*
X007818Y002761D02*
X007869Y002711D01*
X006662D02*
X006993D01*
X006662Y003219D02*
X006993D01*
X006662Y002711D02*
Y003219D01*
X006993D02*
X007043Y003168D01*
X007869Y003219D02*
X008212D01*
X006993Y002711D02*
X007043Y002761D01*
X007869Y002711D02*
X008212D01*
M02*
