G04*
G04 #@! TF.GenerationSoftware,Altium Limited,Altium Designer,23.9.2 (47)*
G04*
G04 Layer_Physical_Order=4*
G04 Layer_Color=16711680*
%FSAX42Y42*%
%MOMM*%
G71*
G04*
G04 #@! TF.SameCoordinates,6700F035-4CF4-4C6A-B223-3C7F8516C722*
G04*
G04*
G04 #@! TF.FilePolarity,Positive*
G04*
G01*
G75*
%ADD13C,0.50*%
%ADD31C,0.75*%
%ADD32C,1.52*%
%ADD33R,1.52X1.52*%
%ADD34O,1.10X1.30*%
%ADD35R,1.10X1.30*%
%ADD36C,1.00*%
%ADD37R,1.00X1.00*%
%ADD38C,4.50*%
%ADD39C,6.00*%
%ADD48R,1.30X0.80*%
%ADD49R,0.80X1.30*%
%ADD50R,1.63X0.81*%
%ADD51R,1.50X0.50*%
G36*
X008732Y007430D02*
Y006847D01*
Y006531D01*
X008720Y006523D01*
X008705Y006532D01*
X008681Y006538D01*
Y006438D01*
Y006337D01*
X008705Y006343D01*
X008720Y006352D01*
X008732Y006345D01*
Y005938D01*
X010875D01*
Y005696D01*
X010818D01*
Y005630D01*
Y005565D01*
X010875D01*
Y005540D01*
X010129D01*
X010125Y005541D01*
X008466D01*
Y006729D01*
X008474Y006731D01*
X008494Y006743D01*
X008511Y006760D01*
X008523Y006780D01*
X008529Y006803D01*
Y006827D01*
X008523Y006850D01*
X008511Y006870D01*
X008494Y006887D01*
X008474Y006899D01*
X008451Y006905D01*
X008427D01*
X008404Y006899D01*
X008384Y006887D01*
X008367Y006870D01*
X008355Y006850D01*
X008349Y006827D01*
Y006803D01*
X008352Y006791D01*
X008345Y006781D01*
X007121D01*
X007114Y006791D01*
X007114Y006793D01*
X007120Y006816D01*
Y006839D01*
X007114Y006862D01*
X007102Y006883D01*
X007085Y006900D01*
X007065Y006911D01*
X007042Y006918D01*
X007018D01*
X006995Y006911D01*
X006975Y006900D01*
X006958Y006883D01*
X006946Y006862D01*
X006940Y006839D01*
Y006816D01*
X006946Y006793D01*
X006946Y006791D01*
X006939Y006781D01*
X006243D01*
X006236Y006791D01*
X006237Y006793D01*
X006242Y006816D01*
Y006839D01*
X006236Y006862D01*
X006225Y006883D01*
X006208Y006900D01*
X006187Y006911D01*
X006164Y006918D01*
X006141D01*
X006118Y006911D01*
X006097Y006900D01*
X006080Y006883D01*
X006069Y006862D01*
X006062Y006839D01*
Y006816D01*
X006068Y006793D01*
X006069Y006791D01*
X006062Y006781D01*
X005588D01*
X005481Y006781D01*
Y007234D01*
X005142D01*
Y006781D01*
Y005550D01*
X004438D01*
Y006612D01*
Y007417D01*
X006052D01*
X006593Y007081D01*
X007126Y007430D01*
X008515D01*
X008732Y007430D01*
D02*
G37*
G36*
X009932Y005045D02*
Y004852D01*
X010093D01*
Y004891D01*
X010128D01*
X010137Y004884D01*
Y004855D01*
X010218D01*
Y004896D01*
X010177D01*
X010173Y004909D01*
X010175Y004910D01*
X010214Y004950D01*
X010364D01*
Y004950D01*
X010371Y004954D01*
X010383Y004947D01*
X010406Y004940D01*
X010430D01*
X010453Y004947D01*
X010473Y004958D01*
X010480Y004965D01*
X010556D01*
X010563Y004958D01*
X010583Y004947D01*
X010606Y004940D01*
X010630D01*
X010653Y004947D01*
X010665Y004954D01*
X010672Y004950D01*
Y004950D01*
X010870D01*
Y004896D01*
X010818D01*
Y004830D01*
Y004765D01*
X010870D01*
Y004696D01*
X010818D01*
Y004630D01*
Y004565D01*
X010870D01*
Y004511D01*
X010672D01*
Y004511D01*
X010665Y004507D01*
X010653Y004514D01*
X010630Y004520D01*
X010606D01*
X010583Y004514D01*
X010563Y004502D01*
X010556Y004496D01*
X010480D01*
X010473Y004502D01*
X010453Y004514D01*
X010430Y004520D01*
X010406D01*
X010383Y004514D01*
X010371Y004507D01*
X010364Y004511D01*
Y004511D01*
X010122D01*
X010122Y004511D01*
Y004511D01*
X010110Y004514D01*
X009921Y004703D01*
X009907Y004714D01*
X009892Y004720D01*
X009875Y004722D01*
X007513D01*
X007264Y004971D01*
X007251Y004982D01*
X007235Y004988D01*
X007218Y004991D01*
X005844D01*
X005827Y004988D01*
X005818Y004984D01*
X005812Y004982D01*
X005798Y004971D01*
X005549Y004722D01*
X004321D01*
X004304Y004720D01*
X004289Y004714D01*
X004275Y004703D01*
X004219Y004648D01*
X003837D01*
X003820Y004645D01*
X003805Y004639D01*
X003791Y004628D01*
X003724Y004561D01*
X003712Y004563D01*
X003688Y004560D01*
X003665Y004550D01*
X003645Y004535D01*
X003635Y004523D01*
X003536D01*
X003526Y004535D01*
X003506Y004550D01*
X003483Y004560D01*
X003458Y004563D01*
X003434Y004560D01*
X003411Y004550D01*
X003391Y004535D01*
X003375Y004515D01*
X003366Y004492D01*
X003363Y004467D01*
Y004447D01*
X003366Y004422D01*
X003375Y004399D01*
X003391Y004379D01*
X003411Y004364D01*
X003434Y004355D01*
X003458Y004351D01*
X003483Y004355D01*
X003506Y004364D01*
X003526Y004379D01*
X003536Y004391D01*
X003635D01*
X003645Y004379D01*
X003647Y004378D01*
Y004282D01*
X003645Y004281D01*
X003635Y004269D01*
X003536D01*
X003526Y004281D01*
X003506Y004296D01*
X003483Y004306D01*
X003458Y004309D01*
X003434Y004306D01*
X003411Y004296D01*
X003391Y004281D01*
X003375Y004261D01*
X003366Y004238D01*
X003363Y004213D01*
Y004193D01*
X003366Y004168D01*
X003375Y004145D01*
X003391Y004125D01*
X003411Y004110D01*
X003434Y004101D01*
X003458Y004097D01*
X003483Y004101D01*
X003506Y004110D01*
X003526Y004125D01*
X003536Y004137D01*
X003635D01*
X003645Y004125D01*
X003665Y004110D01*
X003688Y004101D01*
X003712Y004097D01*
X003737Y004101D01*
X003760Y004110D01*
X003780Y004125D01*
X003795Y004145D01*
X003805Y004168D01*
X003808Y004193D01*
Y004213D01*
X003805Y004238D01*
X003795Y004261D01*
X003780Y004281D01*
X003778Y004282D01*
Y004378D01*
X003780Y004379D01*
X003795Y004399D01*
X003805Y004422D01*
X003808Y004447D01*
Y004460D01*
X003859Y004511D01*
X003869Y004511D01*
X003877Y004498D01*
X003874Y004492D01*
X003871Y004467D01*
Y004447D01*
X003874Y004422D01*
X003883Y004399D01*
X003899Y004379D01*
X003919Y004364D01*
X003942Y004355D01*
X003966Y004351D01*
X003991Y004355D01*
X004014Y004364D01*
X004034Y004379D01*
X004044Y004391D01*
X004143D01*
X004153Y004379D01*
X004155Y004378D01*
Y004282D01*
X004153Y004281D01*
X004143Y004269D01*
X004044D01*
X004034Y004281D01*
X004014Y004296D01*
X003991Y004306D01*
X003966Y004309D01*
X003942Y004306D01*
X003919Y004296D01*
X003899Y004281D01*
X003883Y004261D01*
X003874Y004238D01*
X003871Y004213D01*
Y004193D01*
X003874Y004168D01*
X003883Y004145D01*
X003899Y004125D01*
X003919Y004110D01*
X003942Y004101D01*
X003966Y004097D01*
X003991Y004101D01*
X004014Y004110D01*
X004034Y004125D01*
X004044Y004137D01*
X004143D01*
X004153Y004125D01*
X004173Y004110D01*
X004196Y004101D01*
X004220Y004097D01*
X004245Y004101D01*
X004268Y004110D01*
X004288Y004125D01*
X004303Y004145D01*
X004313Y004168D01*
X004316Y004193D01*
Y004213D01*
X004313Y004238D01*
X004303Y004261D01*
X004288Y004281D01*
X004286Y004282D01*
Y004378D01*
X004288Y004379D01*
X004303Y004399D01*
X004313Y004422D01*
X004316Y004447D01*
Y004460D01*
X004377Y004521D01*
X004401D01*
X004407Y004510D01*
X004405Y004507D01*
X004397Y004488D01*
X004394Y004472D01*
X004474D01*
X004554D01*
X004552Y004488D01*
X004544Y004507D01*
X004542Y004510D01*
X004548Y004521D01*
X004655D01*
X004661Y004510D01*
X004659Y004507D01*
X004651Y004488D01*
X004648Y004472D01*
X004728D01*
X004808D01*
X004806Y004488D01*
X004798Y004507D01*
X004796Y004510D01*
X004802Y004521D01*
X004889D01*
X004897Y004509D01*
X004890Y004492D01*
X004887Y004467D01*
Y004447D01*
X004890Y004422D01*
X004899Y004399D01*
X004915Y004379D01*
X004935Y004364D01*
X004958Y004355D01*
X004982Y004351D01*
X005007Y004355D01*
X005030Y004364D01*
X005050Y004379D01*
X005065Y004399D01*
X005075Y004422D01*
X005078Y004447D01*
Y004467D01*
X005075Y004492D01*
X005068Y004509D01*
X005076Y004521D01*
X005143D01*
X005151Y004509D01*
X005144Y004492D01*
X005141Y004467D01*
Y004447D01*
X005144Y004422D01*
X005153Y004399D01*
X005169Y004379D01*
X005189Y004364D01*
X005212Y004355D01*
X005236Y004351D01*
X005261Y004355D01*
X005284Y004364D01*
X005304Y004379D01*
X005319Y004399D01*
X005329Y004422D01*
X005332Y004447D01*
Y004467D01*
X005329Y004492D01*
X005322Y004509D01*
X005330Y004521D01*
X005397D01*
X005405Y004509D01*
X005398Y004492D01*
X005395Y004467D01*
Y004447D01*
X005398Y004422D01*
X005407Y004399D01*
X005423Y004379D01*
X005443Y004364D01*
X005466Y004355D01*
X005490Y004351D01*
X005515Y004355D01*
X005538Y004364D01*
X005558Y004379D01*
X005573Y004399D01*
X005583Y004422D01*
X005586Y004447D01*
Y004467D01*
X005583Y004492D01*
X005576Y004509D01*
X005584Y004521D01*
X005605D01*
X005622Y004524D01*
X005637Y004530D01*
X005646Y004526D01*
X005649Y004525D01*
Y004352D01*
X005839D01*
Y004562D01*
X005690D01*
X005685Y004574D01*
X005896Y004784D01*
X007167D01*
X007385Y004566D01*
X007383Y004554D01*
X007374Y004550D01*
X007354Y004535D01*
X007339Y004515D01*
X007329Y004492D01*
X007326Y004467D01*
Y004447D01*
X007329Y004422D01*
X007339Y004399D01*
X007354Y004379D01*
X007374Y004364D01*
X007397Y004355D01*
X007422Y004351D01*
X007446Y004355D01*
X007469Y004364D01*
X007489Y004379D01*
X007505Y004399D01*
X007514Y004422D01*
X007517Y004447D01*
Y004467D01*
X007514Y004492D01*
X007507Y004509D01*
X007515Y004521D01*
X007582D01*
X007590Y004509D01*
X007583Y004492D01*
X007580Y004467D01*
Y004447D01*
X007583Y004422D01*
X007593Y004399D01*
X007608Y004379D01*
X007628Y004364D01*
X007651Y004355D01*
X007676Y004351D01*
X007700Y004355D01*
X007723Y004364D01*
X007743Y004379D01*
X007759Y004399D01*
X007768Y004422D01*
X007771Y004447D01*
Y004467D01*
X007768Y004492D01*
X007761Y004509D01*
X007769Y004521D01*
X007836D01*
X007844Y004509D01*
X007837Y004492D01*
X007834Y004467D01*
Y004447D01*
X007837Y004422D01*
X007847Y004399D01*
X007862Y004379D01*
X007882Y004364D01*
X007905Y004355D01*
X007930Y004351D01*
X007954Y004355D01*
X007977Y004364D01*
X007997Y004379D01*
X008013Y004399D01*
X008022Y004422D01*
X008025Y004447D01*
Y004467D01*
X008022Y004492D01*
X008015Y004509D01*
X008023Y004521D01*
X008090D01*
X008098Y004509D01*
X008091Y004492D01*
X008088Y004467D01*
Y004447D01*
X008091Y004422D01*
X008101Y004399D01*
X008116Y004379D01*
X008136Y004364D01*
X008159Y004355D01*
X008184Y004351D01*
X008208Y004355D01*
X008231Y004364D01*
X008251Y004379D01*
X008267Y004399D01*
X008276Y004422D01*
X008279Y004447D01*
Y004467D01*
X008276Y004492D01*
X008269Y004509D01*
X008277Y004521D01*
X008364D01*
X008370Y004510D01*
X008368Y004507D01*
X008360Y004488D01*
X008358Y004472D01*
X008518D01*
X008515Y004488D01*
X008507Y004507D01*
X008505Y004510D01*
X008511Y004521D01*
X008618D01*
X008624Y004510D01*
X008622Y004507D01*
X008614Y004488D01*
X008612Y004472D01*
X008772D01*
X008769Y004488D01*
X008761Y004507D01*
X008759Y004510D01*
X008765Y004521D01*
X008852D01*
X008860Y004509D01*
X008853Y004492D01*
X008850Y004467D01*
Y004447D01*
X008853Y004422D01*
X008863Y004399D01*
X008878Y004379D01*
X008880Y004378D01*
Y004282D01*
X008878Y004281D01*
X008863Y004261D01*
X008853Y004238D01*
X008850Y004213D01*
Y004193D01*
X008853Y004168D01*
X008863Y004145D01*
X008878Y004125D01*
X008898Y004110D01*
X008921Y004101D01*
X008946Y004097D01*
X008970Y004101D01*
X008993Y004110D01*
X009013Y004125D01*
X009023Y004137D01*
X009122D01*
X009132Y004125D01*
X009152Y004110D01*
X009175Y004101D01*
X009200Y004097D01*
X009224Y004101D01*
X009247Y004110D01*
X009258Y004118D01*
X009272D01*
X009272Y004118D01*
X009282Y004105D01*
X009355Y004032D01*
X009369Y004021D01*
X009385Y004015D01*
X009402Y004012D01*
X009450D01*
X009614Y003849D01*
X009627Y003838D01*
X009643Y003832D01*
X009660Y003829D01*
X010122D01*
Y003750D01*
X010364D01*
Y003750D01*
X010371Y003754D01*
X010383Y003747D01*
X010406Y003740D01*
X010430D01*
X010453Y003747D01*
X010473Y003758D01*
X010480Y003765D01*
X010556D01*
X010563Y003758D01*
X010583Y003747D01*
X010606Y003740D01*
X010630D01*
X010653Y003747D01*
X010665Y003754D01*
X010672Y003750D01*
Y003750D01*
X010870D01*
Y003711D01*
X010672D01*
Y003711D01*
X010659Y003711D01*
X010653Y003714D01*
X010630Y003720D01*
X010606D01*
X010583Y003714D01*
X010573Y003709D01*
X010462D01*
X010453Y003714D01*
X010430Y003720D01*
X010406D01*
X010383Y003714D01*
X010377Y003711D01*
X010364Y003711D01*
Y003711D01*
X010122D01*
Y003700D01*
X009550D01*
X009544Y003708D01*
Y003738D01*
X009536Y003768D01*
X009521Y003794D01*
X009499Y003816D01*
X009473Y003831D01*
X009443Y003839D01*
X009413D01*
X009383Y003831D01*
X009357Y003816D01*
X009335Y003794D01*
X009320Y003768D01*
X009312Y003738D01*
Y003708D01*
X009306Y003700D01*
X008788D01*
X008782Y003708D01*
Y003738D01*
X008774Y003768D01*
X008759Y003794D01*
X008737Y003816D01*
X008711Y003831D01*
X008681Y003839D01*
X008651D01*
X008621Y003831D01*
X008595Y003816D01*
X008573Y003794D01*
X008558Y003768D01*
X008550Y003738D01*
Y003708D01*
X008544Y003700D01*
X007772D01*
X007766Y003708D01*
Y003738D01*
X007758Y003768D01*
X007743Y003794D01*
X007721Y003816D01*
X007695Y003831D01*
X007665Y003839D01*
X007635D01*
X007605Y003831D01*
X007579Y003816D01*
X007557Y003794D01*
X007542Y003768D01*
X007534Y003738D01*
Y003708D01*
X007528Y003700D01*
X007050D01*
Y003825D01*
Y004350D01*
Y004725D01*
X006100D01*
Y004575D01*
Y004145D01*
X006087Y004142D01*
X006085Y004146D01*
X006071Y004160D01*
X006054Y004170D01*
X006040Y004174D01*
Y004100D01*
Y004026D01*
X006054Y004030D01*
X006071Y004040D01*
X006085Y004054D01*
X006087Y004058D01*
X006100Y004055D01*
Y003650D01*
X005610D01*
X005603Y003663D01*
X005612Y003678D01*
X005620Y003708D01*
Y003738D01*
X005612Y003768D01*
X005596Y003794D01*
X005575Y003816D01*
X005548Y003831D01*
X005519Y003839D01*
X005488D01*
X005459Y003831D01*
X005432Y003816D01*
X005410Y003794D01*
X005395Y003768D01*
X005387Y003738D01*
Y003708D01*
X005395Y003678D01*
X005404Y003663D01*
X005397Y003650D01*
X004848D01*
X004841Y003663D01*
X004850Y003678D01*
X004858Y003708D01*
Y003738D01*
X004850Y003768D01*
X004834Y003794D01*
X004813Y003816D01*
X004786Y003831D01*
X004757Y003839D01*
X004726D01*
X004697Y003831D01*
X004670Y003816D01*
X004648Y003794D01*
X004633Y003768D01*
X004625Y003738D01*
Y003708D01*
X004633Y003678D01*
X004642Y003663D01*
X004635Y003650D01*
X003832D01*
X003825Y003663D01*
X003834Y003678D01*
X003842Y003708D01*
Y003738D01*
X003834Y003768D01*
X003818Y003794D01*
X003797Y003816D01*
X003770Y003831D01*
X003741Y003839D01*
X003710D01*
X003681Y003831D01*
X003654Y003816D01*
X003632Y003794D01*
X003617Y003768D01*
X003609Y003738D01*
Y003708D01*
X003617Y003678D01*
X003626Y003663D01*
X003619Y003650D01*
X003237D01*
Y004775D01*
X004244D01*
X004246Y004771D01*
X004259Y004762D01*
X004275Y004759D01*
X004650D01*
X004666Y004762D01*
X004679Y004771D01*
X004681Y004775D01*
X004700D01*
Y005224D01*
X007579D01*
Y005030D01*
X007534D01*
Y004798D01*
X007766D01*
Y005030D01*
X007711D01*
Y005224D01*
X008225D01*
Y004775D01*
X008241D01*
X008246Y004768D01*
X008259Y004759D01*
X008275Y004756D01*
X008600D01*
X008616Y004759D01*
X008629Y004768D01*
X008638Y004781D01*
X008641Y004796D01*
X008641Y005224D01*
X008965D01*
Y005090D01*
X009205D01*
Y005071D01*
X009207Y005054D01*
X009214Y005039D01*
X009224Y005025D01*
X009314Y004935D01*
X009312Y004929D01*
Y004898D01*
X009320Y004869D01*
X009335Y004842D01*
X009357Y004821D01*
X009383Y004805D01*
X009413Y004798D01*
X009443D01*
X009473Y004805D01*
X009499Y004821D01*
X009521Y004842D01*
X009536Y004869D01*
X009544Y004898D01*
Y004929D01*
X009536Y004959D01*
X009521Y004985D01*
X009499Y005007D01*
X009473Y005022D01*
X009443Y005030D01*
X009413D01*
X009406Y005028D01*
X009356Y005078D01*
X009361Y005090D01*
X009375D01*
Y005224D01*
X009757D01*
Y005175D01*
X009888D01*
Y005225D01*
X009932D01*
Y005045D01*
D02*
G37*
G36*
X005438Y006740D02*
X006131D01*
X006141Y006738D01*
X006164D01*
X006174Y006740D01*
X007009D01*
X007018Y006738D01*
X007042D01*
X007051Y006740D01*
X008389D01*
X008404Y006731D01*
X008425Y006726D01*
Y005500D01*
X010125D01*
X010137Y005496D01*
Y005455D01*
X010243D01*
Y005430D01*
X010268D01*
Y005365D01*
X010349D01*
Y005380D01*
X010362Y005380D01*
X010372Y005370D01*
X010389Y005361D01*
X010403Y005357D01*
Y005430D01*
X010433D01*
Y005357D01*
X010447Y005361D01*
X010454Y005365D01*
X010576D01*
X010579Y005363D01*
X010598Y005355D01*
X010618Y005352D01*
X010793D01*
X010813Y005355D01*
X010832Y005363D01*
X010835Y005365D01*
X010875D01*
Y005325D01*
X009813D01*
Y005265D01*
X008600D01*
X008600Y004796D01*
X008275D01*
Y005265D01*
X007711D01*
Y005915D01*
X007750D01*
Y006075D01*
X007540D01*
Y005915D01*
X007579D01*
Y005265D01*
X004650D01*
Y004800D01*
X004275D01*
X004275Y005500D01*
X005185D01*
Y006774D01*
Y007189D01*
X005438D01*
Y006740D01*
D02*
G37*
G36*
X010074Y004266D02*
X010066Y004256D01*
X010059Y004260D01*
X010045Y004264D01*
Y004205D01*
X010104D01*
X010100Y004219D01*
X010096Y004226D01*
X010106Y004234D01*
X010122Y004218D01*
Y004150D01*
X010364D01*
Y004150D01*
X010371Y004154D01*
X010383Y004147D01*
X010406Y004140D01*
X010430D01*
X010453Y004147D01*
X010473Y004158D01*
X010480Y004165D01*
X010556D01*
X010563Y004158D01*
X010583Y004147D01*
X010606Y004140D01*
X010630D01*
X010653Y004147D01*
X010665Y004154D01*
X010672Y004150D01*
Y004150D01*
X010870D01*
Y004111D01*
X010672D01*
Y004111D01*
X010665Y004107D01*
X010653Y004114D01*
X010630Y004120D01*
X010606D01*
X010583Y004114D01*
X010563Y004102D01*
X010556Y004096D01*
X010480D01*
X010473Y004102D01*
X010453Y004114D01*
X010430Y004120D01*
X010406D01*
X010383Y004114D01*
X010371Y004107D01*
X010364Y004111D01*
Y004111D01*
X010122D01*
Y004041D01*
X009709D01*
X009641Y004109D01*
X009649Y004118D01*
X009660Y004110D01*
X009683Y004101D01*
X009708Y004097D01*
X009732Y004101D01*
X009755Y004110D01*
X009775Y004125D01*
X009791Y004145D01*
X009800Y004168D01*
X009803Y004193D01*
Y004213D01*
X009800Y004238D01*
X009791Y004261D01*
X009775Y004281D01*
X009773Y004282D01*
Y004378D01*
X009775Y004379D01*
X009791Y004399D01*
X009800Y004422D01*
X009803Y004447D01*
Y004467D01*
X009800Y004492D01*
X009793Y004509D01*
X009801Y004521D01*
X009819D01*
X010074Y004266D01*
D02*
G37*
G36*
X009900Y001925D02*
X007800D01*
Y002151D01*
X007813Y002155D01*
X007823Y002137D01*
X007842Y002118D01*
X007865Y002105D01*
X007889Y002098D01*
Y002199D01*
Y002300D01*
X007865Y002293D01*
X007842Y002280D01*
X007823Y002261D01*
X007813Y002243D01*
X007800Y002247D01*
Y002365D01*
X007820D01*
Y002455D01*
Y002545D01*
X007800D01*
Y002850D01*
X009900D01*
Y001925D01*
D02*
G37*
G36*
X005325Y002545D02*
X005300D01*
Y002455D01*
Y002365D01*
X005325D01*
Y001925D01*
X003875D01*
Y002152D01*
X003888Y002156D01*
X003898Y002137D01*
X003917Y002118D01*
X003940Y002105D01*
X003964Y002098D01*
Y002199D01*
Y002300D01*
X003940Y002293D01*
X003917Y002280D01*
X003898Y002261D01*
X003888Y002242D01*
X003875Y002246D01*
Y002365D01*
X003892D01*
Y002455D01*
Y002545D01*
X003875D01*
Y002850D01*
X005325D01*
Y002545D01*
D02*
G37*
%LPC*%
G36*
X007885Y007158D02*
Y007100D01*
X007944D01*
X007940Y007114D01*
X007930Y007131D01*
X007916Y007145D01*
X007899Y007154D01*
X007885Y007158D01*
D02*
G37*
G36*
X007855D02*
X007841Y007154D01*
X007824Y007145D01*
X007810Y007131D01*
X007800Y007114D01*
X007796Y007100D01*
X007855D01*
Y007158D01*
D02*
G37*
G36*
X007944Y007070D02*
X007885D01*
Y007011D01*
X007899Y007015D01*
X007916Y007025D01*
X007930Y007039D01*
X007940Y007056D01*
X007944Y007070D01*
D02*
G37*
G36*
X007855D02*
X007796D01*
X007800Y007056D01*
X007810Y007039D01*
X007824Y007025D01*
X007841Y007015D01*
X007855Y007011D01*
Y007070D01*
D02*
G37*
G36*
X004756Y006905D02*
X004732D01*
X004709Y006899D01*
X004689Y006887D01*
X004672Y006870D01*
X004660Y006850D01*
X004654Y006827D01*
Y006803D01*
X004660Y006780D01*
X004672Y006760D01*
X004689Y006743D01*
X004709Y006731D01*
X004732Y006725D01*
X004756D01*
X004779Y006731D01*
X004799Y006743D01*
X004816Y006760D01*
X004828Y006780D01*
X004834Y006803D01*
Y006827D01*
X004828Y006850D01*
X004816Y006870D01*
X004799Y006887D01*
X004779Y006899D01*
X004756Y006905D01*
D02*
G37*
G36*
X004756Y006554D02*
Y006468D01*
X004842D01*
X004836Y006492D01*
X004822Y006515D01*
X004804Y006534D01*
X004781Y006547D01*
X004756Y006554D01*
D02*
G37*
G36*
X004726Y006554D02*
X004702Y006547D01*
X004679Y006534D01*
X004660Y006515D01*
X004647Y006492D01*
X004641Y006468D01*
X004726D01*
Y006554D01*
D02*
G37*
G36*
X008651Y006538D02*
X008627Y006532D01*
X008604Y006519D01*
X008585Y006500D01*
X008572Y006477D01*
X008565Y006453D01*
X008651D01*
Y006538D01*
D02*
G37*
G36*
X004726Y006438D02*
X004641D01*
X004647Y006414D01*
X004660Y006391D01*
X004679Y006372D01*
X004702Y006359D01*
X004726Y006352D01*
Y006438D01*
D02*
G37*
G36*
X004842D02*
X004756D01*
Y006352D01*
X004781Y006359D01*
X004804Y006372D01*
X004822Y006391D01*
X004836Y006414D01*
X004842Y006438D01*
D02*
G37*
G36*
X008651Y006423D02*
X008565D01*
X008572Y006399D01*
X008585Y006376D01*
X008604Y006357D01*
X008627Y006343D01*
X008651Y006337D01*
Y006423D01*
D02*
G37*
G36*
X009360Y005922D02*
X009295D01*
Y005883D01*
X009360D01*
Y005922D01*
D02*
G37*
G36*
X009245D02*
X009180D01*
Y005883D01*
X009245D01*
Y005922D01*
D02*
G37*
G36*
X009115D02*
X009050D01*
Y005883D01*
X009115D01*
Y005922D01*
D02*
G37*
G36*
X009000D02*
X008935D01*
Y005883D01*
X009000D01*
Y005922D01*
D02*
G37*
G36*
X009360Y005833D02*
X009295D01*
Y005792D01*
X009360D01*
Y005833D01*
D02*
G37*
G36*
X009245D02*
X009180D01*
Y005792D01*
X009245D01*
Y005833D01*
D02*
G37*
G36*
X009115Y005833D02*
X009050D01*
Y005792D01*
X009115D01*
Y005833D01*
D02*
G37*
G36*
X009000D02*
X008935D01*
Y005792D01*
X009000D01*
Y005833D01*
D02*
G37*
G36*
X010603Y005705D02*
X010543D01*
Y005696D01*
X010454D01*
X010447Y005700D01*
X010433Y005704D01*
Y005630D01*
Y005557D01*
X010447Y005561D01*
X010454Y005565D01*
X010543D01*
Y005555D01*
X010603D01*
Y005630D01*
Y005705D01*
D02*
G37*
G36*
X010403Y005704D02*
X010389Y005700D01*
X010372Y005690D01*
X010362Y005680D01*
X010349Y005681D01*
Y005696D01*
X010268D01*
Y005630D01*
Y005565D01*
X010349D01*
Y005580D01*
X010362Y005580D01*
X010372Y005570D01*
X010389Y005561D01*
X010403Y005557D01*
Y005630D01*
Y005704D01*
D02*
G37*
G36*
X010218Y005696D02*
X010137D01*
Y005655D01*
X010218D01*
Y005696D01*
D02*
G37*
G36*
Y005605D02*
X010137D01*
Y005565D01*
X010218D01*
Y005605D01*
D02*
G37*
G36*
X010693Y005705D02*
X010633D01*
Y005630D01*
Y005555D01*
X010693D01*
Y005565D01*
X010768D01*
Y005630D01*
Y005696D01*
X010693D01*
Y005705D01*
D02*
G37*
G36*
X008088Y005192D02*
Y005133D01*
X008147D01*
X008143Y005147D01*
X008133Y005164D01*
X008119Y005178D01*
X008102Y005188D01*
X008088Y005192D01*
D02*
G37*
G36*
X008058D02*
X008044Y005188D01*
X008027Y005178D01*
X008013Y005164D01*
X008003Y005147D01*
X008000Y005133D01*
X008058D01*
Y005192D01*
D02*
G37*
G36*
X006563D02*
Y005133D01*
X006622D01*
X006618Y005147D01*
X006608Y005164D01*
X006594Y005178D01*
X006577Y005188D01*
X006563Y005192D01*
D02*
G37*
G36*
X006533D02*
X006519Y005188D01*
X006502Y005178D01*
X006488Y005164D01*
X006478Y005147D01*
X006475Y005133D01*
X006533D01*
Y005192D01*
D02*
G37*
G36*
X005738D02*
Y005133D01*
X005797D01*
X005793Y005147D01*
X005783Y005164D01*
X005769Y005178D01*
X005752Y005188D01*
X005738Y005192D01*
D02*
G37*
G36*
X005708D02*
X005694Y005188D01*
X005677Y005178D01*
X005663Y005164D01*
X005653Y005147D01*
X005650Y005133D01*
X005708D01*
Y005192D01*
D02*
G37*
G36*
X004863D02*
Y005133D01*
X004922D01*
X004918Y005147D01*
X004908Y005164D01*
X004894Y005178D01*
X004877Y005188D01*
X004863Y005192D01*
D02*
G37*
G36*
X004833D02*
X004819Y005188D01*
X004802Y005178D01*
X004788Y005164D01*
X004778Y005147D01*
X004775Y005133D01*
X004833D01*
Y005192D01*
D02*
G37*
G36*
X009888Y005125D02*
X009847D01*
Y005060D01*
X009888D01*
Y005125D01*
D02*
G37*
G36*
X009797D02*
X009757D01*
Y005060D01*
X009797D01*
Y005125D01*
D02*
G37*
G36*
X008147Y005103D02*
X008088D01*
Y005044D01*
X008102Y005048D01*
X008119Y005058D01*
X008133Y005072D01*
X008143Y005089D01*
X008147Y005103D01*
D02*
G37*
G36*
X008058D02*
X008000D01*
X008003Y005089D01*
X008013Y005072D01*
X008027Y005058D01*
X008044Y005048D01*
X008058Y005044D01*
Y005103D01*
D02*
G37*
G36*
X006622D02*
X006563D01*
Y005044D01*
X006577Y005048D01*
X006594Y005058D01*
X006608Y005072D01*
X006618Y005089D01*
X006622Y005103D01*
D02*
G37*
G36*
X006533D02*
X006475D01*
X006478Y005089D01*
X006488Y005072D01*
X006502Y005058D01*
X006519Y005048D01*
X006533Y005044D01*
Y005103D01*
D02*
G37*
G36*
X005797D02*
X005738D01*
Y005044D01*
X005752Y005048D01*
X005769Y005058D01*
X005783Y005072D01*
X005793Y005089D01*
X005797Y005103D01*
D02*
G37*
G36*
X005708D02*
X005650D01*
X005653Y005089D01*
X005663Y005072D01*
X005677Y005058D01*
X005694Y005048D01*
X005708Y005044D01*
Y005103D01*
D02*
G37*
G36*
X004922D02*
X004863D01*
Y005044D01*
X004877Y005048D01*
X004894Y005058D01*
X004908Y005072D01*
X004918Y005089D01*
X004922Y005103D01*
D02*
G37*
G36*
X004833D02*
X004775D01*
X004778Y005089D01*
X004788Y005072D01*
X004802Y005058D01*
X004819Y005048D01*
X004833Y005044D01*
Y005103D01*
D02*
G37*
G36*
X009797Y005047D02*
X009757D01*
Y004982D01*
X009797D01*
Y005047D01*
D02*
G37*
G36*
X008990Y004987D02*
Y004929D01*
X009049D01*
X009045Y004943D01*
X009035Y004960D01*
X009021Y004974D01*
X009004Y004984D01*
X008990Y004987D01*
D02*
G37*
G36*
X008960D02*
X008946Y004984D01*
X008929Y004974D01*
X008915Y004960D01*
X008905Y004943D01*
X008901Y004929D01*
X008960D01*
Y004987D01*
D02*
G37*
G36*
X010403Y004904D02*
X010389Y004900D01*
X010372Y004890D01*
X010362Y004880D01*
X010349Y004881D01*
Y004896D01*
X010268D01*
Y004830D01*
Y004765D01*
X010349D01*
Y004780D01*
X010362Y004780D01*
X010372Y004770D01*
X010389Y004761D01*
X010403Y004757D01*
Y004830D01*
Y004904D01*
D02*
G37*
G36*
X009888Y005047D02*
X009847D01*
Y004957D01*
X009822D01*
Y004932D01*
X009757D01*
X009757Y004927D01*
Y004867D01*
X009796D01*
X009805Y004860D01*
X009821Y004853D01*
X009838Y004851D01*
X009854Y004853D01*
X009870Y004860D01*
X009879Y004867D01*
X009888D01*
Y004875D01*
X009894Y004884D01*
X009901Y004900D01*
X009903Y004917D01*
X009901Y004934D01*
X009894Y004949D01*
X009888Y004958D01*
Y005047D01*
D02*
G37*
G36*
X010433Y004904D02*
Y004845D01*
X010491D01*
X010488Y004859D01*
X010478Y004876D01*
X010464Y004890D01*
X010447Y004900D01*
X010433Y004904D01*
D02*
G37*
G36*
X010603D02*
X010589Y004900D01*
X010572Y004890D01*
X010558Y004876D01*
X010548Y004859D01*
X010544Y004845D01*
X010603D01*
Y004904D01*
D02*
G37*
G36*
X009049Y004899D02*
X008990D01*
Y004840D01*
X009004Y004844D01*
X009021Y004854D01*
X009035Y004868D01*
X009045Y004885D01*
X009049Y004899D01*
D02*
G37*
G36*
X008960D02*
X008901D01*
X008905Y004885D01*
X008915Y004868D01*
X008929Y004854D01*
X008946Y004844D01*
X008960Y004840D01*
Y004899D01*
D02*
G37*
G36*
X005519Y005045D02*
X005488D01*
X005459Y005037D01*
X005432Y005022D01*
X005410Y005000D01*
X005395Y004974D01*
X005387Y004944D01*
Y004914D01*
X005395Y004884D01*
X005410Y004858D01*
X005432Y004836D01*
X005459Y004821D01*
X005488Y004813D01*
X005519D01*
X005548Y004821D01*
X005575Y004836D01*
X005596Y004858D01*
X005612Y004884D01*
X005620Y004914D01*
Y004944D01*
X005612Y004974D01*
X005596Y005000D01*
X005575Y005022D01*
X005548Y005037D01*
X005519Y005045D01*
D02*
G37*
G36*
X007919Y005030D02*
X007889D01*
X007859Y005022D01*
X007833Y005007D01*
X007811Y004985D01*
X007796Y004959D01*
X007788Y004929D01*
Y004898D01*
X007796Y004869D01*
X007811Y004842D01*
X007833Y004821D01*
X007859Y004805D01*
X007889Y004798D01*
X007919D01*
X007949Y004805D01*
X007975Y004821D01*
X007997Y004842D01*
X008012Y004869D01*
X008020Y004898D01*
Y004929D01*
X008012Y004959D01*
X007997Y004985D01*
X007975Y005007D01*
X007949Y005022D01*
X007919Y005030D01*
D02*
G37*
G36*
X010633Y004904D02*
Y004830D01*
Y004757D01*
X010647Y004761D01*
X010664Y004770D01*
X010674Y004780D01*
X010687Y004780D01*
Y004765D01*
X010768D01*
Y004830D01*
Y004896D01*
X010687D01*
Y004881D01*
X010674Y004880D01*
X010664Y004890D01*
X010647Y004900D01*
X010633Y004904D01*
D02*
G37*
G36*
X010218Y004805D02*
X010137D01*
Y004765D01*
X010218D01*
Y004805D01*
D02*
G37*
G36*
X010491Y004815D02*
X010433D01*
Y004757D01*
X010447Y004761D01*
X010464Y004770D01*
X010478Y004784D01*
X010488Y004801D01*
X010491Y004815D01*
D02*
G37*
G36*
X010603D02*
X010544D01*
X010548Y004801D01*
X010558Y004784D01*
X010572Y004770D01*
X010589Y004761D01*
X010603Y004757D01*
Y004815D01*
D02*
G37*
G36*
X010403Y004704D02*
X010389Y004700D01*
X010372Y004690D01*
X010362Y004680D01*
X010349Y004681D01*
Y004696D01*
X010268D01*
Y004630D01*
Y004565D01*
X010349D01*
Y004580D01*
X010362Y004580D01*
X010372Y004570D01*
X010389Y004561D01*
X010403Y004557D01*
Y004630D01*
Y004704D01*
D02*
G37*
G36*
X010218Y004696D02*
X010137D01*
Y004655D01*
X010218D01*
Y004696D01*
D02*
G37*
G36*
X010433Y004704D02*
Y004645D01*
X010491D01*
X010488Y004659D01*
X010478Y004676D01*
X010464Y004690D01*
X010447Y004700D01*
X010433Y004704D01*
D02*
G37*
G36*
X010603D02*
X010589Y004700D01*
X010572Y004690D01*
X010558Y004676D01*
X010548Y004659D01*
X010544Y004645D01*
X010603D01*
Y004704D01*
D02*
G37*
G36*
X010633D02*
Y004630D01*
Y004557D01*
X010647Y004561D01*
X010664Y004570D01*
X010674Y004580D01*
X010687Y004580D01*
Y004565D01*
X010768D01*
Y004630D01*
Y004696D01*
X010687D01*
Y004681D01*
X010674Y004680D01*
X010664Y004690D01*
X010647Y004700D01*
X010633Y004704D01*
D02*
G37*
G36*
X010218Y004605D02*
X010137D01*
Y004565D01*
X010218D01*
Y004605D01*
D02*
G37*
G36*
X007171Y004623D02*
Y004564D01*
X007230D01*
X007226Y004578D01*
X007216Y004595D01*
X007202Y004609D01*
X007185Y004619D01*
X007171Y004623D01*
D02*
G37*
G36*
X007141D02*
X007127Y004619D01*
X007110Y004609D01*
X007096Y004595D01*
X007086Y004578D01*
X007083Y004564D01*
X007141D01*
Y004623D01*
D02*
G37*
G36*
X010491Y004615D02*
X010433D01*
Y004557D01*
X010447Y004561D01*
X010464Y004570D01*
X010478Y004584D01*
X010488Y004601D01*
X010491Y004615D01*
D02*
G37*
G36*
X010603D02*
X010544D01*
X010548Y004601D01*
X010558Y004584D01*
X010572Y004570D01*
X010589Y004561D01*
X010603Y004557D01*
Y004615D01*
D02*
G37*
G36*
X007230Y004534D02*
X007171D01*
Y004476D01*
X007185Y004480D01*
X007202Y004489D01*
X007216Y004503D01*
X007226Y004520D01*
X007230Y004534D01*
D02*
G37*
G36*
X007141D02*
X007083D01*
X007086Y004520D01*
X007096Y004503D01*
X007110Y004489D01*
X007127Y004480D01*
X007141Y004476D01*
Y004534D01*
D02*
G37*
G36*
X008772Y004442D02*
X008707D01*
Y004368D01*
X008712Y004369D01*
X008732Y004377D01*
X008749Y004390D01*
X008761Y004407D01*
X008769Y004426D01*
X008772Y004442D01*
D02*
G37*
G36*
X008677D02*
X008612D01*
X008614Y004426D01*
X008622Y004407D01*
X008634Y004390D01*
X008651Y004377D01*
X008671Y004369D01*
X008677Y004368D01*
Y004442D01*
D02*
G37*
G36*
X008518D02*
X008453D01*
Y004368D01*
X008458Y004369D01*
X008478Y004377D01*
X008495Y004390D01*
X008507Y004407D01*
X008515Y004426D01*
X008518Y004442D01*
D02*
G37*
G36*
X008423D02*
X008358D01*
X008360Y004426D01*
X008368Y004407D01*
X008380Y004390D01*
X008397Y004377D01*
X008417Y004369D01*
X008423Y004368D01*
Y004442D01*
D02*
G37*
G36*
X004808Y004442D02*
X004743D01*
Y004368D01*
X004749Y004369D01*
X004769Y004377D01*
X004786Y004390D01*
X004798Y004407D01*
X004806Y004426D01*
X004808Y004442D01*
D02*
G37*
G36*
X004554D02*
X004489D01*
Y004368D01*
X004495Y004369D01*
X004515Y004377D01*
X004532Y004390D01*
X004544Y004407D01*
X004552Y004426D01*
X004554Y004442D01*
D02*
G37*
G36*
X004713D02*
X004648D01*
X004651Y004426D01*
X004659Y004407D01*
X004671Y004390D01*
X004688Y004377D01*
X004708Y004369D01*
X004713Y004368D01*
Y004442D01*
D02*
G37*
G36*
X004459D02*
X004394D01*
X004397Y004426D01*
X004405Y004407D01*
X004417Y004390D01*
X004434Y004377D01*
X004454Y004369D01*
X004459Y004368D01*
Y004442D01*
D02*
G37*
G36*
X008707Y004292D02*
Y004218D01*
X008772D01*
X008769Y004234D01*
X008761Y004253D01*
X008749Y004270D01*
X008732Y004283D01*
X008712Y004291D01*
X008707Y004292D01*
D02*
G37*
G36*
X008677D02*
X008671Y004291D01*
X008651Y004283D01*
X008634Y004270D01*
X008622Y004253D01*
X008614Y004234D01*
X008612Y004218D01*
X008677D01*
Y004292D01*
D02*
G37*
G36*
X008453D02*
Y004218D01*
X008518D01*
X008515Y004234D01*
X008507Y004253D01*
X008495Y004270D01*
X008478Y004283D01*
X008458Y004291D01*
X008453Y004292D01*
D02*
G37*
G36*
X008423D02*
X008417Y004291D01*
X008397Y004283D01*
X008380Y004270D01*
X008368Y004253D01*
X008360Y004234D01*
X008358Y004218D01*
X008423D01*
Y004292D01*
D02*
G37*
G36*
X004743Y004292D02*
Y004218D01*
X004808D01*
X004806Y004234D01*
X004798Y004253D01*
X004786Y004270D01*
X004769Y004283D01*
X004749Y004291D01*
X004743Y004292D01*
D02*
G37*
G36*
X004489D02*
Y004218D01*
X004554D01*
X004552Y004234D01*
X004544Y004253D01*
X004532Y004270D01*
X004515Y004283D01*
X004495Y004291D01*
X004489Y004292D01*
D02*
G37*
G36*
X004713D02*
X004708Y004291D01*
X004688Y004283D01*
X004671Y004270D01*
X004659Y004253D01*
X004651Y004234D01*
X004648Y004218D01*
X004713D01*
Y004292D01*
D02*
G37*
G36*
X004459D02*
X004454Y004291D01*
X004434Y004283D01*
X004417Y004270D01*
X004405Y004253D01*
X004397Y004234D01*
X004394Y004218D01*
X004459D01*
Y004292D01*
D02*
G37*
G36*
X006010Y004174D02*
X005996Y004170D01*
X005979Y004160D01*
X005965Y004146D01*
X005955Y004129D01*
X005951Y004115D01*
X006010D01*
Y004174D01*
D02*
G37*
G36*
X008772Y004188D02*
X008707D01*
Y004114D01*
X008712Y004115D01*
X008732Y004123D01*
X008749Y004136D01*
X008761Y004153D01*
X008769Y004172D01*
X008772Y004188D01*
D02*
G37*
G36*
X008677D02*
X008612D01*
X008614Y004172D01*
X008622Y004153D01*
X008634Y004136D01*
X008651Y004123D01*
X008671Y004115D01*
X008677Y004114D01*
Y004188D01*
D02*
G37*
G36*
X008518D02*
X008453D01*
Y004114D01*
X008458Y004115D01*
X008478Y004123D01*
X008495Y004136D01*
X008507Y004153D01*
X008515Y004172D01*
X008518Y004188D01*
D02*
G37*
G36*
X008423D02*
X008358D01*
X008360Y004172D01*
X008368Y004153D01*
X008380Y004136D01*
X008397Y004123D01*
X008417Y004115D01*
X008423Y004114D01*
Y004188D01*
D02*
G37*
G36*
X004808Y004188D02*
X004743D01*
Y004114D01*
X004749Y004115D01*
X004769Y004123D01*
X004786Y004136D01*
X004798Y004153D01*
X004806Y004172D01*
X004808Y004188D01*
D02*
G37*
G36*
X004554D02*
X004489D01*
Y004114D01*
X004495Y004115D01*
X004515Y004123D01*
X004532Y004136D01*
X004544Y004153D01*
X004552Y004172D01*
X004554Y004188D01*
D02*
G37*
G36*
X004713D02*
X004648D01*
X004651Y004172D01*
X004659Y004153D01*
X004671Y004136D01*
X004688Y004123D01*
X004708Y004115D01*
X004713Y004114D01*
Y004188D01*
D02*
G37*
G36*
X004459D02*
X004394D01*
X004397Y004172D01*
X004405Y004153D01*
X004417Y004136D01*
X004434Y004123D01*
X004454Y004115D01*
X004459Y004114D01*
Y004188D01*
D02*
G37*
G36*
X007517Y004308D02*
X007327D01*
Y004098D01*
X007517D01*
Y004308D01*
D02*
G37*
G36*
X008184Y004309D02*
X008159Y004306D01*
X008136Y004296D01*
X008116Y004281D01*
X008101Y004261D01*
X008091Y004238D01*
X008088Y004213D01*
Y004193D01*
X008091Y004168D01*
X008101Y004145D01*
X008116Y004125D01*
X008136Y004110D01*
X008159Y004101D01*
X008184Y004097D01*
X008208Y004101D01*
X008231Y004110D01*
X008251Y004125D01*
X008267Y004145D01*
X008276Y004168D01*
X008279Y004193D01*
Y004213D01*
X008276Y004238D01*
X008267Y004261D01*
X008251Y004281D01*
X008231Y004296D01*
X008208Y004306D01*
X008184Y004309D01*
D02*
G37*
G36*
X007930D02*
X007905Y004306D01*
X007882Y004296D01*
X007862Y004281D01*
X007847Y004261D01*
X007837Y004238D01*
X007834Y004213D01*
Y004193D01*
X007837Y004168D01*
X007847Y004145D01*
X007862Y004125D01*
X007882Y004110D01*
X007905Y004101D01*
X007930Y004097D01*
X007954Y004101D01*
X007977Y004110D01*
X007997Y004125D01*
X008013Y004145D01*
X008022Y004168D01*
X008025Y004193D01*
Y004213D01*
X008022Y004238D01*
X008013Y004261D01*
X007997Y004281D01*
X007977Y004296D01*
X007954Y004306D01*
X007930Y004309D01*
D02*
G37*
G36*
X007676D02*
X007651Y004306D01*
X007628Y004296D01*
X007608Y004281D01*
X007593Y004261D01*
X007583Y004238D01*
X007580Y004213D01*
Y004193D01*
X007583Y004168D01*
X007593Y004145D01*
X007608Y004125D01*
X007628Y004110D01*
X007651Y004101D01*
X007676Y004097D01*
X007700Y004101D01*
X007723Y004110D01*
X007743Y004125D01*
X007759Y004145D01*
X007768Y004168D01*
X007771Y004193D01*
Y004213D01*
X007768Y004238D01*
X007759Y004261D01*
X007743Y004281D01*
X007723Y004296D01*
X007700Y004306D01*
X007676Y004309D01*
D02*
G37*
G36*
X005744Y004309D02*
X005720Y004306D01*
X005697Y004296D01*
X005677Y004281D01*
X005661Y004261D01*
X005652Y004238D01*
X005649Y004213D01*
Y004193D01*
X005652Y004168D01*
X005661Y004145D01*
X005677Y004125D01*
X005697Y004110D01*
X005720Y004101D01*
X005744Y004097D01*
X005769Y004101D01*
X005792Y004110D01*
X005812Y004125D01*
X005827Y004145D01*
X005837Y004168D01*
X005840Y004193D01*
Y004213D01*
X005837Y004238D01*
X005827Y004261D01*
X005812Y004281D01*
X005792Y004296D01*
X005769Y004306D01*
X005744Y004309D01*
D02*
G37*
G36*
X005490D02*
X005466Y004306D01*
X005443Y004296D01*
X005423Y004281D01*
X005407Y004261D01*
X005398Y004238D01*
X005395Y004213D01*
Y004193D01*
X005398Y004168D01*
X005407Y004145D01*
X005423Y004125D01*
X005443Y004110D01*
X005466Y004101D01*
X005490Y004097D01*
X005515Y004101D01*
X005538Y004110D01*
X005558Y004125D01*
X005573Y004145D01*
X005583Y004168D01*
X005586Y004193D01*
Y004213D01*
X005583Y004238D01*
X005573Y004261D01*
X005558Y004281D01*
X005538Y004296D01*
X005515Y004306D01*
X005490Y004309D01*
D02*
G37*
G36*
X005236D02*
X005212Y004306D01*
X005189Y004296D01*
X005169Y004281D01*
X005153Y004261D01*
X005144Y004238D01*
X005141Y004213D01*
Y004193D01*
X005144Y004168D01*
X005153Y004145D01*
X005169Y004125D01*
X005189Y004110D01*
X005212Y004101D01*
X005236Y004097D01*
X005261Y004101D01*
X005284Y004110D01*
X005304Y004125D01*
X005319Y004145D01*
X005329Y004168D01*
X005332Y004193D01*
Y004213D01*
X005329Y004238D01*
X005319Y004261D01*
X005304Y004281D01*
X005284Y004296D01*
X005261Y004306D01*
X005236Y004309D01*
D02*
G37*
G36*
X004982D02*
X004958Y004306D01*
X004935Y004296D01*
X004915Y004281D01*
X004899Y004261D01*
X004890Y004238D01*
X004887Y004213D01*
Y004193D01*
X004890Y004168D01*
X004899Y004145D01*
X004915Y004125D01*
X004935Y004110D01*
X004958Y004101D01*
X004982Y004097D01*
X005007Y004101D01*
X005030Y004110D01*
X005050Y004125D01*
X005065Y004145D01*
X005075Y004168D01*
X005078Y004193D01*
Y004213D01*
X005075Y004238D01*
X005065Y004261D01*
X005050Y004281D01*
X005030Y004296D01*
X005007Y004306D01*
X004982Y004309D01*
D02*
G37*
G36*
X006010Y004085D02*
X005951D01*
X005955Y004071D01*
X005965Y004054D01*
X005979Y004040D01*
X005996Y004030D01*
X006010Y004026D01*
Y004085D01*
D02*
G37*
G36*
X009055Y003898D02*
Y003840D01*
X009114D01*
X009110Y003854D01*
X009100Y003871D01*
X009086Y003885D01*
X009069Y003894D01*
X009055Y003898D01*
D02*
G37*
G36*
X009025D02*
X009011Y003894D01*
X008994Y003885D01*
X008980Y003871D01*
X008970Y003854D01*
X008966Y003840D01*
X009025D01*
Y003898D01*
D02*
G37*
G36*
X004240D02*
Y003840D01*
X004299D01*
X004295Y003854D01*
X004285Y003871D01*
X004271Y003885D01*
X004254Y003894D01*
X004240Y003898D01*
D02*
G37*
G36*
X004210D02*
X004196Y003894D01*
X004179Y003885D01*
X004165Y003871D01*
X004155Y003854D01*
X004151Y003840D01*
X004210D01*
Y003898D01*
D02*
G37*
G36*
X009114Y003810D02*
X009055D01*
Y003751D01*
X009069Y003755D01*
X009086Y003765D01*
X009100Y003779D01*
X009110Y003796D01*
X009114Y003810D01*
D02*
G37*
G36*
X009025D02*
X008966D01*
X008970Y003796D01*
X008980Y003779D01*
X008994Y003765D01*
X009011Y003755D01*
X009025Y003751D01*
Y003810D01*
D02*
G37*
G36*
X004299D02*
X004240D01*
Y003751D01*
X004254Y003755D01*
X004271Y003765D01*
X004285Y003779D01*
X004295Y003796D01*
X004299Y003810D01*
D02*
G37*
G36*
X004210D02*
X004151D01*
X004155Y003796D01*
X004165Y003779D01*
X004179Y003765D01*
X004196Y003755D01*
X004210Y003751D01*
Y003810D01*
D02*
G37*
G36*
X005311Y007163D02*
Y007105D01*
X005370D01*
X005366Y007118D01*
X005356Y007136D01*
X005342Y007150D01*
X005325Y007159D01*
X005311Y007163D01*
D02*
G37*
G36*
X005281D02*
X005267Y007159D01*
X005250Y007150D01*
X005236Y007136D01*
X005226Y007118D01*
X005223Y007105D01*
X005281D01*
Y007163D01*
D02*
G37*
G36*
X005370Y007075D02*
X005311D01*
Y007016D01*
X005325Y007020D01*
X005342Y007030D01*
X005356Y007043D01*
X005366Y007061D01*
X005370Y007075D01*
D02*
G37*
G36*
X005281D02*
X005223D01*
X005226Y007061D01*
X005236Y007043D01*
X005250Y007030D01*
X005267Y007020D01*
X005281Y007016D01*
Y007075D01*
D02*
G37*
G36*
X005519Y006569D02*
X005488D01*
X005459Y006561D01*
X005432Y006546D01*
X005410Y006524D01*
X005395Y006498D01*
X005387Y006468D01*
Y006438D01*
X005395Y006408D01*
X005410Y006382D01*
X005432Y006360D01*
X005459Y006345D01*
X005488Y006337D01*
X005519D01*
X005548Y006345D01*
X005575Y006360D01*
X005596Y006382D01*
X005612Y006408D01*
X005620Y006438D01*
Y006468D01*
X005612Y006498D01*
X005596Y006524D01*
X005575Y006546D01*
X005548Y006561D01*
X005519Y006569D01*
D02*
G37*
G36*
X007665Y006554D02*
X007635D01*
X007605Y006546D01*
X007579Y006531D01*
X007557Y006509D01*
X007542Y006483D01*
X007534Y006453D01*
Y006422D01*
X007542Y006393D01*
X007557Y006366D01*
X007579Y006345D01*
X007582Y006343D01*
Y006265D01*
X007540D01*
Y006105D01*
X007750D01*
Y006265D01*
X007713D01*
Y006340D01*
X007721Y006345D01*
X007743Y006366D01*
X007758Y006393D01*
X007766Y006422D01*
Y006453D01*
X007758Y006483D01*
X007743Y006509D01*
X007721Y006531D01*
X007695Y006546D01*
X007665Y006554D01*
D02*
G37*
G36*
X009360Y005425D02*
X009295D01*
Y005385D01*
X009360D01*
Y005425D01*
D02*
G37*
G36*
X009245D02*
X009180D01*
Y005385D01*
X009245D01*
Y005425D01*
D02*
G37*
G36*
X009160D02*
X009095D01*
Y005385D01*
X009160D01*
Y005425D01*
D02*
G37*
G36*
X009045D02*
X008980D01*
Y005385D01*
X009045D01*
Y005425D01*
D02*
G37*
G36*
X010218Y005405D02*
X010137D01*
Y005365D01*
X010218D01*
Y005405D01*
D02*
G37*
G36*
X009360Y005335D02*
X009295D01*
Y005295D01*
X009360D01*
Y005335D01*
D02*
G37*
G36*
X009245D02*
X009180D01*
Y005295D01*
X009245D01*
Y005335D01*
D02*
G37*
G36*
X009160Y005335D02*
X009095D01*
Y005295D01*
X009160D01*
Y005335D01*
D02*
G37*
G36*
X009045D02*
X008980D01*
Y005295D01*
X009045D01*
Y005335D01*
D02*
G37*
G36*
X004502Y005030D02*
Y004944D01*
X004588D01*
X004582Y004968D01*
X004568Y004991D01*
X004550Y005010D01*
X004527Y005023D01*
X004502Y005030D01*
D02*
G37*
G36*
X004472Y005030D02*
X004448Y005023D01*
X004425Y005010D01*
X004406Y004991D01*
X004393Y004968D01*
X004387Y004944D01*
X004472D01*
Y005030D01*
D02*
G37*
G36*
X008427Y005014D02*
Y004929D01*
X008513D01*
X008506Y004953D01*
X008493Y004976D01*
X008474Y004995D01*
X008451Y005008D01*
X008427Y005014D01*
D02*
G37*
G36*
X008397D02*
X008373Y005008D01*
X008350Y004995D01*
X008331Y004976D01*
X008318Y004953D01*
X008311Y004929D01*
X008397D01*
Y005014D01*
D02*
G37*
G36*
X004472Y004914D02*
X004387D01*
X004393Y004890D01*
X004406Y004867D01*
X004425Y004848D01*
X004448Y004835D01*
X004472Y004828D01*
Y004914D01*
D02*
G37*
G36*
X004588D02*
X004502D01*
Y004828D01*
X004527Y004835D01*
X004550Y004848D01*
X004568Y004867D01*
X004582Y004890D01*
X004588Y004914D01*
D02*
G37*
G36*
X008513Y004899D02*
X008427D01*
Y004813D01*
X008451Y004819D01*
X008474Y004833D01*
X008493Y004852D01*
X008506Y004875D01*
X008513Y004899D01*
D02*
G37*
G36*
X008397D02*
X008311D01*
X008318Y004875D01*
X008331Y004852D01*
X008350Y004833D01*
X008373Y004819D01*
X008397Y004813D01*
Y004899D01*
D02*
G37*
G36*
X010015Y004264D02*
X010001Y004260D01*
X009984Y004250D01*
X009970Y004236D01*
X009960Y004219D01*
X009956Y004205D01*
X010015D01*
Y004264D01*
D02*
G37*
G36*
X010104Y004175D02*
X010045D01*
Y004116D01*
X010059Y004120D01*
X010076Y004130D01*
X010090Y004144D01*
X010100Y004161D01*
X010104Y004175D01*
D02*
G37*
G36*
X010015D02*
X009956D01*
X009960Y004161D01*
X009970Y004144D01*
X009984Y004130D01*
X010001Y004120D01*
X010015Y004116D01*
Y004175D01*
D02*
G37*
G36*
X009807Y002609D02*
Y002550D01*
X009866D01*
X009862Y002564D01*
X009853Y002581D01*
X009839Y002595D01*
X009821Y002605D01*
X009807Y002609D01*
D02*
G37*
G36*
X009778D02*
X009764Y002605D01*
X009746Y002595D01*
X009732Y002581D01*
X009723Y002564D01*
X009719Y002550D01*
X009778D01*
Y002609D01*
D02*
G37*
G36*
X009687Y002545D02*
X009647D01*
Y002480D01*
X009687D01*
Y002545D01*
D02*
G37*
G36*
X009597D02*
X009557D01*
Y002480D01*
X009597D01*
Y002545D01*
D02*
G37*
G36*
X007910D02*
X007870D01*
Y002480D01*
X007910D01*
Y002545D01*
D02*
G37*
G36*
X009866Y002520D02*
X009807D01*
Y002461D01*
X009821Y002465D01*
X009839Y002475D01*
X009853Y002489D01*
X009862Y002506D01*
X009866Y002520D01*
D02*
G37*
G36*
X009778D02*
X009719D01*
X009723Y002506D01*
X009732Y002489D01*
X009746Y002475D01*
X009764Y002465D01*
X009778Y002461D01*
Y002520D01*
D02*
G37*
G36*
X009687Y002430D02*
X009647D01*
Y002365D01*
X009687D01*
Y002430D01*
D02*
G37*
G36*
X009597D02*
X009557D01*
Y002365D01*
X009597D01*
Y002430D01*
D02*
G37*
G36*
X007910D02*
X007870D01*
Y002365D01*
X007910D01*
Y002430D01*
D02*
G37*
G36*
X007919Y002300D02*
Y002214D01*
X008005D01*
X007998Y002238D01*
X007985Y002261D01*
X007966Y002280D01*
X007943Y002293D01*
X007919Y002300D01*
D02*
G37*
G36*
X008005Y002184D02*
X007919D01*
Y002098D01*
X007943Y002105D01*
X007966Y002118D01*
X007985Y002137D01*
X007998Y002160D01*
X008005Y002184D01*
D02*
G37*
G36*
X009512Y002560D02*
X009352D01*
Y002350D01*
X009366D01*
Y002297D01*
X009357Y002292D01*
X009335Y002270D01*
X009320Y002244D01*
X009312Y002214D01*
Y002184D01*
X009320Y002154D01*
X009335Y002128D01*
X009357Y002106D01*
X009383Y002091D01*
X009413Y002083D01*
X009443D01*
X009473Y002091D01*
X009499Y002106D01*
X009521Y002128D01*
X009536Y002154D01*
X009544Y002184D01*
Y002214D01*
X009536Y002244D01*
X009521Y002270D01*
X009499Y002292D01*
X009497Y002293D01*
Y002350D01*
X009512D01*
Y002560D01*
D02*
G37*
G36*
X008427Y002315D02*
X008397D01*
X008367Y002307D01*
X008341Y002292D01*
X008319Y002270D01*
X008304Y002244D01*
X008296Y002214D01*
Y002184D01*
X008304Y002154D01*
X008319Y002128D01*
X008341Y002106D01*
X008367Y002091D01*
X008397Y002083D01*
X008427D01*
X008457Y002091D01*
X008483Y002106D01*
X008505Y002128D01*
X008520Y002154D01*
X008528Y002184D01*
Y002214D01*
X008520Y002244D01*
X008505Y002270D01*
X008483Y002292D01*
X008457Y002307D01*
X008427Y002315D01*
D02*
G37*
G36*
X005250Y002545D02*
X005210D01*
Y002480D01*
X005250D01*
Y002545D01*
D02*
G37*
G36*
X003983Y002545D02*
X003942D01*
Y002480D01*
X003983D01*
Y002545D01*
D02*
G37*
G36*
X005098Y002529D02*
Y002470D01*
X005156D01*
X005153Y002484D01*
X005143Y002501D01*
X005129Y002515D01*
X005112Y002525D01*
X005098Y002529D01*
D02*
G37*
G36*
X005068D02*
X005054Y002525D01*
X005037Y002515D01*
X005023Y002501D01*
X005013Y002484D01*
X005009Y002470D01*
X005068D01*
Y002529D01*
D02*
G37*
G36*
X005156Y002440D02*
X005098D01*
Y002381D01*
X005112Y002385D01*
X005129Y002395D01*
X005143Y002409D01*
X005153Y002426D01*
X005156Y002440D01*
D02*
G37*
G36*
X005068D02*
X005009D01*
X005013Y002426D01*
X005023Y002409D01*
X005037Y002395D01*
X005054Y002385D01*
X005068Y002381D01*
Y002440D01*
D02*
G37*
G36*
X005250Y002430D02*
X005210D01*
Y002365D01*
X005250D01*
Y002430D01*
D02*
G37*
G36*
X003983Y002430D02*
X003942D01*
Y002365D01*
X003983D01*
Y002430D01*
D02*
G37*
G36*
X003994Y002300D02*
Y002214D01*
X004080D01*
X004074Y002238D01*
X004060Y002261D01*
X004042Y002280D01*
X004019Y002293D01*
X003994Y002300D01*
D02*
G37*
G36*
X004080Y002184D02*
X003994D01*
Y002098D01*
X004019Y002105D01*
X004042Y002118D01*
X004060Y002137D01*
X004074Y002160D01*
X004080Y002184D01*
D02*
G37*
G36*
X004503Y002315D02*
X004472D01*
X004443Y002307D01*
X004416Y002292D01*
X004394Y002270D01*
X004379Y002244D01*
X004371Y002214D01*
Y002184D01*
X004379Y002154D01*
X004394Y002128D01*
X004416Y002106D01*
X004443Y002091D01*
X004472Y002083D01*
X004503D01*
X004532Y002091D01*
X004559Y002106D01*
X004580Y002128D01*
X004596Y002154D01*
X004604Y002184D01*
Y002214D01*
X004596Y002244D01*
X004580Y002270D01*
X004559Y002292D01*
X004532Y002307D01*
X004503Y002315D01*
D02*
G37*
%LPD*%
D13*
X007654Y003459D02*
X007657Y003455D01*
X007650Y003723D02*
X007654Y003719D01*
Y003459D02*
Y003719D01*
X007657Y002207D02*
Y003265D01*
X007650Y002199D02*
X007657Y002207D01*
X007647Y006188D02*
Y006435D01*
X007645Y006185D02*
X007647Y006188D01*
Y006435D02*
X007650Y006438D01*
X003725Y006185D02*
Y006453D01*
X003725Y006453D02*
X003725Y006453D01*
Y006185D02*
X003726Y006185D01*
Y004929D02*
Y005995D01*
X003725Y004929D02*
X003726Y004929D01*
X003726Y003456D02*
Y003722D01*
X003725Y003723D02*
X003726Y003722D01*
Y003456D02*
X003728Y003455D01*
Y002455D02*
Y003265D01*
X004246Y004582D02*
X004321Y004657D01*
X003837Y004582D02*
X004246D01*
X003712Y004457D02*
X003837Y004582D01*
X005576Y004657D02*
X005844Y004925D01*
X004321Y004657D02*
X005576D01*
X007218Y004925D02*
X007486Y004657D01*
X009875D01*
X007457Y004587D02*
X009846D01*
X007194Y004850D02*
X007457Y004587D01*
X005605D02*
X005868Y004850D01*
X004350Y004587D02*
X005605D01*
X004275Y006812D02*
Y006825D01*
Y006665D02*
Y006812D01*
X009412Y006825D02*
X009425D01*
X009238Y006650D02*
X009412Y006825D01*
X009025Y006650D02*
X009035D01*
X009050Y006665D01*
Y007110D02*
X009070Y007130D01*
X009050Y006665D02*
Y007110D01*
X009025Y006460D02*
X009212D01*
X009025Y006092D02*
X009030Y006088D01*
X009045Y006047D02*
X009270D01*
X009025Y006092D02*
Y006460D01*
X009030Y006062D02*
X009045Y006047D01*
X009030Y006062D02*
Y006088D01*
X009212Y006650D02*
X009238D01*
X004070Y006665D02*
X004070Y006665D01*
X004070Y006665D02*
Y007130D01*
X004070Y007130D02*
X004070Y007130D01*
X004070Y006475D02*
X004070Y006475D01*
X004070Y006250D02*
Y006475D01*
X003975Y004933D02*
Y005900D01*
Y004933D02*
X003979Y004929D01*
X004275Y006200D02*
Y006475D01*
X003975Y005900D02*
X004275Y006200D01*
X005083Y002455D02*
X005275D01*
X005465Y002430D02*
X005503Y002392D01*
X005465Y002430D02*
Y002455D01*
X005503Y002199D02*
Y002392D01*
X010115Y006190D02*
X010125Y006200D01*
X010022Y006047D02*
X010115Y006140D01*
Y006190D01*
X009880Y006047D02*
X010022D01*
X009270Y006047D02*
X009690D01*
X009690Y006047D01*
X010101Y004430D02*
X010243D01*
X009875Y004657D02*
X010101Y004430D01*
X005868Y004850D02*
X007194D01*
X005844Y004925D02*
X007218D01*
X009822Y004932D02*
X009838Y004917D01*
X009846Y004587D02*
X010202Y004230D01*
X010243Y004430D02*
X010243Y004430D01*
X010353D01*
X010418D01*
X010243Y004230D02*
X010418D01*
X010202Y004230D02*
X010243D01*
X004220Y004457D02*
X004350Y004587D01*
X010128Y004957D02*
X010202Y005030D01*
X010243D01*
X010012Y004957D02*
X010128D01*
X010128Y005150D02*
X010187Y005209D01*
Y005215D01*
X010202Y005230D01*
X010012Y005150D02*
X010128D01*
X010202Y005230D02*
X010243D01*
X009270Y005071D02*
Y005170D01*
X009070D02*
X009270D01*
Y006047D02*
Y006200D01*
Y005071D02*
X009428Y004914D01*
X004069Y007129D02*
X004070Y007130D01*
X010618Y003630D02*
Y003630D01*
Y003630D01*
X010418Y003630D02*
Y003630D01*
Y003630D01*
X003728Y002201D02*
Y002455D01*
X009454Y004457D02*
X009708D01*
X009432Y002202D02*
Y002451D01*
X009219Y004184D02*
X009299D01*
X009329Y004151D02*
Y004154D01*
Y004151D02*
X009402Y004078D01*
X009477D01*
X009660Y003895D01*
X009200Y004203D02*
X009219Y004184D01*
X009299D02*
X009329Y004154D01*
X009660Y003895D02*
X010157D01*
X003725Y002199D02*
X003728Y002201D01*
X010418Y004030D02*
X010618D01*
X010418Y003830D02*
X010618D01*
X010202Y003830D02*
X010243D01*
X010187Y003846D02*
Y003866D01*
Y003846D02*
X010202Y003830D01*
X010157Y003895D02*
X010187Y003866D01*
X009682Y003975D02*
X010157D01*
X010187Y004015D02*
X010202Y004030D01*
X010157Y003975D02*
X010187Y004004D01*
X009454Y004203D02*
X009682Y003975D01*
X010202Y004030D02*
X010243D01*
X010187Y004004D02*
Y004015D01*
X009428Y002199D02*
X009432Y002202D01*
Y002451D02*
X009435Y002455D01*
X007645Y004919D02*
X007650Y004914D01*
X007645Y004919D02*
Y005995D01*
X003715Y004939D02*
X003725Y004929D01*
X009708Y004203D02*
X009729Y004182D01*
X008946Y004203D02*
X009200D01*
X008946D02*
Y004457D01*
X009200Y004203D02*
Y004457D01*
X009454Y004203D02*
Y004457D01*
X009708Y004203D02*
Y004457D01*
X003966Y004203D02*
X004220D01*
Y004457D01*
X003966D02*
X004220D01*
X003712Y004203D02*
Y004457D01*
X003458Y004203D02*
X003712D01*
X003458Y004457D02*
X003712D01*
X010418Y004230D02*
X010618D01*
X010418Y004430D02*
X010418Y004430D01*
X010618D01*
X010418Y005030D02*
X010618D01*
X010418Y005630D02*
X010618D01*
X010418Y005430D02*
X010618D01*
X010418Y005230D02*
X010618D01*
X010418Y003430D02*
Y003630D01*
X010618Y003430D02*
Y003630D01*
X010418Y003630D02*
X010618D01*
D31*
X008409Y004917D02*
X008412Y004914D01*
X010618Y003630D02*
X010793D01*
X010243D02*
X010418D01*
X010353Y003430D02*
X010683D01*
X010618Y005430D02*
X010793D01*
X010618Y005230D02*
X010793D01*
X010683Y003430D02*
X010793D01*
X010243D02*
X010353D01*
X010418Y003630D02*
X010618D01*
D32*
X007650Y003723D02*
D03*
X008666D02*
D03*
X009428D02*
D03*
Y002199D02*
D03*
X008412D02*
D03*
X007904D02*
D03*
X007650Y006438D02*
D03*
X008666D02*
D03*
X009428D02*
D03*
Y004914D02*
D03*
X008412D02*
D03*
X007904D02*
D03*
X003725Y003723D02*
D03*
X004741D02*
D03*
X005503D02*
D03*
Y002199D02*
D03*
X004487D02*
D03*
X003979D02*
D03*
X003725Y006453D02*
D03*
X004741D02*
D03*
X005503D02*
D03*
Y004929D02*
D03*
X004487D02*
D03*
X003979D02*
D03*
D33*
X007650Y002199D02*
D03*
Y004914D02*
D03*
X003725Y002199D02*
D03*
Y004929D02*
D03*
D34*
X005236Y004203D02*
D03*
Y004457D02*
D03*
X005490Y004203D02*
D03*
Y004457D02*
D03*
X005744Y004203D02*
D03*
X004982Y004457D02*
D03*
X004728Y004203D02*
D03*
Y004457D02*
D03*
X004474Y004203D02*
D03*
Y004457D02*
D03*
X004982Y004203D02*
D03*
X004220Y004457D02*
D03*
X003966Y004203D02*
D03*
Y004457D02*
D03*
X003712Y004203D02*
D03*
Y004457D02*
D03*
X004220Y004203D02*
D03*
X003458D02*
D03*
Y004457D02*
D03*
X007930Y004457D02*
D03*
Y004203D02*
D03*
X007676Y004457D02*
D03*
Y004203D02*
D03*
X007422Y004457D02*
D03*
X008184Y004203D02*
D03*
X008438Y004457D02*
D03*
Y004203D02*
D03*
X008692Y004457D02*
D03*
Y004203D02*
D03*
X008184Y004457D02*
D03*
X008946Y004203D02*
D03*
X009200Y004457D02*
D03*
Y004203D02*
D03*
X009454Y004457D02*
D03*
Y004203D02*
D03*
X008946Y004457D02*
D03*
X009708D02*
D03*
Y004203D02*
D03*
D35*
X005744Y004457D02*
D03*
X007422Y004203D02*
D03*
D36*
X010418Y005230D02*
D03*
X010618D02*
D03*
X010418Y005030D02*
D03*
X010618D02*
D03*
Y004630D02*
D03*
X010418D02*
D03*
X010618Y004830D02*
D03*
X010418D02*
D03*
X010418Y005630D02*
D03*
Y005430D02*
D03*
X010618D02*
D03*
Y003030D02*
D03*
X010418D02*
D03*
X010618Y003230D02*
D03*
X010418D02*
D03*
X010618Y003430D02*
D03*
X010418D02*
D03*
X010618Y003630D02*
D03*
X010418D02*
D03*
X010618Y003830D02*
D03*
X010418D02*
D03*
X010618Y004030D02*
D03*
X010418D02*
D03*
Y004430D02*
D03*
X010618D02*
D03*
X010418Y004230D02*
D03*
X010618D02*
D03*
X004275Y006815D02*
D03*
X009425Y006825D02*
D03*
X004070Y006250D02*
D03*
X004744Y006815D02*
D03*
X005083Y002455D02*
D03*
X010125Y006200D02*
D03*
X006025Y004100D02*
D03*
X007156Y004549D02*
D03*
X004225Y003825D02*
D03*
X009040D02*
D03*
X004848Y005118D02*
D03*
X005723D02*
D03*
X006548D02*
D03*
X008073D02*
D03*
X008975Y004914D02*
D03*
X009270Y006200D02*
D03*
X010030Y004190D02*
D03*
X008439Y006815D02*
D03*
X009793Y002535D02*
D03*
X002700Y004197D02*
D03*
X007870Y007085D02*
D03*
X005296Y007090D02*
D03*
X007030Y006828D02*
D03*
X006153D02*
D03*
D37*
X010618Y005630D02*
D03*
D38*
X004070Y007130D02*
D03*
X009070D02*
D03*
Y001530D02*
D03*
X004070D02*
D03*
D39*
X006570Y004330D02*
D03*
D48*
X003728Y003455D02*
D03*
Y003265D02*
D03*
X003726Y006185D02*
D03*
Y005995D02*
D03*
X004275Y006475D02*
D03*
Y006665D02*
D03*
X009025Y006047D02*
D03*
Y005858D02*
D03*
Y006650D02*
D03*
Y006460D02*
D03*
X009212Y006650D02*
D03*
Y006460D02*
D03*
X004070Y006665D02*
D03*
Y006475D02*
D03*
X007645Y006185D02*
D03*
Y005995D02*
D03*
X007650Y003265D02*
D03*
Y003455D02*
D03*
X009270Y005360D02*
D03*
Y005170D02*
D03*
X009070Y005360D02*
D03*
Y005170D02*
D03*
X009270Y005858D02*
D03*
Y006047D02*
D03*
D49*
X010012Y005150D02*
D03*
X009822D02*
D03*
X009690Y006047D02*
D03*
X009880D02*
D03*
X007655Y002455D02*
D03*
X007845D02*
D03*
X010012Y004957D02*
D03*
X009822D02*
D03*
X009432Y002455D02*
D03*
X005465Y002455D02*
D03*
X003917Y002455D02*
D03*
X003728D02*
D03*
X005275Y002455D02*
D03*
X009622Y002455D02*
D03*
D50*
X010243Y005230D02*
D03*
X010793D02*
D03*
X010243Y005030D02*
D03*
X010793D02*
D03*
X010243Y004830D02*
D03*
Y004630D02*
D03*
X010793D02*
D03*
Y004830D02*
D03*
Y005430D02*
D03*
Y005630D02*
D03*
X010243D02*
D03*
Y005430D02*
D03*
Y003030D02*
D03*
Y003230D02*
D03*
X010793D02*
D03*
Y003030D02*
D03*
Y003830D02*
D03*
Y003430D02*
D03*
Y003630D02*
D03*
Y004030D02*
D03*
Y004430D02*
D03*
Y004230D02*
D03*
X010243Y004430D02*
D03*
Y004230D02*
D03*
Y004030D02*
D03*
Y003830D02*
D03*
Y003430D02*
D03*
Y003630D02*
D03*
D51*
X010353Y005230D02*
D03*
X010683D02*
D03*
X010353Y005030D02*
D03*
X010683D02*
D03*
X010353Y004630D02*
D03*
Y004830D02*
D03*
X010683Y004630D02*
D03*
Y004830D02*
D03*
X010683Y005630D02*
D03*
Y005430D02*
D03*
X010353Y005630D02*
D03*
Y005430D02*
D03*
Y003030D02*
D03*
Y003230D02*
D03*
X010683Y003030D02*
D03*
Y003230D02*
D03*
X010683Y004430D02*
D03*
Y004230D02*
D03*
Y004030D02*
D03*
Y003830D02*
D03*
Y003630D02*
D03*
X010353Y004430D02*
D03*
Y004230D02*
D03*
Y004030D02*
D03*
Y003830D02*
D03*
Y003630D02*
D03*
Y003430D02*
D03*
X010683D02*
D03*
M02*
