G04*
G04 #@! TF.GenerationSoftware,Altium Limited,Altium Designer,20.1.10 (176)*
G04*
G04 Layer_Color=16711935*
%FSAX42Y42*%
%MOMM*%
G71*
G04*
G04 #@! TF.SameCoordinates,EC29B362-C5D2-4197-BC47-CE10F38E6FBA*
G04*
G04*
G04 #@! TF.FilePolarity,Negative*
G04*
G01*
G75*
%ADD11C,0.30*%
%ADD16R,1.00X1.50*%
%ADD20C,1.30*%
%ADD21C,0.20*%
%ADD22C,1.40*%
%ADD23P,1.98X4X90.0*%
%ADD24C,1.73*%
%ADD25R,1.73X1.73*%
%ADD26C,1.80*%
%ADD27R,1.80X1.80*%
%ADD28C,2.80*%
%ADD29C,1.50*%
%ADD30C,1.20*%
%ADD31C,6.20*%
%ADD32C,1.00*%
%ADD33C,4.20*%
%ADD34C,0.80*%
%ADD76R,1.83X1.02*%
%ADD77R,1.70X0.70*%
%ADD78R,1.50X1.00*%
G36*
X004077Y001824D02*
X004077Y001824D01*
X004077Y001824D01*
X004097Y001824D01*
X004136Y001819D01*
X004173Y001809D01*
X004210Y001794D01*
X004243Y001774D01*
X004275Y001750D01*
X004302Y001723D01*
X004326Y001692D01*
X004346Y001658D01*
X004361Y001621D01*
X004371Y001584D01*
X004376Y001545D01*
X004376Y001525D01*
X004376Y001525D01*
X004374Y001506D01*
X004374Y001467D01*
X004376Y001429D01*
X004382Y001391D01*
X004391Y001353D01*
X004402Y001317D01*
X004417Y001281D01*
X004434Y001247D01*
X004436Y001243D01*
X004429Y001230D01*
X004387Y001229D01*
X004275Y001229D01*
X004162Y001229D01*
X004050Y001229D01*
X003994Y001230D01*
X003985Y001230D01*
X003967Y001231D01*
X003949Y001233D01*
X003931Y001236D01*
X003922Y001239D01*
Y001239D01*
X003917Y001240D01*
X003907Y001243D01*
X003898Y001246D01*
X003888Y001250D01*
X003884Y001252D01*
X003884Y001252D01*
X003876Y001254D01*
X003861Y001261D01*
X003846Y001269D01*
X003832Y001277D01*
X003825Y001282D01*
X003796Y001306D01*
X003794Y001307D01*
X003790Y001311D01*
X003784Y001317D01*
X003288Y001813D01*
X003293Y001825D01*
X004077Y001824D01*
D02*
G37*
G36*
X004397Y007430D02*
X004441Y007430D01*
X004448Y007417D01*
X004446Y007413D01*
X004426Y007379D01*
X004409Y007343D01*
X004395Y007307D01*
X004385Y007269D01*
X004377Y007230D01*
X004372Y007191D01*
X004371Y007151D01*
X004371Y007132D01*
X004371Y007132D01*
X004371Y007132D01*
X004372Y007112D01*
X004368Y007073D01*
X004359Y007034D01*
X004344Y006997D01*
X004325Y006963D01*
X004301Y006931D01*
X004273Y006903D01*
X004241Y006879D01*
X004207Y006860D01*
X004170Y006845D01*
X004131Y006836D01*
X004092Y006832D01*
X004072Y006833D01*
Y006833D01*
X004072Y006833D01*
X004072Y006833D01*
X003276Y006818D01*
X003271Y006830D01*
X003779Y007338D01*
X003789Y007347D01*
X003794Y007352D01*
X003821Y007375D01*
X003827Y007380D01*
X003841Y007388D01*
X003854Y007396D01*
X003869Y007402D01*
X003876Y007405D01*
X003881Y007407D01*
X003891Y007411D01*
X003901Y007415D01*
X003905Y007416D01*
X003916Y007419D01*
X003916Y007419D01*
X003928Y007422D01*
X003941Y007425D01*
X003958Y007428D01*
X003975Y007430D01*
X003984Y007430D01*
X003984Y007430D01*
X004043Y007430D01*
X004161Y007431D01*
X004279Y007431D01*
X004397Y007430D01*
D02*
G37*
G36*
X009855Y001814D02*
X009360Y001319D01*
X009353Y001312D01*
X009350Y001309D01*
X009348Y001307D01*
X009318Y001283D01*
X009311Y001278D01*
X009297Y001270D01*
X009283Y001262D01*
X009268Y001256D01*
X009260Y001253D01*
X009260Y001253D01*
X009255Y001251D01*
X009246Y001247D01*
X009236Y001244D01*
X009226Y001241D01*
X009222Y001240D01*
Y001240D01*
X009213Y001238D01*
X009195Y001234D01*
X009177Y001232D01*
X009159Y001231D01*
X009150Y001231D01*
X009094Y001231D01*
X008981Y001230D01*
X008869Y001230D01*
X008756Y001231D01*
X008715Y001231D01*
X008707Y001244D01*
X008710Y001248D01*
X008727Y001282D01*
X008741Y001318D01*
X008753Y001355D01*
X008762Y001392D01*
X008767Y001430D01*
X008770Y001469D01*
X008769Y001507D01*
X008768Y001526D01*
X008768Y001526D01*
X008768Y001546D01*
X008773Y001585D01*
X008783Y001623D01*
X008798Y001659D01*
X008817Y001693D01*
X008841Y001724D01*
X008869Y001752D01*
X008900Y001775D01*
X008934Y001795D01*
X008970Y001810D01*
X009008Y001820D01*
X009047Y001825D01*
X009066Y001825D01*
X009066Y001825D01*
X009066Y001825D01*
X009850Y001826D01*
X009855Y001814D01*
D02*
G37*
G36*
X008987Y007432D02*
X009105Y007432D01*
X009164Y007432D01*
X009164Y007432D01*
X009172Y007431D01*
X009189Y007430D01*
X009206Y007427D01*
X009223Y007423D01*
X009231Y007421D01*
X009236Y007420D01*
X009246Y007416D01*
X009257Y007413D01*
X009266Y007409D01*
X009271Y007407D01*
X009279Y007404D01*
X009293Y007397D01*
X009307Y007390D01*
X009320Y007382D01*
X009327Y007377D01*
X009354Y007354D01*
X009359Y007349D01*
X009368Y007340D01*
X009876Y006832D01*
X009871Y006820D01*
X009075Y006835D01*
X009055Y006834D01*
X009016Y006838D01*
X008978Y006847D01*
X008941Y006862D01*
X008906Y006881D01*
X008874Y006905D01*
X008846Y006933D01*
X008823Y006964D01*
X008803Y006999D01*
X008789Y007036D01*
X008780Y007074D01*
X008776Y007114D01*
X008777Y007134D01*
X008777Y007134D01*
X008777Y007134D01*
X008777Y007153D01*
X008775Y007193D01*
X008771Y007232D01*
X008763Y007270D01*
X008752Y007308D01*
X008738Y007345D01*
X008721Y007381D01*
X008702Y007415D01*
X008699Y007419D01*
X008706Y007432D01*
X008750Y007432D01*
X008868Y007432D01*
X008987Y007432D01*
D02*
G37*
D11*
X008773Y007125D02*
G03*
X009073Y006825I000300J000000D01*
G01*
Y001825D02*
G03*
X008773Y001525I000000J-000300D01*
G01*
X009880Y006819D02*
G03*
X009817Y006825I-000062J-000293D01*
G01*
Y001825D02*
G03*
X009864Y001829I000000J000300D01*
G01*
X008703Y001232D02*
G03*
X008773Y001425I-000230J000193D01*
G01*
X004073Y006825D02*
G03*
X004373Y007125I000000J000300D01*
G01*
Y001425D02*
G03*
X004450Y001224I000300J000000D01*
G01*
X008773Y007225D02*
G03*
X008694Y007428I-000300J000000D01*
G01*
X004450Y007426D02*
G03*
X004373Y007225I000223J-000201D01*
G01*
Y001525D02*
G03*
X004073Y001825I-000300J000000D01*
G01*
X003329Y006825D02*
G03*
X003261Y006817I000000J-000300D01*
G01*
X003277Y001830D02*
G03*
X003329Y001825I000052J000295D01*
G01*
X003782Y001320D02*
G03*
X003994Y001232I000212J000212D01*
G01*
X002270Y002957D02*
G03*
X002358Y002745I000300J000000D01*
G01*
X007176Y007432D02*
G03*
X006916Y007282I000000J-000300D01*
G01*
X006224D02*
G03*
X006916Y007282I000346J000200D01*
G01*
X008070Y001532D02*
G03*
X007770Y001833I-000300J000000D01*
G01*
X002358Y005920D02*
G03*
X002270Y005708I000212J-000212D01*
G01*
X003994Y007432D02*
G03*
X003782Y007345I000000J-000300D01*
G01*
X010782Y002745D02*
G03*
X010870Y002957I-000212J000212D01*
G01*
X009146Y001232D02*
G03*
X009358Y001320I000000J000300D01*
G01*
X008070Y001532D02*
G03*
X008370Y001232I000300J000000D01*
G01*
X004770D02*
G03*
X005070Y001532I000000J000300D01*
G01*
X010870Y005708D02*
G03*
X010782Y005920I-000300J000000D01*
G01*
X006224Y007282D02*
G03*
X005964Y007432I-000260J-000150D01*
G01*
X005370Y001833D02*
G03*
X005070Y001532I000000J-000300D01*
G01*
X009358Y007345D02*
G03*
X009146Y007432I-000212J-000212D01*
G01*
X009073Y006825D02*
X009817D01*
X009073Y001825D02*
X009817D01*
X008773Y007125D02*
Y007225D01*
Y001425D02*
Y001525D01*
X004373Y007125D02*
Y007225D01*
Y001425D02*
Y001525D01*
X003329Y006825D02*
X004073D01*
X003329Y001825D02*
X004073D01*
X005370Y001833D02*
X007770D01*
X007176Y007432D02*
X009146D01*
X002358Y005920D02*
X003782Y007345D01*
X002358Y002745D02*
X003782Y001320D01*
X008370Y001232D02*
X009146D01*
X003994Y007432D02*
X005964D01*
X009358Y007345D02*
X010782Y005920D01*
X009358Y001320D02*
X010782Y002745D01*
X003994Y001232D02*
X004770D01*
X010870Y002957D02*
Y005708D01*
X002270Y002957D02*
Y005708D01*
D16*
X005490Y004645D02*
D03*
X005300D02*
D03*
X004329D02*
D03*
X004139D02*
D03*
D20*
X010618Y003430D02*
D03*
X010418D02*
D03*
X010618Y003630D02*
D03*
X010418D02*
D03*
X010618Y003830D02*
D03*
X010418D02*
D03*
X010618Y004030D02*
D03*
X010418D02*
D03*
Y005230D02*
D03*
X010618D02*
D03*
X010418Y005030D02*
D03*
X010618D02*
D03*
X010418Y004830D02*
D03*
X010618D02*
D03*
X010418Y004630D02*
D03*
X010618D02*
D03*
X010418Y004430D02*
D03*
X010618D02*
D03*
X010418Y004230D02*
D03*
X010618D02*
D03*
D21*
X010518Y005330D02*
D03*
Y003330D02*
D03*
D22*
X009912Y005650D02*
D03*
X009785Y005523D02*
D03*
X003513Y005650D02*
D03*
X003386Y005523D02*
D03*
D23*
X009658Y005650D02*
D03*
X003259D02*
D03*
D24*
X009026Y004898D02*
D03*
X008010D02*
D03*
X007248D02*
D03*
Y006422D02*
D03*
X008264D02*
D03*
X008772D02*
D03*
X004114Y006394D02*
D03*
X005130D02*
D03*
X005892D02*
D03*
Y004870D02*
D03*
X004876D02*
D03*
X004368D02*
D03*
D25*
X009026Y006422D02*
D03*
X004114Y004870D02*
D03*
D26*
X006316Y002176D02*
D03*
Y002430D02*
D03*
X005554D02*
D03*
X006062Y002176D02*
D03*
Y002430D02*
D03*
X005808Y002176D02*
D03*
Y002430D02*
D03*
X005554Y002176D02*
D03*
X004792Y002430D02*
D03*
X005300Y002176D02*
D03*
Y002430D02*
D03*
X005046Y002176D02*
D03*
Y002430D02*
D03*
X004792Y002176D02*
D03*
X004030Y002430D02*
D03*
X004284Y002176D02*
D03*
Y002430D02*
D03*
X004538Y002176D02*
D03*
Y002430D02*
D03*
X006824Y002430D02*
D03*
Y002176D02*
D03*
X007586D02*
D03*
X007078Y002430D02*
D03*
Y002176D02*
D03*
X007332Y002430D02*
D03*
Y002176D02*
D03*
X007586Y002430D02*
D03*
X008348Y002176D02*
D03*
X007840Y002430D02*
D03*
Y002176D02*
D03*
X008094Y002430D02*
D03*
Y002176D02*
D03*
X008348Y002430D02*
D03*
X009110Y002176D02*
D03*
X008856Y002430D02*
D03*
Y002176D02*
D03*
X008602Y002430D02*
D03*
Y002176D02*
D03*
D27*
X004030Y002176D02*
D03*
X009110Y002430D02*
D03*
D28*
X006993Y003727D02*
D03*
X007882D02*
D03*
X006142Y002960D02*
D03*
X005253D02*
D03*
Y003722D02*
D03*
X006142D02*
D03*
X006993Y002965D02*
D03*
X007882D02*
D03*
D29*
X009757Y004597D02*
D03*
X009032Y003700D02*
D03*
Y004272D02*
D03*
Y005638D02*
D03*
Y006005D02*
D03*
Y006690D02*
D03*
Y005267D02*
D03*
X009757Y004125D02*
D03*
D30*
X010150Y006300D02*
D03*
X009100Y002800D02*
D03*
X009450Y002100D02*
D03*
X008400Y004200D02*
D03*
Y001400D02*
D03*
X007700Y004200D02*
D03*
Y002800D02*
D03*
X007000Y007000D02*
D03*
Y005600D02*
D03*
X007350Y003500D02*
D03*
X006300Y007000D02*
D03*
X006650Y006300D02*
D03*
X006300Y005600D02*
D03*
X006650Y003500D02*
D03*
Y002100D02*
D03*
X005600Y007000D02*
D03*
Y005600D02*
D03*
X005950Y003500D02*
D03*
X005600Y002800D02*
D03*
X004900Y007000D02*
D03*
Y005600D02*
D03*
Y004200D02*
D03*
X004550Y006300D02*
D03*
X004200Y005600D02*
D03*
X004550Y004900D02*
D03*
X003850Y006300D02*
D03*
Y002100D02*
D03*
X003150Y006300D02*
D03*
X002800Y005600D02*
D03*
X007460Y003750D02*
D03*
X005960Y004500D02*
D03*
X003710Y006000D02*
D03*
D31*
X006570Y004330D02*
D03*
D32*
X009330Y006097D02*
D03*
X003322Y004900D02*
D03*
X007920Y006090D02*
D03*
X009820Y004900D02*
D03*
X010010D02*
D03*
X003130D02*
D03*
D33*
X009070Y007130D02*
D03*
X004070D02*
D03*
X009070Y001530D02*
D03*
X004070D02*
D03*
D34*
X008143Y003732D02*
D03*
X003847Y005066D02*
D03*
Y004670D02*
D03*
Y004274D02*
D03*
X004100Y003890D02*
D03*
X004100Y003494D02*
D03*
Y003098D02*
D03*
X003847Y003890D02*
D03*
Y003494D02*
D03*
Y003098D02*
D03*
X003594D02*
D03*
Y003494D02*
D03*
Y003890D02*
D03*
X008143Y002970D02*
D03*
X004983Y003722D02*
D03*
Y002960D02*
D03*
D76*
X010793Y003830D02*
D03*
Y003430D02*
D03*
Y003630D02*
D03*
Y004030D02*
D03*
Y004830D02*
D03*
Y004430D02*
D03*
Y004230D02*
D03*
Y004630D02*
D03*
Y005230D02*
D03*
Y005030D02*
D03*
X010243D02*
D03*
Y004430D02*
D03*
Y004230D02*
D03*
Y004630D02*
D03*
Y004830D02*
D03*
Y004030D02*
D03*
Y003830D02*
D03*
Y003430D02*
D03*
Y003630D02*
D03*
Y005230D02*
D03*
D77*
X010683Y005230D02*
D03*
Y005030D02*
D03*
Y004830D02*
D03*
Y004630D02*
D03*
Y004430D02*
D03*
Y004230D02*
D03*
Y004030D02*
D03*
Y003830D02*
D03*
Y003630D02*
D03*
X010353Y005230D02*
D03*
Y005030D02*
D03*
Y004830D02*
D03*
Y004630D02*
D03*
Y004430D02*
D03*
Y004230D02*
D03*
Y004030D02*
D03*
Y003830D02*
D03*
Y003630D02*
D03*
Y003430D02*
D03*
X010683D02*
D03*
D78*
X007920Y006232D02*
D03*
Y006422D02*
D03*
X009330Y006240D02*
D03*
Y006430D02*
D03*
M02*
