G04*
G04 #@! TF.GenerationSoftware,Altium Limited,Altium Designer,20.1.10 (176)*
G04*
G04 Layer_Color=8388736*
%FSAX42Y42*%
%MOMM*%
G71*
G04*
G04 #@! TF.SameCoordinates,EC29B362-C5D2-4197-BC47-CE10F38E6FBA*
G04*
G04*
G04 #@! TF.FilePolarity,Negative*
G04*
G01*
G75*
%ADD11C,0.30*%
%ADD16R,1.00X1.50*%
%ADD17R,3.40X2.80*%
%ADD18R,2.20X3.00*%
%ADD19R,3.00X2.20*%
%ADD20C,1.30*%
%ADD21C,0.20*%
%ADD22C,1.40*%
%ADD23P,1.98X4X90.0*%
%ADD24C,1.73*%
%ADD25R,1.73X1.73*%
%ADD26C,1.80*%
%ADD27R,1.80X1.80*%
%ADD28C,2.80*%
%ADD29C,1.50*%
%ADD30C,1.20*%
%ADD31C,6.20*%
%ADD32C,1.00*%
%ADD33C,4.20*%
%ADD34C,0.80*%
G36*
X004076Y001824D02*
X004076Y001824D01*
X004076Y001824D01*
X004096Y001824D01*
X004134Y001819D01*
X004172Y001809D01*
X004208Y001794D01*
X004242Y001774D01*
X004273Y001750D01*
X004301Y001723D01*
X004325Y001692D01*
X004344Y001658D01*
X004359Y001622D01*
X004370Y001584D01*
X004375Y001545D01*
X004375Y001525D01*
X004375Y001525D01*
X004373Y001506D01*
X004373Y001468D01*
X004375Y001429D01*
X004381Y001391D01*
X004389Y001354D01*
X004401Y001317D01*
X004415Y001281D01*
X004433Y001247D01*
X004435Y001243D01*
X004428Y001230D01*
X004386Y001230D01*
X004274Y001229D01*
X004161Y001229D01*
X004049Y001230D01*
X003992Y001230D01*
X003983Y001230D01*
X003965Y001231D01*
X003947Y001233D01*
X003930Y001236D01*
X003921Y001239D01*
Y001239D01*
X003916Y001240D01*
X003906Y001243D01*
X003897Y001246D01*
X003887Y001250D01*
X003882Y001252D01*
X003882Y001252D01*
X003875Y001255D01*
X003860Y001261D01*
X003845Y001269D01*
X003831Y001277D01*
X003824Y001282D01*
X003794Y001306D01*
X003793Y001307D01*
X003789Y001311D01*
X003782Y001317D01*
X003287Y001813D01*
X003292Y001825D01*
X004076Y001824D01*
D02*
G37*
G36*
X004396Y007430D02*
X004440Y007430D01*
X004447Y007417D01*
X004444Y007413D01*
X004425Y007379D01*
X004408Y007344D01*
X004394Y007307D01*
X004383Y007269D01*
X004376Y007230D01*
X004371Y007191D01*
X004369Y007152D01*
X004370Y007132D01*
X004370Y007132D01*
X004370Y007132D01*
X004371Y007112D01*
X004367Y007073D01*
X004357Y007034D01*
X004343Y006997D01*
X004324Y006963D01*
X004300Y006931D01*
X004272Y006903D01*
X004240Y006879D01*
X004206Y006860D01*
X004169Y006845D01*
X004130Y006836D01*
X004091Y006832D01*
X004071Y006833D01*
Y006833D01*
X004071Y006833D01*
X004071Y006833D01*
X003275Y006818D01*
X003270Y006830D01*
X003778Y007338D01*
X003787Y007348D01*
X003792Y007352D01*
X003819Y007375D01*
X003826Y007380D01*
X003839Y007388D01*
X003853Y007396D01*
X003868Y007402D01*
X003875Y007405D01*
X003880Y007407D01*
X003890Y007411D01*
X003900Y007415D01*
X003903Y007416D01*
X003915Y007419D01*
X003915Y007419D01*
X003927Y007423D01*
X003940Y007426D01*
X003957Y007428D01*
X003974Y007430D01*
X003982Y007430D01*
X003982Y007430D01*
X004042Y007430D01*
X004160Y007431D01*
X004278Y007431D01*
X004396Y007430D01*
D02*
G37*
G36*
X009854Y001814D02*
X009359Y001319D01*
X009352Y001312D01*
X009349Y001309D01*
X009347Y001307D01*
X009317Y001283D01*
X009310Y001278D01*
X009296Y001270D01*
X009281Y001263D01*
X009266Y001256D01*
X009259Y001253D01*
X009259Y001253D01*
X009254Y001251D01*
X009245Y001247D01*
X009235Y001244D01*
X009225Y001241D01*
X009220Y001240D01*
Y001240D01*
X009212Y001238D01*
X009194Y001234D01*
X009176Y001232D01*
X009158Y001231D01*
X009149Y001231D01*
X009092Y001231D01*
X008980Y001231D01*
X008868Y001231D01*
X008755Y001231D01*
X008713Y001231D01*
X008706Y001244D01*
X008709Y001248D01*
X008726Y001282D01*
X008740Y001318D01*
X008752Y001355D01*
X008760Y001392D01*
X008766Y001430D01*
X008768Y001469D01*
X008768Y001507D01*
X008766Y001527D01*
X008766Y001527D01*
X008766Y001546D01*
X008772Y001585D01*
X008782Y001623D01*
X008797Y001659D01*
X008816Y001693D01*
X008840Y001724D01*
X008868Y001752D01*
X008899Y001776D01*
X008933Y001795D01*
X008969Y001810D01*
X009007Y001820D01*
X009046Y001825D01*
X009065Y001825D01*
X009065Y001825D01*
X009065Y001825D01*
X009849Y001826D01*
X009854Y001814D01*
D02*
G37*
G36*
X008985Y007433D02*
X009104Y007432D01*
X009163Y007432D01*
X009163Y007432D01*
X009171Y007432D01*
X009188Y007430D01*
X009205Y007427D01*
X009222Y007424D01*
X009230Y007421D01*
X009235Y007420D01*
X009245Y007417D01*
X009255Y007413D01*
X009265Y007409D01*
X009270Y007407D01*
X009278Y007404D01*
X009292Y007397D01*
X009306Y007390D01*
X009319Y007382D01*
X009326Y007377D01*
X009353Y007354D01*
X009358Y007349D01*
X009367Y007340D01*
X009875Y006832D01*
X009870Y006820D01*
X009074Y006835D01*
X009054Y006834D01*
X009015Y006838D01*
X008976Y006847D01*
X008939Y006862D01*
X008905Y006881D01*
X008873Y006905D01*
X008845Y006933D01*
X008821Y006964D01*
X008802Y006999D01*
X008788Y007036D01*
X008778Y007074D01*
X008775Y007114D01*
X008775Y007134D01*
X008775Y007134D01*
X008775Y007134D01*
X008776Y007153D01*
X008774Y007193D01*
X008769Y007232D01*
X008762Y007271D01*
X008751Y007308D01*
X008737Y007345D01*
X008720Y007381D01*
X008701Y007415D01*
X008698Y007419D01*
X008705Y007432D01*
X008749Y007432D01*
X008867Y007433D01*
X008985Y007433D01*
D02*
G37*
D11*
X003328Y006825D02*
G03*
X003261Y006817I000000J-000300D01*
G01*
X008702Y001232D02*
G03*
X008773Y001425I-000230J000193D01*
G01*
X009817Y001825D02*
G03*
X009864Y001828I000000J000300D01*
G01*
X003261Y001832D02*
G03*
X003328Y001825I000067J000292D01*
G01*
X004373Y001425D02*
G03*
X004450Y001224I000300J000000D01*
G01*
Y007425D02*
G03*
X004373Y007225I000223J-000201D01*
G01*
Y001525D02*
G03*
X004073Y001825I-000300J000000D01*
G01*
X009073D02*
G03*
X008773Y001525I000000J-000300D01*
G01*
X009879Y006818D02*
G03*
X009817Y006825I-000062J-000293D01*
G01*
X004073Y006825D02*
G03*
X004373Y007125I000000J000300D01*
G01*
X008773Y007225D02*
G03*
X008694Y007427I-000300J000000D01*
G01*
X008773Y007125D02*
G03*
X009073Y006825I000300J000000D01*
G01*
X003328Y001825D02*
X004072D01*
X004373Y001425D02*
Y001525D01*
X008773Y007125D02*
Y007225D01*
Y001425D02*
Y001525D01*
X003328Y006825D02*
X004073D01*
X009073Y001825D02*
X009817D01*
X004373Y007125D02*
Y007225D01*
X009073Y006825D02*
X009817D01*
D16*
X009820Y005257D02*
D03*
X010010D02*
D03*
Y005057D02*
D03*
X009820D02*
D03*
X003130Y005257D02*
D03*
X003320D02*
D03*
X003130Y005057D02*
D03*
X003320D02*
D03*
D17*
X008462Y003727D02*
D03*
Y002965D02*
D03*
X009882Y003729D02*
D03*
Y002967D02*
D03*
X004653Y002960D02*
D03*
Y003722D02*
D03*
X003233Y002958D02*
D03*
Y003720D02*
D03*
D18*
X007898Y006861D02*
D03*
X007530D02*
D03*
X004049Y004380D02*
D03*
X004417D02*
D03*
X005192D02*
D03*
X005560D02*
D03*
D19*
X009580Y006486D02*
D03*
Y006118D02*
D03*
D20*
X010618Y003430D02*
D03*
X010418D02*
D03*
X010618Y003630D02*
D03*
X010418D02*
D03*
X010618Y003830D02*
D03*
X010418D02*
D03*
X010618Y004030D02*
D03*
X010418D02*
D03*
Y005230D02*
D03*
X010618D02*
D03*
X010418Y005030D02*
D03*
X010618D02*
D03*
X010418Y004830D02*
D03*
X010618D02*
D03*
X010418Y004630D02*
D03*
X010618D02*
D03*
X010418Y004430D02*
D03*
X010618D02*
D03*
X010418Y004230D02*
D03*
X010618D02*
D03*
D21*
X010518Y005330D02*
D03*
Y003330D02*
D03*
D22*
X009912Y005650D02*
D03*
X009785Y005523D02*
D03*
X003513Y005650D02*
D03*
X003386Y005523D02*
D03*
D23*
X009658Y005650D02*
D03*
X003259D02*
D03*
D24*
X009026Y004898D02*
D03*
X008010D02*
D03*
X007248D02*
D03*
Y006422D02*
D03*
X008264D02*
D03*
X008772D02*
D03*
X004114Y006394D02*
D03*
X005130D02*
D03*
X005892D02*
D03*
Y004870D02*
D03*
X004876D02*
D03*
X004368D02*
D03*
D25*
X009026Y006422D02*
D03*
X004114Y004870D02*
D03*
D26*
X006316Y002176D02*
D03*
Y002430D02*
D03*
X005554D02*
D03*
X006062Y002176D02*
D03*
Y002430D02*
D03*
X005808Y002176D02*
D03*
Y002430D02*
D03*
X005554Y002176D02*
D03*
X004792Y002430D02*
D03*
X005300Y002176D02*
D03*
Y002430D02*
D03*
X005046Y002176D02*
D03*
Y002430D02*
D03*
X004792Y002176D02*
D03*
X004030Y002430D02*
D03*
X004284Y002176D02*
D03*
Y002430D02*
D03*
X004538Y002176D02*
D03*
Y002430D02*
D03*
X006824Y002430D02*
D03*
Y002176D02*
D03*
X007586D02*
D03*
X007078Y002430D02*
D03*
Y002176D02*
D03*
X007332Y002430D02*
D03*
Y002176D02*
D03*
X007586Y002430D02*
D03*
X008348Y002176D02*
D03*
X007840Y002430D02*
D03*
Y002176D02*
D03*
X008094Y002430D02*
D03*
Y002176D02*
D03*
X008348Y002430D02*
D03*
X009110Y002176D02*
D03*
X008856Y002430D02*
D03*
Y002176D02*
D03*
X008602Y002430D02*
D03*
Y002176D02*
D03*
D27*
X004030Y002176D02*
D03*
X009110Y002430D02*
D03*
D28*
X006993Y003727D02*
D03*
X007882D02*
D03*
X006142Y002960D02*
D03*
X005253D02*
D03*
Y003722D02*
D03*
X006142D02*
D03*
X006993Y002965D02*
D03*
X007882D02*
D03*
D29*
X009757Y004597D02*
D03*
X009032Y003700D02*
D03*
Y004272D02*
D03*
Y005638D02*
D03*
Y006005D02*
D03*
Y006690D02*
D03*
Y005267D02*
D03*
X009757Y004125D02*
D03*
D30*
X010150Y006300D02*
D03*
X009100Y002800D02*
D03*
X009450Y002100D02*
D03*
X008400Y004200D02*
D03*
Y001400D02*
D03*
X007700Y004200D02*
D03*
Y002800D02*
D03*
X007000Y007000D02*
D03*
Y005600D02*
D03*
X007350Y003500D02*
D03*
X006300Y007000D02*
D03*
X006650Y006300D02*
D03*
X006300Y005600D02*
D03*
X006650Y003500D02*
D03*
Y002100D02*
D03*
X005600Y007000D02*
D03*
Y005600D02*
D03*
X005950Y003500D02*
D03*
X005600Y002800D02*
D03*
X004900Y007000D02*
D03*
Y005600D02*
D03*
Y004200D02*
D03*
X004550Y006300D02*
D03*
X004200Y005600D02*
D03*
X004550Y004900D02*
D03*
X003850Y006300D02*
D03*
Y002100D02*
D03*
X003150Y006300D02*
D03*
X002800Y005600D02*
D03*
X007460Y003750D02*
D03*
X005960Y004500D02*
D03*
X003710Y006000D02*
D03*
D31*
X006570Y004330D02*
D03*
D32*
X009330Y006097D02*
D03*
X003322Y004900D02*
D03*
X007920Y006090D02*
D03*
X009820Y004900D02*
D03*
X010010D02*
D03*
X003130D02*
D03*
D33*
X009070Y007130D02*
D03*
X004070D02*
D03*
X009070Y001530D02*
D03*
X004070D02*
D03*
D34*
X008143Y003732D02*
D03*
X003847Y005066D02*
D03*
Y004670D02*
D03*
Y004274D02*
D03*
X004100Y003890D02*
D03*
X004100Y003494D02*
D03*
Y003098D02*
D03*
X003847Y003890D02*
D03*
Y003494D02*
D03*
Y003098D02*
D03*
X003594D02*
D03*
Y003494D02*
D03*
Y003890D02*
D03*
X008143Y002970D02*
D03*
X004983Y003722D02*
D03*
Y002960D02*
D03*
M02*
