G04*
G04 #@! TF.GenerationSoftware,Altium Limited,Altium Designer,20.1.10 (176)*
G04*
G04 Layer_Physical_Order=4*
G04 Layer_Color=16737819*
%FSAX42Y42*%
%MOMM*%
G71*
G04*
G04 #@! TF.SameCoordinates,EC29B362-C5D2-4197-BC47-CE10F38E6FBA*
G04*
G04*
G04 #@! TF.FilePolarity,Positive*
G04*
G01*
G75*
%ADD11C,0.30*%
%ADD35C,1.00*%
%ADD36R,0.80X1.30*%
%ADD40C,0.50*%
%ADD42C,1.10*%
%ADD43C,1.20*%
%ADD44P,1.70X4X90.0*%
%ADD45C,1.52*%
%ADD46R,1.52X1.52*%
%ADD47C,1.60*%
%ADD48R,1.60X1.60*%
%ADD49C,2.60*%
%ADD50C,1.30*%
%ADD51C,1.00*%
%ADD52C,6.00*%
%ADD53C,0.80*%
%ADD54C,4.00*%
%ADD55C,0.60*%
%ADD73R,1.63X0.81*%
%ADD74R,1.50X0.50*%
%ADD75R,1.30X0.80*%
G36*
X009148Y007362D02*
Y007362D01*
X009168Y007360D01*
X009193Y007358D01*
X009236Y007345D01*
X009276Y007324D01*
X009296Y007307D01*
X009310Y007295D01*
X009324Y007281D01*
X010721Y005884D01*
X010735Y005870D01*
X010747Y005856D01*
X010764Y005836D01*
X010785Y005796D01*
X010798Y005753D01*
X010800Y005728D01*
X010802Y005708D01*
X010804Y005690D01*
X010805Y005689D01*
X010811Y005673D01*
X010823Y005658D01*
X010837Y005647D01*
X010854Y005640D01*
X010872Y005638D01*
Y005497D01*
X010870Y005495D01*
X009881Y005495D01*
X009865Y005515D01*
X009866Y005523D01*
X009863Y005544D01*
X009855Y005563D01*
X009850Y005570D01*
X009847Y005574D01*
X009861Y005588D01*
X009865Y005585D01*
X009872Y005580D01*
X009892Y005572D01*
X009912Y005569D01*
X009933Y005572D01*
X009953Y005580D01*
X009969Y005593D01*
X009982Y005610D01*
X009990Y005629D01*
X009993Y005650D01*
X009990Y005671D01*
X009982Y005690D01*
X009969Y005707D01*
X009953Y005720D01*
X009933Y005728D01*
X009912Y005731D01*
X009892Y005728D01*
X009872Y005720D01*
X009855Y005707D01*
X009843Y005690D01*
X009834Y005671D01*
X009832Y005650D01*
X009834Y005629D01*
X009843Y005610D01*
X009848Y005603D01*
X009851Y005599D01*
X009837Y005585D01*
X009833Y005588D01*
X009826Y005593D01*
X009806Y005601D01*
X009785Y005604D01*
X009765Y005601D01*
X009754Y005597D01*
X009743Y005614D01*
X009779Y005650D01*
X009728Y005701D01*
X009667Y005641D01*
X009607Y005581D01*
X009658Y005529D01*
X009695Y005566D01*
X009712Y005554D01*
X009707Y005544D01*
X009705Y005523D01*
X009706Y005515D01*
X009690Y005495D01*
X008948Y005495D01*
Y005575D01*
X008968Y005582D01*
X008972Y005577D01*
X008990Y005563D01*
X009010Y005555D01*
X009032Y005552D01*
X009055Y005555D01*
X009075Y005563D01*
X009093Y005577D01*
X009107Y005595D01*
X009115Y005615D01*
X009118Y005638D01*
X009115Y005660D01*
X009107Y005680D01*
X009093Y005698D01*
X009075Y005712D01*
X009055Y005720D01*
X009032Y005723D01*
X009010Y005720D01*
X008990Y005712D01*
X008972Y005698D01*
X008968Y005693D01*
X008948Y005700D01*
Y005943D01*
X008968Y005950D01*
X008972Y005944D01*
X008990Y005931D01*
X009010Y005922D01*
X009032Y005919D01*
X009055Y005922D01*
X009075Y005931D01*
X009093Y005944D01*
X009107Y005962D01*
X009115Y005983D01*
X009118Y006005D01*
X009115Y006027D01*
X009107Y006048D01*
X009093Y006066D01*
X009075Y006079D01*
X009055Y006088D01*
X009032Y006091D01*
X009010Y006088D01*
X008990Y006079D01*
X008972Y006066D01*
X008968Y006060D01*
X008948Y006067D01*
X008948Y006326D01*
X009122D01*
Y006394D01*
X009245D01*
Y006370D01*
X009415D01*
Y006490D01*
X009245D01*
Y006466D01*
X009122D01*
Y006518D01*
X008948D01*
Y006628D01*
X008968Y006635D01*
X008972Y006629D01*
X008990Y006616D01*
X009010Y006607D01*
X009032Y006604D01*
X009055Y006607D01*
X009075Y006616D01*
X009093Y006629D01*
X009107Y006647D01*
X009115Y006668D01*
X009118Y006690D01*
X009115Y006712D01*
X009107Y006733D01*
X009093Y006751D01*
X009075Y006764D01*
X009055Y006773D01*
X009032Y006776D01*
X009010Y006773D01*
X008990Y006764D01*
X008972Y006751D01*
X008968Y006745D01*
X008948Y006752D01*
Y006916D01*
X008948Y006916D01*
X008946Y006924D01*
X008942Y006930D01*
X008942Y006930D01*
X008928Y006944D01*
X008921Y006949D01*
X008913Y006950D01*
X008607Y006950D01*
X007390Y006950D01*
X007382Y006949D01*
X007376Y006944D01*
X007371Y006938D01*
X007370Y006930D01*
Y006428D01*
X007350Y006427D01*
X007348Y006436D01*
X007347Y006448D01*
X007337Y006473D01*
X007320Y006494D01*
X007299Y006511D01*
X007274Y006521D01*
X007261Y006523D01*
Y006422D01*
Y006321D01*
X007274Y006323D01*
X007299Y006333D01*
X007320Y006349D01*
X007337Y006371D01*
X007347Y006395D01*
X007348Y006408D01*
X007350Y006417D01*
X007370Y006415D01*
X007370Y005305D01*
X007355Y005290D01*
X004689Y005290D01*
X004681Y005289D01*
X004675Y005284D01*
X004675Y005284D01*
X004661Y005270D01*
X004661Y005270D01*
X004656Y005264D01*
X004655Y005256D01*
Y004585D01*
X004656Y004577D01*
X004661Y004571D01*
X004667Y004566D01*
X004675Y004565D01*
X005200D01*
X005208Y004566D01*
X005214Y004571D01*
X005219Y004577D01*
X005220Y004583D01*
X005240Y004581D01*
Y004560D01*
X005360D01*
Y004730D01*
X005240D01*
Y004730D01*
X005220Y004731D01*
Y004810D01*
X005775D01*
X005777Y004810D01*
X005779Y004810D01*
X005781Y004811D01*
X005783Y004811D01*
X005784Y004812D01*
X005785Y004813D01*
X005803Y004819D01*
X005819Y004798D01*
X005840Y004781D01*
X005865Y004771D01*
X005879Y004769D01*
Y004870D01*
X005904D01*
Y004769D01*
X005918Y004771D01*
X005943Y004781D01*
X005964Y004798D01*
X005969Y004803D01*
X005970Y004805D01*
X005986Y004814D01*
X005988Y004813D01*
X005990Y004811D01*
X005992Y004811D01*
X005993Y004810D01*
X005996Y004810D01*
X005998Y004810D01*
X007156D01*
X007159Y004810D01*
X007163Y004811D01*
X007163Y004811D01*
X007164Y004811D01*
X007167Y004813D01*
X007170Y004815D01*
X007170Y004815D01*
X007170Y004816D01*
X007190Y004814D01*
X007197Y004809D01*
X007221Y004799D01*
X007235Y004797D01*
Y004898D01*
X007261D01*
Y004797D01*
X007274Y004799D01*
X007299Y004809D01*
X007305Y004814D01*
X007325Y004816D01*
X007326Y004815D01*
X007326Y004815D01*
X007329Y004813D01*
X007332Y004811D01*
X007332Y004811D01*
X007333Y004811D01*
X007336Y004810D01*
X007340Y004810D01*
X007740D01*
X007748Y004811D01*
X007754Y004816D01*
X007755Y004816D01*
X007775Y004810D01*
Y004750D01*
X007776Y004742D01*
X007781Y004735D01*
X007787Y004731D01*
X007795Y004729D01*
X010141D01*
X010145Y004730D01*
X010149Y004731D01*
X010149Y004731D01*
X010149Y004731D01*
X010153Y004733D01*
X010156Y004735D01*
X010156Y004735D01*
X010156Y004735D01*
X010158Y004739D01*
X010160Y004742D01*
X010160Y004742D01*
X010160Y004742D01*
X010161Y004746D01*
X010162Y004750D01*
X010162Y004764D01*
X010230D01*
Y004830D01*
X010256D01*
Y004764D01*
X010349D01*
Y004764D01*
X010369Y004766D01*
X010377Y004760D01*
X010397Y004752D01*
X010405Y004751D01*
Y004830D01*
X010431D01*
Y004751D01*
X010439Y004752D01*
X010458Y004760D01*
X010475Y004773D01*
X010488Y004790D01*
X010496Y004809D01*
X010499Y004830D01*
X010515Y004844D01*
X010521D01*
X010537Y004830D01*
X010539Y004809D01*
X010548Y004790D01*
X010560Y004773D01*
X010577Y004760D01*
X010597Y004752D01*
X010605Y004751D01*
Y004830D01*
X010631D01*
Y004751D01*
X010639Y004752D01*
X010658Y004760D01*
X010666Y004766D01*
X010686Y004764D01*
X010686Y004764D01*
X010780D01*
Y004830D01*
X010805D01*
Y004764D01*
X010872D01*
Y004696D01*
X010805D01*
Y004630D01*
Y004564D01*
X010872D01*
Y004491D01*
X010692D01*
Y004490D01*
X010672Y004484D01*
X010671Y004484D01*
X010656Y004496D01*
X010637Y004503D01*
X010618Y004506D01*
X010598Y004503D01*
X010580Y004496D01*
X010564Y004484D01*
X010552Y004468D01*
X010545Y004450D01*
X010544Y004444D01*
X010529Y004429D01*
X010507D01*
X010492Y004444D01*
X010491Y004450D01*
X010483Y004468D01*
X010471Y004484D01*
X010456Y004496D01*
X010437Y004503D01*
X010418Y004506D01*
X010398Y004503D01*
X010380Y004496D01*
X010364Y004484D01*
X010364Y004484D01*
X010344Y004490D01*
Y004491D01*
X010142D01*
Y004426D01*
X009401D01*
X009245Y004582D01*
X009216Y004612D01*
X009201Y004622D01*
X009183Y004625D01*
X007338D01*
X007320Y004622D01*
X007305Y004612D01*
X006877Y004183D01*
X006860Y004195D01*
X006875Y004231D01*
X006887Y004280D01*
X006891Y004330D01*
X006887Y004380D01*
X006875Y004429D01*
X006856Y004476D01*
X006829Y004519D01*
X006797Y004557D01*
X006758Y004590D01*
X006715Y004616D01*
X006669Y004635D01*
X006620Y004647D01*
X006570Y004651D01*
X006520Y004647D01*
X006471Y004635D01*
X006424Y004616D01*
X006381Y004590D01*
X006343Y004557D01*
X006310Y004519D01*
X006284Y004476D01*
X006264Y004429D01*
X006253Y004380D01*
X006249Y004330D01*
X006253Y004280D01*
X006264Y004231D01*
X006284Y004184D01*
X006310Y004141D01*
X006343Y004103D01*
X006381Y004070D01*
X006424Y004044D01*
X006471Y004025D01*
X006520Y004013D01*
X006570Y004009D01*
X006620Y004013D01*
X006669Y004025D01*
X006705Y004040D01*
X006717Y004023D01*
X005788Y003094D01*
X005778Y003079D01*
X005774Y003061D01*
Y002708D01*
X005778Y002690D01*
X005788Y002675D01*
X005839Y002624D01*
Y002546D01*
X005821Y002529D01*
X005808Y002531D01*
X005782Y002527D01*
X005757Y002517D01*
X005736Y002501D01*
X005720Y002480D01*
X005718Y002476D01*
X005643D01*
X005641Y002480D01*
X005625Y002501D01*
X005604Y002517D01*
X005580Y002527D01*
X005554Y002531D01*
X005528Y002527D01*
X005503Y002517D01*
X005482Y002501D01*
X005466Y002480D01*
X005456Y002456D01*
X005453Y002430D01*
X005456Y002404D01*
X005466Y002380D01*
X005482Y002359D01*
X005503Y002343D01*
X005508Y002341D01*
Y002265D01*
X005503Y002263D01*
X005482Y002247D01*
X005466Y002226D01*
X005456Y002202D01*
X005453Y002176D01*
X005456Y002150D01*
X005466Y002126D01*
X005482Y002105D01*
X005503Y002089D01*
X005528Y002079D01*
X005554Y002075D01*
X005580Y002079D01*
X005604Y002089D01*
X005625Y002105D01*
X005641Y002126D01*
X005643Y002130D01*
X005718D01*
X005720Y002126D01*
X005736Y002105D01*
X005757Y002089D01*
X005782Y002079D01*
X005808Y002075D01*
X005834Y002079D01*
X005858Y002089D01*
X005879Y002105D01*
X005895Y002126D01*
X005905Y002150D01*
X005909Y002176D01*
X005905Y002202D01*
X005901Y002212D01*
X005917Y002228D01*
X005924Y002237D01*
X005927Y002239D01*
X005942D01*
X005946Y002237D01*
X005952Y002228D01*
X005968Y002212D01*
X005964Y002202D01*
X005961Y002176D01*
X005964Y002150D01*
X005974Y002126D01*
X005990Y002105D01*
X006011Y002089D01*
X006036Y002079D01*
X006062Y002075D01*
X006088Y002079D01*
X006112Y002089D01*
X006133Y002105D01*
X006149Y002126D01*
X006151Y002130D01*
X006226D01*
X006228Y002126D01*
X006244Y002105D01*
X006265Y002089D01*
X006290Y002079D01*
X006316Y002075D01*
X006342Y002079D01*
X006366Y002089D01*
X006387Y002105D01*
X006403Y002126D01*
X006413Y002150D01*
X006417Y002176D01*
X006413Y002202D01*
X006403Y002226D01*
X006387Y002247D01*
X006366Y002263D01*
X006362Y002265D01*
Y002341D01*
X006366Y002343D01*
X006387Y002359D01*
X006403Y002380D01*
X006413Y002404D01*
X006417Y002430D01*
X006413Y002456D01*
X006403Y002480D01*
X006387Y002501D01*
X006366Y002517D01*
X006342Y002527D01*
X006316Y002531D01*
X006290Y002527D01*
X006265Y002517D01*
X006244Y002501D01*
X006228Y002480D01*
X006226Y002476D01*
X006151D01*
X006149Y002480D01*
X006133Y002501D01*
X006112Y002517D01*
X006088Y002527D01*
X006062Y002531D01*
X006049Y002529D01*
X006031Y002546D01*
Y002685D01*
X006027Y002702D01*
X006017Y002717D01*
X005966Y002768D01*
Y003001D01*
X005982Y003017D01*
X005999Y003006D01*
X005996Y002999D01*
X005991Y002960D01*
X005996Y002921D01*
X006011Y002884D01*
X006035Y002853D01*
X006067Y002829D01*
X006103Y002814D01*
X006142Y002809D01*
X006181Y002814D01*
X006218Y002829D01*
X006249Y002853D01*
X006273Y002884D01*
X006288Y002921D01*
X006293Y002960D01*
X006288Y002999D01*
X006273Y003036D01*
X006249Y003067D01*
X006218Y003091D01*
X006181Y003106D01*
X006142Y003111D01*
X006103Y003106D01*
X006097Y003103D01*
X006085Y003120D01*
X007398Y004433D01*
X009123D01*
X009308Y004248D01*
X009323Y004238D01*
X009341Y004235D01*
X010142D01*
Y004170D01*
X010344D01*
Y004170D01*
X010364Y004177D01*
X010364Y004177D01*
X010380Y004165D01*
X010398Y004157D01*
X010418Y004155D01*
X010437Y004157D01*
X010456Y004165D01*
X010471Y004177D01*
X010483Y004193D01*
X010491Y004211D01*
X010492Y004216D01*
X010507Y004232D01*
X010529D01*
X010544Y004216D01*
X010545Y004211D01*
X010552Y004193D01*
X010564Y004177D01*
X010580Y004165D01*
X010598Y004157D01*
X010618Y004155D01*
X010637Y004157D01*
X010656Y004165D01*
X010671Y004177D01*
X010672Y004177D01*
X010692Y004170D01*
Y004170D01*
X010872D01*
Y004091D01*
X010692D01*
Y004090D01*
X010672Y004084D01*
X010671Y004084D01*
X010656Y004096D01*
X010637Y004103D01*
X010618Y004106D01*
X010598Y004103D01*
X010580Y004096D01*
X010564Y004084D01*
X010552Y004068D01*
X010545Y004050D01*
X010544Y004044D01*
X010526Y004026D01*
X010510D01*
X010492Y004044D01*
X010491Y004050D01*
X010483Y004068D01*
X010471Y004084D01*
X010456Y004096D01*
X010437Y004103D01*
X010418Y004106D01*
X010398Y004103D01*
X010380Y004096D01*
X010364Y004084D01*
X010364Y004084D01*
X010344Y004090D01*
Y004091D01*
X010142D01*
Y004026D01*
X009794D01*
X009790Y004046D01*
X009800Y004051D01*
X009818Y004064D01*
X009832Y004082D01*
X009840Y004103D01*
X009843Y004125D01*
X009840Y004147D01*
X009832Y004168D01*
X009818Y004186D01*
X009800Y004199D01*
X009780Y004208D01*
X009757Y004211D01*
X009735Y004208D01*
X009715Y004199D01*
X009697Y004186D01*
X009683Y004168D01*
X009675Y004147D01*
X009672Y004125D01*
X009675Y004103D01*
X009683Y004082D01*
X009697Y004064D01*
X009715Y004051D01*
X009725Y004046D01*
X009721Y004026D01*
X009698D01*
X009680Y004023D01*
X009665Y004013D01*
X009236Y003583D01*
X008022D01*
X008004Y003580D01*
X007989Y003570D01*
X007126Y002706D01*
X007116Y002691D01*
X007112Y002674D01*
Y002634D01*
X007111Y002629D01*
Y002546D01*
X007110Y002544D01*
X007092Y002529D01*
X007078Y002531D01*
X007052Y002527D01*
X007027Y002517D01*
X007006Y002501D01*
X006990Y002480D01*
X006988Y002476D01*
X006913D01*
X006911Y002480D01*
X006895Y002501D01*
X006874Y002517D01*
X006850Y002527D01*
X006824Y002531D01*
X006798Y002527D01*
X006773Y002517D01*
X006752Y002501D01*
X006736Y002480D01*
X006726Y002456D01*
X006723Y002430D01*
X006726Y002404D01*
X006736Y002380D01*
X006752Y002359D01*
X006773Y002343D01*
X006778Y002341D01*
Y002265D01*
X006773Y002263D01*
X006752Y002247D01*
X006736Y002226D01*
X006726Y002202D01*
X006723Y002176D01*
X006725Y002159D01*
X006706Y002151D01*
X006704Y002154D01*
X006688Y002166D01*
X006670Y002173D01*
X006663Y002174D01*
Y002100D01*
Y002026D01*
X006670Y002027D01*
X006688Y002034D01*
X006704Y002046D01*
X006716Y002062D01*
X006723Y002080D01*
X006726Y002100D01*
X006725Y002107D01*
X006744Y002115D01*
X006752Y002105D01*
X006773Y002089D01*
X006798Y002079D01*
X006824Y002075D01*
X006850Y002079D01*
X006874Y002089D01*
X006895Y002105D01*
X006911Y002126D01*
X006913Y002130D01*
X006988D01*
X006990Y002126D01*
X007006Y002105D01*
X007027Y002089D01*
X007052Y002079D01*
X007078Y002075D01*
X007104Y002079D01*
X007128Y002089D01*
X007149Y002105D01*
X007165Y002126D01*
X007175Y002150D01*
X007179Y002176D01*
X007175Y002202D01*
X007171Y002212D01*
X007187Y002228D01*
X007197Y002243D01*
X007201Y002260D01*
Y002346D01*
X007197Y002363D01*
X007187Y002378D01*
X007171Y002394D01*
X007175Y002404D01*
X007179Y002430D01*
X007175Y002456D01*
X007173Y002461D01*
X007185Y002472D01*
X007187Y002476D01*
X007190Y002478D01*
X007192Y002483D01*
X007195Y002487D01*
X007215Y002489D01*
X007216Y002489D01*
X007217Y002485D01*
X007227Y002470D01*
X007236Y002461D01*
X007234Y002456D01*
X007231Y002430D01*
X007234Y002404D01*
X007244Y002380D01*
X007260Y002359D01*
X007281Y002343D01*
X007306Y002333D01*
X007332Y002329D01*
X007358Y002333D01*
X007382Y002343D01*
X007403Y002359D01*
X007419Y002380D01*
X007421Y002384D01*
X007496D01*
X007498Y002380D01*
X007514Y002359D01*
X007535Y002343D01*
X007540Y002341D01*
Y002265D01*
X007535Y002263D01*
X007514Y002247D01*
X007498Y002226D01*
X007496Y002222D01*
X007421D01*
X007419Y002226D01*
X007403Y002247D01*
X007382Y002263D01*
X007358Y002273D01*
X007332Y002277D01*
X007306Y002273D01*
X007281Y002263D01*
X007260Y002247D01*
X007244Y002226D01*
X007234Y002202D01*
X007231Y002176D01*
X007234Y002150D01*
X007244Y002126D01*
X007260Y002105D01*
X007281Y002089D01*
X007306Y002079D01*
X007332Y002075D01*
X007358Y002079D01*
X007382Y002089D01*
X007403Y002105D01*
X007419Y002126D01*
X007421Y002130D01*
X007496D01*
X007498Y002126D01*
X007514Y002105D01*
X007535Y002089D01*
X007560Y002079D01*
X007586Y002075D01*
X007612Y002079D01*
X007636Y002089D01*
X007657Y002105D01*
X007673Y002126D01*
X007683Y002150D01*
X007687Y002176D01*
X007683Y002202D01*
X007673Y002226D01*
X007657Y002247D01*
X007636Y002263D01*
X007632Y002265D01*
Y002341D01*
X007636Y002343D01*
X007657Y002359D01*
X007673Y002380D01*
X007683Y002404D01*
X007687Y002430D01*
X007683Y002456D01*
X007673Y002480D01*
X007657Y002501D01*
X007636Y002517D01*
X007612Y002527D01*
X007586Y002531D01*
X007560Y002527D01*
X007535Y002517D01*
X007514Y002501D01*
X007498Y002480D01*
X007496Y002476D01*
X007421D01*
X007419Y002480D01*
X007403Y002501D01*
X007382Y002517D01*
X007358Y002527D01*
X007332Y002531D01*
X007325Y002530D01*
X007305Y002548D01*
Y002590D01*
X007304Y002595D01*
Y002613D01*
X007727Y003037D01*
X007744Y003025D01*
X007735Y003004D01*
X007730Y002965D01*
X007735Y002926D01*
X007750Y002889D01*
X007765Y002871D01*
X007750Y002856D01*
X007738Y002866D01*
X007720Y002873D01*
X007713Y002874D01*
Y002813D01*
X007774D01*
X007773Y002820D01*
X007766Y002838D01*
X007764Y002841D01*
X007778Y002855D01*
X007806Y002834D01*
X007842Y002819D01*
X007882Y002813D01*
X007921Y002819D01*
X007957Y002834D01*
X007988Y002858D01*
X008013Y002889D01*
X008028Y002926D01*
X008033Y002965D01*
X008028Y003004D01*
X008013Y003040D01*
X007988Y003072D01*
X007957Y003096D01*
X007921Y003111D01*
X007882Y003116D01*
X007842Y003111D01*
X007821Y003102D01*
X007810Y003119D01*
X008082Y003392D01*
X009296D01*
X009314Y003395D01*
X009329Y003405D01*
X009758Y003835D01*
X010142D01*
Y003770D01*
X010344D01*
Y003770D01*
X010364Y003777D01*
X010364Y003777D01*
X010380Y003765D01*
X010398Y003757D01*
X010418Y003755D01*
X010437Y003757D01*
X010456Y003765D01*
X010471Y003777D01*
X010483Y003793D01*
X010491Y003811D01*
X010492Y003816D01*
X010510Y003835D01*
X010526D01*
X010544Y003816D01*
X010545Y003811D01*
X010552Y003793D01*
X010564Y003777D01*
X010580Y003765D01*
X010598Y003757D01*
X010618Y003755D01*
X010637Y003757D01*
X010656Y003765D01*
X010671Y003777D01*
X010672Y003777D01*
X010692Y003770D01*
Y003770D01*
X010872D01*
Y003691D01*
X010692D01*
X010691Y003690D01*
X010672Y003684D01*
X010671Y003684D01*
X010656Y003696D01*
X010637Y003703D01*
X010618Y003706D01*
X010598Y003703D01*
X010580Y003696D01*
X010564Y003684D01*
X010558Y003676D01*
X010477D01*
X010471Y003684D01*
X010456Y003696D01*
X010437Y003703D01*
X010418Y003706D01*
X010398Y003703D01*
X010380Y003696D01*
X010364Y003684D01*
X010364Y003684D01*
X010345Y003690D01*
X010344Y003691D01*
X010142D01*
Y003570D01*
X010344D01*
X010345Y003571D01*
X010364Y003577D01*
X010364Y003577D01*
X010380Y003565D01*
X010398Y003557D01*
X010418Y003555D01*
X010437Y003557D01*
X010456Y003565D01*
X010471Y003577D01*
X010477Y003585D01*
X010558D01*
X010564Y003577D01*
X010580Y003565D01*
X010598Y003557D01*
X010618Y003555D01*
X010637Y003557D01*
X010656Y003565D01*
X010671Y003577D01*
X010672Y003577D01*
X010691Y003571D01*
X010692Y003570D01*
X010872D01*
Y003491D01*
X010692D01*
X010691Y003490D01*
X010672Y003484D01*
X010671Y003484D01*
X010656Y003496D01*
X010637Y003503D01*
X010618Y003506D01*
X010598Y003503D01*
X010580Y003496D01*
X010564Y003484D01*
X010558Y003476D01*
X010477D01*
X010471Y003484D01*
X010456Y003496D01*
X010437Y003503D01*
X010418Y003506D01*
X010398Y003503D01*
X010380Y003496D01*
X010364Y003484D01*
X010364Y003484D01*
X010345Y003490D01*
X010344Y003491D01*
X010142D01*
Y003370D01*
X010344D01*
X010345Y003371D01*
X010364Y003377D01*
X010364Y003377D01*
X010380Y003365D01*
X010398Y003357D01*
X010418Y003355D01*
X010437Y003357D01*
X010439Y003358D01*
X010457Y003344D01*
X010454Y003330D01*
X010459Y003306D01*
X010473Y003285D01*
X010493Y003272D01*
X010518Y003267D01*
X010542Y003272D01*
X010563Y003285D01*
X010577Y003306D01*
X010582Y003330D01*
X010579Y003344D01*
X010596Y003358D01*
X010598Y003357D01*
X010618Y003355D01*
X010637Y003357D01*
X010656Y003365D01*
X010671Y003377D01*
X010672Y003377D01*
X010691Y003371D01*
X010692Y003370D01*
X010872D01*
Y003027D01*
X010854Y003025D01*
X010837Y003018D01*
X010823Y003007D01*
X010811Y002992D01*
X010805Y002976D01*
X010804Y002975D01*
X010802Y002957D01*
X010800Y002937D01*
X010798Y002912D01*
X010785Y002869D01*
X010764Y002829D01*
X010747Y002809D01*
X010735Y002795D01*
X010721Y002780D01*
X009310Y001370D01*
X009310Y001370D01*
X009296Y001358D01*
X009276Y001341D01*
X009236Y001320D01*
X009193Y001307D01*
X009150Y001303D01*
X009148Y001303D01*
X008372D01*
X008371Y001303D01*
X008328Y001307D01*
X008285Y001320D01*
X008245Y001341D01*
X008210Y001370D01*
X008181Y001405D01*
X008160Y001445D01*
X008147Y001488D01*
X008145Y001513D01*
X008144Y001532D01*
X008144D01*
X008139Y001591D01*
X008125Y001647D01*
X008103Y001701D01*
X008073Y001751D01*
X008035Y001795D01*
X007991Y001833D01*
X007941Y001863D01*
X007887Y001885D01*
X007831Y001899D01*
X007772Y001904D01*
Y001903D01*
X005372D01*
Y001904D01*
X005314Y001899D01*
X005258Y001885D01*
X005204Y001863D01*
X005154Y001833D01*
X005110Y001795D01*
X005072Y001751D01*
X005042Y001701D01*
X005020Y001647D01*
X005006Y001591D01*
X005001Y001532D01*
X005001D01*
X005000Y001513D01*
X004998Y001488D01*
X004985Y001445D01*
X004964Y001405D01*
X004935Y001370D01*
X004900Y001341D01*
X004860Y001320D01*
X004817Y001307D01*
X004774Y001303D01*
X004772Y001303D01*
X003997D01*
X003995Y001303D01*
X003952Y001307D01*
X003909Y001320D01*
X003869Y001341D01*
X003836Y001369D01*
X003835Y001370D01*
X002424Y002780D01*
X002410Y002795D01*
X002398Y002809D01*
X002381Y002829D01*
X002360Y002869D01*
X002347Y002912D01*
X002345Y002937D01*
X002343Y002957D01*
X002343Y002957D01*
X002343Y002976D01*
Y005688D01*
X002343Y005689D01*
X002343Y005708D01*
X002345Y005728D01*
X002347Y005753D01*
X002360Y005796D01*
X002381Y005836D01*
X002398Y005856D01*
X002410Y005870D01*
X002410Y005870D01*
X003835Y007295D01*
X003835Y007295D01*
X003835Y007295D01*
X003849Y007307D01*
X003869Y007324D01*
X003909Y007345D01*
X003952Y007358D01*
X003977Y007360D01*
X003997Y007362D01*
Y007362D01*
X004016Y007362D01*
X005946D01*
X005947Y007362D01*
X005966Y007362D01*
X005986Y007360D01*
X006011Y007358D01*
X006054Y007345D01*
X006094Y007324D01*
X006129Y007295D01*
X006154Y007264D01*
X006163Y007250D01*
X006164Y007247D01*
X006165Y007247D01*
X006199Y007196D01*
X006239Y007149D01*
X006286Y007109D01*
X006304Y007097D01*
X006300Y007078D01*
X006299Y007076D01*
X006280Y007073D01*
X006262Y007066D01*
X006246Y007054D01*
X006234Y007038D01*
X006227Y007020D01*
X006226Y007013D01*
X006374D01*
X006373Y007020D01*
X006366Y007038D01*
X006366Y007038D01*
X006379Y007054D01*
X006392Y007047D01*
X006451Y007028D01*
X006511Y007016D01*
X006572Y007011D01*
X006634Y007016D01*
X006694Y007028D01*
X006753Y007047D01*
X006808Y007075D01*
X006859Y007109D01*
X006906Y007149D01*
X006946Y007196D01*
X006980Y007247D01*
D01*
X006980Y007247D01*
X006981Y007247D01*
X006982Y007250D01*
X006991Y007264D01*
X007016Y007295D01*
X007051Y007324D01*
X007091Y007345D01*
X007134Y007358D01*
X007159Y007360D01*
X007179Y007362D01*
Y007362D01*
X007198Y007362D01*
X009129D01*
X009148Y007362D01*
D02*
G37*
G36*
X008928Y006916D02*
X008928Y005475D01*
X009721Y005475D01*
X009728Y005466D01*
X009745Y005453D01*
X009765Y005445D01*
X009785Y005442D01*
X009806Y005445D01*
X009826Y005453D01*
X009842Y005466D01*
X009849Y005475D01*
X010870Y005475D01*
X010870Y005296D01*
X010805D01*
Y005230D01*
X010780D01*
Y005296D01*
X010686D01*
Y005296D01*
X010666Y005295D01*
X010658Y005301D01*
X010639Y005309D01*
X010631Y005310D01*
Y005230D01*
X010605D01*
Y005310D01*
X010597Y005309D01*
X010580Y005323D01*
X010582Y005330D01*
X010577Y005355D01*
X010563Y005375D01*
X010542Y005389D01*
X010518Y005394D01*
X010493Y005389D01*
X010473Y005375D01*
X010459Y005355D01*
X010454Y005330D01*
X010455Y005323D01*
X010439Y005309D01*
X010431Y005310D01*
Y005230D01*
X010405D01*
Y005310D01*
X010397Y005309D01*
X010377Y005301D01*
X010369Y005295D01*
X010349Y005296D01*
X010349Y005296D01*
X010256D01*
Y005230D01*
Y005164D01*
X010349D01*
Y005164D01*
X010369Y005166D01*
X010377Y005160D01*
X010390Y005155D01*
X010386Y005135D01*
X008590Y005135D01*
X008590Y006535D01*
X008590Y006670D01*
X007740Y006670D01*
Y004830D01*
X007340D01*
X007331Y004848D01*
X007332Y004849D01*
X007342Y004873D01*
X007345Y004898D01*
X007342Y004923D01*
X007332Y004946D01*
X007316Y004967D01*
X007296Y004982D01*
X007273Y004992D01*
X007248Y004995D01*
X007223Y004992D01*
X007199Y004982D01*
X007179Y004967D01*
X007164Y004946D01*
X007154Y004923D01*
X007151Y004898D01*
X007154Y004873D01*
X007164Y004849D01*
X007165Y004848D01*
X007156Y004830D01*
X005998D01*
X005986Y004850D01*
X005989Y004870D01*
X005985Y004895D01*
X005976Y004919D01*
X005960Y004939D01*
X005940Y004954D01*
X005917Y004964D01*
X005892Y004967D01*
X005866Y004964D01*
X005843Y004954D01*
X005823Y004939D01*
X005808Y004919D01*
X005798Y004895D01*
X005795Y004870D01*
X005798Y004846D01*
X005775Y004830D01*
X005200D01*
Y004585D01*
X004675D01*
Y005256D01*
X004689Y005270D01*
X007390Y005270D01*
X007390Y006930D01*
X008607Y006930D01*
X008913Y006930D01*
X008928Y006916D01*
D02*
G37*
G36*
X008545Y006570D02*
Y005112D01*
X010127D01*
X010136Y005096D01*
Y005043D01*
X010243D01*
Y005030D01*
X010256D01*
Y004964D01*
X010349D01*
Y004964D01*
X010369Y004966D01*
X010377Y004960D01*
X010397Y004952D01*
X010405Y004951D01*
Y005030D01*
X010431D01*
Y004951D01*
X010439Y004952D01*
X010458Y004960D01*
X010475Y004973D01*
X010484Y004985D01*
X010552D01*
X010560Y004973D01*
X010577Y004960D01*
X010597Y004952D01*
X010605Y004951D01*
Y005030D01*
X010631D01*
Y004951D01*
X010639Y004952D01*
X010658Y004960D01*
X010666Y004966D01*
X010686Y004964D01*
X010686Y004964D01*
X010780D01*
Y005030D01*
X010805D01*
Y004964D01*
X010870D01*
Y004891D01*
X010692D01*
X010691Y004890D01*
X010672Y004884D01*
X010671Y004884D01*
X010656Y004896D01*
X010637Y004903D01*
X010618Y004906D01*
X010598Y004903D01*
X010580Y004896D01*
X010564Y004884D01*
X010558Y004876D01*
X010477D01*
X010471Y004884D01*
X010456Y004896D01*
X010437Y004903D01*
X010418Y004906D01*
X010398Y004903D01*
X010380Y004896D01*
X010364Y004884D01*
X010364Y004884D01*
X010345Y004890D01*
X010344Y004891D01*
X010142D01*
Y004770D01*
X010142D01*
X010141Y004750D01*
X007795D01*
Y006570D01*
X008545Y006570D01*
D02*
G37*
%LPC*%
G36*
X007013Y007074D02*
Y007013D01*
X007074D01*
X007073Y007020D01*
X007066Y007038D01*
X007054Y007054D01*
X007038Y007066D01*
X007020Y007073D01*
X007013Y007074D01*
D02*
G37*
G36*
X006987D02*
X006980Y007073D01*
X006962Y007066D01*
X006946Y007054D01*
X006934Y007038D01*
X006927Y007020D01*
X006926Y007013D01*
X006987D01*
Y007074D01*
D02*
G37*
G36*
X005613D02*
Y007013D01*
X005674D01*
X005673Y007020D01*
X005666Y007038D01*
X005654Y007054D01*
X005638Y007066D01*
X005620Y007073D01*
X005613Y007074D01*
D02*
G37*
G36*
X005587D02*
X005580Y007073D01*
X005562Y007066D01*
X005546Y007054D01*
X005534Y007038D01*
X005527Y007020D01*
X005526Y007013D01*
X005587D01*
Y007074D01*
D02*
G37*
G36*
X004913D02*
Y007013D01*
X004974D01*
X004973Y007020D01*
X004966Y007038D01*
X004954Y007054D01*
X004938Y007066D01*
X004920Y007073D01*
X004913Y007074D01*
D02*
G37*
G36*
X004887D02*
X004880Y007073D01*
X004862Y007066D01*
X004846Y007054D01*
X004834Y007038D01*
X004827Y007020D01*
X004826Y007013D01*
X004887D01*
Y007074D01*
D02*
G37*
G36*
X007074Y006987D02*
X007013D01*
Y006926D01*
X007020Y006927D01*
X007038Y006934D01*
X007054Y006946D01*
X007066Y006962D01*
X007073Y006980D01*
X007074Y006987D01*
D02*
G37*
G36*
X006987D02*
X006926D01*
X006927Y006980D01*
X006934Y006962D01*
X006946Y006946D01*
X006962Y006934D01*
X006980Y006927D01*
X006987Y006926D01*
Y006987D01*
D02*
G37*
G36*
X006374D02*
X006313D01*
Y006926D01*
X006320Y006927D01*
X006338Y006934D01*
X006354Y006946D01*
X006366Y006962D01*
X006373Y006980D01*
X006374Y006987D01*
D02*
G37*
G36*
X006287D02*
X006226D01*
X006227Y006980D01*
X006234Y006962D01*
X006246Y006946D01*
X006262Y006934D01*
X006280Y006927D01*
X006287Y006926D01*
Y006987D01*
D02*
G37*
G36*
X005674D02*
X005613D01*
Y006926D01*
X005620Y006927D01*
X005638Y006934D01*
X005654Y006946D01*
X005666Y006962D01*
X005673Y006980D01*
X005674Y006987D01*
D02*
G37*
G36*
X005587D02*
X005526D01*
X005527Y006980D01*
X005534Y006962D01*
X005546Y006946D01*
X005562Y006934D01*
X005580Y006927D01*
X005587Y006926D01*
Y006987D01*
D02*
G37*
G36*
X004974D02*
X004913D01*
Y006926D01*
X004920Y006927D01*
X004938Y006934D01*
X004954Y006946D01*
X004966Y006962D01*
X004973Y006980D01*
X004974Y006987D01*
D02*
G37*
G36*
X004887D02*
X004826D01*
X004827Y006980D01*
X004834Y006962D01*
X004846Y006946D01*
X004862Y006934D01*
X004880Y006927D01*
X004887Y006926D01*
Y006987D01*
D02*
G37*
G36*
X007235Y006523D02*
X007221Y006521D01*
X007197Y006511D01*
X007175Y006494D01*
X007159Y006473D01*
X007149Y006448D01*
X007147Y006435D01*
X007235D01*
Y006523D01*
D02*
G37*
G36*
X005904Y006495D02*
Y006407D01*
X005992D01*
X005991Y006421D01*
X005980Y006445D01*
X005964Y006466D01*
X005943Y006483D01*
X005918Y006493D01*
X005904Y006495D01*
D02*
G37*
G36*
X005879D02*
X005865Y006493D01*
X005840Y006483D01*
X005819Y006466D01*
X005803Y006445D01*
X005793Y006421D01*
X005791Y006407D01*
X005879D01*
Y006495D01*
D02*
G37*
G36*
X007235Y006409D02*
X007147D01*
X007149Y006395D01*
X007159Y006371D01*
X007175Y006349D01*
X007197Y006333D01*
X007221Y006323D01*
X007235Y006321D01*
Y006409D01*
D02*
G37*
G36*
X010163Y006374D02*
Y006313D01*
X010224D01*
X010223Y006320D01*
X010216Y006338D01*
X010204Y006354D01*
X010188Y006366D01*
X010170Y006373D01*
X010163Y006374D01*
D02*
G37*
G36*
X010137D02*
X010130Y006373D01*
X010112Y006366D01*
X010096Y006354D01*
X010084Y006338D01*
X010077Y006320D01*
X010076Y006313D01*
X010137D01*
Y006374D01*
D02*
G37*
G36*
X006663D02*
Y006313D01*
X006724D01*
X006723Y006320D01*
X006716Y006338D01*
X006704Y006354D01*
X006688Y006366D01*
X006670Y006373D01*
X006663Y006374D01*
D02*
G37*
G36*
X006637D02*
X006630Y006373D01*
X006612Y006366D01*
X006596Y006354D01*
X006584Y006338D01*
X006577Y006320D01*
X006576Y006313D01*
X006637D01*
Y006374D01*
D02*
G37*
G36*
X004563D02*
Y006313D01*
X004624D01*
X004623Y006320D01*
X004616Y006338D01*
X004604Y006354D01*
X004588Y006366D01*
X004570Y006373D01*
X004563Y006374D01*
D02*
G37*
G36*
X004537D02*
X004530Y006373D01*
X004512Y006366D01*
X004496Y006354D01*
X004484Y006338D01*
X004477Y006320D01*
X004476Y006313D01*
X004537D01*
Y006374D01*
D02*
G37*
G36*
X003863D02*
Y006313D01*
X003924D01*
X003923Y006320D01*
X003916Y006338D01*
X003904Y006354D01*
X003888Y006366D01*
X003870Y006373D01*
X003863Y006374D01*
D02*
G37*
G36*
X003837D02*
X003830Y006373D01*
X003812Y006366D01*
X003796Y006354D01*
X003784Y006338D01*
X003777Y006320D01*
X003776Y006313D01*
X003837D01*
Y006374D01*
D02*
G37*
G36*
X003163D02*
Y006313D01*
X003224D01*
X003223Y006320D01*
X003216Y006338D01*
X003204Y006354D01*
X003188Y006366D01*
X003170Y006373D01*
X003163Y006374D01*
D02*
G37*
G36*
X003137D02*
X003130Y006373D01*
X003112Y006366D01*
X003096Y006354D01*
X003084Y006338D01*
X003077Y006320D01*
X003076Y006313D01*
X003137D01*
Y006374D01*
D02*
G37*
G36*
X005130Y006491D02*
X005104Y006488D01*
X005081Y006478D01*
X005061Y006463D01*
X005046Y006443D01*
X005036Y006419D01*
X005033Y006394D01*
X005036Y006369D01*
X005046Y006345D01*
X005061Y006325D01*
X005081Y006310D01*
X005104Y006300D01*
X005130Y006297D01*
X005155Y006300D01*
X005178Y006310D01*
X005198Y006325D01*
X005214Y006345D01*
X005223Y006369D01*
X005227Y006394D01*
X005223Y006419D01*
X005214Y006443D01*
X005198Y006463D01*
X005178Y006478D01*
X005155Y006488D01*
X005130Y006491D01*
D02*
G37*
G36*
X004114D02*
X004088Y006488D01*
X004065Y006478D01*
X004045Y006463D01*
X004030Y006443D01*
X004020Y006419D01*
X004017Y006394D01*
X004020Y006369D01*
X004030Y006345D01*
X004045Y006325D01*
X004065Y006310D01*
X004088Y006300D01*
X004114Y006297D01*
X004139Y006300D01*
X004162Y006310D01*
X004182Y006325D01*
X004198Y006345D01*
X004207Y006369D01*
X004211Y006394D01*
X004207Y006419D01*
X004198Y006443D01*
X004182Y006463D01*
X004162Y006478D01*
X004139Y006488D01*
X004114Y006491D01*
D02*
G37*
G36*
X005992Y006381D02*
X005904D01*
Y006293D01*
X005918Y006295D01*
X005943Y006305D01*
X005964Y006322D01*
X005980Y006343D01*
X005991Y006367D01*
X005992Y006381D01*
D02*
G37*
G36*
X005879D02*
X005791D01*
X005793Y006367D01*
X005803Y006343D01*
X005819Y006322D01*
X005840Y006305D01*
X005865Y006295D01*
X005879Y006293D01*
Y006381D01*
D02*
G37*
G36*
X010224Y006287D02*
X010163D01*
Y006226D01*
X010170Y006227D01*
X010188Y006234D01*
X010204Y006246D01*
X010216Y006262D01*
X010223Y006280D01*
X010224Y006287D01*
D02*
G37*
G36*
X010137D02*
X010076D01*
X010077Y006280D01*
X010084Y006262D01*
X010096Y006246D01*
X010112Y006234D01*
X010130Y006227D01*
X010137Y006226D01*
Y006287D01*
D02*
G37*
G36*
X006724D02*
X006663D01*
Y006226D01*
X006670Y006227D01*
X006688Y006234D01*
X006704Y006246D01*
X006716Y006262D01*
X006723Y006280D01*
X006724Y006287D01*
D02*
G37*
G36*
X006637D02*
X006576D01*
X006577Y006280D01*
X006584Y006262D01*
X006596Y006246D01*
X006612Y006234D01*
X006630Y006227D01*
X006637Y006226D01*
Y006287D01*
D02*
G37*
G36*
X004624D02*
X004563D01*
Y006226D01*
X004570Y006227D01*
X004588Y006234D01*
X004604Y006246D01*
X004616Y006262D01*
X004623Y006280D01*
X004624Y006287D01*
D02*
G37*
G36*
X004537D02*
X004476D01*
X004477Y006280D01*
X004484Y006262D01*
X004496Y006246D01*
X004512Y006234D01*
X004530Y006227D01*
X004537Y006226D01*
Y006287D01*
D02*
G37*
G36*
X003924D02*
X003863D01*
Y006226D01*
X003870Y006227D01*
X003888Y006234D01*
X003904Y006246D01*
X003916Y006262D01*
X003923Y006280D01*
X003924Y006287D01*
D02*
G37*
G36*
X003837D02*
X003776D01*
X003777Y006280D01*
X003784Y006262D01*
X003796Y006246D01*
X003812Y006234D01*
X003830Y006227D01*
X003837Y006226D01*
Y006287D01*
D02*
G37*
G36*
X003224D02*
X003163D01*
Y006226D01*
X003170Y006227D01*
X003188Y006234D01*
X003204Y006246D01*
X003216Y006262D01*
X003223Y006280D01*
X003224Y006287D01*
D02*
G37*
G36*
X003137D02*
X003076D01*
X003077Y006280D01*
X003084Y006262D01*
X003096Y006246D01*
X003112Y006234D01*
X003130Y006227D01*
X003137Y006226D01*
Y006287D01*
D02*
G37*
G36*
X009415Y006300D02*
X009245D01*
Y006180D01*
X009294D01*
Y006146D01*
X009287Y006141D01*
X009273Y006121D01*
X009269Y006097D01*
X009273Y006074D01*
X009287Y006054D01*
X009307Y006041D01*
X009330Y006036D01*
X009353Y006041D01*
X009373Y006054D01*
X009387Y006074D01*
X009391Y006097D01*
X009387Y006121D01*
X009373Y006141D01*
X009366Y006146D01*
Y006180D01*
X009415D01*
Y006300D01*
D02*
G37*
G36*
X003723Y006074D02*
Y006013D01*
X003784D01*
X003783Y006020D01*
X003776Y006038D01*
X003764Y006054D01*
X003748Y006066D01*
X003730Y006073D01*
X003723Y006074D01*
D02*
G37*
G36*
X003697D02*
X003690Y006073D01*
X003672Y006066D01*
X003656Y006054D01*
X003644Y006038D01*
X003637Y006020D01*
X003636Y006013D01*
X003697D01*
Y006074D01*
D02*
G37*
G36*
X003784Y005987D02*
X003723D01*
Y005926D01*
X003730Y005927D01*
X003748Y005934D01*
X003764Y005946D01*
X003776Y005962D01*
X003783Y005980D01*
X003784Y005987D01*
D02*
G37*
G36*
X003697D02*
X003636D01*
X003637Y005980D01*
X003644Y005962D01*
X003656Y005946D01*
X003672Y005934D01*
X003690Y005927D01*
X003697Y005926D01*
Y005987D01*
D02*
G37*
G36*
X009658Y005771D02*
X009607Y005719D01*
X009658Y005668D01*
X009710Y005719D01*
X009658Y005771D01*
D02*
G37*
G36*
X003259D02*
X003208Y005719D01*
X003259Y005668D01*
X003311Y005719D01*
X003259Y005771D01*
D02*
G37*
G36*
X007013Y005674D02*
Y005613D01*
X007074D01*
X007073Y005620D01*
X007066Y005638D01*
X007054Y005654D01*
X007038Y005666D01*
X007020Y005673D01*
X007013Y005674D01*
D02*
G37*
G36*
X006987D02*
X006980Y005673D01*
X006962Y005666D01*
X006946Y005654D01*
X006934Y005638D01*
X006927Y005620D01*
X006926Y005613D01*
X006987D01*
Y005674D01*
D02*
G37*
G36*
X006313D02*
Y005613D01*
X006374D01*
X006373Y005620D01*
X006366Y005638D01*
X006354Y005654D01*
X006338Y005666D01*
X006320Y005673D01*
X006313Y005674D01*
D02*
G37*
G36*
X006287D02*
X006280Y005673D01*
X006262Y005666D01*
X006246Y005654D01*
X006234Y005638D01*
X006227Y005620D01*
X006226Y005613D01*
X006287D01*
Y005674D01*
D02*
G37*
G36*
X005613D02*
Y005613D01*
X005674D01*
X005673Y005620D01*
X005666Y005638D01*
X005654Y005654D01*
X005638Y005666D01*
X005620Y005673D01*
X005613Y005674D01*
D02*
G37*
G36*
X005587D02*
X005580Y005673D01*
X005562Y005666D01*
X005546Y005654D01*
X005534Y005638D01*
X005527Y005620D01*
X005526Y005613D01*
X005587D01*
Y005674D01*
D02*
G37*
G36*
X004913D02*
Y005613D01*
X004974D01*
X004973Y005620D01*
X004966Y005638D01*
X004954Y005654D01*
X004938Y005666D01*
X004920Y005673D01*
X004913Y005674D01*
D02*
G37*
G36*
X004887D02*
X004880Y005673D01*
X004862Y005666D01*
X004846Y005654D01*
X004834Y005638D01*
X004827Y005620D01*
X004826Y005613D01*
X004887D01*
Y005674D01*
D02*
G37*
G36*
X004213D02*
Y005613D01*
X004274D01*
X004273Y005620D01*
X004266Y005638D01*
X004254Y005654D01*
X004238Y005666D01*
X004220Y005673D01*
X004213Y005674D01*
D02*
G37*
G36*
X004187D02*
X004180Y005673D01*
X004162Y005666D01*
X004146Y005654D01*
X004134Y005638D01*
X004127Y005620D01*
X004126Y005613D01*
X004187D01*
Y005674D01*
D02*
G37*
G36*
X002813D02*
Y005613D01*
X002874D01*
X002873Y005620D01*
X002866Y005638D01*
X002854Y005654D01*
X002838Y005666D01*
X002820Y005673D01*
X002813Y005674D01*
D02*
G37*
G36*
X002787D02*
X002780Y005673D01*
X002762Y005666D01*
X002746Y005654D01*
X002734Y005638D01*
X002727Y005620D01*
X002726Y005613D01*
X002787D01*
Y005674D01*
D02*
G37*
G36*
X009589Y005701D02*
X009538Y005650D01*
X009589Y005599D01*
X009640Y005650D01*
X009589Y005701D01*
D02*
G37*
G36*
X003190D02*
X003138Y005650D01*
X003190Y005599D01*
X003241Y005650D01*
X003190Y005701D01*
D02*
G37*
G36*
X003513Y005731D02*
X003492Y005728D01*
X003473Y005720D01*
X003456Y005707D01*
X003443Y005690D01*
X003435Y005671D01*
X003433Y005650D01*
X003435Y005629D01*
X003443Y005610D01*
X003449Y005603D01*
X003452Y005599D01*
X003437Y005585D01*
X003433Y005588D01*
X003427Y005593D01*
X003407Y005601D01*
X003386Y005604D01*
X003365Y005601D01*
X003355Y005597D01*
X003344Y005614D01*
X003380Y005650D01*
X003329Y005701D01*
X003268Y005641D01*
X003208Y005581D01*
X003259Y005529D01*
X003296Y005566D01*
X003313Y005554D01*
X003308Y005544D01*
X003306Y005523D01*
X003308Y005502D01*
X003316Y005483D01*
X003329Y005466D01*
X003346Y005453D01*
X003365Y005445D01*
X003386Y005442D01*
X003407Y005445D01*
X003427Y005453D01*
X003443Y005466D01*
X003456Y005483D01*
X003464Y005502D01*
X003467Y005523D01*
X003464Y005544D01*
X003456Y005563D01*
X003451Y005570D01*
X003448Y005574D01*
X003462Y005588D01*
X003466Y005585D01*
X003473Y005580D01*
X003492Y005572D01*
X003513Y005569D01*
X003534Y005572D01*
X003554Y005580D01*
X003570Y005593D01*
X003583Y005610D01*
X003591Y005629D01*
X003594Y005650D01*
X003591Y005671D01*
X003583Y005690D01*
X003570Y005707D01*
X003554Y005720D01*
X003534Y005728D01*
X003513Y005731D01*
D02*
G37*
G36*
X007074Y005587D02*
X007013D01*
Y005526D01*
X007020Y005527D01*
X007038Y005534D01*
X007054Y005546D01*
X007066Y005562D01*
X007073Y005580D01*
X007074Y005587D01*
D02*
G37*
G36*
X006987D02*
X006926D01*
X006927Y005580D01*
X006934Y005562D01*
X006946Y005546D01*
X006962Y005534D01*
X006980Y005527D01*
X006987Y005526D01*
Y005587D01*
D02*
G37*
G36*
X006374D02*
X006313D01*
Y005526D01*
X006320Y005527D01*
X006338Y005534D01*
X006354Y005546D01*
X006366Y005562D01*
X006373Y005580D01*
X006374Y005587D01*
D02*
G37*
G36*
X006287D02*
X006226D01*
X006227Y005580D01*
X006234Y005562D01*
X006246Y005546D01*
X006262Y005534D01*
X006280Y005527D01*
X006287Y005526D01*
Y005587D01*
D02*
G37*
G36*
X005674D02*
X005613D01*
Y005526D01*
X005620Y005527D01*
X005638Y005534D01*
X005654Y005546D01*
X005666Y005562D01*
X005673Y005580D01*
X005674Y005587D01*
D02*
G37*
G36*
X005587D02*
X005526D01*
X005527Y005580D01*
X005534Y005562D01*
X005546Y005546D01*
X005562Y005534D01*
X005580Y005527D01*
X005587Y005526D01*
Y005587D01*
D02*
G37*
G36*
X004974D02*
X004913D01*
Y005526D01*
X004920Y005527D01*
X004938Y005534D01*
X004954Y005546D01*
X004966Y005562D01*
X004973Y005580D01*
X004974Y005587D01*
D02*
G37*
G36*
X004887D02*
X004826D01*
X004827Y005580D01*
X004834Y005562D01*
X004846Y005546D01*
X004862Y005534D01*
X004880Y005527D01*
X004887Y005526D01*
Y005587D01*
D02*
G37*
G36*
X004274D02*
X004213D01*
Y005526D01*
X004220Y005527D01*
X004238Y005534D01*
X004254Y005546D01*
X004266Y005562D01*
X004273Y005580D01*
X004274Y005587D01*
D02*
G37*
G36*
X004187D02*
X004126D01*
X004127Y005580D01*
X004134Y005562D01*
X004146Y005546D01*
X004162Y005534D01*
X004180Y005527D01*
X004187Y005526D01*
Y005587D01*
D02*
G37*
G36*
X002874D02*
X002813D01*
Y005526D01*
X002820Y005527D01*
X002838Y005534D01*
X002854Y005546D01*
X002866Y005562D01*
X002873Y005580D01*
X002874Y005587D01*
D02*
G37*
G36*
X002787D02*
X002726D01*
X002727Y005580D01*
X002734Y005562D01*
X002746Y005546D01*
X002762Y005534D01*
X002780Y005527D01*
X002787Y005526D01*
Y005587D01*
D02*
G37*
G36*
X003847Y005117D02*
X003828Y005113D01*
X003811Y005102D01*
X003800Y005086D01*
X003796Y005066D01*
X003800Y005046D01*
X003811Y005030D01*
X003828Y005019D01*
X003847Y005015D01*
X003867Y005019D01*
X003883Y005030D01*
X003894Y005046D01*
X003898Y005066D01*
X003894Y005086D01*
X003883Y005102D01*
X003867Y005113D01*
X003847Y005117D01*
D02*
G37*
G36*
X004563Y004974D02*
Y004913D01*
X004624D01*
X004623Y004920D01*
X004616Y004938D01*
X004604Y004954D01*
X004588Y004966D01*
X004570Y004973D01*
X004563Y004974D01*
D02*
G37*
G36*
X003335Y004964D02*
Y004913D01*
X003387D01*
X003384Y004926D01*
X003370Y004947D01*
X003348Y004962D01*
X003335Y004964D01*
D02*
G37*
G36*
X003310D02*
X003297Y004962D01*
X003275Y004947D01*
X003261Y004926D01*
X003258Y004913D01*
X003310D01*
Y004964D01*
D02*
G37*
G36*
X004537Y004974D02*
X004530Y004973D01*
X004512Y004966D01*
X004496Y004954D01*
X004484Y004938D01*
X004477Y004920D01*
X004476Y004913D01*
X004455Y004910D01*
X004452Y004919D01*
X004436Y004939D01*
X004416Y004954D01*
X004393Y004964D01*
X004368Y004967D01*
X004342Y004964D01*
X004319Y004954D01*
X004299Y004939D01*
X004284Y004919D01*
X004274Y004895D01*
X004271Y004870D01*
X004274Y004845D01*
X004284Y004821D01*
X004296Y004806D01*
X004293Y004776D01*
X004293D01*
Y004730D01*
X004269D01*
Y004560D01*
X004389D01*
Y004730D01*
X004364D01*
Y004770D01*
X004368Y004773D01*
X004393Y004776D01*
X004416Y004786D01*
X004436Y004801D01*
X004452Y004821D01*
X004461Y004845D01*
X004463Y004860D01*
X004484Y004863D01*
X004484Y004862D01*
X004496Y004846D01*
X004512Y004834D01*
X004530Y004827D01*
X004537Y004826D01*
Y004900D01*
Y004974D01*
D02*
G37*
G36*
X003130Y004961D02*
X003107Y004957D01*
X003087Y004943D01*
X003073Y004923D01*
X003069Y004900D01*
X003073Y004877D01*
X003087Y004857D01*
X003107Y004843D01*
X003130Y004839D01*
X003153Y004843D01*
X003173Y004857D01*
X003187Y004877D01*
X003191Y004900D01*
X003187Y004923D01*
X003173Y004943D01*
X003153Y004957D01*
X003130Y004961D01*
D02*
G37*
G36*
X003387Y004887D02*
X003335D01*
Y004836D01*
X003348Y004838D01*
X003370Y004853D01*
X003384Y004874D01*
X003387Y004887D01*
D02*
G37*
G36*
X003310D02*
X003258D01*
X003261Y004874D01*
X003275Y004853D01*
X003297Y004838D01*
X003310Y004836D01*
Y004887D01*
D02*
G37*
G36*
X004624Y004887D02*
X004563D01*
Y004826D01*
X004570Y004827D01*
X004588Y004834D01*
X004604Y004846D01*
X004616Y004862D01*
X004623Y004880D01*
X004624Y004887D01*
D02*
G37*
G36*
X010405Y004710D02*
X010397Y004709D01*
X010377Y004701D01*
X010369Y004695D01*
X010349Y004696D01*
X010349Y004696D01*
X010256D01*
Y004630D01*
Y004564D01*
X010349D01*
Y004564D01*
X010369Y004566D01*
X010377Y004560D01*
X010397Y004552D01*
X010405Y004551D01*
Y004630D01*
Y004710D01*
D02*
G37*
G36*
X005555Y004735D02*
X005503D01*
Y004658D01*
X005555D01*
Y004735D01*
D02*
G37*
G36*
X005477D02*
X005425D01*
Y004658D01*
X005477D01*
Y004735D01*
D02*
G37*
G36*
X010230Y004696D02*
X010136D01*
Y004643D01*
X010230D01*
Y004696D01*
D02*
G37*
G36*
X010431Y004710D02*
Y004643D01*
X010497D01*
X010496Y004651D01*
X010488Y004671D01*
X010475Y004688D01*
X010458Y004701D01*
X010439Y004709D01*
X010431Y004710D01*
D02*
G37*
G36*
X010605D02*
X010597Y004709D01*
X010577Y004701D01*
X010560Y004688D01*
X010548Y004671D01*
X010539Y004651D01*
X010538Y004643D01*
X010605D01*
Y004710D01*
D02*
G37*
G36*
X003847Y004721D02*
X003828Y004717D01*
X003811Y004706D01*
X003800Y004690D01*
X003796Y004670D01*
X003800Y004650D01*
X003811Y004634D01*
X003828Y004623D01*
X003847Y004619D01*
X003867Y004623D01*
X003883Y004634D01*
X003894Y004650D01*
X003898Y004670D01*
X003894Y004690D01*
X003883Y004706D01*
X003867Y004717D01*
X003847Y004721D01*
D02*
G37*
G36*
X009770Y004687D02*
Y004610D01*
X009847D01*
X009846Y004621D01*
X009836Y004643D01*
X009822Y004662D01*
X009803Y004676D01*
X009781Y004686D01*
X009770Y004687D01*
D02*
G37*
G36*
X009745D02*
X009734Y004686D01*
X009712Y004676D01*
X009693Y004662D01*
X009679Y004643D01*
X009669Y004621D01*
X009668Y004610D01*
X009745D01*
Y004687D01*
D02*
G37*
G36*
X010230Y004618D02*
X010136D01*
Y004564D01*
X010230D01*
Y004618D01*
D02*
G37*
G36*
X010631Y004710D02*
Y004630D01*
Y004551D01*
X010639Y004552D01*
X010658Y004560D01*
X010666Y004566D01*
X010686Y004564D01*
X010686Y004564D01*
X010780D01*
Y004630D01*
Y004696D01*
X010686D01*
Y004696D01*
X010666Y004695D01*
X010658Y004701D01*
X010639Y004709D01*
X010631Y004710D01*
D02*
G37*
G36*
X004210Y004966D02*
X004017D01*
Y004774D01*
X004103D01*
Y004730D01*
X004079D01*
Y004560D01*
X004199D01*
Y004730D01*
X004174D01*
Y004774D01*
X004210D01*
Y004966D01*
D02*
G37*
G36*
X005555Y004632D02*
X005503D01*
Y004555D01*
X005555D01*
Y004632D01*
D02*
G37*
G36*
X005477D02*
X005425D01*
Y004555D01*
X005477D01*
Y004632D01*
D02*
G37*
G36*
X010497Y004618D02*
X010431D01*
Y004551D01*
X010439Y004552D01*
X010458Y004560D01*
X010475Y004573D01*
X010488Y004590D01*
X010496Y004609D01*
X010497Y004618D01*
D02*
G37*
G36*
X010605D02*
X010538D01*
X010539Y004609D01*
X010548Y004590D01*
X010560Y004573D01*
X010577Y004560D01*
X010597Y004552D01*
X010605Y004551D01*
Y004618D01*
D02*
G37*
G36*
X005973Y004574D02*
Y004513D01*
X006034D01*
X006033Y004520D01*
X006026Y004538D01*
X006014Y004554D01*
X005998Y004566D01*
X005980Y004573D01*
X005973Y004574D01*
D02*
G37*
G36*
X005947D02*
X005940Y004573D01*
X005922Y004566D01*
X005906Y004554D01*
X005894Y004538D01*
X005887Y004520D01*
X005886Y004513D01*
X005947D01*
Y004574D01*
D02*
G37*
G36*
X009847Y004585D02*
X009770D01*
Y004508D01*
X009781Y004509D01*
X009803Y004519D01*
X009822Y004533D01*
X009836Y004552D01*
X009846Y004574D01*
X009847Y004585D01*
D02*
G37*
G36*
X009745D02*
X009668D01*
X009669Y004574D01*
X009679Y004552D01*
X009693Y004533D01*
X009712Y004519D01*
X009734Y004509D01*
X009745Y004508D01*
Y004585D01*
D02*
G37*
G36*
X006034Y004487D02*
X005973D01*
Y004426D01*
X005980Y004427D01*
X005998Y004434D01*
X006014Y004446D01*
X006026Y004462D01*
X006033Y004480D01*
X006034Y004487D01*
D02*
G37*
G36*
X005947D02*
X005886D01*
X005887Y004480D01*
X005894Y004462D01*
X005906Y004446D01*
X005922Y004434D01*
X005940Y004427D01*
X005947Y004426D01*
Y004487D01*
D02*
G37*
G36*
X003847Y004325D02*
X003828Y004321D01*
X003811Y004310D01*
X003800Y004294D01*
X003796Y004274D01*
X003800Y004254D01*
X003811Y004238D01*
X003828Y004227D01*
X003847Y004223D01*
X003867Y004227D01*
X003883Y004238D01*
X003894Y004254D01*
X003898Y004274D01*
X003894Y004294D01*
X003883Y004310D01*
X003867Y004321D01*
X003847Y004325D01*
D02*
G37*
G36*
X008413Y004274D02*
Y004213D01*
X008474D01*
X008473Y004220D01*
X008466Y004238D01*
X008454Y004254D01*
X008438Y004266D01*
X008420Y004273D01*
X008413Y004274D01*
D02*
G37*
G36*
X008387D02*
X008380Y004273D01*
X008362Y004266D01*
X008346Y004254D01*
X008334Y004238D01*
X008327Y004220D01*
X008326Y004213D01*
X008387D01*
Y004274D01*
D02*
G37*
G36*
X007713D02*
Y004213D01*
X007774D01*
X007773Y004220D01*
X007766Y004238D01*
X007754Y004254D01*
X007738Y004266D01*
X007720Y004273D01*
X007713Y004274D01*
D02*
G37*
G36*
X007687D02*
X007680Y004273D01*
X007662Y004266D01*
X007646Y004254D01*
X007634Y004238D01*
X007627Y004220D01*
X007626Y004213D01*
X007687D01*
Y004274D01*
D02*
G37*
G36*
X004913D02*
Y004213D01*
X004974D01*
X004973Y004220D01*
X004966Y004238D01*
X004954Y004254D01*
X004938Y004266D01*
X004920Y004273D01*
X004913Y004274D01*
D02*
G37*
G36*
X004887D02*
X004880Y004273D01*
X004862Y004266D01*
X004846Y004254D01*
X004834Y004238D01*
X004827Y004220D01*
X004826Y004213D01*
X004887D01*
Y004274D01*
D02*
G37*
G36*
X009032Y004358D02*
X009010Y004355D01*
X008990Y004347D01*
X008972Y004333D01*
X008958Y004315D01*
X008950Y004295D01*
X008947Y004272D01*
X008950Y004250D01*
X008958Y004230D01*
X008972Y004212D01*
X008990Y004198D01*
X009010Y004190D01*
X009032Y004187D01*
X009055Y004190D01*
X009075Y004198D01*
X009093Y004212D01*
X009107Y004230D01*
X009115Y004250D01*
X009118Y004272D01*
X009115Y004295D01*
X009107Y004315D01*
X009093Y004333D01*
X009075Y004347D01*
X009055Y004355D01*
X009032Y004358D01*
D02*
G37*
G36*
X008474Y004187D02*
X008413D01*
Y004126D01*
X008420Y004127D01*
X008438Y004134D01*
X008454Y004146D01*
X008466Y004162D01*
X008473Y004180D01*
X008474Y004187D01*
D02*
G37*
G36*
X008387D02*
X008326D01*
X008327Y004180D01*
X008334Y004162D01*
X008346Y004146D01*
X008362Y004134D01*
X008380Y004127D01*
X008387Y004126D01*
Y004187D01*
D02*
G37*
G36*
X007774D02*
X007713D01*
Y004126D01*
X007720Y004127D01*
X007738Y004134D01*
X007754Y004146D01*
X007766Y004162D01*
X007773Y004180D01*
X007774Y004187D01*
D02*
G37*
G36*
X007687D02*
X007626D01*
X007627Y004180D01*
X007634Y004162D01*
X007646Y004146D01*
X007662Y004134D01*
X007680Y004127D01*
X007687Y004126D01*
Y004187D01*
D02*
G37*
G36*
X004974D02*
X004913D01*
Y004126D01*
X004920Y004127D01*
X004938Y004134D01*
X004954Y004146D01*
X004966Y004162D01*
X004973Y004180D01*
X004974Y004187D01*
D02*
G37*
G36*
X004887D02*
X004826D01*
X004827Y004180D01*
X004834Y004162D01*
X004846Y004146D01*
X004862Y004134D01*
X004880Y004127D01*
X004887Y004126D01*
Y004187D01*
D02*
G37*
G36*
X004100Y003941D02*
X004080Y003937D01*
X004064Y003926D01*
X004053Y003910D01*
X004049Y003890D01*
X004053Y003870D01*
X004064Y003854D01*
X004080Y003843D01*
X004100Y003839D01*
X004120Y003843D01*
X004136Y003854D01*
X004147Y003870D01*
X004151Y003890D01*
X004147Y003910D01*
X004136Y003926D01*
X004120Y003937D01*
X004100Y003941D01*
D02*
G37*
G36*
X003847D02*
X003828Y003937D01*
X003811Y003926D01*
X003800Y003910D01*
X003796Y003890D01*
X003800Y003870D01*
X003811Y003854D01*
X003828Y003843D01*
X003847Y003839D01*
X003867Y003843D01*
X003883Y003854D01*
X003894Y003870D01*
X003898Y003890D01*
X003894Y003910D01*
X003883Y003926D01*
X003867Y003937D01*
X003847Y003941D01*
D02*
G37*
G36*
X003594D02*
X003575Y003937D01*
X003558Y003926D01*
X003547Y003910D01*
X003543Y003890D01*
X003547Y003870D01*
X003558Y003854D01*
X003575Y003843D01*
X003594Y003839D01*
X003614Y003843D01*
X003631Y003854D01*
X003642Y003870D01*
X003645Y003890D01*
X003642Y003910D01*
X003631Y003926D01*
X003614Y003937D01*
X003594Y003941D01*
D02*
G37*
G36*
X007473Y003824D02*
Y003763D01*
X007534D01*
X007533Y003770D01*
X007526Y003788D01*
X007514Y003804D01*
X007498Y003816D01*
X007480Y003823D01*
X007473Y003824D01*
D02*
G37*
G36*
X007447D02*
X007440Y003823D01*
X007422Y003816D01*
X007406Y003804D01*
X007394Y003788D01*
X007387Y003770D01*
X007386Y003763D01*
X007447D01*
Y003824D01*
D02*
G37*
G36*
X008143Y003783D02*
X008123Y003779D01*
X008106Y003768D01*
X008095Y003752D01*
X008092Y003732D01*
X008095Y003712D01*
X008106Y003696D01*
X008123Y003685D01*
X008143Y003681D01*
X008162Y003685D01*
X008179Y003696D01*
X008190Y003712D01*
X008193Y003732D01*
X008190Y003752D01*
X008179Y003768D01*
X008162Y003779D01*
X008143Y003783D01*
D02*
G37*
G36*
X007534Y003737D02*
X007473D01*
Y003676D01*
X007480Y003677D01*
X007498Y003684D01*
X007514Y003696D01*
X007526Y003712D01*
X007533Y003730D01*
X007534Y003737D01*
D02*
G37*
G36*
X007447D02*
X007386D01*
X007387Y003730D01*
X007394Y003712D01*
X007406Y003696D01*
X007422Y003684D01*
X007440Y003677D01*
X007447Y003676D01*
Y003737D01*
D02*
G37*
G36*
X004983Y003773D02*
X004963Y003769D01*
X004946Y003758D01*
X004935Y003742D01*
X004932Y003722D01*
X004935Y003702D01*
X004946Y003686D01*
X004963Y003675D01*
X004983Y003671D01*
X005002Y003675D01*
X005019Y003686D01*
X005030Y003702D01*
X005033Y003722D01*
X005030Y003742D01*
X005019Y003758D01*
X005002Y003769D01*
X004983Y003773D01*
D02*
G37*
G36*
X009032Y003786D02*
X009010Y003783D01*
X008990Y003774D01*
X008972Y003761D01*
X008958Y003743D01*
X008950Y003722D01*
X008947Y003700D01*
X008950Y003678D01*
X008958Y003657D01*
X008972Y003639D01*
X008990Y003626D01*
X009010Y003617D01*
X009032Y003614D01*
X009055Y003617D01*
X009075Y003626D01*
X009093Y003639D01*
X009107Y003657D01*
X009115Y003678D01*
X009118Y003700D01*
X009115Y003722D01*
X009107Y003743D01*
X009093Y003761D01*
X009075Y003774D01*
X009055Y003783D01*
X009032Y003786D01*
D02*
G37*
G36*
X007882Y003878D02*
X007842Y003873D01*
X007806Y003858D01*
X007775Y003834D01*
X007750Y003802D01*
X007735Y003766D01*
X007730Y003727D01*
X007735Y003688D01*
X007750Y003651D01*
X007775Y003620D01*
X007806Y003596D01*
X007842Y003581D01*
X007882Y003575D01*
X007921Y003581D01*
X007957Y003596D01*
X007988Y003620D01*
X008013Y003651D01*
X008028Y003688D01*
X008033Y003727D01*
X008028Y003766D01*
X008013Y003802D01*
X007988Y003834D01*
X007957Y003858D01*
X007921Y003873D01*
X007882Y003878D01*
D02*
G37*
G36*
X006993D02*
X006953Y003873D01*
X006917Y003858D01*
X006886Y003834D01*
X006861Y003802D01*
X006846Y003766D01*
X006841Y003727D01*
X006846Y003688D01*
X006861Y003651D01*
X006886Y003620D01*
X006917Y003596D01*
X006953Y003581D01*
X006993Y003575D01*
X007032Y003581D01*
X007068Y003596D01*
X007099Y003620D01*
X007124Y003651D01*
X007139Y003688D01*
X007144Y003727D01*
X007139Y003766D01*
X007124Y003802D01*
X007099Y003834D01*
X007068Y003858D01*
X007032Y003873D01*
X006993Y003878D01*
D02*
G37*
G36*
X006142Y003873D02*
X006103Y003868D01*
X006067Y003853D01*
X006035Y003829D01*
X006011Y003798D01*
X005996Y003761D01*
X005991Y003722D01*
X005996Y003683D01*
X006011Y003646D01*
X006035Y003615D01*
X006067Y003591D01*
X006103Y003576D01*
X006142Y003571D01*
X006181Y003576D01*
X006218Y003591D01*
X006249Y003615D01*
X006273Y003646D01*
X006288Y003683D01*
X006293Y003722D01*
X006288Y003761D01*
X006273Y003798D01*
X006249Y003829D01*
X006218Y003853D01*
X006181Y003868D01*
X006142Y003873D01*
D02*
G37*
G36*
X005253D02*
X005214Y003868D01*
X005178Y003853D01*
X005146Y003829D01*
X005122Y003798D01*
X005107Y003761D01*
X005102Y003722D01*
X005107Y003683D01*
X005122Y003646D01*
X005146Y003615D01*
X005178Y003591D01*
X005214Y003576D01*
X005253Y003571D01*
X005292Y003576D01*
X005329Y003591D01*
X005360Y003615D01*
X005384Y003646D01*
X005399Y003683D01*
X005404Y003722D01*
X005399Y003761D01*
X005384Y003798D01*
X005360Y003829D01*
X005329Y003853D01*
X005292Y003868D01*
X005253Y003873D01*
D02*
G37*
G36*
X007363Y003574D02*
Y003513D01*
X007424D01*
X007423Y003520D01*
X007416Y003538D01*
X007404Y003554D01*
X007388Y003566D01*
X007370Y003573D01*
X007363Y003574D01*
D02*
G37*
G36*
X007337D02*
X007330Y003573D01*
X007312Y003566D01*
X007296Y003554D01*
X007284Y003538D01*
X007277Y003520D01*
X007276Y003513D01*
X007337D01*
Y003574D01*
D02*
G37*
G36*
X006663D02*
Y003513D01*
X006724D01*
X006723Y003520D01*
X006716Y003538D01*
X006704Y003554D01*
X006688Y003566D01*
X006670Y003573D01*
X006663Y003574D01*
D02*
G37*
G36*
X006637D02*
X006630Y003573D01*
X006612Y003566D01*
X006596Y003554D01*
X006584Y003538D01*
X006577Y003520D01*
X006576Y003513D01*
X006637D01*
Y003574D01*
D02*
G37*
G36*
X005963D02*
Y003513D01*
X006024D01*
X006023Y003520D01*
X006016Y003538D01*
X006004Y003554D01*
X005988Y003566D01*
X005970Y003573D01*
X005963Y003574D01*
D02*
G37*
G36*
X005937D02*
X005930Y003573D01*
X005912Y003566D01*
X005896Y003554D01*
X005884Y003538D01*
X005877Y003520D01*
X005876Y003513D01*
X005937D01*
Y003574D01*
D02*
G37*
G36*
X004100Y003545D02*
X004080Y003541D01*
X004064Y003530D01*
X004053Y003514D01*
X004049Y003494D01*
X004053Y003474D01*
X004064Y003458D01*
X004080Y003447D01*
X004100Y003443D01*
X004120Y003447D01*
X004136Y003458D01*
X004147Y003474D01*
X004151Y003494D01*
X004147Y003514D01*
X004136Y003530D01*
X004120Y003541D01*
X004100Y003545D01*
D02*
G37*
G36*
X003847D02*
X003828Y003541D01*
X003811Y003530D01*
X003800Y003514D01*
X003796Y003494D01*
X003800Y003474D01*
X003811Y003458D01*
X003828Y003447D01*
X003847Y003443D01*
X003867Y003447D01*
X003883Y003458D01*
X003894Y003474D01*
X003898Y003494D01*
X003894Y003514D01*
X003883Y003530D01*
X003867Y003541D01*
X003847Y003545D01*
D02*
G37*
G36*
X003594D02*
X003575Y003541D01*
X003558Y003530D01*
X003547Y003514D01*
X003543Y003494D01*
X003547Y003474D01*
X003558Y003458D01*
X003575Y003447D01*
X003594Y003443D01*
X003614Y003447D01*
X003631Y003458D01*
X003642Y003474D01*
X003645Y003494D01*
X003642Y003514D01*
X003631Y003530D01*
X003614Y003541D01*
X003594Y003545D01*
D02*
G37*
G36*
X007424Y003487D02*
X007363D01*
Y003426D01*
X007370Y003427D01*
X007388Y003434D01*
X007404Y003446D01*
X007416Y003462D01*
X007423Y003480D01*
X007424Y003487D01*
D02*
G37*
G36*
X007337D02*
X007276D01*
X007277Y003480D01*
X007284Y003462D01*
X007296Y003446D01*
X007312Y003434D01*
X007330Y003427D01*
X007337Y003426D01*
Y003487D01*
D02*
G37*
G36*
X006724D02*
X006663D01*
Y003426D01*
X006670Y003427D01*
X006688Y003434D01*
X006704Y003446D01*
X006716Y003462D01*
X006723Y003480D01*
X006724Y003487D01*
D02*
G37*
G36*
X006637D02*
X006576D01*
X006577Y003480D01*
X006584Y003462D01*
X006596Y003446D01*
X006612Y003434D01*
X006630Y003427D01*
X006637Y003426D01*
Y003487D01*
D02*
G37*
G36*
X006024D02*
X005963D01*
Y003426D01*
X005970Y003427D01*
X005988Y003434D01*
X006004Y003446D01*
X006016Y003462D01*
X006023Y003480D01*
X006024Y003487D01*
D02*
G37*
G36*
X005937D02*
X005876D01*
X005877Y003480D01*
X005884Y003462D01*
X005896Y003446D01*
X005912Y003434D01*
X005930Y003427D01*
X005937Y003426D01*
Y003487D01*
D02*
G37*
G36*
X004100Y003149D02*
X004080Y003145D01*
X004064Y003134D01*
X004053Y003118D01*
X004049Y003098D01*
X004053Y003078D01*
X004064Y003062D01*
X004080Y003051D01*
X004100Y003047D01*
X004120Y003051D01*
X004136Y003062D01*
X004147Y003078D01*
X004151Y003098D01*
X004147Y003118D01*
X004136Y003134D01*
X004120Y003145D01*
X004100Y003149D01*
D02*
G37*
G36*
X003847D02*
X003828Y003145D01*
X003811Y003134D01*
X003800Y003118D01*
X003796Y003098D01*
X003800Y003078D01*
X003811Y003062D01*
X003828Y003051D01*
X003847Y003047D01*
X003867Y003051D01*
X003883Y003062D01*
X003894Y003078D01*
X003898Y003098D01*
X003894Y003118D01*
X003883Y003134D01*
X003867Y003145D01*
X003847Y003149D01*
D02*
G37*
G36*
X003594D02*
X003575Y003145D01*
X003558Y003134D01*
X003547Y003118D01*
X003543Y003098D01*
X003547Y003078D01*
X003558Y003062D01*
X003575Y003051D01*
X003594Y003047D01*
X003614Y003051D01*
X003631Y003062D01*
X003642Y003078D01*
X003645Y003098D01*
X003642Y003118D01*
X003631Y003134D01*
X003614Y003145D01*
X003594Y003149D01*
D02*
G37*
G36*
X008143Y003021D02*
X008123Y003017D01*
X008106Y003006D01*
X008095Y002990D01*
X008092Y002970D01*
X008095Y002950D01*
X008106Y002934D01*
X008123Y002923D01*
X008143Y002919D01*
X008162Y002923D01*
X008179Y002934D01*
X008190Y002950D01*
X008193Y002970D01*
X008190Y002990D01*
X008179Y003006D01*
X008162Y003017D01*
X008143Y003021D01*
D02*
G37*
G36*
X004983Y003011D02*
X004963Y003007D01*
X004946Y002996D01*
X004935Y002980D01*
X004932Y002960D01*
X004935Y002940D01*
X004946Y002924D01*
X004963Y002913D01*
X004983Y002909D01*
X005002Y002913D01*
X005019Y002924D01*
X005030Y002940D01*
X005033Y002960D01*
X005030Y002980D01*
X005019Y002996D01*
X005002Y003007D01*
X004983Y003011D01*
D02*
G37*
G36*
X006993Y003116D02*
X006953Y003111D01*
X006917Y003096D01*
X006886Y003072D01*
X006861Y003040D01*
X006846Y003004D01*
X006841Y002965D01*
X006846Y002926D01*
X006861Y002889D01*
X006886Y002858D01*
X006917Y002834D01*
X006953Y002819D01*
X006993Y002813D01*
X007032Y002819D01*
X007068Y002834D01*
X007099Y002858D01*
X007124Y002889D01*
X007139Y002926D01*
X007144Y002965D01*
X007139Y003004D01*
X007124Y003040D01*
X007099Y003072D01*
X007068Y003096D01*
X007032Y003111D01*
X006993Y003116D01*
D02*
G37*
G36*
X009113Y002874D02*
Y002813D01*
X009174D01*
X009173Y002820D01*
X009166Y002838D01*
X009154Y002854D01*
X009138Y002866D01*
X009120Y002873D01*
X009113Y002874D01*
D02*
G37*
G36*
X009087D02*
X009080Y002873D01*
X009062Y002866D01*
X009046Y002854D01*
X009034Y002838D01*
X009027Y002820D01*
X009026Y002813D01*
X009087D01*
Y002874D01*
D02*
G37*
G36*
X007687D02*
X007680Y002873D01*
X007662Y002866D01*
X007646Y002854D01*
X007634Y002838D01*
X007627Y002820D01*
X007626Y002813D01*
X007687D01*
Y002874D01*
D02*
G37*
G36*
X005613D02*
Y002813D01*
X005674D01*
X005673Y002820D01*
X005666Y002838D01*
X005654Y002854D01*
X005638Y002866D01*
X005620Y002873D01*
X005613Y002874D01*
D02*
G37*
G36*
X005587D02*
X005580Y002873D01*
X005562Y002866D01*
X005546Y002854D01*
X005534Y002838D01*
X005527Y002820D01*
X005526Y002813D01*
X005587D01*
Y002874D01*
D02*
G37*
G36*
X005253Y003111D02*
X005214Y003106D01*
X005178Y003091D01*
X005146Y003067D01*
X005122Y003036D01*
X005107Y002999D01*
X005102Y002960D01*
X005107Y002921D01*
X005122Y002884D01*
X005146Y002853D01*
X005178Y002829D01*
X005214Y002814D01*
X005253Y002809D01*
X005292Y002814D01*
X005329Y002829D01*
X005360Y002853D01*
X005384Y002884D01*
X005399Y002921D01*
X005404Y002960D01*
X005399Y002999D01*
X005384Y003036D01*
X005360Y003067D01*
X005329Y003091D01*
X005292Y003106D01*
X005253Y003111D01*
D02*
G37*
G36*
X009174Y002787D02*
X009113D01*
Y002726D01*
X009120Y002727D01*
X009138Y002734D01*
X009154Y002746D01*
X009166Y002762D01*
X009173Y002780D01*
X009174Y002787D01*
D02*
G37*
G36*
X009087D02*
X009026D01*
X009027Y002780D01*
X009034Y002762D01*
X009046Y002746D01*
X009062Y002734D01*
X009080Y002727D01*
X009087Y002726D01*
Y002787D01*
D02*
G37*
G36*
X007774D02*
X007713D01*
Y002726D01*
X007720Y002727D01*
X007738Y002734D01*
X007754Y002746D01*
X007766Y002762D01*
X007773Y002780D01*
X007774Y002787D01*
D02*
G37*
G36*
X007687D02*
X007626D01*
X007627Y002780D01*
X007634Y002762D01*
X007646Y002746D01*
X007662Y002734D01*
X007680Y002727D01*
X007687Y002726D01*
Y002787D01*
D02*
G37*
G36*
X005674D02*
X005613D01*
Y002726D01*
X005620Y002727D01*
X005638Y002734D01*
X005654Y002746D01*
X005666Y002762D01*
X005673Y002780D01*
X005674Y002787D01*
D02*
G37*
G36*
X005587D02*
X005526D01*
X005527Y002780D01*
X005534Y002762D01*
X005546Y002746D01*
X005562Y002734D01*
X005580Y002727D01*
X005587Y002726D01*
Y002787D01*
D02*
G37*
G36*
X005312Y002535D02*
Y002443D01*
X005404D01*
X005402Y002458D01*
X005392Y002483D01*
X005375Y002505D01*
X005353Y002522D01*
X005327Y002533D01*
X005312Y002535D01*
D02*
G37*
G36*
X005287D02*
X005272Y002533D01*
X005247Y002522D01*
X005225Y002505D01*
X005208Y002483D01*
X005197Y002458D01*
X005195Y002443D01*
X005287D01*
Y002535D01*
D02*
G37*
G36*
X005058D02*
Y002443D01*
X005150D01*
X005148Y002458D01*
X005138Y002483D01*
X005121Y002505D01*
X005099Y002522D01*
X005073Y002533D01*
X005058Y002535D01*
D02*
G37*
G36*
X005033D02*
X005018Y002533D01*
X004993Y002522D01*
X004971Y002505D01*
X004954Y002483D01*
X004943Y002458D01*
X004941Y002443D01*
X005033D01*
Y002535D01*
D02*
G37*
G36*
X007852Y002535D02*
Y002443D01*
X007944D01*
X007942Y002458D01*
X007932Y002483D01*
X007915Y002505D01*
X007893Y002522D01*
X007867Y002533D01*
X007852Y002535D01*
D02*
G37*
G36*
X008106D02*
Y002443D01*
X008198D01*
X008196Y002458D01*
X008186Y002483D01*
X008169Y002505D01*
X008147Y002522D01*
X008121Y002533D01*
X008106Y002535D01*
D02*
G37*
G36*
X007827Y002535D02*
X007812Y002533D01*
X007787Y002522D01*
X007765Y002505D01*
X007748Y002483D01*
X007737Y002458D01*
X007735Y002443D01*
X007827D01*
Y002535D01*
D02*
G37*
G36*
X008081D02*
X008066Y002533D01*
X008041Y002522D01*
X008019Y002505D01*
X008002Y002483D01*
X007991Y002458D01*
X007989Y002443D01*
X008081D01*
Y002535D01*
D02*
G37*
G36*
X009210Y002530D02*
X009010D01*
Y002330D01*
X009210D01*
Y002530D01*
D02*
G37*
G36*
X004792Y002531D02*
X004766Y002527D01*
X004741Y002517D01*
X004720Y002501D01*
X004704Y002480D01*
X004694Y002456D01*
X004691Y002430D01*
X004694Y002404D01*
X004704Y002380D01*
X004720Y002359D01*
X004741Y002343D01*
X004766Y002333D01*
X004792Y002329D01*
X004818Y002333D01*
X004842Y002343D01*
X004863Y002359D01*
X004879Y002380D01*
X004889Y002404D01*
X004893Y002430D01*
X004889Y002456D01*
X004879Y002480D01*
X004863Y002501D01*
X004842Y002517D01*
X004818Y002527D01*
X004792Y002531D01*
D02*
G37*
G36*
X004538D02*
X004512Y002527D01*
X004487Y002517D01*
X004466Y002501D01*
X004450Y002480D01*
X004440Y002456D01*
X004437Y002430D01*
X004440Y002404D01*
X004450Y002380D01*
X004466Y002359D01*
X004487Y002343D01*
X004512Y002333D01*
X004538Y002329D01*
X004564Y002333D01*
X004588Y002343D01*
X004609Y002359D01*
X004625Y002380D01*
X004635Y002404D01*
X004639Y002430D01*
X004635Y002456D01*
X004625Y002480D01*
X004609Y002501D01*
X004588Y002517D01*
X004564Y002527D01*
X004538Y002531D01*
D02*
G37*
G36*
X004284D02*
X004258Y002527D01*
X004233Y002517D01*
X004212Y002501D01*
X004196Y002480D01*
X004186Y002456D01*
X004183Y002430D01*
X004186Y002404D01*
X004196Y002380D01*
X004212Y002359D01*
X004233Y002343D01*
X004258Y002333D01*
X004284Y002329D01*
X004310Y002333D01*
X004334Y002343D01*
X004355Y002359D01*
X004371Y002380D01*
X004381Y002404D01*
X004385Y002430D01*
X004381Y002456D01*
X004371Y002480D01*
X004355Y002501D01*
X004334Y002517D01*
X004310Y002527D01*
X004284Y002531D01*
D02*
G37*
G36*
X004030D02*
X004004Y002527D01*
X003979Y002517D01*
X003958Y002501D01*
X003942Y002480D01*
X003932Y002456D01*
X003929Y002430D01*
X003932Y002404D01*
X003942Y002380D01*
X003958Y002359D01*
X003979Y002343D01*
X004004Y002333D01*
X004030Y002329D01*
X004056Y002333D01*
X004080Y002343D01*
X004101Y002359D01*
X004117Y002380D01*
X004127Y002404D01*
X004131Y002430D01*
X004127Y002456D01*
X004117Y002480D01*
X004101Y002501D01*
X004080Y002517D01*
X004056Y002527D01*
X004030Y002531D01*
D02*
G37*
G36*
X008856Y002531D02*
X008830Y002527D01*
X008805Y002517D01*
X008784Y002501D01*
X008768Y002480D01*
X008758Y002456D01*
X008755Y002430D01*
X008758Y002404D01*
X008768Y002380D01*
X008784Y002359D01*
X008805Y002343D01*
X008830Y002333D01*
X008856Y002329D01*
X008882Y002333D01*
X008906Y002343D01*
X008927Y002359D01*
X008943Y002380D01*
X008953Y002404D01*
X008957Y002430D01*
X008953Y002456D01*
X008943Y002480D01*
X008927Y002501D01*
X008906Y002517D01*
X008882Y002527D01*
X008856Y002531D01*
D02*
G37*
G36*
X008602D02*
X008576Y002527D01*
X008551Y002517D01*
X008530Y002501D01*
X008514Y002480D01*
X008504Y002456D01*
X008501Y002430D01*
X008504Y002404D01*
X008514Y002380D01*
X008530Y002359D01*
X008551Y002343D01*
X008576Y002333D01*
X008602Y002329D01*
X008628Y002333D01*
X008652Y002343D01*
X008673Y002359D01*
X008689Y002380D01*
X008699Y002404D01*
X008703Y002430D01*
X008699Y002456D01*
X008689Y002480D01*
X008673Y002501D01*
X008652Y002517D01*
X008628Y002527D01*
X008602Y002531D01*
D02*
G37*
G36*
X008348D02*
X008322Y002527D01*
X008297Y002517D01*
X008276Y002501D01*
X008260Y002480D01*
X008250Y002456D01*
X008247Y002430D01*
X008250Y002404D01*
X008260Y002380D01*
X008276Y002359D01*
X008297Y002343D01*
X008322Y002333D01*
X008348Y002329D01*
X008374Y002333D01*
X008398Y002343D01*
X008419Y002359D01*
X008435Y002380D01*
X008445Y002404D01*
X008449Y002430D01*
X008445Y002456D01*
X008435Y002480D01*
X008419Y002501D01*
X008398Y002517D01*
X008374Y002527D01*
X008348Y002531D01*
D02*
G37*
G36*
X005404Y002417D02*
X005312D01*
Y002325D01*
X005327Y002327D01*
X005353Y002338D01*
X005375Y002355D01*
X005392Y002377D01*
X005402Y002402D01*
X005404Y002417D01*
D02*
G37*
G36*
X005287D02*
X005195D01*
X005197Y002402D01*
X005208Y002377D01*
X005225Y002355D01*
X005247Y002338D01*
X005272Y002327D01*
X005287Y002325D01*
Y002417D01*
D02*
G37*
G36*
X005150D02*
X005058D01*
Y002325D01*
X005073Y002327D01*
X005099Y002338D01*
X005121Y002355D01*
X005138Y002377D01*
X005148Y002402D01*
X005150Y002417D01*
D02*
G37*
G36*
X005033D02*
X004941D01*
X004943Y002402D01*
X004954Y002377D01*
X004971Y002355D01*
X004993Y002338D01*
X005018Y002327D01*
X005033Y002325D01*
Y002417D01*
D02*
G37*
G36*
X008081Y002417D02*
X007989D01*
X007991Y002402D01*
X008002Y002377D01*
X008019Y002355D01*
X008041Y002338D01*
X008066Y002327D01*
X008081Y002325D01*
Y002417D01*
D02*
G37*
G36*
X007827D02*
X007735D01*
X007737Y002402D01*
X007748Y002377D01*
X007765Y002355D01*
X007787Y002338D01*
X007812Y002327D01*
X007827Y002325D01*
Y002417D01*
D02*
G37*
G36*
X008198D02*
X008106D01*
Y002325D01*
X008121Y002327D01*
X008147Y002338D01*
X008169Y002355D01*
X008186Y002377D01*
X008196Y002402D01*
X008198Y002417D01*
D02*
G37*
G36*
X007944D02*
X007852D01*
Y002325D01*
X007867Y002327D01*
X007893Y002338D01*
X007915Y002355D01*
X007932Y002377D01*
X007942Y002402D01*
X007944Y002417D01*
D02*
G37*
G36*
X005312Y002281D02*
Y002189D01*
X005404D01*
X005402Y002204D01*
X005392Y002229D01*
X005375Y002251D01*
X005353Y002268D01*
X005327Y002279D01*
X005312Y002281D01*
D02*
G37*
G36*
X005287D02*
X005272Y002279D01*
X005247Y002268D01*
X005225Y002251D01*
X005208Y002229D01*
X005197Y002204D01*
X005195Y002189D01*
X005287D01*
Y002281D01*
D02*
G37*
G36*
X005058D02*
Y002189D01*
X005150D01*
X005148Y002204D01*
X005138Y002229D01*
X005121Y002251D01*
X005099Y002268D01*
X005073Y002279D01*
X005058Y002281D01*
D02*
G37*
G36*
X005033D02*
X005018Y002279D01*
X004993Y002268D01*
X004971Y002251D01*
X004954Y002229D01*
X004943Y002204D01*
X004941Y002189D01*
X005033D01*
Y002281D01*
D02*
G37*
G36*
X007852Y002281D02*
Y002189D01*
X007944D01*
X007942Y002204D01*
X007932Y002229D01*
X007915Y002251D01*
X007893Y002268D01*
X007867Y002279D01*
X007852Y002281D01*
D02*
G37*
G36*
X008106D02*
Y002189D01*
X008198D01*
X008196Y002204D01*
X008186Y002229D01*
X008169Y002251D01*
X008147Y002268D01*
X008121Y002279D01*
X008106Y002281D01*
D02*
G37*
G36*
X007827Y002281D02*
X007812Y002279D01*
X007787Y002268D01*
X007765Y002251D01*
X007748Y002229D01*
X007737Y002204D01*
X007735Y002189D01*
X007827D01*
Y002281D01*
D02*
G37*
G36*
X008081D02*
X008066Y002279D01*
X008041Y002268D01*
X008019Y002251D01*
X008002Y002229D01*
X007991Y002204D01*
X007989Y002189D01*
X008081D01*
Y002281D01*
D02*
G37*
G36*
X004130Y002276D02*
X003930D01*
Y002153D01*
X003910Y002146D01*
X003904Y002154D01*
X003888Y002166D01*
X003870Y002173D01*
X003863Y002174D01*
Y002100D01*
Y002026D01*
X003870Y002027D01*
X003888Y002034D01*
X003904Y002046D01*
X003916Y002062D01*
X003930Y002076D01*
X003942Y002076D01*
X004130D01*
Y002276D01*
D02*
G37*
G36*
X009463Y002174D02*
Y002113D01*
X009524D01*
X009523Y002120D01*
X009516Y002138D01*
X009504Y002154D01*
X009488Y002166D01*
X009470Y002173D01*
X009463Y002174D01*
D02*
G37*
G36*
X009437D02*
X009430Y002173D01*
X009412Y002166D01*
X009396Y002154D01*
X009384Y002138D01*
X009377Y002120D01*
X009376Y002113D01*
X009437D01*
Y002174D01*
D02*
G37*
G36*
X006637D02*
X006630Y002173D01*
X006612Y002166D01*
X006596Y002154D01*
X006584Y002138D01*
X006577Y002120D01*
X006576Y002113D01*
X006637D01*
Y002174D01*
D02*
G37*
G36*
X003837D02*
X003830Y002173D01*
X003812Y002166D01*
X003796Y002154D01*
X003784Y002138D01*
X003777Y002120D01*
X003776Y002113D01*
X003837D01*
Y002174D01*
D02*
G37*
G36*
X004792Y002277D02*
X004766Y002273D01*
X004741Y002263D01*
X004720Y002247D01*
X004704Y002226D01*
X004694Y002202D01*
X004691Y002176D01*
X004694Y002150D01*
X004704Y002126D01*
X004720Y002105D01*
X004741Y002089D01*
X004766Y002079D01*
X004792Y002075D01*
X004818Y002079D01*
X004842Y002089D01*
X004863Y002105D01*
X004879Y002126D01*
X004889Y002150D01*
X004893Y002176D01*
X004889Y002202D01*
X004879Y002226D01*
X004863Y002247D01*
X004842Y002263D01*
X004818Y002273D01*
X004792Y002277D01*
D02*
G37*
G36*
X004538D02*
X004512Y002273D01*
X004487Y002263D01*
X004466Y002247D01*
X004450Y002226D01*
X004440Y002202D01*
X004437Y002176D01*
X004440Y002150D01*
X004450Y002126D01*
X004466Y002105D01*
X004487Y002089D01*
X004512Y002079D01*
X004538Y002075D01*
X004564Y002079D01*
X004588Y002089D01*
X004609Y002105D01*
X004625Y002126D01*
X004635Y002150D01*
X004639Y002176D01*
X004635Y002202D01*
X004625Y002226D01*
X004609Y002247D01*
X004588Y002263D01*
X004564Y002273D01*
X004538Y002277D01*
D02*
G37*
G36*
X004284D02*
X004258Y002273D01*
X004233Y002263D01*
X004212Y002247D01*
X004196Y002226D01*
X004186Y002202D01*
X004183Y002176D01*
X004186Y002150D01*
X004196Y002126D01*
X004212Y002105D01*
X004233Y002089D01*
X004258Y002079D01*
X004284Y002075D01*
X004310Y002079D01*
X004334Y002089D01*
X004355Y002105D01*
X004371Y002126D01*
X004381Y002150D01*
X004385Y002176D01*
X004381Y002202D01*
X004371Y002226D01*
X004355Y002247D01*
X004334Y002263D01*
X004310Y002273D01*
X004284Y002277D01*
D02*
G37*
G36*
X009110Y002277D02*
X009084Y002273D01*
X009059Y002263D01*
X009038Y002247D01*
X009022Y002226D01*
X009012Y002202D01*
X009009Y002176D01*
X009012Y002150D01*
X009022Y002126D01*
X009038Y002105D01*
X009059Y002089D01*
X009084Y002079D01*
X009110Y002075D01*
X009136Y002079D01*
X009160Y002089D01*
X009181Y002105D01*
X009197Y002126D01*
X009207Y002150D01*
X009211Y002176D01*
X009207Y002202D01*
X009197Y002226D01*
X009181Y002247D01*
X009160Y002263D01*
X009136Y002273D01*
X009110Y002277D01*
D02*
G37*
G36*
X008856D02*
X008830Y002273D01*
X008805Y002263D01*
X008784Y002247D01*
X008768Y002226D01*
X008758Y002202D01*
X008755Y002176D01*
X008758Y002150D01*
X008768Y002126D01*
X008784Y002105D01*
X008805Y002089D01*
X008830Y002079D01*
X008856Y002075D01*
X008882Y002079D01*
X008906Y002089D01*
X008927Y002105D01*
X008943Y002126D01*
X008953Y002150D01*
X008957Y002176D01*
X008953Y002202D01*
X008943Y002226D01*
X008927Y002247D01*
X008906Y002263D01*
X008882Y002273D01*
X008856Y002277D01*
D02*
G37*
G36*
X008602D02*
X008576Y002273D01*
X008551Y002263D01*
X008530Y002247D01*
X008514Y002226D01*
X008504Y002202D01*
X008501Y002176D01*
X008504Y002150D01*
X008514Y002126D01*
X008530Y002105D01*
X008551Y002089D01*
X008576Y002079D01*
X008602Y002075D01*
X008628Y002079D01*
X008652Y002089D01*
X008673Y002105D01*
X008689Y002126D01*
X008699Y002150D01*
X008703Y002176D01*
X008699Y002202D01*
X008689Y002226D01*
X008673Y002247D01*
X008652Y002263D01*
X008628Y002273D01*
X008602Y002277D01*
D02*
G37*
G36*
X008348D02*
X008322Y002273D01*
X008297Y002263D01*
X008276Y002247D01*
X008260Y002226D01*
X008250Y002202D01*
X008247Y002176D01*
X008250Y002150D01*
X008260Y002126D01*
X008276Y002105D01*
X008297Y002089D01*
X008322Y002079D01*
X008348Y002075D01*
X008374Y002079D01*
X008398Y002089D01*
X008419Y002105D01*
X008435Y002126D01*
X008445Y002150D01*
X008449Y002176D01*
X008445Y002202D01*
X008435Y002226D01*
X008419Y002247D01*
X008398Y002263D01*
X008374Y002273D01*
X008348Y002277D01*
D02*
G37*
G36*
X005404Y002163D02*
X005312D01*
Y002071D01*
X005327Y002073D01*
X005353Y002084D01*
X005375Y002101D01*
X005392Y002123D01*
X005402Y002148D01*
X005404Y002163D01*
D02*
G37*
G36*
X005287D02*
X005195D01*
X005197Y002148D01*
X005208Y002123D01*
X005225Y002101D01*
X005247Y002084D01*
X005272Y002073D01*
X005287Y002071D01*
Y002163D01*
D02*
G37*
G36*
X005150D02*
X005058D01*
Y002071D01*
X005073Y002073D01*
X005099Y002084D01*
X005121Y002101D01*
X005138Y002123D01*
X005148Y002148D01*
X005150Y002163D01*
D02*
G37*
G36*
X005033D02*
X004941D01*
X004943Y002148D01*
X004954Y002123D01*
X004971Y002101D01*
X004993Y002084D01*
X005018Y002073D01*
X005033Y002071D01*
Y002163D01*
D02*
G37*
G36*
X008081Y002163D02*
X007989D01*
X007991Y002148D01*
X008002Y002123D01*
X008019Y002101D01*
X008041Y002084D01*
X008066Y002073D01*
X008081Y002071D01*
Y002163D01*
D02*
G37*
G36*
X007827D02*
X007735D01*
X007737Y002148D01*
X007748Y002123D01*
X007765Y002101D01*
X007787Y002084D01*
X007812Y002073D01*
X007827Y002071D01*
Y002163D01*
D02*
G37*
G36*
X008198D02*
X008106D01*
Y002071D01*
X008121Y002073D01*
X008147Y002084D01*
X008169Y002101D01*
X008186Y002123D01*
X008196Y002148D01*
X008198Y002163D01*
D02*
G37*
G36*
X007944D02*
X007852D01*
Y002071D01*
X007867Y002073D01*
X007893Y002084D01*
X007915Y002101D01*
X007932Y002123D01*
X007942Y002148D01*
X007944Y002163D01*
D02*
G37*
G36*
X009524Y002087D02*
X009463D01*
Y002026D01*
X009470Y002027D01*
X009488Y002034D01*
X009504Y002046D01*
X009516Y002062D01*
X009523Y002080D01*
X009524Y002087D01*
D02*
G37*
G36*
X009437D02*
X009376D01*
X009377Y002080D01*
X009384Y002062D01*
X009396Y002046D01*
X009412Y002034D01*
X009430Y002027D01*
X009437Y002026D01*
Y002087D01*
D02*
G37*
G36*
X006637D02*
X006576D01*
X006577Y002080D01*
X006584Y002062D01*
X006596Y002046D01*
X006612Y002034D01*
X006630Y002027D01*
X006637Y002026D01*
Y002087D01*
D02*
G37*
G36*
X003837D02*
X003776D01*
X003777Y002080D01*
X003784Y002062D01*
X003796Y002046D01*
X003812Y002034D01*
X003830Y002027D01*
X003837Y002026D01*
Y002087D01*
D02*
G37*
G36*
X008413Y001474D02*
Y001413D01*
X008474D01*
X008473Y001420D01*
X008466Y001438D01*
X008454Y001454D01*
X008438Y001466D01*
X008420Y001473D01*
X008413Y001474D01*
D02*
G37*
G36*
X008387D02*
X008380Y001473D01*
X008362Y001466D01*
X008346Y001454D01*
X008334Y001438D01*
X008327Y001420D01*
X008326Y001413D01*
X008387D01*
Y001474D01*
D02*
G37*
G36*
X008474Y001387D02*
X008413D01*
Y001326D01*
X008420Y001327D01*
X008438Y001334D01*
X008454Y001346D01*
X008466Y001362D01*
X008473Y001380D01*
X008474Y001387D01*
D02*
G37*
G36*
X008387D02*
X008326D01*
X008327Y001380D01*
X008334Y001362D01*
X008346Y001346D01*
X008362Y001334D01*
X008380Y001327D01*
X008387Y001326D01*
Y001387D01*
D02*
G37*
G36*
X008772Y006519D02*
X008747Y006516D01*
X008723Y006506D01*
X008703Y006491D01*
X008688Y006470D01*
X008678Y006447D01*
X008675Y006422D01*
X008678Y006397D01*
X008688Y006373D01*
X008703Y006353D01*
X008723Y006338D01*
X008747Y006328D01*
X008772Y006325D01*
X008797Y006328D01*
X008820Y006338D01*
X008840Y006353D01*
X008856Y006373D01*
X008866Y006397D01*
X008869Y006422D01*
X008866Y006447D01*
X008856Y006470D01*
X008840Y006491D01*
X008820Y006506D01*
X008797Y006516D01*
X008772Y006519D01*
D02*
G37*
G36*
X010230Y005296D02*
X010136D01*
Y005243D01*
X010230D01*
Y005296D01*
D02*
G37*
G36*
X009032Y005353D02*
X009010Y005350D01*
X008990Y005342D01*
X008972Y005328D01*
X008958Y005310D01*
X008950Y005290D01*
X008947Y005267D01*
X008950Y005245D01*
X008958Y005225D01*
X008972Y005207D01*
X008990Y005193D01*
X009010Y005185D01*
X009032Y005182D01*
X009055Y005185D01*
X009075Y005193D01*
X009093Y005207D01*
X009107Y005225D01*
X009115Y005245D01*
X009118Y005267D01*
X009115Y005290D01*
X009107Y005310D01*
X009093Y005328D01*
X009075Y005342D01*
X009055Y005350D01*
X009032Y005353D01*
D02*
G37*
G36*
X010230Y005218D02*
X010136D01*
Y005164D01*
X010230D01*
Y005218D01*
D02*
G37*
G36*
X004888Y004971D02*
Y004883D01*
X004976D01*
X004975Y004897D01*
X004964Y004921D01*
X004948Y004942D01*
X004927Y004959D01*
X004902Y004969D01*
X004888Y004971D01*
D02*
G37*
G36*
X004863D02*
X004849Y004969D01*
X004824Y004959D01*
X004803Y004942D01*
X004787Y004921D01*
X004777Y004897D01*
X004775Y004883D01*
X004863D01*
Y004971D01*
D02*
G37*
G36*
X004976Y004857D02*
X004888D01*
Y004769D01*
X004902Y004771D01*
X004927Y004781D01*
X004948Y004798D01*
X004964Y004819D01*
X004975Y004843D01*
X004976Y004857D01*
D02*
G37*
G36*
X004863D02*
X004775D01*
X004777Y004843D01*
X004787Y004819D01*
X004803Y004798D01*
X004824Y004781D01*
X004849Y004771D01*
X004863Y004769D01*
Y004857D01*
D02*
G37*
G36*
X008010Y006487D02*
X007933D01*
Y006435D01*
X008010D01*
Y006487D01*
D02*
G37*
G36*
X008277Y006523D02*
Y006435D01*
X008365D01*
X008363Y006448D01*
X008353Y006473D01*
X008336Y006494D01*
X008315Y006511D01*
X008290Y006521D01*
X008277Y006523D01*
D02*
G37*
G36*
X008251Y006523D02*
X008237Y006521D01*
X008213Y006511D01*
X008191Y006494D01*
X008175Y006473D01*
X008165Y006448D01*
X008163Y006435D01*
X008251D01*
Y006523D01*
D02*
G37*
G36*
X007907Y006487D02*
X007830D01*
Y006435D01*
X007907D01*
Y006487D01*
D02*
G37*
G36*
X008010Y006409D02*
X007933D01*
Y006357D01*
X008010D01*
Y006409D01*
D02*
G37*
G36*
X007907D02*
X007830D01*
Y006357D01*
X007907D01*
Y006409D01*
D02*
G37*
G36*
X008365D02*
X008277D01*
Y006321D01*
X008290Y006323D01*
X008315Y006333D01*
X008336Y006349D01*
X008353Y006371D01*
X008363Y006395D01*
X008365Y006409D01*
D02*
G37*
G36*
X008251D02*
X008163D01*
X008165Y006395D01*
X008175Y006371D01*
X008191Y006349D01*
X008213Y006333D01*
X008237Y006323D01*
X008251Y006321D01*
Y006409D01*
D02*
G37*
G36*
X008005Y006292D02*
X007835D01*
Y006172D01*
X007884D01*
Y006138D01*
X007877Y006133D01*
X007863Y006113D01*
X007859Y006090D01*
X007863Y006067D01*
X007877Y006047D01*
X007897Y006033D01*
X007920Y006029D01*
X007943Y006033D01*
X007963Y006047D01*
X007977Y006067D01*
X007981Y006090D01*
X007977Y006113D01*
X007963Y006133D01*
X007956Y006138D01*
Y006172D01*
X008005D01*
Y006292D01*
D02*
G37*
G36*
X010230Y005018D02*
X010136D01*
Y004964D01*
X010230D01*
Y005018D01*
D02*
G37*
G36*
X010010Y004961D02*
X009987Y004957D01*
X009967Y004943D01*
X009953Y004923D01*
X009949Y004900D01*
X009953Y004877D01*
X009967Y004857D01*
X009987Y004843D01*
X010010Y004839D01*
X010033Y004843D01*
X010053Y004857D01*
X010067Y004877D01*
X010071Y004900D01*
X010067Y004923D01*
X010053Y004943D01*
X010033Y004957D01*
X010010Y004961D01*
D02*
G37*
G36*
X009820D02*
X009797Y004957D01*
X009777Y004943D01*
X009763Y004923D01*
X009759Y004900D01*
X009763Y004877D01*
X009777Y004857D01*
X009797Y004843D01*
X009820Y004839D01*
X009843Y004843D01*
X009863Y004857D01*
X009877Y004877D01*
X009881Y004900D01*
X009877Y004923D01*
X009863Y004943D01*
X009843Y004957D01*
X009820Y004961D01*
D02*
G37*
G36*
X009026Y004995D02*
X009001Y004992D01*
X008977Y004982D01*
X008957Y004967D01*
X008942Y004946D01*
X008932Y004923D01*
X008929Y004898D01*
X008932Y004873D01*
X008942Y004849D01*
X008957Y004829D01*
X008977Y004814D01*
X009001Y004804D01*
X009026Y004801D01*
X009051Y004804D01*
X009074Y004814D01*
X009094Y004829D01*
X009110Y004849D01*
X009120Y004873D01*
X009123Y004898D01*
X009120Y004923D01*
X009110Y004946D01*
X009094Y004967D01*
X009074Y004982D01*
X009051Y004992D01*
X009026Y004995D01*
D02*
G37*
G36*
X008010D02*
X007985Y004992D01*
X007961Y004982D01*
X007941Y004967D01*
X007926Y004946D01*
X007916Y004923D01*
X007913Y004898D01*
X007916Y004873D01*
X007926Y004849D01*
X007941Y004829D01*
X007961Y004814D01*
X007985Y004804D01*
X008010Y004801D01*
X008035Y004804D01*
X008058Y004814D01*
X008078Y004829D01*
X008094Y004849D01*
X008104Y004873D01*
X008107Y004898D01*
X008104Y004923D01*
X008094Y004946D01*
X008078Y004967D01*
X008058Y004982D01*
X008035Y004992D01*
X008010Y004995D01*
D02*
G37*
%LPD*%
D11*
X004368Y004870D02*
G03*
X004329Y004776I000094J-000094D01*
G01*
X005490Y004645D02*
X005578D01*
X005892Y004870D01*
X009330Y006097D02*
Y006240D01*
X009034Y006430D02*
X009330D01*
X007920Y006090D02*
Y006232D01*
X004139Y004645D02*
Y004845D01*
X004114Y004870D02*
X004139Y004845D01*
X004329Y004645D02*
Y004776D01*
D35*
X008072Y001532D02*
G03*
X008372Y001232I000300J000000D01*
G01*
X006226Y007282D02*
G03*
X006919Y007282I000346J000200D01*
G01*
X004772Y001232D02*
G03*
X005072Y001532I000000J000300D01*
G01*
X010872Y005708D02*
G03*
X010785Y005920I-000300J000000D01*
G01*
X009360Y007345D02*
G03*
X009148Y007432I-000212J-000212D01*
G01*
X008072Y001532D02*
G03*
X007772Y001833I-000300J000000D01*
G01*
X007179Y007432D02*
G03*
X006919Y007282I000000J-000300D01*
G01*
X006226D02*
G03*
X005966Y007432I-000260J-000150D01*
G01*
X005372Y001833D02*
G03*
X005072Y001532I000000J-000300D01*
G01*
X003997Y007432D02*
G03*
X003785Y007345I000000J-000300D01*
G01*
X002360Y005920D02*
G03*
X002272Y005708I000212J-000212D01*
G01*
X010785Y002745D02*
G03*
X010872Y002957I-000212J000212D01*
G01*
X009148Y001232D02*
G03*
X009360Y001320I000000J000300D01*
G01*
X003785Y001320D02*
G03*
X003997Y001232I000212J000212D01*
G01*
X002272Y002957D02*
G03*
X002360Y002745I000300J000000D01*
G01*
X002360Y005920D02*
X003785Y007345D01*
X009360Y007345D02*
X010785Y005920D01*
X002360Y002745D02*
X003785Y001320D01*
X009360Y001320D02*
X010785Y002745D01*
X005372Y001833D02*
X007772D01*
X008372Y001232D02*
X009148D01*
X003997D02*
X004772D01*
X007179Y007432D02*
X009148D01*
X003997D02*
X005966D01*
X002272Y002957D02*
Y005708D01*
D36*
X005490Y004645D02*
D03*
X005300D02*
D03*
X004329D02*
D03*
X004139D02*
D03*
D40*
X010353Y003430D02*
X010683D01*
X010353Y003630D02*
X010683D01*
X010353Y004630D02*
X010683D01*
X010353Y004830D02*
X010683D01*
X010353Y005030D02*
X010683D01*
X010353Y005230D02*
X010683D01*
X010595Y003830D02*
X010618D01*
X010345Y003880D02*
X010395Y003830D01*
X010441D01*
X009739Y003880D02*
X010345D01*
X010595Y004030D02*
X010618D01*
X010395D02*
X010441D01*
X010345Y003980D02*
X010395Y004030D01*
X009698Y003980D02*
X010345D01*
X010595Y004430D02*
X010618D01*
X010595Y004230D02*
X010618D01*
X009212Y004550D02*
X009382Y004380D01*
X010345D01*
X009183Y004579D02*
X009212Y004550D01*
X007338Y004579D02*
X009183D01*
X010545Y004380D02*
X010595Y004430D01*
X010441D02*
X010491Y004380D01*
X010545D01*
X010395Y004430D02*
X010441D01*
X010545Y004280D02*
X010595Y004230D01*
X010491Y004280D02*
X010545D01*
X010441Y004230D02*
X010491Y004280D01*
X010395Y004230D02*
X010441D01*
X007379Y004479D02*
X009142D01*
X005920Y003020D02*
X007379Y004479D01*
X005820Y003061D02*
X007338Y004579D01*
X009142Y004479D02*
X009341Y004280D01*
X010345D01*
Y004380D02*
X010395Y004430D01*
X010345Y004280D02*
X010395Y004230D01*
X009255Y003538D02*
X009698Y003980D01*
X008022Y003538D02*
X009255D01*
X007158Y002630D02*
Y002674D01*
X008022Y003538D01*
X007157Y002525D02*
Y002629D01*
X007158Y002630D01*
X007155Y002260D02*
Y002346D01*
X007153Y002505D02*
X007157Y002525D01*
X007078Y002423D02*
X007155Y002346D01*
X007078Y002430D02*
X007153Y002505D01*
X007078Y002423D02*
Y002430D01*
X006824D02*
X007078D01*
Y002183D02*
X007155Y002260D01*
X007078Y002176D02*
Y002183D01*
X006824Y002176D02*
Y002430D01*
Y002176D02*
X007078D01*
X009296Y003438D02*
X009739Y003880D01*
X008063Y003438D02*
X009296D01*
X007586Y002176D02*
Y002430D01*
X007258Y002591D02*
X007259Y002590D01*
X007258Y002632D02*
X008063Y003438D01*
X007259Y002527D02*
Y002590D01*
X007259Y002527D02*
X007259Y002527D01*
X007258Y002591D02*
Y002632D01*
X007259Y002503D02*
Y002527D01*
X007332Y002430D02*
X007586D01*
X007332Y002176D02*
X007586D01*
X007259Y002503D02*
X007332Y002430D01*
X010491Y003880D02*
X010545D01*
X010441Y003830D02*
X010491Y003880D01*
X010441Y004030D02*
X010491Y003980D01*
X010545D01*
X010595Y004030D01*
X010545Y003880D02*
X010595Y003830D01*
X005820Y002708D02*
Y003061D01*
X005920Y002749D02*
Y003020D01*
Y002749D02*
X005985Y002685D01*
X005820Y002708D02*
X005885Y002643D01*
X006062Y002430D02*
Y002437D01*
X005985Y002514D02*
X006062Y002437D01*
X005985Y002514D02*
Y002685D01*
Y002260D02*
X006062Y002183D01*
Y002176D02*
Y002183D01*
X005985Y002260D02*
Y002346D01*
X006062Y002423D02*
Y002430D01*
X005985Y002346D02*
X006062Y002423D01*
Y002430D02*
X006316D01*
Y002176D02*
Y002430D01*
X006062Y002176D02*
X006316D01*
X005885Y002514D02*
Y002643D01*
X005808Y002423D02*
Y002430D01*
X005885Y002260D02*
Y002346D01*
X005808Y002183D02*
X005885Y002260D01*
X005808Y002437D02*
X005885Y002514D01*
X005808Y002423D02*
X005885Y002346D01*
X005808Y002430D02*
Y002437D01*
X005554Y002430D02*
X005808D01*
Y002176D02*
Y002183D01*
X005554Y002176D02*
X005808D01*
X005554D02*
Y002430D01*
X009026Y006422D02*
X009034Y006430D01*
X005101Y004645D02*
X005300D01*
X004876Y004870D02*
X005101Y004645D01*
D42*
X010618Y003430D02*
D03*
X010418D02*
D03*
X010618Y003630D02*
D03*
X010418D02*
D03*
X010618Y003830D02*
D03*
X010418D02*
D03*
X010618Y004030D02*
D03*
X010418D02*
D03*
Y005230D02*
D03*
X010618D02*
D03*
X010418Y005030D02*
D03*
X010618D02*
D03*
X010418Y004830D02*
D03*
X010618D02*
D03*
X010418Y004630D02*
D03*
X010618D02*
D03*
X010418Y004430D02*
D03*
X010618D02*
D03*
X010418Y004230D02*
D03*
X010618D02*
D03*
D43*
X009912Y005650D02*
D03*
X009785Y005523D02*
D03*
X003513Y005650D02*
D03*
X003386Y005523D02*
D03*
D44*
X009658Y005650D02*
D03*
X003259D02*
D03*
D45*
X009026Y004898D02*
D03*
X008010D02*
D03*
X007248D02*
D03*
Y006422D02*
D03*
X008264D02*
D03*
X008772D02*
D03*
X004114Y006394D02*
D03*
X005130D02*
D03*
X005892D02*
D03*
Y004870D02*
D03*
X004876D02*
D03*
X004368D02*
D03*
D46*
X009026Y006422D02*
D03*
X004114Y004870D02*
D03*
D47*
X006316Y002176D02*
D03*
Y002430D02*
D03*
X005554D02*
D03*
X006062Y002176D02*
D03*
Y002430D02*
D03*
X005808Y002176D02*
D03*
Y002430D02*
D03*
X005554Y002176D02*
D03*
X004792Y002430D02*
D03*
X005300Y002176D02*
D03*
Y002430D02*
D03*
X005046Y002176D02*
D03*
Y002430D02*
D03*
X004792Y002176D02*
D03*
X004030Y002430D02*
D03*
X004284Y002176D02*
D03*
Y002430D02*
D03*
X004538Y002176D02*
D03*
Y002430D02*
D03*
X006824Y002430D02*
D03*
Y002176D02*
D03*
X007586D02*
D03*
X007078Y002430D02*
D03*
Y002176D02*
D03*
X007332Y002430D02*
D03*
Y002176D02*
D03*
X007586Y002430D02*
D03*
X008348Y002176D02*
D03*
X007840Y002430D02*
D03*
Y002176D02*
D03*
X008094Y002430D02*
D03*
Y002176D02*
D03*
X008348Y002430D02*
D03*
X009110Y002176D02*
D03*
X008856Y002430D02*
D03*
Y002176D02*
D03*
X008602Y002430D02*
D03*
Y002176D02*
D03*
D48*
X004030Y002176D02*
D03*
X009110Y002430D02*
D03*
D49*
X006993Y003727D02*
D03*
X007882D02*
D03*
X006142Y002960D02*
D03*
X005253D02*
D03*
Y003722D02*
D03*
X006142D02*
D03*
X006993Y002965D02*
D03*
X007882D02*
D03*
D50*
X009757Y004597D02*
D03*
X009032Y003700D02*
D03*
Y004272D02*
D03*
Y005638D02*
D03*
Y006005D02*
D03*
Y006690D02*
D03*
Y005267D02*
D03*
X009757Y004125D02*
D03*
D51*
X010150Y006300D02*
D03*
X009100Y002800D02*
D03*
X009450Y002100D02*
D03*
X008400Y004200D02*
D03*
Y001400D02*
D03*
X007700Y004200D02*
D03*
Y002800D02*
D03*
X007000Y007000D02*
D03*
Y005600D02*
D03*
X007350Y003500D02*
D03*
X006300Y007000D02*
D03*
X006650Y006300D02*
D03*
X006300Y005600D02*
D03*
X006650Y003500D02*
D03*
Y002100D02*
D03*
X005600Y007000D02*
D03*
Y005600D02*
D03*
X005950Y003500D02*
D03*
X005600Y002800D02*
D03*
X004900Y007000D02*
D03*
Y005600D02*
D03*
Y004200D02*
D03*
X004550Y006300D02*
D03*
X004200Y005600D02*
D03*
X004550Y004900D02*
D03*
X003850Y006300D02*
D03*
Y002100D02*
D03*
X003150Y006300D02*
D03*
X002800Y005600D02*
D03*
X007460Y003750D02*
D03*
X005960Y004500D02*
D03*
X003710Y006000D02*
D03*
D52*
X006570Y004330D02*
D03*
D53*
X009330Y006097D02*
D03*
X003322Y004900D02*
D03*
X007920Y006090D02*
D03*
X009820Y004900D02*
D03*
X010010D02*
D03*
X003130D02*
D03*
D54*
X009070Y007130D02*
D03*
X004070D02*
D03*
X009070Y001530D02*
D03*
X004070D02*
D03*
D55*
X008143Y003732D02*
D03*
X003847Y005066D02*
D03*
Y004670D02*
D03*
Y004274D02*
D03*
X004100Y003890D02*
D03*
X004100Y003494D02*
D03*
Y003098D02*
D03*
X003847Y003890D02*
D03*
Y003494D02*
D03*
Y003098D02*
D03*
X003594D02*
D03*
Y003494D02*
D03*
Y003890D02*
D03*
X008143Y002970D02*
D03*
X004983Y003722D02*
D03*
Y002960D02*
D03*
D73*
X010793Y003830D02*
D03*
Y003430D02*
D03*
Y003630D02*
D03*
Y004030D02*
D03*
Y004830D02*
D03*
Y004430D02*
D03*
Y004230D02*
D03*
Y004630D02*
D03*
Y005230D02*
D03*
Y005030D02*
D03*
X010243D02*
D03*
Y004430D02*
D03*
Y004230D02*
D03*
Y004630D02*
D03*
Y004830D02*
D03*
Y004030D02*
D03*
Y003830D02*
D03*
Y003430D02*
D03*
Y003630D02*
D03*
Y005230D02*
D03*
D74*
X010683Y005230D02*
D03*
Y005030D02*
D03*
Y004830D02*
D03*
Y004630D02*
D03*
Y004430D02*
D03*
Y004230D02*
D03*
Y004030D02*
D03*
Y003830D02*
D03*
Y003630D02*
D03*
X010353Y005230D02*
D03*
Y005030D02*
D03*
Y004830D02*
D03*
Y004630D02*
D03*
Y004430D02*
D03*
Y004230D02*
D03*
Y004030D02*
D03*
Y003830D02*
D03*
Y003630D02*
D03*
Y003430D02*
D03*
X010683D02*
D03*
D75*
X007920Y006232D02*
D03*
Y006422D02*
D03*
X009330Y006240D02*
D03*
Y006430D02*
D03*
M02*
