G04*
G04 #@! TF.GenerationSoftware,Altium Limited,Altium Designer,23.9.2 (47)*
G04*
G04 Layer_Physical_Order=2*
G04 Layer_Color=32768*
%FSAX42Y42*%
%MOMM*%
G71*
G04*
G04 #@! TF.SameCoordinates,6700F035-4CF4-4C6A-B223-3C7F8516C722*
G04*
G04*
G04 #@! TF.FilePolarity,Negative*
G04*
G01*
G75*
%ADD13C,0.50*%
%ADD40C,1.02*%
%ADD41C,1.92*%
G04:AMPARAMS|DCode=42|XSize=2.424mm|YSize=2.424mm|CornerRadius=0mm|HoleSize=0mm|Usage=FLASHONLY|Rotation=0.000|XOffset=0mm|YOffset=0mm|HoleType=Round|Shape=Relief|Width=0.25mm|Gap=0.25mm|Entries=4|*
%AMTHD42*
7,0,0,2.42,1.92,0.25,45*
%
%ADD42THD42*%
%ADD43C,1.82*%
G04:AMPARAMS|DCode=44|XSize=2.324mm|YSize=2.324mm|CornerRadius=0mm|HoleSize=0mm|Usage=FLASHONLY|Rotation=0.000|XOffset=0mm|YOffset=0mm|HoleType=Round|Shape=Relief|Width=0.25mm|Gap=0.25mm|Entries=4|*
%AMTHD44*
7,0,0,2.32,1.82,0.25,45*
%
%ADD44THD44*%
%ADD45C,1.72*%
G04:AMPARAMS|DCode=46|XSize=2.224mm|YSize=2.224mm|CornerRadius=0mm|HoleSize=0mm|Usage=FLASHONLY|Rotation=0.000|XOffset=0mm|YOffset=0mm|HoleType=Round|Shape=Relief|Width=0.25mm|Gap=0.25mm|Entries=4|*
%AMTHD46*
7,0,0,2.22,1.72,0.25,45*
%
%ADD46THD46*%
%ADD47C,3.72*%
D13*
X007052Y006997D02*
G03*
X006835Y006908I000000J-000307D01*
G01*
X006611Y006810D02*
G03*
X006827Y006900I000000J000307D01*
G01*
X006325D02*
G03*
X006542Y006810I000217J000217D01*
G01*
X006270Y006955D02*
G03*
X006138Y007010I-000132J-000132D01*
G01*
X008778Y006997D02*
X010230Y005545D01*
X007052Y006997D02*
X008778D01*
X006827Y006900D02*
X006835Y006908D01*
X006542Y006810D02*
X006611D01*
X006270Y006955D02*
X006325Y006900D01*
X004485Y007010D02*
X006138D01*
X004340Y006865D02*
X004485Y007010D01*
X004340Y004745D02*
Y006865D01*
X008853Y003950D02*
Y004745D01*
X007905D02*
X008853D01*
X004340Y007430D02*
X004450D01*
X004340Y004745D02*
X007905D01*
X010260Y003770D02*
X010890D01*
X010230Y003800D02*
X010260Y003770D01*
X010230Y003800D02*
Y005545D01*
X008853Y003310D02*
Y003950D01*
Y003310D02*
X010870D01*
D40*
X004770Y001230D02*
G03*
X005070Y001530I000000J000300D01*
G01*
X005370Y001830D02*
G03*
X005070Y001530I000000J-000300D01*
G01*
X008070D02*
G03*
X007770Y001830I-000300J000000D01*
G01*
X008070Y001530D02*
G03*
X008370Y001230I000300J000000D01*
G01*
X009146D02*
G03*
X009358Y001318I000000J000300D01*
G01*
X010782Y002742D02*
G03*
X010870Y002954I-000212J000212D01*
G01*
Y005706D02*
G03*
X010782Y005918I-000300J000000D01*
G01*
X009358Y007342D02*
G03*
X009146Y007430I-000212J-000212D01*
G01*
X007176D02*
G03*
X006916Y007280I000000J-000300D01*
G01*
X006224D02*
G03*
X006916Y007280I000346J000200D01*
G01*
X006224Y007280D02*
G03*
X005964Y007430I-000260J-000150D01*
G01*
X003994D02*
G03*
X003782Y007342I000000J-000300D01*
G01*
X002358Y005918D02*
G03*
X002270Y005706I000212J-000212D01*
G01*
Y002954D02*
G03*
X002358Y002742I000300J000000D01*
G01*
X003782Y001318D02*
G03*
X003994Y001230I000212J000212D01*
G01*
X002358Y002742D02*
X003782Y001318D01*
X002358Y002742D02*
X002358D01*
X002270Y002954D02*
X002270D01*
X002270D02*
Y005706D01*
X002270D01*
X002358Y005918D02*
X002358D01*
X002358D02*
X003782Y007342D01*
Y007342D02*
Y007342D01*
X003994Y007430D02*
Y007430D01*
X005964D01*
Y007430D02*
Y007430D01*
X006224Y007280D02*
X006224D01*
X006916Y007280D02*
X006916Y007280D01*
X007176Y007430D02*
Y007430D01*
X009146D01*
Y007430D02*
Y007430D01*
X009358Y007342D02*
Y007342D01*
X010782Y005918D01*
Y005918D02*
Y005918D01*
X010870Y002954D02*
Y005706D01*
X010782Y002742D02*
Y002742D01*
X009358Y001318D02*
X010782Y002742D01*
X009358Y001318D02*
X009358D01*
X008370Y001230D02*
X009146D01*
X008070Y001530D02*
X008070D01*
X007770Y001830D02*
Y001830D01*
X005370D02*
X007770D01*
X005370Y001830D02*
Y001830D01*
X005070Y001530D02*
X005070D01*
X003994Y001230D02*
X004770D01*
D41*
X007650Y003723D02*
D03*
X008666D02*
D03*
X009428D02*
D03*
X008412Y002199D02*
D03*
X007904D02*
D03*
X007650D02*
D03*
Y006438D02*
D03*
X008666D02*
D03*
X009428D02*
D03*
X008412Y004914D02*
D03*
X007904D02*
D03*
X007650D02*
D03*
X003725Y003723D02*
D03*
X004741D02*
D03*
X005503D02*
D03*
X004487Y002199D02*
D03*
X003979D02*
D03*
X003725D02*
D03*
Y006453D02*
D03*
X004741D02*
D03*
X005503D02*
D03*
X004487Y004929D02*
D03*
X003979D02*
D03*
X003725D02*
D03*
D42*
X009428Y002199D02*
D03*
Y004914D02*
D03*
X005503Y002199D02*
D03*
Y004929D02*
D03*
D43*
X005236Y004203D02*
D03*
Y004457D02*
D03*
X005490Y004203D02*
D03*
Y004457D02*
D03*
X005744Y004203D02*
D03*
Y004457D02*
D03*
X004982D02*
D03*
Y004203D02*
D03*
X004220Y004457D02*
D03*
X003966Y004203D02*
D03*
Y004457D02*
D03*
X003712Y004203D02*
D03*
Y004457D02*
D03*
X004220Y004203D02*
D03*
X003458D02*
D03*
Y004457D02*
D03*
X007930Y004457D02*
D03*
Y004203D02*
D03*
X007676Y004457D02*
D03*
Y004203D02*
D03*
X007422Y004457D02*
D03*
Y004203D02*
D03*
X008184D02*
D03*
Y004457D02*
D03*
X008946Y004203D02*
D03*
X009200Y004457D02*
D03*
Y004203D02*
D03*
X009454Y004457D02*
D03*
Y004203D02*
D03*
X008946Y004457D02*
D03*
X009708D02*
D03*
Y004203D02*
D03*
D44*
X004728Y004203D02*
D03*
Y004457D02*
D03*
X004474Y004203D02*
D03*
Y004457D02*
D03*
X008438Y004457D02*
D03*
Y004203D02*
D03*
X008692Y004457D02*
D03*
Y004203D02*
D03*
D45*
X010418Y005230D02*
D03*
X010618D02*
D03*
X010418Y005030D02*
D03*
X010618D02*
D03*
X010418Y005630D02*
D03*
X010618D02*
D03*
X010418Y005430D02*
D03*
X010618D02*
D03*
Y003030D02*
D03*
X010418D02*
D03*
X010618Y003230D02*
D03*
X010418D02*
D03*
X010618Y003830D02*
D03*
X010418D02*
D03*
X010618Y004030D02*
D03*
X010418D02*
D03*
Y004430D02*
D03*
X010618D02*
D03*
X010418Y004230D02*
D03*
X010618D02*
D03*
X004275Y006815D02*
D03*
X009425Y006825D02*
D03*
X005083Y002455D02*
D03*
X009040Y003825D02*
D03*
X004848Y005118D02*
D03*
X005723D02*
D03*
X006548D02*
D03*
X008073D02*
D03*
X008975Y004914D02*
D03*
X010030Y004190D02*
D03*
X009793Y002535D02*
D03*
X002700Y004197D02*
D03*
X007870Y007085D02*
D03*
X005296Y007090D02*
D03*
D46*
X010618Y004630D02*
D03*
X010418D02*
D03*
X010618Y004830D02*
D03*
X010418D02*
D03*
X010618Y003430D02*
D03*
X010418D02*
D03*
X010618Y003630D02*
D03*
X010418D02*
D03*
X004070Y006250D02*
D03*
X004744Y006815D02*
D03*
X010125Y006200D02*
D03*
X006025Y004100D02*
D03*
X007156Y004549D02*
D03*
X004225Y003825D02*
D03*
X009270Y006200D02*
D03*
X008439Y006815D02*
D03*
X007030Y006828D02*
D03*
X006153D02*
D03*
D47*
X004070Y007130D02*
D03*
X009070D02*
D03*
Y001530D02*
D03*
X004070D02*
D03*
X006570Y004330D02*
D03*
M02*
