G04*
G04 #@! TF.GenerationSoftware,Altium Limited,Altium Designer,23.9.2 (47)*
G04*
G04 Layer_Color=32896*
%FSAX42Y42*%
%MOMM*%
G71*
G04*
G04 #@! TF.SameCoordinates,6700F035-4CF4-4C6A-B223-3C7F8516C722*
G04*
G04*
G04 #@! TF.FilePolarity,Positive*
G04*
G01*
G75*
%ADD14C,0.20*%
%ADD56C,0.15*%
D14*
X009554Y006818D02*
X009571Y006835D01*
X009604D01*
X009621Y006818D01*
Y006752D01*
X009604Y006735D01*
X009571D01*
X009554Y006752D01*
X009454Y006735D02*
X009521D01*
X009454Y006802D01*
Y006818D01*
X009471Y006835D01*
X009504D01*
X009521Y006818D01*
X009371Y006735D02*
Y006835D01*
X009421Y006785D01*
X009354D01*
X004592Y006883D02*
X004608Y006900D01*
X004642D01*
X004658Y006883D01*
Y006817D01*
X004642Y006800D01*
X004608D01*
X004592Y006817D01*
X004492Y006800D02*
X004558D01*
X004492Y006867D01*
Y006883D01*
X004508Y006900D01*
X004542D01*
X004558Y006883D01*
X004458D02*
X004442Y006900D01*
X004408D01*
X004392Y006883D01*
Y006867D01*
X004408Y006850D01*
X004425D01*
X004408D01*
X004392Y006833D01*
Y006817D01*
X004408Y006800D01*
X004442D01*
X004458Y006817D01*
X008863Y006735D02*
Y006835D01*
X008813D01*
X008797Y006818D01*
Y006785D01*
X008813Y006768D01*
X008863D01*
X008830D02*
X008797Y006735D01*
X008697D02*
X008763D01*
X008697Y006802D01*
Y006818D01*
X008713Y006835D01*
X008747D01*
X008763Y006818D01*
X009875Y006180D02*
Y006270D01*
X009830D01*
X009815Y006255D01*
Y006225D01*
X009830Y006210D01*
X009875D01*
X009845D02*
X009815Y006180D01*
X009785Y006255D02*
X009770Y006270D01*
X009740D01*
X009725Y006255D01*
Y006240D01*
X009740Y006225D01*
X009755D01*
X009740D01*
X009725Y006210D01*
Y006195D01*
X009740Y006180D01*
X009770D01*
X009785Y006195D01*
X007971Y003390D02*
X007986Y003405D01*
X008016D01*
X008031Y003390D01*
Y003330D01*
X008016Y003315D01*
X007986D01*
X007971Y003330D01*
X007881Y003315D02*
X007941D01*
X007881Y003375D01*
Y003390D01*
X007896Y003405D01*
X007926D01*
X007941Y003390D01*
X007791Y003315D02*
X007851D01*
X007791Y003375D01*
Y003390D01*
X007806Y003405D01*
X007836D01*
X007851Y003390D01*
X007932Y006127D02*
X007947Y006142D01*
X007977D01*
X007992Y006127D01*
Y006068D01*
X007977Y006053D01*
X007947D01*
X007932Y006068D01*
X007843Y006053D02*
X007902D01*
X007843Y006112D01*
Y006127D01*
X007858Y006142D01*
X007888D01*
X007902Y006127D01*
X007813Y006053D02*
X007783D01*
X007798D01*
Y006142D01*
X007813Y006127D01*
X004063Y003384D02*
X004078Y003399D01*
X004108D01*
X004123Y003384D01*
Y003324D01*
X004108Y003309D01*
X004078D01*
X004063Y003324D01*
X003973Y003309D02*
X004033D01*
X003973Y003369D01*
Y003384D01*
X003988Y003399D01*
X004018D01*
X004033Y003384D01*
X003943D02*
X003928Y003399D01*
X003898D01*
X003883Y003384D01*
Y003324D01*
X003898Y003309D01*
X003928D01*
X003943Y003324D01*
Y003384D01*
X004063Y006130D02*
X004078Y006145D01*
X004108D01*
X004123Y006130D01*
Y006070D01*
X004108Y006055D01*
X004078D01*
X004063Y006070D01*
X004033Y006055D02*
X004003D01*
X004018D01*
Y006145D01*
X004033Y006130D01*
X003958Y006070D02*
X003943Y006055D01*
X003913D01*
X003898Y006070D01*
Y006130D01*
X003913Y006145D01*
X003943D01*
X003958Y006130D01*
Y006115D01*
X003943Y006100D01*
X003898D01*
X003935Y006780D02*
Y006870D01*
X003890D01*
X003875Y006855D01*
Y006825D01*
X003890Y006810D01*
X003935D01*
X003905D02*
X003875Y006780D01*
X003845D02*
X003815D01*
X003830D01*
Y006870D01*
X003845Y006855D01*
X009940Y005380D02*
X009955Y005395D01*
X009985D01*
X010000Y005380D01*
Y005320D01*
X009985Y005305D01*
X009955D01*
X009940Y005320D01*
X009910Y005380D02*
X009895Y005395D01*
X009865D01*
X009850Y005380D01*
Y005365D01*
X009865Y005350D01*
X009850Y005335D01*
Y005320D01*
X009865Y005305D01*
X009895D01*
X009910Y005320D01*
Y005335D01*
X009895Y005350D01*
X009910Y005365D01*
Y005380D01*
X009895Y005350D02*
X009865D01*
X009027Y006255D02*
X009042Y006270D01*
X009072D01*
X009087Y006255D01*
Y006195D01*
X009072Y006180D01*
X009042D01*
X009027Y006195D01*
X008997Y006180D02*
X008968D01*
X008982D01*
Y006270D01*
X008997Y006255D01*
X008863Y006270D02*
X008923D01*
Y006225D01*
X008893Y006240D01*
X008878D01*
X008863Y006225D01*
Y006195D01*
X008878Y006180D01*
X008908D01*
X008923Y006195D01*
X004165Y002480D02*
X004180Y002495D01*
X004210D01*
X004225Y002480D01*
Y002420D01*
X004210Y002405D01*
X004180D01*
X004165Y002420D01*
X004090Y002405D02*
Y002495D01*
X004135Y002450D01*
X004075D01*
X007801Y002671D02*
X007816Y002686D01*
X007846D01*
X007861Y002671D01*
Y002611D01*
X007846Y002596D01*
X007816D01*
X007801Y002611D01*
X007771Y002596D02*
X007741D01*
X007756D01*
Y002686D01*
X007771Y002671D01*
X007696D02*
X007681Y002686D01*
X007651D01*
X007636Y002671D01*
Y002656D01*
X007651Y002641D01*
X007666D01*
X007651D01*
X007636Y002626D01*
Y002611D01*
X007651Y002596D01*
X007681D01*
X007696Y002611D01*
X009315Y006255D02*
X009330Y006270D01*
X009360D01*
X009375Y006255D01*
Y006195D01*
X009360Y006180D01*
X009330D01*
X009315Y006195D01*
X009225Y006270D02*
X009255Y006255D01*
X009285Y006225D01*
Y006195D01*
X009270Y006180D01*
X009240D01*
X009225Y006195D01*
Y006210D01*
X009240Y006225D01*
X009285D01*
X009027Y005580D02*
X009042Y005595D01*
X009072D01*
X009087Y005580D01*
Y005520D01*
X009072Y005505D01*
X009042D01*
X009027Y005520D01*
X008997Y005505D02*
X008968D01*
X008982D01*
Y005595D01*
X008997Y005580D01*
X008923D02*
X008908Y005595D01*
X008878D01*
X008863Y005580D01*
Y005520D01*
X008878Y005505D01*
X008908D01*
X008923Y005520D01*
Y005580D01*
X005392Y002683D02*
X005408Y002700D01*
X005442D01*
X005458Y002683D01*
Y002617D01*
X005442Y002600D01*
X005408D01*
X005392Y002617D01*
X005358Y002683D02*
X005342Y002700D01*
X005308D01*
X005292Y002683D01*
Y002667D01*
X005308Y002650D01*
X005325D01*
X005308D01*
X005292Y002633D01*
Y002617D01*
X005308Y002600D01*
X005342D01*
X005358Y002617D01*
X009952Y004780D02*
X009967Y004795D01*
X009997D01*
X010012Y004780D01*
Y004720D01*
X009997Y004705D01*
X009967D01*
X009952Y004720D01*
X009922Y004705D02*
X009893D01*
X009907D01*
Y004795D01*
X009922Y004780D01*
X009848Y004795D02*
X009788D01*
Y004780D01*
X009848Y004720D01*
Y004705D01*
X009577Y002680D02*
X009592Y002695D01*
X009622D01*
X009637Y002680D01*
Y002620D01*
X009622Y002605D01*
X009592D01*
X009577Y002620D01*
X009547Y002605D02*
X009518D01*
X009532D01*
Y002695D01*
X009547Y002680D01*
X009413Y002605D02*
X009473D01*
X009413Y002665D01*
Y002680D01*
X009428Y002695D01*
X009458D01*
X009473Y002680D01*
X009275Y005580D02*
X009290Y005595D01*
X009320D01*
X009335Y005580D01*
Y005520D01*
X009320Y005505D01*
X009290D01*
X009275Y005520D01*
X009245Y005505D02*
X009215D01*
X009230D01*
Y005595D01*
X009245Y005580D01*
X010625Y005945D02*
X010565Y005855D01*
Y005945D02*
X010625Y005855D01*
X010535Y005930D02*
X010520Y005945D01*
X010490D01*
X010475Y005930D01*
Y005915D01*
X010490Y005900D01*
X010505D01*
X010490D01*
X010475Y005885D01*
Y005870D01*
X010490Y005855D01*
X010520D01*
X010535Y005870D01*
D56*
X003664Y003201D02*
X003791D01*
X003664Y003519D02*
X003791D01*
X003804Y003328D02*
Y003392D01*
X003651Y003328D02*
Y003392D01*
X003802Y006058D02*
Y006122D01*
X003649Y006058D02*
Y006122D01*
X003662Y005931D02*
X003789D01*
X003662Y006249D02*
X003789D01*
X004212Y006729D02*
X004338D01*
X004212Y006411D02*
X004338D01*
X004199Y006539D02*
Y006602D01*
X004351Y006539D02*
Y006602D01*
X008961Y006397D02*
X009089D01*
X008961Y006714D02*
X009089D01*
X009101Y006524D02*
Y006587D01*
X008949Y006524D02*
Y006587D01*
X009149Y006397D02*
X009276D01*
X009149Y006714D02*
X009276D01*
X009289Y006524D02*
Y006587D01*
X009136Y006524D02*
Y006587D01*
X004006Y006411D02*
X004133D01*
X004006Y006729D02*
X004133D01*
X004146Y006539D02*
Y006602D01*
X003994Y006539D02*
Y006602D01*
X009886Y005226D02*
X009950D01*
X009886Y005073D02*
X009950D01*
X010076Y005086D02*
Y005213D01*
X009759Y005086D02*
Y005213D01*
X009943Y005984D02*
Y006111D01*
X009626Y005984D02*
Y006111D01*
X009753Y006124D02*
X009817D01*
X009753Y005971D02*
X009817D01*
X007718Y002531D02*
X007782D01*
X007718Y002379D02*
X007782D01*
X007909Y002392D02*
Y002518D01*
X007592Y002392D02*
Y002518D01*
X007721Y006058D02*
Y006122D01*
X007569Y006058D02*
Y006122D01*
X007582Y005931D02*
X007708D01*
X007582Y006249D02*
X007708D01*
X007574Y003328D02*
Y003392D01*
X007726Y003328D02*
Y003392D01*
X007586Y003519D02*
X007714D01*
X007586Y003201D02*
X007714D01*
X009207Y005106D02*
X009334D01*
X009207Y005424D02*
X009334D01*
X009347Y005233D02*
Y005297D01*
X009194Y005233D02*
Y005297D01*
X009006Y005106D02*
X009133D01*
X009006Y005424D02*
X009133D01*
X009146Y005233D02*
Y005297D01*
X008994Y005233D02*
Y005297D01*
X008961Y005794D02*
X009089D01*
X008961Y006112D02*
X009089D01*
X009101Y005921D02*
Y005985D01*
X008949Y005921D02*
Y005985D01*
X009194Y005921D02*
Y005985D01*
X009347Y005921D02*
Y005985D01*
X009207Y006112D02*
X009334D01*
X009207Y005794D02*
X009334D01*
X009759Y004893D02*
Y005020D01*
X010076Y004893D02*
Y005020D01*
X009886Y004880D02*
X009950D01*
X009886Y005033D02*
X009950D01*
X003664Y002392D02*
Y002518D01*
X003981Y002392D02*
Y002518D01*
X003791Y002379D02*
X003854D01*
X003791Y002531D02*
X003854D01*
X005338Y002379D02*
X005401D01*
X005338Y002531D02*
X005401D01*
X005211Y002392D02*
Y002518D01*
X005528Y002392D02*
Y002518D01*
X009368Y002392D02*
Y002518D01*
X009686Y002392D02*
Y002518D01*
X009495Y002379D02*
X009559D01*
X009495Y002531D02*
X009559D01*
M02*
