M48
;Layer_Color=9474304
;FILE_FORMAT=4:2
METRIC
;TYPE=PLATED
T01F00S00C0.70
T02F00S00C0.80
T03F00S00C0.90
T04F00S00C2.70
%
T01
X005083Y002455
X004225Y003825
X009040
X010418Y003830
X010618
Y003630
X010418
Y003430
X010418Y003230
X010618
X010618Y003430
X010618Y003030
X010418
X009793Y002535
X010030Y004190
X010418Y004230
X010618
Y004430
X010418
Y004630
X010618
Y004830
X010418
Y005030
X010618
Y005230
X010418
X010418Y005430
X010618
Y005630
X010418
X010125Y006200
X009270Y006200
X009425Y006825
X008439Y006815
X008073Y005118
X008975Y004914
X010418Y004030
X010618
X007156Y004549
X006548Y005118
X005723
X004848
X004744Y006815
X004275
X004070Y006250
X005296Y007090
X006153Y006828
X007030
X007870Y007085
X006025Y004100
X002700Y004197
T02
X008184Y004203
X008438
Y004457
X008692
Y004203
X008946
X009200
Y004457
X009454
Y004203
X009708
Y004457
X008946
X008184
X007930
Y004203
X007676
Y004457
X007422
Y004203
X005744Y004203
X005490
X005236
Y004457
X005490
X005744
X004982
X004728
Y004203
X004474
Y004457
X004220
Y004203
X004982
X003966
Y004457
X003712
Y004203
X003458
Y004457
T03
X003725Y002199
Y003723
X004741
X005503
Y002199
X004487
X003979
X007650
X007904
X007650Y003723
X008666
X009428
Y002199
X008412
Y004914
X009428
Y006438
X008666
X007650
Y004914
X007904
X005503Y004929
X004487
X003979
X004741Y006453
X005503
X003725
Y004929
T04
X004070Y001530
X009070
Y007130
X004070
X006570Y004330
M30
