G04*
G04 #@! TF.GenerationSoftware,Altium Limited,Altium Designer,23.9.2 (47)*
G04*
G04 Layer_Color=65535*
%FSAX42Y42*%
%MOMM*%
G71*
G04*
G04 #@! TF.SameCoordinates,6700F035-4CF4-4C6A-B223-3C7F8516C722*
G04*
G04*
G04 #@! TF.FilePolarity,Positive*
G04*
G01*
G75*
%ADD10C,0.25*%
%ADD11C,0.40*%
%ADD12C,0.30*%
%ADD13C,0.50*%
%ADD14C,0.20*%
D10*
X007434Y003997D02*
G03*
X007307Y003870I000000J-000127D01*
G01*
X009669Y001953D02*
G03*
X009784Y002080I-000006J000121D01*
G01*
X009784Y003870D02*
G03*
X009669Y003997I-000121J000006D01*
G01*
X007434Y006712D02*
G03*
X007307Y006585I000000J-000127D01*
G01*
X009669Y004667D02*
G03*
X009784Y004794I-000006J000121D01*
G01*
X009784Y006585D02*
G03*
X009669Y006712I-000121J000006D01*
G01*
X003510Y003997D02*
G03*
X003383Y003870I000000J-000127D01*
G01*
X005745Y001953D02*
G03*
X005859Y002080I-000006J000121D01*
G01*
X005859Y003870D02*
G03*
X005745Y003997I-000121J000006D01*
G01*
X003510Y006727D02*
G03*
X003383Y006600I000000J-000127D01*
G01*
X005745Y004683D02*
G03*
X005859Y004810I-000006J000121D01*
G01*
X005859Y006600D02*
G03*
X005745Y006727I-000121J000006D01*
G01*
X007307Y001953D02*
Y003870D01*
X009784Y002080D02*
Y003870D01*
X007434Y003997D02*
X009657D01*
X007307Y001953D02*
X009657D01*
X007307Y004667D02*
Y006585D01*
X009784Y004794D02*
Y006585D01*
X007434Y006712D02*
X009657D01*
X007307Y004667D02*
X009657D01*
X003383Y001953D02*
Y003870D01*
X005859Y002080D02*
Y003870D01*
X003510Y003997D02*
X005732D01*
X003383Y001953D02*
X005732D01*
X003383Y004683D02*
Y006600D01*
X005859Y004810D02*
Y006600D01*
X003510Y006727D02*
X005732D01*
X003383Y004683D02*
X005732D01*
X009998Y005651D02*
X010252D01*
X009998Y004901D02*
X010252D01*
X005959Y003408D02*
X007179D01*
Y002455D02*
Y003408D01*
X005959Y002582D02*
Y003408D01*
Y002582D02*
X006086Y002455D01*
X007179D01*
X007430Y006963D02*
Y007217D01*
X008312Y006963D02*
Y007217D01*
X005607Y006963D02*
Y007217D01*
X004981Y006963D02*
Y007217D01*
X005951Y005232D02*
X007170D01*
X005951D02*
Y006185D01*
X007170Y005232D02*
Y006058D01*
X007043Y006185D02*
X007170Y006058D01*
X005951Y006185D02*
X007043D01*
D11*
X005998Y002220D02*
G03*
X005998Y002220I-000020J000000D01*
G01*
X007171Y006420D02*
G03*
X007171Y006420I-000020J000000D01*
G01*
D12*
X007176Y007430D02*
G03*
X006916Y007280I000000J-000300D01*
G01*
X006224D02*
G03*
X005964Y007430I-000260J-000150D01*
G01*
X008070Y001530D02*
G03*
X008370Y001230I000300J000000D01*
G01*
X004770D02*
G03*
X005070Y001530I000000J000300D01*
G01*
X003782Y001318D02*
G03*
X003994Y001230I000212J000212D01*
G01*
X002358Y005918D02*
G03*
X002270Y005706I000212J-000212D01*
G01*
X009146Y001230D02*
G03*
X009358Y001318I000000J000300D01*
G01*
X010782Y002742D02*
G03*
X010870Y002954I-000212J000212D01*
G01*
X009358Y007342D02*
G03*
X009146Y007430I-000212J-000212D01*
G01*
X002270Y002954D02*
G03*
X002358Y002742I000300J000000D01*
G01*
X006224Y007280D02*
G03*
X006916Y007280I000346J000200D01*
G01*
X008070Y001530D02*
G03*
X007770Y001830I-000300J000000D01*
G01*
X010870Y005706D02*
G03*
X010782Y005918I-000300J000000D01*
G01*
X003994Y007430D02*
G03*
X003782Y007342I000000J-000300D01*
G01*
X005370Y001830D02*
G03*
X005070Y001530I000000J-000300D01*
G01*
X002270Y002954D02*
Y005706D01*
X009358Y001318D02*
X010782Y002742D01*
X010870Y002954D02*
Y005706D01*
X007176Y007430D02*
X009146D01*
X002358Y002742D02*
X003782Y001318D01*
X003994Y007430D02*
X005964D01*
X005370Y001830D02*
X007770D01*
X003994Y001230D02*
X004770D01*
X009358Y007342D02*
X010782Y005918D01*
X002358Y005918D02*
X003782Y007342D01*
X008370Y001230D02*
X009146D01*
D13*
X002910Y004460D02*
Y005592D01*
X002380Y004460D02*
X002910D01*
X002380Y005592D02*
X002910D01*
X002380Y004460D02*
Y005592D01*
D14*
X009955Y005397D02*
X010295D01*
Y005537D01*
X009955Y005397D02*
Y005537D01*
Y006020D02*
X010295D01*
X009955Y005880D02*
Y006020D01*
X010295Y005880D02*
Y006020D01*
X002525Y003775D02*
Y004015D01*
X002880Y003775D02*
Y004015D01*
X002525D02*
X002880D01*
X002520Y003165D02*
Y003405D01*
Y003165D02*
X002875D01*
X002558Y003445D02*
X002840D01*
X002875Y003165D02*
Y003405D01*
X009955Y004532D02*
Y004672D01*
X010295Y004532D02*
Y004672D01*
X009955Y004532D02*
X010295D01*
Y005015D02*
Y005154D01*
X009955Y005015D02*
Y005154D01*
X010295D01*
X009968Y003005D02*
Y003245D01*
X010003Y002965D02*
X010284D01*
X009968Y003245D02*
X010322D01*
Y003005D02*
Y003245D01*
X009962Y002395D02*
X010318D01*
X009962D02*
Y002635D01*
X010318Y002395D02*
Y002635D01*
X005871Y004076D02*
Y004585D01*
X003268D02*
X005871D01*
X003268Y004075D02*
X005869D01*
X003268D02*
Y004585D01*
X007295Y004075D02*
Y004584D01*
Y004075D02*
X009898D01*
X007297Y004585D02*
X009898D01*
Y004075D02*
Y004585D01*
X007659Y006920D02*
X007798D01*
X007659Y007260D02*
X007798D01*
Y006920D02*
Y007260D01*
X007176D02*
X007316D01*
X007176Y006920D02*
X007316D01*
X007176D02*
Y007260D01*
X008566Y006920D02*
Y007260D01*
X008426D02*
X008566D01*
X008426Y006920D02*
X008566D01*
X007944D02*
Y007260D01*
Y006920D02*
X008083D01*
X007944Y007260D02*
X008083D01*
X005353Y006920D02*
Y007260D01*
Y006920D02*
X005493D01*
X005353Y007260D02*
X005493D01*
X005975Y006920D02*
Y007260D01*
X005836D02*
X005975D01*
X005836Y006920D02*
X005975D01*
X005235D02*
Y007260D01*
X005096D02*
X005235D01*
X005096Y006920D02*
X005235D01*
X004613D02*
Y007260D01*
Y006920D02*
X004753D01*
X004613Y007260D02*
X004753D01*
X002495Y005837D02*
X002528Y005770D01*
X002562Y005837D01*
X002645Y005770D02*
X002612D01*
X002595Y005787D01*
Y005820D01*
X002612Y005837D01*
X002645D01*
X002662Y005820D01*
Y005803D01*
X002595D01*
X002695Y005837D02*
Y005770D01*
Y005803D01*
X002712Y005820D01*
X002728Y005837D01*
X002745D01*
X002795Y005770D02*
Y005787D01*
X002812D01*
Y005770D01*
X002795D01*
X002878Y005853D02*
X002895Y005870D01*
X002928D01*
X002945Y005853D01*
Y005837D01*
X002928Y005820D01*
X002912D01*
X002928D01*
X002945Y005803D01*
Y005787D01*
X002928Y005770D01*
X002895D01*
X002878Y005787D01*
X002978Y005770D02*
Y005787D01*
X002995D01*
Y005770D01*
X002978D01*
X003061D02*
X003095D01*
X003078D01*
Y005870D01*
X003061Y005853D01*
X006930Y004067D02*
Y003993D01*
X006945Y003978D01*
X006975D01*
X006990Y003993D01*
Y004067D01*
X007065Y003978D02*
Y004067D01*
X007020Y004022D01*
X007080D01*
X006930Y004695D02*
Y004620D01*
X006945Y004605D01*
X006975D01*
X006990Y004620D01*
Y004695D01*
X007020Y004680D02*
X007035Y004695D01*
X007065D01*
X007080Y004680D01*
Y004665D01*
X007065Y004650D01*
X007050D01*
X007065D01*
X007080Y004635D01*
Y004620D01*
X007065Y004605D01*
X007035D01*
X007020Y004620D01*
X005640Y007367D02*
X005625Y007382D01*
X005595D01*
X005580Y007367D01*
Y007307D01*
X005595Y007292D01*
X005625D01*
X005640Y007307D01*
X005730Y007292D02*
X005670D01*
X005730Y007352D01*
Y007367D01*
X005715Y007382D01*
X005685D01*
X005670Y007367D01*
X002398Y003645D02*
X002383Y003660D01*
X002353D01*
X002338Y003645D01*
Y003585D01*
X002353Y003570D01*
X002383D01*
X002398Y003585D01*
X002487Y003660D02*
X002427D01*
Y003615D01*
X002457Y003630D01*
X002472D01*
X002487Y003615D01*
Y003585D01*
X002472Y003570D01*
X002442D01*
X002427Y003585D01*
X006085Y004695D02*
Y004620D01*
X006100Y004605D01*
X006130D01*
X006145Y004620D01*
Y004695D01*
X006175Y004605D02*
X006205D01*
X006190D01*
Y004695D01*
X006175Y004680D01*
X008200Y007360D02*
X008185Y007375D01*
X008155D01*
X008140Y007360D01*
Y007300D01*
X008155Y007285D01*
X008185D01*
X008200Y007300D01*
X008230Y007285D02*
X008260D01*
X008245D01*
Y007375D01*
X008230Y007360D01*
X008365Y007375D02*
X008335Y007360D01*
X008305Y007330D01*
Y007300D01*
X008320Y007285D01*
X008350D01*
X008365Y007300D01*
Y007315D01*
X008350Y007330D01*
X008305D01*
X004889Y007366D02*
X004874Y007381D01*
X004844D01*
X004829Y007366D01*
Y007306D01*
X004844Y007291D01*
X004874D01*
X004889Y007306D01*
X004919Y007291D02*
X004948D01*
X004934D01*
Y007381D01*
X004919Y007366D01*
X004993Y007291D02*
X005023D01*
X005008D01*
Y007381D01*
X004993Y007366D01*
X006070Y004067D02*
Y003993D01*
X006085Y003978D01*
X006115D01*
X006130Y003993D01*
Y004067D01*
X006220Y003978D02*
X006160D01*
X006220Y004037D01*
Y004052D01*
X006205Y004067D01*
X006175D01*
X006160Y004052D01*
X010073Y003365D02*
X010058Y003380D01*
X010028D01*
X010013Y003365D01*
Y003305D01*
X010028Y003290D01*
X010058D01*
X010073Y003305D01*
X010103Y003290D02*
X010132D01*
X010118D01*
Y003380D01*
X010103Y003365D01*
X010222Y003290D02*
Y003380D01*
X010177Y003335D01*
X010237D01*
X010073Y005280D02*
X010058Y005295D01*
X010028D01*
X010013Y005280D01*
Y005220D01*
X010028Y005205D01*
X010058D01*
X010073Y005220D01*
X010103Y005205D02*
X010132D01*
X010118D01*
Y005295D01*
X010103Y005280D01*
X010177D02*
X010192Y005295D01*
X010222D01*
X010237Y005280D01*
Y005265D01*
X010222Y005250D01*
X010237Y005235D01*
Y005220D01*
X010222Y005205D01*
X010192D01*
X010177Y005220D01*
Y005235D01*
X010192Y005250D01*
X010177Y005265D01*
Y005280D01*
X010192Y005250D02*
X010222D01*
X006930Y004388D02*
X006990Y004298D01*
Y004388D02*
X006930Y004298D01*
X007065D02*
Y004388D01*
X007020Y004343D01*
X007080D01*
X006473Y005040D02*
Y004980D01*
X006503Y004950D01*
X006533Y004980D01*
Y005040D01*
X006563D02*
Y004950D01*
X006607D01*
X006622Y004965D01*
Y005025D01*
X006607Y005040D01*
X006563D01*
X006652Y004950D02*
X006682D01*
X006667D01*
Y005040D01*
X006652Y005025D01*
X006085Y004388D02*
X006145Y004298D01*
Y004388D02*
X006085Y004298D01*
X006175D02*
X006205D01*
X006190D01*
Y004388D01*
X006175Y004373D01*
X006458Y003675D02*
Y003615D01*
X006488Y003585D01*
X006518Y003615D01*
Y003675D01*
X006548D02*
Y003585D01*
X006592D01*
X006607Y003600D01*
Y003660D01*
X006592Y003675D01*
X006548D01*
X006697Y003585D02*
X006637D01*
X006697Y003645D01*
Y003660D01*
X006682Y003675D01*
X006652D01*
X006637Y003660D01*
X010335Y006180D02*
X010320Y006195D01*
X010290D01*
X010275Y006180D01*
Y006120D01*
X010290Y006105D01*
X010320D01*
X010335Y006120D01*
X010365D02*
X010380Y006105D01*
X010410D01*
X010425Y006120D01*
Y006180D01*
X010410Y006195D01*
X010380D01*
X010365Y006180D01*
Y006165D01*
X010380Y006150D01*
X010425D01*
X007508Y007358D02*
X007493Y007373D01*
X007463D01*
X007448Y007358D01*
Y007298D01*
X007463Y007283D01*
X007493D01*
X007508Y007298D01*
X007538Y007373D02*
X007598D01*
Y007358D01*
X007538Y007298D01*
Y007283D01*
M02*
