G04*
G04 #@! TF.GenerationSoftware,Altium Limited,Altium Designer,23.9.2 (47)*
G04*
G04 Layer_Physical_Order=1*
G04 Layer_Color=255*
%FSAX42Y42*%
%MOMM*%
G71*
G04*
G04 #@! TF.SameCoordinates,6700F035-4CF4-4C6A-B223-3C7F8516C722*
G04*
G04*
G04 #@! TF.FilePolarity,Positive*
G04*
G01*
G75*
%ADD13C,0.50*%
%ADD27R,2.80X2.00*%
%ADD28R,2.50X2.30*%
%ADD29R,2.60X3.20*%
%ADD30R,2.00X2.80*%
%ADD31C,0.75*%
%ADD32C,1.52*%
%ADD33R,1.52X1.52*%
%ADD34O,1.10X1.30*%
%ADD35R,1.10X1.30*%
%ADD36C,1.00*%
%ADD37R,1.00X1.00*%
%ADD38C,4.50*%
%ADD39C,6.00*%
G36*
X008730Y007457D02*
Y006725D01*
X004433Y006725D01*
Y007421D01*
X004441Y007430D01*
X006036Y007428D01*
X006153Y007368D01*
X006400Y007100D01*
X006730D01*
X006958Y007342D01*
X007132Y007457D01*
X008730Y007457D01*
D02*
G37*
G36*
X010825Y005150D02*
X010654D01*
X010651Y005163D01*
X010664Y005170D01*
X010678Y005184D01*
X010688Y005201D01*
X010691Y005215D01*
X010618D01*
X010544D01*
X010548Y005201D01*
X010558Y005184D01*
X010572Y005170D01*
X010585Y005163D01*
X010582Y005150D01*
X010454D01*
X010451Y005163D01*
X010464Y005170D01*
X010478Y005184D01*
X010488Y005201D01*
X010491Y005215D01*
X010418D01*
X010344D01*
X010348Y005201D01*
X010358Y005184D01*
X010372Y005170D01*
X010385Y005163D01*
X010382Y005150D01*
X010305D01*
Y005167D01*
X009945D01*
Y005150D01*
X009007D01*
Y005599D01*
X005825D01*
X005825Y005135D01*
X005812Y005133D01*
X005807Y005153D01*
X005795Y005173D01*
X005778Y005190D01*
X005758Y005202D01*
X005735Y005208D01*
X005711D01*
X005688Y005202D01*
X005668Y005190D01*
X005651Y005173D01*
X005639Y005153D01*
X005633Y005130D01*
Y005106D01*
X005639Y005083D01*
X005651Y005063D01*
X005668Y005046D01*
X005688Y005034D01*
X005711Y005028D01*
X005735D01*
X005758Y005034D01*
X005778Y005046D01*
X005795Y005063D01*
X005807Y005083D01*
X005812Y005103D01*
X005825Y005101D01*
Y004900D01*
X005575Y004650D01*
X005325D01*
Y004529D01*
X005312Y004524D01*
X005304Y004535D01*
X005284Y004550D01*
X005261Y004560D01*
X005236Y004563D01*
X005212Y004560D01*
X005189Y004550D01*
X005169Y004535D01*
X005153Y004515D01*
X005144Y004492D01*
X005141Y004467D01*
Y004447D01*
X005144Y004422D01*
X005153Y004399D01*
X005169Y004379D01*
X005189Y004364D01*
X005212Y004355D01*
X005236Y004351D01*
X005261Y004355D01*
X005284Y004364D01*
X005304Y004379D01*
X005312Y004390D01*
X005325Y004386D01*
Y004275D01*
X005312Y004270D01*
X005304Y004281D01*
X005284Y004296D01*
X005261Y004306D01*
X005236Y004309D01*
X005212Y004306D01*
X005189Y004296D01*
X005169Y004281D01*
X005153Y004261D01*
X005144Y004238D01*
X005141Y004213D01*
Y004193D01*
X005144Y004168D01*
X005153Y004145D01*
X005169Y004125D01*
X005189Y004110D01*
X005212Y004101D01*
X005236Y004097D01*
X005261Y004101D01*
X005284Y004110D01*
X005304Y004125D01*
X005312Y004136D01*
X005325Y004132D01*
Y001925D01*
X003873D01*
Y002126D01*
X003885Y002130D01*
X003886Y002128D01*
X003908Y002106D01*
X003935Y002091D01*
X003964Y002083D01*
X003995D01*
X004024Y002091D01*
X004051Y002106D01*
X004072Y002128D01*
X004088Y002154D01*
X004096Y002184D01*
Y002214D01*
X004088Y002244D01*
X004072Y002270D01*
X004051Y002292D01*
X004024Y002307D01*
X003995Y002315D01*
X003964D01*
X003935Y002307D01*
X003908Y002292D01*
X003886Y002270D01*
X003885Y002268D01*
X003873Y002272D01*
Y002362D01*
Y002850D01*
X003000D01*
Y004805D01*
X005125D01*
Y005925D01*
X009945D01*
Y005753D01*
X010305D01*
Y005925D01*
X010825D01*
Y005150D01*
D02*
G37*
G36*
X008947Y005100D02*
X009960D01*
Y005053D01*
X010125D01*
X010290D01*
Y005100D01*
X010364D01*
X010369Y005087D01*
X010358Y005076D01*
X010348Y005059D01*
X010344Y005045D01*
X010418D01*
X010491D01*
X010488Y005059D01*
X010478Y005076D01*
X010467Y005087D01*
X010471Y005100D01*
X010564D01*
X010569Y005087D01*
X010558Y005076D01*
X010548Y005059D01*
X010544Y005045D01*
X010618D01*
X010691D01*
X010688Y005059D01*
X010678Y005076D01*
X010667Y005087D01*
X010671Y005100D01*
X010825D01*
Y004850D01*
X010706D01*
X010702Y004865D01*
X010690Y004886D01*
X010673Y004902D01*
X010653Y004914D01*
X010630Y004920D01*
X010606D01*
X010583Y004914D01*
X010563Y004902D01*
X010556Y004896D01*
X010480D01*
X010473Y004902D01*
X010453Y004914D01*
X010430Y004920D01*
X010406D01*
X010383Y004914D01*
X010363Y004902D01*
X010346Y004886D01*
X010334Y004865D01*
X010330Y004850D01*
X009925D01*
Y003375D01*
X009225D01*
Y002100D01*
X008468D01*
X008465Y002113D01*
X008474Y002118D01*
X008493Y002137D01*
X008506Y002160D01*
X008513Y002184D01*
X008412D01*
X008311D01*
X008318Y002160D01*
X008331Y002137D01*
X008350Y002118D01*
X008359Y002113D01*
X008356Y002100D01*
X008150D01*
Y003275D01*
X008700D01*
Y003612D01*
X008711Y003615D01*
X008737Y003630D01*
X008759Y003652D01*
X008774Y003678D01*
X008782Y003708D01*
Y003738D01*
X008774Y003768D01*
X008759Y003794D01*
X008737Y003816D01*
X008711Y003831D01*
X008700Y003834D01*
Y004098D01*
X008716Y004101D01*
X008739Y004110D01*
X008759Y004125D01*
X008775Y004145D01*
X008784Y004168D01*
X008787Y004193D01*
Y004213D01*
X008784Y004238D01*
X008775Y004261D01*
X008759Y004281D01*
X008739Y004296D01*
X008716Y004306D01*
X008700Y004308D01*
Y004352D01*
X008716Y004355D01*
X008739Y004364D01*
X008759Y004379D01*
X008775Y004399D01*
X008784Y004422D01*
X008787Y004447D01*
Y004467D01*
X008784Y004492D01*
X008775Y004515D01*
X008759Y004535D01*
X008739Y004550D01*
X008716Y004560D01*
X008700Y004562D01*
Y005553D01*
X008947D01*
Y005100D01*
D02*
G37*
G36*
X006575Y005975D02*
X005075D01*
Y004850D01*
X004590D01*
X004583Y004863D01*
X004596Y004884D01*
X004604Y004914D01*
Y004944D01*
X004596Y004974D01*
X004580Y005000D01*
X004559Y005022D01*
X004532Y005037D01*
X004503Y005045D01*
X004472D01*
X004443Y005037D01*
X004416Y005022D01*
X004394Y005000D01*
X004379Y004974D01*
X004371Y004944D01*
Y004914D01*
X004379Y004884D01*
X004392Y004863D01*
X004385Y004850D01*
X004082D01*
X004075Y004863D01*
X004088Y004884D01*
X004096Y004914D01*
Y004944D01*
X004088Y004974D01*
X004072Y005000D01*
X004051Y005022D01*
X004024Y005037D01*
X003995Y005045D01*
X003964D01*
X003935Y005037D01*
X003908Y005022D01*
X003886Y005000D01*
X003871Y004974D01*
X003863Y004944D01*
Y004914D01*
X003871Y004884D01*
X003884Y004863D01*
X003877Y004850D01*
X003827D01*
Y004914D01*
X003725D01*
X003624D01*
Y004850D01*
X002950D01*
Y002800D01*
X003825D01*
Y002300D01*
X003740D01*
Y002199D01*
Y002098D01*
X003825D01*
Y001925D01*
X003225D01*
X002323Y002827D01*
X002325Y005850D01*
X003150Y006675D01*
X006575D01*
Y005975D01*
D02*
G37*
G36*
X008650Y004553D02*
X008644Y004550D01*
X008624Y004535D01*
X008609Y004515D01*
X008599Y004492D01*
X008596Y004467D01*
Y004447D01*
X008599Y004422D01*
X008609Y004399D01*
X008624Y004379D01*
X008644Y004364D01*
X008650Y004361D01*
Y004299D01*
X008644Y004296D01*
X008624Y004281D01*
X008609Y004261D01*
X008599Y004238D01*
X008596Y004213D01*
Y004193D01*
X008599Y004168D01*
X008609Y004145D01*
X008624Y004125D01*
X008644Y004110D01*
X008650Y004107D01*
Y003839D01*
X008621Y003831D01*
X008595Y003816D01*
X008573Y003794D01*
X008558Y003768D01*
X008550Y003738D01*
Y003708D01*
X008558Y003678D01*
X008573Y003652D01*
X008595Y003630D01*
X008621Y003615D01*
X008650Y003607D01*
Y003325D01*
X008100D01*
Y002056D01*
X009275D01*
Y003325D01*
X010376D01*
X010380Y003312D01*
X010363Y003302D01*
X010346Y003286D01*
X010334Y003265D01*
X010328Y003242D01*
Y003219D01*
X010334Y003196D01*
X010346Y003175D01*
X010363Y003158D01*
X010383Y003147D01*
X010406Y003140D01*
X010430D01*
X010453Y003147D01*
X010473Y003158D01*
X010490Y003175D01*
X010502Y003196D01*
X010508Y003219D01*
Y003242D01*
X010502Y003265D01*
X010490Y003286D01*
X010473Y003302D01*
X010456Y003312D01*
X010459Y003325D01*
X010576D01*
X010580Y003312D01*
X010563Y003302D01*
X010546Y003286D01*
X010534Y003265D01*
X010528Y003242D01*
Y003219D01*
X010534Y003196D01*
X010546Y003175D01*
X010563Y003158D01*
X010583Y003147D01*
X010606Y003140D01*
X010630D01*
X010653Y003147D01*
X010673Y003158D01*
X010690Y003175D01*
X010702Y003196D01*
X010708Y003219D01*
Y003242D01*
X010702Y003265D01*
X010690Y003286D01*
X010673Y003302D01*
X010656Y003312D01*
X010659Y003325D01*
X010870D01*
X010870Y002830D01*
X009965Y001925D01*
X006600D01*
Y003075D01*
X007275D01*
Y004000D01*
X007850D01*
Y004121D01*
X007856Y004123D01*
X007863Y004125D01*
X007882Y004110D01*
X007905Y004101D01*
X007930Y004097D01*
X007954Y004101D01*
X007977Y004110D01*
X007997Y004125D01*
X008013Y004145D01*
X008022Y004168D01*
X008025Y004193D01*
Y004213D01*
X008022Y004238D01*
X008013Y004261D01*
X007997Y004281D01*
X007977Y004296D01*
X007954Y004306D01*
X007930Y004309D01*
X007905Y004306D01*
X007882Y004296D01*
X007863Y004282D01*
X007856Y004283D01*
X007850Y004285D01*
Y004375D01*
X007856Y004377D01*
X007863Y004379D01*
X007882Y004364D01*
X007905Y004355D01*
X007930Y004351D01*
X007954Y004355D01*
X007977Y004364D01*
X007997Y004379D01*
X008013Y004399D01*
X008022Y004422D01*
X008025Y004447D01*
Y004467D01*
X008022Y004492D01*
X008013Y004515D01*
X007997Y004535D01*
X007977Y004550D01*
X007954Y004560D01*
X007930Y004563D01*
X007905Y004560D01*
X007882Y004550D01*
X007863Y004536D01*
X007856Y004537D01*
X007850Y004539D01*
Y004750D01*
X007275D01*
Y005553D01*
X008650D01*
Y004553D01*
D02*
G37*
G36*
X007225Y004750D02*
X006325D01*
X006150Y004575D01*
Y003950D01*
X005370D01*
Y004600D01*
X005625D01*
X005875Y004850D01*
Y005550D01*
X007225D01*
Y004750D01*
D02*
G37*
G36*
X007800Y004050D02*
X007225D01*
Y003125D01*
X005375D01*
Y003707D01*
X005387Y003708D01*
X005395Y003678D01*
X005410Y003652D01*
X005432Y003630D01*
X005459Y003615D01*
X005488Y003607D01*
X005519D01*
X005548Y003615D01*
X005575Y003630D01*
X005596Y003652D01*
X005612Y003678D01*
X005620Y003708D01*
Y003738D01*
X005612Y003768D01*
X005596Y003794D01*
X005575Y003816D01*
X005548Y003831D01*
X005519Y003839D01*
X005488D01*
X005459Y003831D01*
X005432Y003816D01*
X005410Y003794D01*
X005395Y003768D01*
X005387Y003738D01*
X005375Y003739D01*
Y003900D01*
X007000D01*
Y004700D01*
X007800D01*
Y004050D01*
D02*
G37*
%LPC*%
G36*
X005620Y007270D02*
X005340D01*
Y007181D01*
X005327Y007174D01*
X005308Y007180D01*
X005284D01*
X005262Y007173D01*
X005261Y007173D01*
X005248Y007180D01*
Y007270D01*
X004968D01*
Y006910D01*
X005248D01*
Y006999D01*
X005261Y007006D01*
X005262Y007006D01*
X005284Y007000D01*
X005308D01*
X005327Y007005D01*
X005340Y006998D01*
Y006910D01*
X005620D01*
Y007270D01*
D02*
G37*
G36*
X008211D02*
X007931D01*
Y007163D01*
X007915D01*
X007905Y007168D01*
X007882Y007175D01*
X007858D01*
X007835Y007168D01*
X007826Y007163D01*
X007811D01*
Y007270D01*
X007531D01*
Y006910D01*
X007811D01*
Y007006D01*
X007826D01*
X007835Y007001D01*
X007858Y006995D01*
X007882D01*
X007905Y007001D01*
X007915Y007006D01*
X007931D01*
Y006910D01*
X008211D01*
Y007270D01*
D02*
G37*
G36*
X008564Y007255D02*
X008464D01*
Y007115D01*
X008564D01*
Y007255D01*
D02*
G37*
G36*
X004865D02*
X004765D01*
Y007115D01*
X004865D01*
Y007255D01*
D02*
G37*
G36*
X007428D02*
X007328D01*
Y007115D01*
X007428D01*
Y007255D01*
D02*
G37*
G36*
X007278D02*
X007178D01*
Y007115D01*
X007278D01*
Y007255D01*
D02*
G37*
G36*
X005973D02*
X005873D01*
Y007115D01*
X005973D01*
Y007255D01*
D02*
G37*
G36*
X005823D02*
X005723D01*
Y007115D01*
X005823D01*
Y007255D01*
D02*
G37*
G36*
X004715D02*
X004615D01*
Y007115D01*
X004715D01*
Y007255D01*
D02*
G37*
G36*
X008414D02*
X008314D01*
Y007115D01*
X008414D01*
Y007255D01*
D02*
G37*
G36*
X008564Y007065D02*
X008464D01*
Y006925D01*
X008564D01*
Y007065D01*
D02*
G37*
G36*
X008414D02*
X008314D01*
Y006925D01*
X008414D01*
Y007065D01*
D02*
G37*
G36*
X007428D02*
X007328D01*
Y006925D01*
X007428D01*
Y007065D01*
D02*
G37*
G36*
X007278D02*
X007178D01*
Y006925D01*
X007278D01*
Y007065D01*
D02*
G37*
G36*
X005973D02*
X005873D01*
Y006925D01*
X005973D01*
Y007065D01*
D02*
G37*
G36*
X005823D02*
X005723D01*
Y006925D01*
X005823D01*
Y007065D01*
D02*
G37*
G36*
X004865D02*
X004765D01*
Y006925D01*
X004865D01*
Y007065D01*
D02*
G37*
G36*
X004715D02*
X004615D01*
Y006925D01*
X004715D01*
Y007065D01*
D02*
G37*
G36*
X007045Y006901D02*
Y006843D01*
X007104D01*
X007100Y006856D01*
X007090Y006874D01*
X007076Y006888D01*
X007059Y006897D01*
X007045Y006901D01*
D02*
G37*
G36*
X007015D02*
X007001Y006897D01*
X006984Y006888D01*
X006970Y006874D01*
X006960Y006856D01*
X006956Y006843D01*
X007015D01*
Y006901D01*
D02*
G37*
G36*
X006167D02*
Y006843D01*
X006226D01*
X006222Y006856D01*
X006213Y006874D01*
X006199Y006888D01*
X006181Y006897D01*
X006167Y006901D01*
D02*
G37*
G36*
X006138D02*
X006124Y006897D01*
X006106Y006888D01*
X006092Y006874D01*
X006083Y006856D01*
X006079Y006843D01*
X006138D01*
Y006901D01*
D02*
G37*
G36*
X008454Y006889D02*
Y006830D01*
X008513D01*
X008509Y006844D01*
X008499Y006861D01*
X008485Y006875D01*
X008468Y006885D01*
X008454Y006889D01*
D02*
G37*
G36*
X008424D02*
X008410Y006885D01*
X008393Y006875D01*
X008379Y006861D01*
X008369Y006844D01*
X008365Y006830D01*
X008424D01*
Y006889D01*
D02*
G37*
G36*
X004759D02*
Y006830D01*
X004817D01*
X004814Y006844D01*
X004804Y006861D01*
X004790Y006875D01*
X004773Y006885D01*
X004759Y006889D01*
D02*
G37*
G36*
X004729D02*
X004715Y006885D01*
X004698Y006875D01*
X004684Y006861D01*
X004674Y006844D01*
X004670Y006830D01*
X004729D01*
Y006889D01*
D02*
G37*
G36*
X007104Y006812D02*
X007045D01*
Y006754D01*
X007059Y006758D01*
X007076Y006767D01*
X007090Y006781D01*
X007100Y006799D01*
X007104Y006812D01*
D02*
G37*
G36*
X007015D02*
X006956D01*
X006960Y006799D01*
X006970Y006781D01*
X006984Y006767D01*
X007001Y006758D01*
X007015Y006754D01*
Y006812D01*
D02*
G37*
G36*
X006226D02*
X006167D01*
Y006754D01*
X006181Y006758D01*
X006199Y006767D01*
X006213Y006781D01*
X006222Y006799D01*
X006226Y006812D01*
D02*
G37*
G36*
X006138D02*
X006079D01*
X006083Y006799D01*
X006092Y006781D01*
X006106Y006767D01*
X006124Y006758D01*
X006138Y006754D01*
Y006812D01*
D02*
G37*
G36*
X008513Y006800D02*
X008454D01*
Y006742D01*
X008468Y006745D01*
X008485Y006755D01*
X008499Y006769D01*
X008509Y006786D01*
X008513Y006800D01*
D02*
G37*
G36*
X008424D02*
X008365D01*
X008369Y006786D01*
X008379Y006769D01*
X008393Y006755D01*
X008410Y006745D01*
X008424Y006742D01*
Y006800D01*
D02*
G37*
G36*
X004817D02*
X004759D01*
Y006742D01*
X004773Y006745D01*
X004790Y006755D01*
X004804Y006769D01*
X004814Y006786D01*
X004817Y006800D01*
D02*
G37*
G36*
X004729D02*
X004670D01*
X004674Y006786D01*
X004684Y006769D01*
X004698Y006755D01*
X004715Y006745D01*
X004729Y006742D01*
Y006800D01*
D02*
G37*
G36*
X010290Y005649D02*
X010150D01*
Y005549D01*
X010290D01*
Y005649D01*
D02*
G37*
G36*
X010100D02*
X009960D01*
Y005549D01*
X010100D01*
Y005649D01*
D02*
G37*
G36*
X010708Y005720D02*
X010528D01*
Y005540D01*
X010708D01*
Y005720D01*
D02*
G37*
G36*
X010430D02*
X010406D01*
X010383Y005714D01*
X010363Y005702D01*
X010346Y005686D01*
X010334Y005665D01*
X010328Y005642D01*
Y005619D01*
X010334Y005596D01*
X010346Y005575D01*
X010363Y005558D01*
X010383Y005547D01*
X010406Y005540D01*
X010430D01*
X010453Y005547D01*
X010473Y005558D01*
X010490Y005575D01*
X010502Y005596D01*
X010508Y005619D01*
Y005642D01*
X010502Y005665D01*
X010490Y005686D01*
X010473Y005702D01*
X010453Y005714D01*
X010430Y005720D01*
D02*
G37*
G36*
X010290Y005499D02*
X010150D01*
Y005399D01*
X010290D01*
Y005499D01*
D02*
G37*
G36*
X010100D02*
X009960D01*
Y005399D01*
X010100D01*
Y005499D01*
D02*
G37*
G36*
X010630Y005520D02*
X010606D01*
X010583Y005514D01*
X010563Y005502D01*
X010546Y005486D01*
X010534Y005465D01*
X010528Y005442D01*
Y005419D01*
X010534Y005396D01*
X010546Y005375D01*
X010563Y005358D01*
X010583Y005347D01*
X010606Y005340D01*
X010630D01*
X010653Y005347D01*
X010673Y005358D01*
X010690Y005375D01*
X010702Y005396D01*
X010708Y005419D01*
Y005442D01*
X010702Y005465D01*
X010690Y005486D01*
X010673Y005502D01*
X010653Y005514D01*
X010630Y005520D01*
D02*
G37*
G36*
X010430D02*
X010406D01*
X010383Y005514D01*
X010363Y005502D01*
X010346Y005486D01*
X010334Y005465D01*
X010328Y005442D01*
Y005419D01*
X010334Y005396D01*
X010346Y005375D01*
X010363Y005358D01*
X010383Y005347D01*
X010406Y005340D01*
X010430D01*
X010453Y005347D01*
X010473Y005358D01*
X010490Y005375D01*
X010502Y005396D01*
X010508Y005419D01*
Y005442D01*
X010502Y005465D01*
X010490Y005486D01*
X010473Y005502D01*
X010453Y005514D01*
X010430Y005520D01*
D02*
G37*
G36*
X010633Y005304D02*
Y005245D01*
X010691D01*
X010688Y005259D01*
X010678Y005276D01*
X010664Y005290D01*
X010647Y005300D01*
X010633Y005304D01*
D02*
G37*
G36*
X010433D02*
Y005245D01*
X010491D01*
X010488Y005259D01*
X010478Y005276D01*
X010464Y005290D01*
X010447Y005300D01*
X010433Y005304D01*
D02*
G37*
G36*
X010603D02*
X010589Y005300D01*
X010572Y005290D01*
X010558Y005276D01*
X010548Y005259D01*
X010544Y005245D01*
X010603D01*
Y005304D01*
D02*
G37*
G36*
X010403D02*
X010389Y005300D01*
X010372Y005290D01*
X010358Y005276D01*
X010348Y005259D01*
X010344Y005245D01*
X010403D01*
Y005304D01*
D02*
G37*
G36*
X005519Y005045D02*
X005488D01*
X005459Y005037D01*
X005432Y005022D01*
X005410Y005000D01*
X005395Y004974D01*
X005387Y004944D01*
Y004914D01*
X005395Y004884D01*
X005410Y004858D01*
X005432Y004836D01*
X005459Y004821D01*
X005488Y004813D01*
X005519D01*
X005548Y004821D01*
X005575Y004836D01*
X005596Y004858D01*
X005612Y004884D01*
X005620Y004914D01*
Y004944D01*
X005612Y004974D01*
X005596Y005000D01*
X005575Y005022D01*
X005548Y005037D01*
X005519Y005045D01*
D02*
G37*
G36*
X004982Y004563D02*
X004958Y004560D01*
X004935Y004550D01*
X004915Y004535D01*
X004899Y004515D01*
X004890Y004492D01*
X004887Y004467D01*
Y004447D01*
X004890Y004422D01*
X004899Y004399D01*
X004915Y004379D01*
X004935Y004364D01*
X004958Y004355D01*
X004982Y004351D01*
X005007Y004355D01*
X005030Y004364D01*
X005050Y004379D01*
X005065Y004399D01*
X005075Y004422D01*
X005078Y004447D01*
Y004467D01*
X005075Y004492D01*
X005065Y004515D01*
X005050Y004535D01*
X005030Y004550D01*
X005007Y004560D01*
X004982Y004563D01*
D02*
G37*
G36*
X004728D02*
X004704Y004560D01*
X004681Y004550D01*
X004661Y004535D01*
X004645Y004515D01*
X004636Y004492D01*
X004633Y004467D01*
Y004447D01*
X004636Y004422D01*
X004645Y004399D01*
X004661Y004379D01*
X004681Y004364D01*
X004704Y004355D01*
X004728Y004351D01*
X004753Y004355D01*
X004776Y004364D01*
X004796Y004379D01*
X004811Y004399D01*
X004821Y004422D01*
X004824Y004447D01*
Y004467D01*
X004821Y004492D01*
X004811Y004515D01*
X004796Y004535D01*
X004776Y004550D01*
X004753Y004560D01*
X004728Y004563D01*
D02*
G37*
G36*
X004474D02*
X004450Y004560D01*
X004427Y004550D01*
X004407Y004535D01*
X004391Y004515D01*
X004382Y004492D01*
X004379Y004467D01*
Y004447D01*
X004382Y004422D01*
X004391Y004399D01*
X004407Y004379D01*
X004427Y004364D01*
X004450Y004355D01*
X004474Y004351D01*
X004499Y004355D01*
X004522Y004364D01*
X004542Y004379D01*
X004557Y004399D01*
X004567Y004422D01*
X004570Y004447D01*
Y004467D01*
X004567Y004492D01*
X004557Y004515D01*
X004542Y004535D01*
X004522Y004550D01*
X004499Y004560D01*
X004474Y004563D01*
D02*
G37*
G36*
X004220D02*
X004196Y004560D01*
X004173Y004550D01*
X004153Y004535D01*
X004137Y004515D01*
X004128Y004492D01*
X004125Y004467D01*
Y004447D01*
X004128Y004422D01*
X004137Y004399D01*
X004153Y004379D01*
X004173Y004364D01*
X004196Y004355D01*
X004220Y004351D01*
X004245Y004355D01*
X004268Y004364D01*
X004288Y004379D01*
X004303Y004399D01*
X004313Y004422D01*
X004316Y004447D01*
Y004467D01*
X004313Y004492D01*
X004303Y004515D01*
X004288Y004535D01*
X004268Y004550D01*
X004245Y004560D01*
X004220Y004563D01*
D02*
G37*
G36*
X003966D02*
X003942Y004560D01*
X003919Y004550D01*
X003899Y004535D01*
X003883Y004515D01*
X003874Y004492D01*
X003871Y004467D01*
Y004447D01*
X003874Y004422D01*
X003883Y004399D01*
X003899Y004379D01*
X003919Y004364D01*
X003942Y004355D01*
X003966Y004351D01*
X003991Y004355D01*
X004014Y004364D01*
X004034Y004379D01*
X004049Y004399D01*
X004059Y004422D01*
X004062Y004447D01*
Y004467D01*
X004059Y004492D01*
X004049Y004515D01*
X004034Y004535D01*
X004014Y004550D01*
X003991Y004560D01*
X003966Y004563D01*
D02*
G37*
G36*
X003712D02*
X003688Y004560D01*
X003665Y004550D01*
X003645Y004535D01*
X003629Y004515D01*
X003620Y004492D01*
X003617Y004467D01*
Y004447D01*
X003620Y004422D01*
X003629Y004399D01*
X003645Y004379D01*
X003665Y004364D01*
X003688Y004355D01*
X003712Y004351D01*
X003737Y004355D01*
X003760Y004364D01*
X003780Y004379D01*
X003795Y004399D01*
X003805Y004422D01*
X003808Y004447D01*
Y004467D01*
X003805Y004492D01*
X003795Y004515D01*
X003780Y004535D01*
X003760Y004550D01*
X003737Y004560D01*
X003712Y004563D01*
D02*
G37*
G36*
X003458D02*
X003434Y004560D01*
X003411Y004550D01*
X003391Y004535D01*
X003375Y004515D01*
X003366Y004492D01*
X003363Y004467D01*
Y004447D01*
X003366Y004422D01*
X003375Y004399D01*
X003391Y004379D01*
X003411Y004364D01*
X003434Y004355D01*
X003458Y004351D01*
X003483Y004355D01*
X003506Y004364D01*
X003526Y004379D01*
X003541Y004399D01*
X003551Y004422D01*
X003554Y004447D01*
Y004467D01*
X003551Y004492D01*
X003541Y004515D01*
X003526Y004535D01*
X003506Y004550D01*
X003483Y004560D01*
X003458Y004563D01*
D02*
G37*
G36*
X004982Y004309D02*
X004958Y004306D01*
X004935Y004296D01*
X004915Y004281D01*
X004899Y004261D01*
X004890Y004238D01*
X004887Y004213D01*
Y004193D01*
X004890Y004168D01*
X004899Y004145D01*
X004915Y004125D01*
X004935Y004110D01*
X004958Y004101D01*
X004982Y004097D01*
X005007Y004101D01*
X005030Y004110D01*
X005050Y004125D01*
X005065Y004145D01*
X005075Y004168D01*
X005078Y004193D01*
Y004213D01*
X005075Y004238D01*
X005065Y004261D01*
X005050Y004281D01*
X005030Y004296D01*
X005007Y004306D01*
X004982Y004309D01*
D02*
G37*
G36*
X004728D02*
X004704Y004306D01*
X004681Y004296D01*
X004661Y004281D01*
X004645Y004261D01*
X004636Y004238D01*
X004633Y004213D01*
Y004193D01*
X004636Y004168D01*
X004645Y004145D01*
X004661Y004125D01*
X004681Y004110D01*
X004704Y004101D01*
X004728Y004097D01*
X004753Y004101D01*
X004776Y004110D01*
X004796Y004125D01*
X004811Y004145D01*
X004821Y004168D01*
X004824Y004193D01*
Y004213D01*
X004821Y004238D01*
X004811Y004261D01*
X004796Y004281D01*
X004776Y004296D01*
X004753Y004306D01*
X004728Y004309D01*
D02*
G37*
G36*
X004474D02*
X004450Y004306D01*
X004427Y004296D01*
X004407Y004281D01*
X004391Y004261D01*
X004382Y004238D01*
X004379Y004213D01*
Y004193D01*
X004382Y004168D01*
X004391Y004145D01*
X004407Y004125D01*
X004427Y004110D01*
X004450Y004101D01*
X004474Y004097D01*
X004499Y004101D01*
X004522Y004110D01*
X004542Y004125D01*
X004557Y004145D01*
X004567Y004168D01*
X004570Y004193D01*
Y004213D01*
X004567Y004238D01*
X004557Y004261D01*
X004542Y004281D01*
X004522Y004296D01*
X004499Y004306D01*
X004474Y004309D01*
D02*
G37*
G36*
X004220D02*
X004196Y004306D01*
X004173Y004296D01*
X004153Y004281D01*
X004137Y004261D01*
X004128Y004238D01*
X004125Y004213D01*
Y004193D01*
X004128Y004168D01*
X004137Y004145D01*
X004153Y004125D01*
X004173Y004110D01*
X004196Y004101D01*
X004220Y004097D01*
X004245Y004101D01*
X004268Y004110D01*
X004288Y004125D01*
X004303Y004145D01*
X004313Y004168D01*
X004316Y004193D01*
Y004213D01*
X004313Y004238D01*
X004303Y004261D01*
X004288Y004281D01*
X004268Y004296D01*
X004245Y004306D01*
X004220Y004309D01*
D02*
G37*
G36*
X003966D02*
X003942Y004306D01*
X003919Y004296D01*
X003899Y004281D01*
X003883Y004261D01*
X003874Y004238D01*
X003871Y004213D01*
Y004193D01*
X003874Y004168D01*
X003883Y004145D01*
X003899Y004125D01*
X003919Y004110D01*
X003942Y004101D01*
X003966Y004097D01*
X003991Y004101D01*
X004014Y004110D01*
X004034Y004125D01*
X004049Y004145D01*
X004059Y004168D01*
X004062Y004193D01*
Y004213D01*
X004059Y004238D01*
X004049Y004261D01*
X004034Y004281D01*
X004014Y004296D01*
X003991Y004306D01*
X003966Y004309D01*
D02*
G37*
G36*
X003712D02*
X003688Y004306D01*
X003665Y004296D01*
X003645Y004281D01*
X003629Y004261D01*
X003620Y004238D01*
X003617Y004213D01*
Y004193D01*
X003620Y004168D01*
X003629Y004145D01*
X003645Y004125D01*
X003665Y004110D01*
X003688Y004101D01*
X003712Y004097D01*
X003737Y004101D01*
X003760Y004110D01*
X003780Y004125D01*
X003795Y004145D01*
X003805Y004168D01*
X003808Y004193D01*
Y004213D01*
X003805Y004238D01*
X003795Y004261D01*
X003780Y004281D01*
X003760Y004296D01*
X003737Y004306D01*
X003712Y004309D01*
D02*
G37*
G36*
X003458D02*
X003434Y004306D01*
X003411Y004296D01*
X003391Y004281D01*
X003375Y004261D01*
X003366Y004238D01*
X003363Y004213D01*
Y004193D01*
X003366Y004168D01*
X003375Y004145D01*
X003391Y004125D01*
X003411Y004110D01*
X003434Y004101D01*
X003458Y004097D01*
X003483Y004101D01*
X003506Y004110D01*
X003526Y004125D01*
X003541Y004145D01*
X003551Y004168D01*
X003554Y004193D01*
Y004213D01*
X003551Y004238D01*
X003541Y004261D01*
X003526Y004281D01*
X003506Y004296D01*
X003483Y004306D01*
X003458Y004309D01*
D02*
G37*
G36*
X004237Y003915D02*
X004213D01*
X004190Y003908D01*
X004170Y003897D01*
X004153Y003880D01*
X004141Y003859D01*
X004135Y003836D01*
Y003813D01*
X004141Y003790D01*
X004153Y003769D01*
X004170Y003753D01*
X004190Y003741D01*
X004213Y003735D01*
X004237D01*
X004260Y003741D01*
X004280Y003753D01*
X004297Y003769D01*
X004309Y003790D01*
X004315Y003813D01*
Y003836D01*
X004309Y003859D01*
X004297Y003880D01*
X004280Y003897D01*
X004260Y003908D01*
X004237Y003915D01*
D02*
G37*
G36*
X004757Y003839D02*
X004726D01*
X004697Y003831D01*
X004670Y003816D01*
X004648Y003794D01*
X004633Y003768D01*
X004625Y003738D01*
Y003708D01*
X004633Y003678D01*
X004648Y003652D01*
X004670Y003630D01*
X004697Y003615D01*
X004726Y003607D01*
X004757D01*
X004786Y003615D01*
X004813Y003630D01*
X004834Y003652D01*
X004850Y003678D01*
X004858Y003708D01*
Y003738D01*
X004850Y003768D01*
X004834Y003794D01*
X004813Y003816D01*
X004786Y003831D01*
X004757Y003839D01*
D02*
G37*
G36*
X003741D02*
X003710D01*
X003681Y003831D01*
X003654Y003816D01*
X003632Y003794D01*
X003617Y003768D01*
X003609Y003738D01*
Y003708D01*
X003617Y003678D01*
X003632Y003652D01*
X003654Y003630D01*
X003681Y003615D01*
X003710Y003607D01*
X003741D01*
X003770Y003615D01*
X003797Y003630D01*
X003818Y003652D01*
X003834Y003678D01*
X003842Y003708D01*
Y003738D01*
X003834Y003768D01*
X003818Y003794D01*
X003797Y003816D01*
X003770Y003831D01*
X003741Y003839D01*
D02*
G37*
G36*
X005095Y002545D02*
X005071D01*
X005048Y002539D01*
X005028Y002527D01*
X005011Y002510D01*
X004999Y002490D01*
X004993Y002467D01*
Y002443D01*
X004999Y002420D01*
X005011Y002400D01*
X005028Y002383D01*
X005048Y002371D01*
X005071Y002365D01*
X005095D01*
X005118Y002371D01*
X005138Y002383D01*
X005155Y002400D01*
X005167Y002420D01*
X005173Y002443D01*
Y002467D01*
X005167Y002490D01*
X005155Y002510D01*
X005138Y002527D01*
X005118Y002539D01*
X005095Y002545D01*
D02*
G37*
G36*
X004502Y002300D02*
Y002214D01*
X004588D01*
X004582Y002238D01*
X004568Y002261D01*
X004550Y002280D01*
X004527Y002293D01*
X004502Y002300D01*
D02*
G37*
G36*
X004472Y002300D02*
X004448Y002293D01*
X004425Y002280D01*
X004406Y002261D01*
X004393Y002238D01*
X004387Y002214D01*
X004472D01*
Y002300D01*
D02*
G37*
G36*
Y002184D02*
X004387D01*
X004393Y002160D01*
X004406Y002137D01*
X004425Y002118D01*
X004448Y002105D01*
X004472Y002098D01*
Y002184D01*
D02*
G37*
G36*
X004588D02*
X004502D01*
Y002098D01*
X004527Y002105D01*
X004550Y002118D01*
X004568Y002137D01*
X004582Y002160D01*
X004588Y002184D01*
D02*
G37*
G36*
X010691Y005015D02*
X010633D01*
Y004957D01*
X010647Y004961D01*
X010664Y004970D01*
X010678Y004984D01*
X010688Y005001D01*
X010691Y005015D01*
D02*
G37*
G36*
X010491D02*
X010433D01*
Y004957D01*
X010447Y004961D01*
X010464Y004970D01*
X010478Y004984D01*
X010488Y005001D01*
X010491Y005015D01*
D02*
G37*
G36*
X010603D02*
X010544D01*
X010548Y005001D01*
X010558Y004984D01*
X010572Y004970D01*
X010589Y004961D01*
X010603Y004957D01*
Y005015D01*
D02*
G37*
G36*
X010403D02*
X010344D01*
X010348Y005001D01*
X010358Y004984D01*
X010372Y004970D01*
X010389Y004961D01*
X010403Y004957D01*
Y005015D01*
D02*
G37*
G36*
X010290Y005003D02*
X010150D01*
Y004903D01*
X010290D01*
Y005003D01*
D02*
G37*
G36*
X010100D02*
X009960D01*
Y004903D01*
X010100D01*
Y005003D01*
D02*
G37*
G36*
X008987Y005004D02*
X008963D01*
X008940Y004998D01*
X008920Y004986D01*
X008903Y004969D01*
X008891Y004948D01*
X008885Y004926D01*
Y004902D01*
X008891Y004879D01*
X008903Y004858D01*
X008920Y004842D01*
X008940Y004830D01*
X008963Y004824D01*
X008987D01*
X009010Y004830D01*
X009030Y004842D01*
X009047Y004858D01*
X009059Y004879D01*
X009065Y004902D01*
Y004926D01*
X009059Y004948D01*
X009047Y004969D01*
X009030Y004986D01*
X009010Y004998D01*
X008987Y005004D01*
D02*
G37*
G36*
X009443Y005030D02*
X009413D01*
X009383Y005022D01*
X009357Y005007D01*
X009335Y004985D01*
X009320Y004959D01*
X009312Y004929D01*
Y004898D01*
X009320Y004869D01*
X009335Y004842D01*
X009357Y004821D01*
X009383Y004805D01*
X009413Y004798D01*
X009443D01*
X009473Y004805D01*
X009499Y004821D01*
X009521Y004842D01*
X009536Y004869D01*
X009544Y004898D01*
Y004929D01*
X009536Y004959D01*
X009521Y004985D01*
X009499Y005007D01*
X009473Y005022D01*
X009443Y005030D01*
D02*
G37*
G36*
X009708Y004563D02*
X009683Y004560D01*
X009660Y004550D01*
X009640Y004535D01*
X009625Y004515D01*
X009615Y004492D01*
X009612Y004467D01*
Y004447D01*
X009615Y004422D01*
X009625Y004399D01*
X009640Y004379D01*
X009660Y004364D01*
X009683Y004355D01*
X009708Y004351D01*
X009732Y004355D01*
X009755Y004364D01*
X009775Y004379D01*
X009791Y004399D01*
X009800Y004422D01*
X009803Y004447D01*
Y004467D01*
X009800Y004492D01*
X009791Y004515D01*
X009775Y004535D01*
X009755Y004550D01*
X009732Y004560D01*
X009708Y004563D01*
D02*
G37*
G36*
X009454D02*
X009429Y004560D01*
X009406Y004550D01*
X009386Y004535D01*
X009371Y004515D01*
X009361Y004492D01*
X009358Y004467D01*
Y004447D01*
X009361Y004422D01*
X009371Y004399D01*
X009386Y004379D01*
X009406Y004364D01*
X009429Y004355D01*
X009454Y004351D01*
X009478Y004355D01*
X009501Y004364D01*
X009521Y004379D01*
X009537Y004399D01*
X009546Y004422D01*
X009549Y004447D01*
Y004467D01*
X009546Y004492D01*
X009537Y004515D01*
X009521Y004535D01*
X009501Y004550D01*
X009478Y004560D01*
X009454Y004563D01*
D02*
G37*
G36*
X009200D02*
X009175Y004560D01*
X009152Y004550D01*
X009132Y004535D01*
X009117Y004515D01*
X009107Y004492D01*
X009104Y004467D01*
Y004447D01*
X009107Y004422D01*
X009117Y004399D01*
X009132Y004379D01*
X009152Y004364D01*
X009175Y004355D01*
X009200Y004351D01*
X009224Y004355D01*
X009247Y004364D01*
X009267Y004379D01*
X009283Y004399D01*
X009292Y004422D01*
X009295Y004447D01*
Y004467D01*
X009292Y004492D01*
X009283Y004515D01*
X009267Y004535D01*
X009247Y004550D01*
X009224Y004560D01*
X009200Y004563D01*
D02*
G37*
G36*
X008946D02*
X008921Y004560D01*
X008898Y004550D01*
X008878Y004535D01*
X008863Y004515D01*
X008853Y004492D01*
X008850Y004467D01*
Y004447D01*
X008853Y004422D01*
X008863Y004399D01*
X008878Y004379D01*
X008898Y004364D01*
X008921Y004355D01*
X008946Y004351D01*
X008970Y004355D01*
X008993Y004364D01*
X009013Y004379D01*
X009029Y004399D01*
X009038Y004422D01*
X009041Y004447D01*
Y004467D01*
X009038Y004492D01*
X009029Y004515D01*
X009013Y004535D01*
X008993Y004550D01*
X008970Y004560D01*
X008946Y004563D01*
D02*
G37*
G36*
X009708Y004309D02*
X009683Y004306D01*
X009660Y004296D01*
X009640Y004281D01*
X009625Y004261D01*
X009615Y004238D01*
X009612Y004213D01*
Y004193D01*
X009615Y004168D01*
X009625Y004145D01*
X009640Y004125D01*
X009660Y004110D01*
X009683Y004101D01*
X009708Y004097D01*
X009732Y004101D01*
X009755Y004110D01*
X009775Y004125D01*
X009791Y004145D01*
X009800Y004168D01*
X009803Y004193D01*
Y004213D01*
X009800Y004238D01*
X009791Y004261D01*
X009775Y004281D01*
X009755Y004296D01*
X009732Y004306D01*
X009708Y004309D01*
D02*
G37*
G36*
X009454D02*
X009429Y004306D01*
X009406Y004296D01*
X009386Y004281D01*
X009371Y004261D01*
X009361Y004238D01*
X009358Y004213D01*
Y004193D01*
X009361Y004168D01*
X009371Y004145D01*
X009386Y004125D01*
X009406Y004110D01*
X009429Y004101D01*
X009454Y004097D01*
X009478Y004101D01*
X009501Y004110D01*
X009521Y004125D01*
X009537Y004145D01*
X009546Y004168D01*
X009549Y004193D01*
Y004213D01*
X009546Y004238D01*
X009537Y004261D01*
X009521Y004281D01*
X009501Y004296D01*
X009478Y004306D01*
X009454Y004309D01*
D02*
G37*
G36*
X009200D02*
X009175Y004306D01*
X009152Y004296D01*
X009132Y004281D01*
X009117Y004261D01*
X009107Y004238D01*
X009104Y004213D01*
Y004193D01*
X009107Y004168D01*
X009117Y004145D01*
X009132Y004125D01*
X009152Y004110D01*
X009175Y004101D01*
X009200Y004097D01*
X009224Y004101D01*
X009247Y004110D01*
X009267Y004125D01*
X009283Y004145D01*
X009292Y004168D01*
X009295Y004193D01*
Y004213D01*
X009292Y004238D01*
X009283Y004261D01*
X009267Y004281D01*
X009247Y004296D01*
X009224Y004306D01*
X009200Y004309D01*
D02*
G37*
G36*
X008946D02*
X008921Y004306D01*
X008898Y004296D01*
X008878Y004281D01*
X008863Y004261D01*
X008853Y004238D01*
X008850Y004213D01*
Y004193D01*
X008853Y004168D01*
X008863Y004145D01*
X008878Y004125D01*
X008898Y004110D01*
X008921Y004101D01*
X008946Y004097D01*
X008970Y004101D01*
X008993Y004110D01*
X009013Y004125D01*
X009029Y004145D01*
X009038Y004168D01*
X009041Y004193D01*
Y004213D01*
X009038Y004238D01*
X009029Y004261D01*
X009013Y004281D01*
X008993Y004296D01*
X008970Y004306D01*
X008946Y004309D01*
D02*
G37*
G36*
X009052Y003915D02*
X009028D01*
X009005Y003908D01*
X008985Y003897D01*
X008968Y003880D01*
X008956Y003859D01*
X008950Y003836D01*
Y003813D01*
X008956Y003790D01*
X008968Y003769D01*
X008985Y003753D01*
X009005Y003741D01*
X009028Y003735D01*
X009052D01*
X009075Y003741D01*
X009095Y003753D01*
X009112Y003769D01*
X009124Y003790D01*
X009130Y003813D01*
Y003836D01*
X009124Y003859D01*
X009112Y003880D01*
X009095Y003897D01*
X009075Y003908D01*
X009052Y003915D01*
D02*
G37*
G36*
X009443Y003839D02*
X009413D01*
X009383Y003831D01*
X009357Y003816D01*
X009335Y003794D01*
X009320Y003768D01*
X009312Y003738D01*
Y003708D01*
X009320Y003678D01*
X009335Y003652D01*
X009357Y003630D01*
X009383Y003615D01*
X009413Y003607D01*
X009443D01*
X009473Y003615D01*
X009499Y003630D01*
X009521Y003652D01*
X009536Y003678D01*
X009544Y003708D01*
Y003738D01*
X009536Y003768D01*
X009521Y003794D01*
X009499Y003816D01*
X009473Y003831D01*
X009443Y003839D01*
D02*
G37*
G36*
X008427Y002300D02*
Y002214D01*
X008513D01*
X008506Y002238D01*
X008493Y002261D01*
X008474Y002280D01*
X008451Y002293D01*
X008427Y002300D01*
D02*
G37*
G36*
X008397D02*
X008373Y002293D01*
X008350Y002280D01*
X008331Y002261D01*
X008318Y002238D01*
X008311Y002214D01*
X008397D01*
Y002300D01*
D02*
G37*
G36*
X006334Y006605D02*
X006204D01*
Y006445D01*
X006334D01*
Y006605D01*
D02*
G37*
G36*
X006154D02*
X006024D01*
Y006445D01*
X006154D01*
Y006605D01*
D02*
G37*
G36*
X005519Y006569D02*
X005488D01*
X005459Y006561D01*
X005432Y006546D01*
X005410Y006524D01*
X005395Y006498D01*
X005387Y006468D01*
Y006438D01*
X005395Y006408D01*
X005410Y006382D01*
X005432Y006360D01*
X005459Y006345D01*
X005488Y006337D01*
X005519D01*
X005548Y006345D01*
X005575Y006360D01*
X005596Y006382D01*
X005612Y006408D01*
X005620Y006438D01*
Y006468D01*
X005612Y006498D01*
X005596Y006524D01*
X005575Y006546D01*
X005548Y006561D01*
X005519Y006569D01*
D02*
G37*
G36*
X004757D02*
X004726D01*
X004697Y006561D01*
X004670Y006546D01*
X004648Y006524D01*
X004633Y006498D01*
X004625Y006468D01*
Y006438D01*
X004633Y006408D01*
X004648Y006382D01*
X004670Y006360D01*
X004697Y006345D01*
X004726Y006337D01*
X004757D01*
X004786Y006345D01*
X004813Y006360D01*
X004834Y006382D01*
X004850Y006408D01*
X004858Y006438D01*
Y006468D01*
X004850Y006498D01*
X004834Y006524D01*
X004813Y006546D01*
X004786Y006561D01*
X004757Y006569D01*
D02*
G37*
G36*
X003741D02*
X003710D01*
X003681Y006561D01*
X003654Y006546D01*
X003632Y006524D01*
X003617Y006498D01*
X003609Y006468D01*
Y006438D01*
X003617Y006408D01*
X003632Y006382D01*
X003654Y006360D01*
X003681Y006345D01*
X003710Y006337D01*
X003741D01*
X003770Y006345D01*
X003797Y006360D01*
X003818Y006382D01*
X003834Y006408D01*
X003842Y006438D01*
Y006468D01*
X003834Y006498D01*
X003818Y006524D01*
X003797Y006546D01*
X003770Y006561D01*
X003741Y006569D01*
D02*
G37*
G36*
X006334Y006395D02*
X006204D01*
Y006235D01*
X006334D01*
Y006395D01*
D02*
G37*
G36*
X006154D02*
X006024D01*
Y006235D01*
X006154D01*
Y006395D01*
D02*
G37*
G36*
X004082Y006340D02*
X004058D01*
X004035Y006334D01*
X004015Y006322D01*
X003998Y006305D01*
X003986Y006285D01*
X003980Y006262D01*
Y006238D01*
X003986Y006215D01*
X003998Y006195D01*
X004015Y006178D01*
X004035Y006166D01*
X004058Y006160D01*
X004082D01*
X004105Y006166D01*
X004125Y006178D01*
X004142Y006195D01*
X004154Y006215D01*
X004160Y006238D01*
Y006262D01*
X004154Y006285D01*
X004142Y006305D01*
X004125Y006322D01*
X004105Y006334D01*
X004082Y006340D01*
D02*
G37*
G36*
X004860Y005208D02*
X004836D01*
X004813Y005202D01*
X004793Y005190D01*
X004776Y005173D01*
X004764Y005153D01*
X004758Y005130D01*
Y005106D01*
X004764Y005083D01*
X004776Y005063D01*
X004793Y005046D01*
X004813Y005034D01*
X004836Y005028D01*
X004860D01*
X004883Y005034D01*
X004903Y005046D01*
X004920Y005063D01*
X004932Y005083D01*
X004938Y005106D01*
Y005130D01*
X004932Y005153D01*
X004920Y005173D01*
X004903Y005190D01*
X004883Y005202D01*
X004860Y005208D01*
D02*
G37*
G36*
X003827Y005030D02*
X003740D01*
Y004944D01*
X003827D01*
Y005030D01*
D02*
G37*
G36*
X003710D02*
X003624D01*
Y004944D01*
X003710D01*
Y005030D01*
D02*
G37*
G36*
X002712Y004288D02*
X002688D01*
X002665Y004281D01*
X002645Y004270D01*
X002628Y004253D01*
X002616Y004232D01*
X002610Y004209D01*
Y004186D01*
X002616Y004163D01*
X002628Y004142D01*
X002634Y004136D01*
Y004030D01*
X002535D01*
Y003720D01*
X002865D01*
Y004030D01*
X002766D01*
Y004136D01*
X002772Y004142D01*
X002784Y004163D01*
X002790Y004186D01*
Y004209D01*
X002784Y004232D01*
X002772Y004253D01*
X002755Y004270D01*
X002735Y004281D01*
X002712Y004288D01*
D02*
G37*
G36*
X002850Y003445D02*
X002725D01*
Y003330D01*
X002850D01*
Y003445D01*
D02*
G37*
G36*
X002675D02*
X002550D01*
Y003330D01*
X002675D01*
Y003445D01*
D02*
G37*
G36*
X002850Y003280D02*
X002725D01*
Y003165D01*
X002850D01*
Y003280D01*
D02*
G37*
G36*
X002675D02*
X002550D01*
Y003165D01*
X002675D01*
Y003280D01*
D02*
G37*
G36*
X003710Y002300D02*
X003624D01*
Y002214D01*
X003710D01*
Y002300D01*
D02*
G37*
G36*
Y002184D02*
X003624D01*
Y002098D01*
X003710D01*
Y002184D01*
D02*
G37*
G36*
X008085Y005208D02*
X008061D01*
X008038Y005202D01*
X008018Y005190D01*
X008001Y005173D01*
X007989Y005153D01*
X007983Y005130D01*
Y005106D01*
X007989Y005083D01*
X008001Y005063D01*
X008018Y005046D01*
X008038Y005034D01*
X008061Y005028D01*
X008085D01*
X008108Y005034D01*
X008128Y005046D01*
X008145Y005063D01*
X008157Y005083D01*
X008163Y005106D01*
Y005130D01*
X008157Y005153D01*
X008145Y005173D01*
X008128Y005190D01*
X008108Y005202D01*
X008085Y005208D01*
D02*
G37*
G36*
X007751Y005015D02*
X007665D01*
Y004929D01*
X007751D01*
Y005015D01*
D02*
G37*
G36*
X007635D02*
X007549D01*
Y004929D01*
X007635D01*
Y005015D01*
D02*
G37*
G36*
X007751Y004899D02*
X007665D01*
Y004813D01*
X007751D01*
Y004899D01*
D02*
G37*
G36*
X007635D02*
X007549D01*
Y004813D01*
X007635D01*
Y004899D01*
D02*
G37*
G36*
X008427Y005030D02*
X008397D01*
X008367Y005022D01*
X008341Y005007D01*
X008319Y004985D01*
X008304Y004959D01*
X008296Y004929D01*
Y004898D01*
X008304Y004869D01*
X008319Y004842D01*
X008341Y004821D01*
X008367Y004805D01*
X008397Y004798D01*
X008427D01*
X008457Y004805D01*
X008483Y004821D01*
X008505Y004842D01*
X008520Y004869D01*
X008528Y004898D01*
Y004929D01*
X008520Y004959D01*
X008505Y004985D01*
X008483Y005007D01*
X008457Y005022D01*
X008427Y005030D01*
D02*
G37*
G36*
X007919D02*
X007889D01*
X007859Y005022D01*
X007833Y005007D01*
X007811Y004985D01*
X007796Y004959D01*
X007788Y004929D01*
Y004898D01*
X007796Y004869D01*
X007811Y004842D01*
X007833Y004821D01*
X007859Y004805D01*
X007889Y004798D01*
X007919D01*
X007949Y004805D01*
X007975Y004821D01*
X007997Y004842D01*
X008012Y004869D01*
X008020Y004898D01*
Y004929D01*
X008012Y004959D01*
X007997Y004985D01*
X007975Y005007D01*
X007949Y005022D01*
X007919Y005030D01*
D02*
G37*
G36*
X008438Y004563D02*
X008413Y004560D01*
X008390Y004550D01*
X008370Y004535D01*
X008355Y004515D01*
X008345Y004492D01*
X008342Y004467D01*
Y004447D01*
X008345Y004422D01*
X008355Y004399D01*
X008370Y004379D01*
X008390Y004364D01*
X008413Y004355D01*
X008438Y004351D01*
X008462Y004355D01*
X008485Y004364D01*
X008505Y004379D01*
X008521Y004399D01*
X008530Y004422D01*
X008533Y004447D01*
Y004467D01*
X008530Y004492D01*
X008521Y004515D01*
X008505Y004535D01*
X008485Y004550D01*
X008462Y004560D01*
X008438Y004563D01*
D02*
G37*
G36*
X008184D02*
X008159Y004560D01*
X008136Y004550D01*
X008116Y004535D01*
X008101Y004515D01*
X008091Y004492D01*
X008088Y004467D01*
Y004447D01*
X008091Y004422D01*
X008101Y004399D01*
X008116Y004379D01*
X008136Y004364D01*
X008159Y004355D01*
X008184Y004351D01*
X008208Y004355D01*
X008231Y004364D01*
X008251Y004379D01*
X008267Y004399D01*
X008276Y004422D01*
X008279Y004447D01*
Y004467D01*
X008276Y004492D01*
X008267Y004515D01*
X008251Y004535D01*
X008231Y004550D01*
X008208Y004560D01*
X008184Y004563D01*
D02*
G37*
G36*
X008438Y004309D02*
X008413Y004306D01*
X008390Y004296D01*
X008370Y004281D01*
X008355Y004261D01*
X008345Y004238D01*
X008342Y004213D01*
Y004193D01*
X008345Y004168D01*
X008355Y004145D01*
X008370Y004125D01*
X008390Y004110D01*
X008413Y004101D01*
X008438Y004097D01*
X008462Y004101D01*
X008485Y004110D01*
X008505Y004125D01*
X008521Y004145D01*
X008530Y004168D01*
X008533Y004193D01*
Y004213D01*
X008530Y004238D01*
X008521Y004261D01*
X008505Y004281D01*
X008485Y004296D01*
X008462Y004306D01*
X008438Y004309D01*
D02*
G37*
G36*
X008184D02*
X008159Y004306D01*
X008136Y004296D01*
X008116Y004281D01*
X008101Y004261D01*
X008091Y004238D01*
X008088Y004213D01*
Y004193D01*
X008091Y004168D01*
X008101Y004145D01*
X008116Y004125D01*
X008136Y004110D01*
X008159Y004101D01*
X008184Y004097D01*
X008208Y004101D01*
X008231Y004110D01*
X008251Y004125D01*
X008267Y004145D01*
X008276Y004168D01*
X008279Y004193D01*
Y004213D01*
X008276Y004238D01*
X008267Y004261D01*
X008251Y004281D01*
X008231Y004296D01*
X008208Y004306D01*
X008184Y004309D01*
D02*
G37*
G36*
X007665Y003839D02*
X007635D01*
X007605Y003831D01*
X007579Y003816D01*
X007557Y003794D01*
X007542Y003768D01*
X007534Y003738D01*
Y003708D01*
X007542Y003678D01*
X007557Y003652D01*
X007579Y003630D01*
X007605Y003615D01*
X007635Y003607D01*
X007665D01*
X007695Y003615D01*
X007721Y003630D01*
X007743Y003652D01*
X007758Y003678D01*
X007766Y003708D01*
Y003738D01*
X007758Y003768D01*
X007743Y003794D01*
X007721Y003816D01*
X007695Y003831D01*
X007665Y003839D01*
D02*
G37*
G36*
X010293Y003245D02*
X010168D01*
Y003130D01*
X010293D01*
Y003245D01*
D02*
G37*
G36*
X010118D02*
X009993D01*
Y003130D01*
X010118D01*
Y003245D01*
D02*
G37*
G36*
X010293Y003080D02*
X010168D01*
Y002965D01*
X010293D01*
Y003080D01*
D02*
G37*
G36*
X010118D02*
X009993D01*
Y002965D01*
X010118D01*
Y003080D01*
D02*
G37*
G36*
X010630Y003120D02*
X010606D01*
X010583Y003114D01*
X010563Y003102D01*
X010546Y003086D01*
X010534Y003065D01*
X010528Y003042D01*
Y003019D01*
X010534Y002996D01*
X010546Y002975D01*
X010563Y002958D01*
X010583Y002947D01*
X010606Y002940D01*
X010630D01*
X010653Y002947D01*
X010673Y002958D01*
X010690Y002975D01*
X010702Y002996D01*
X010708Y003019D01*
Y003042D01*
X010702Y003065D01*
X010690Y003086D01*
X010673Y003102D01*
X010653Y003114D01*
X010630Y003120D01*
D02*
G37*
G36*
X010430D02*
X010406D01*
X010383Y003114D01*
X010363Y003102D01*
X010346Y003086D01*
X010334Y003065D01*
X010328Y003042D01*
Y003019D01*
X010334Y002996D01*
X010346Y002975D01*
X010363Y002958D01*
X010383Y002947D01*
X010406Y002940D01*
X010430D01*
X010453Y002947D01*
X010473Y002958D01*
X010490Y002975D01*
X010502Y002996D01*
X010508Y003019D01*
Y003042D01*
X010502Y003065D01*
X010490Y003086D01*
X010473Y003102D01*
X010453Y003114D01*
X010430Y003120D01*
D02*
G37*
G36*
X010307Y002690D02*
X009978D01*
Y002601D01*
X009854D01*
X009848Y002607D01*
X009827Y002619D01*
X009804Y002625D01*
X009781D01*
X009758Y002619D01*
X009737Y002607D01*
X009720Y002590D01*
X009709Y002570D01*
X009703Y002547D01*
Y002523D01*
X009709Y002500D01*
X009720Y002480D01*
X009737Y002463D01*
X009758Y002451D01*
X009781Y002445D01*
X009804D01*
X009827Y002451D01*
X009848Y002463D01*
X009854Y002469D01*
X009978D01*
Y002380D01*
X010307D01*
Y002690D01*
D02*
G37*
G36*
X007105Y002405D02*
X006975D01*
Y002245D01*
X007105D01*
Y002405D01*
D02*
G37*
G36*
X006925D02*
X006795D01*
Y002245D01*
X006925D01*
Y002405D01*
D02*
G37*
G36*
X007751Y002300D02*
X007665D01*
Y002214D01*
X007751D01*
Y002300D01*
D02*
G37*
G36*
X007635D02*
X007549D01*
Y002214D01*
X007635D01*
Y002300D01*
D02*
G37*
G36*
X007751Y002184D02*
X007665D01*
Y002098D01*
X007751D01*
Y002184D01*
D02*
G37*
G36*
X007635D02*
X007549D01*
Y002098D01*
X007635D01*
Y002184D01*
D02*
G37*
G36*
X009443Y002315D02*
X009413D01*
X009383Y002307D01*
X009357Y002292D01*
X009335Y002270D01*
X009320Y002244D01*
X009312Y002214D01*
Y002184D01*
X009320Y002154D01*
X009335Y002128D01*
X009357Y002106D01*
X009383Y002091D01*
X009413Y002083D01*
X009443D01*
X009473Y002091D01*
X009499Y002106D01*
X009521Y002128D01*
X009536Y002154D01*
X009544Y002184D01*
Y002214D01*
X009536Y002244D01*
X009521Y002270D01*
X009499Y002292D01*
X009473Y002307D01*
X009443Y002315D01*
D02*
G37*
G36*
X007919D02*
X007889D01*
X007859Y002307D01*
X007833Y002292D01*
X007811Y002270D01*
X007796Y002244D01*
X007788Y002214D01*
Y002184D01*
X007796Y002154D01*
X007811Y002128D01*
X007833Y002106D01*
X007859Y002091D01*
X007889Y002083D01*
X007919D01*
X007949Y002091D01*
X007975Y002106D01*
X007997Y002128D01*
X008012Y002154D01*
X008020Y002184D01*
Y002214D01*
X008012Y002244D01*
X007997Y002270D01*
X007975Y002292D01*
X007949Y002307D01*
X007919Y002315D01*
D02*
G37*
G36*
X007105Y002195D02*
X006975D01*
Y002035D01*
X007105D01*
Y002195D01*
D02*
G37*
G36*
X006925D02*
X006795D01*
Y002035D01*
X006925D01*
Y002195D01*
D02*
G37*
G36*
X006560Y005208D02*
X006536D01*
X006513Y005202D01*
X006493Y005190D01*
X006476Y005173D01*
X006464Y005153D01*
X006458Y005130D01*
Y005106D01*
X006464Y005083D01*
X006476Y005063D01*
X006493Y005046D01*
X006513Y005034D01*
X006536Y005028D01*
X006560D01*
X006583Y005034D01*
X006603Y005046D01*
X006620Y005063D01*
X006632Y005083D01*
X006638Y005106D01*
Y005130D01*
X006632Y005153D01*
X006620Y005173D01*
X006603Y005190D01*
X006583Y005202D01*
X006560Y005208D01*
D02*
G37*
G36*
X006336Y005185D02*
X006206D01*
Y005025D01*
X006336D01*
Y005185D01*
D02*
G37*
G36*
X007098D02*
X006968D01*
Y005025D01*
X007098D01*
Y005185D01*
D02*
G37*
G36*
X006918D02*
X006788D01*
Y005025D01*
X006918D01*
Y005185D01*
D02*
G37*
G36*
X006156D02*
X006026D01*
Y005025D01*
X006156D01*
Y005185D01*
D02*
G37*
G36*
X007098Y004975D02*
X006968D01*
Y004815D01*
X007098D01*
Y004975D01*
D02*
G37*
G36*
X006918D02*
X006788D01*
Y004815D01*
X006918D01*
Y004975D01*
D02*
G37*
G36*
X006336D02*
X006206D01*
Y004815D01*
X006336D01*
Y004975D01*
D02*
G37*
G36*
X006156D02*
X006026D01*
Y004815D01*
X006156D01*
Y004975D01*
D02*
G37*
G36*
X005824Y004547D02*
X005759D01*
Y004472D01*
X005824D01*
Y004547D01*
D02*
G37*
G36*
X005505Y004546D02*
Y004472D01*
X005570D01*
X005568Y004488D01*
X005560Y004507D01*
X005548Y004524D01*
X005531Y004537D01*
X005511Y004545D01*
X005505Y004546D01*
D02*
G37*
G36*
X005729Y004547D02*
X005664D01*
Y004472D01*
X005729D01*
Y004547D01*
D02*
G37*
G36*
X005475Y004546D02*
X005470Y004545D01*
X005450Y004537D01*
X005433Y004524D01*
X005421Y004507D01*
X005413Y004488D01*
X005410Y004472D01*
X005475D01*
Y004546D01*
D02*
G37*
G36*
X005570Y004442D02*
X005505D01*
Y004368D01*
X005511Y004369D01*
X005531Y004377D01*
X005548Y004390D01*
X005560Y004407D01*
X005568Y004426D01*
X005570Y004442D01*
D02*
G37*
G36*
X005475D02*
X005410D01*
X005413Y004426D01*
X005421Y004407D01*
X005433Y004390D01*
X005450Y004377D01*
X005470Y004369D01*
X005475Y004368D01*
Y004442D01*
D02*
G37*
G36*
X005824D02*
X005759D01*
Y004367D01*
X005824D01*
Y004442D01*
D02*
G37*
G36*
X005729D02*
X005664D01*
Y004367D01*
X005729D01*
Y004442D01*
D02*
G37*
G36*
X005759Y004292D02*
Y004218D01*
X005824D01*
X005822Y004234D01*
X005814Y004253D01*
X005802Y004270D01*
X005785Y004283D01*
X005765Y004291D01*
X005759Y004292D01*
D02*
G37*
G36*
X005505D02*
Y004218D01*
X005570D01*
X005568Y004234D01*
X005560Y004253D01*
X005548Y004270D01*
X005531Y004283D01*
X005511Y004291D01*
X005505Y004292D01*
D02*
G37*
G36*
X005729D02*
X005724Y004291D01*
X005704Y004283D01*
X005687Y004270D01*
X005675Y004253D01*
X005667Y004234D01*
X005664Y004218D01*
X005729D01*
Y004292D01*
D02*
G37*
G36*
X005475D02*
X005470Y004291D01*
X005450Y004283D01*
X005433Y004270D01*
X005421Y004253D01*
X005413Y004234D01*
X005410Y004218D01*
X005475D01*
Y004292D01*
D02*
G37*
G36*
X005824Y004188D02*
X005759D01*
Y004114D01*
X005765Y004115D01*
X005785Y004123D01*
X005802Y004136D01*
X005814Y004153D01*
X005822Y004172D01*
X005824Y004188D01*
D02*
G37*
G36*
X005570D02*
X005505D01*
Y004114D01*
X005511Y004115D01*
X005531Y004123D01*
X005548Y004136D01*
X005560Y004153D01*
X005568Y004172D01*
X005570Y004188D01*
D02*
G37*
G36*
X005729D02*
X005664D01*
X005667Y004172D01*
X005675Y004153D01*
X005687Y004136D01*
X005704Y004123D01*
X005724Y004115D01*
X005729Y004114D01*
Y004188D01*
D02*
G37*
G36*
X005475D02*
X005410D01*
X005413Y004172D01*
X005421Y004153D01*
X005433Y004136D01*
X005450Y004123D01*
X005470Y004115D01*
X005475Y004114D01*
Y004188D01*
D02*
G37*
G36*
X006037Y004190D02*
X006013D01*
X005990Y004184D01*
X005970Y004172D01*
X005953Y004155D01*
X005941Y004135D01*
X005935Y004112D01*
Y004088D01*
X005941Y004065D01*
X005953Y004045D01*
X005970Y004028D01*
X005990Y004016D01*
X006013Y004010D01*
X006037D01*
X006060Y004016D01*
X006080Y004028D01*
X006097Y004045D01*
X006109Y004065D01*
X006115Y004088D01*
Y004112D01*
X006109Y004135D01*
X006097Y004155D01*
X006080Y004172D01*
X006060Y004184D01*
X006037Y004190D01*
D02*
G37*
G36*
X007691Y004546D02*
Y004472D01*
X007756D01*
X007753Y004488D01*
X007745Y004507D01*
X007733Y004524D01*
X007716Y004537D01*
X007696Y004545D01*
X007691Y004546D01*
D02*
G37*
G36*
X007661D02*
X007655Y004545D01*
X007635Y004537D01*
X007618Y004524D01*
X007606Y004507D01*
X007598Y004488D01*
X007596Y004472D01*
X007661D01*
Y004546D01*
D02*
G37*
G36*
X007437D02*
Y004472D01*
X007502D01*
X007499Y004488D01*
X007491Y004507D01*
X007479Y004524D01*
X007462Y004537D01*
X007442Y004545D01*
X007437Y004546D01*
D02*
G37*
G36*
X007407D02*
X007401Y004545D01*
X007381Y004537D01*
X007364Y004524D01*
X007352Y004507D01*
X007344Y004488D01*
X007342Y004472D01*
X007407D01*
Y004546D01*
D02*
G37*
G36*
X007168Y004639D02*
X007144D01*
X007121Y004633D01*
X007101Y004621D01*
X007084Y004605D01*
X007072Y004584D01*
X007066Y004561D01*
Y004538D01*
X007072Y004515D01*
X007084Y004494D01*
X007101Y004477D01*
X007121Y004466D01*
X007144Y004459D01*
X007168D01*
X007191Y004466D01*
X007211Y004477D01*
X007228Y004494D01*
X007240Y004515D01*
X007246Y004538D01*
Y004561D01*
X007240Y004584D01*
X007228Y004605D01*
X007211Y004621D01*
X007191Y004633D01*
X007168Y004639D01*
D02*
G37*
G36*
X007756Y004442D02*
X007691D01*
Y004368D01*
X007696Y004369D01*
X007716Y004377D01*
X007733Y004390D01*
X007745Y004407D01*
X007753Y004426D01*
X007756Y004442D01*
D02*
G37*
G36*
X007661D02*
X007596D01*
X007598Y004426D01*
X007606Y004407D01*
X007618Y004390D01*
X007635Y004377D01*
X007655Y004369D01*
X007661Y004368D01*
Y004442D01*
D02*
G37*
G36*
X007502D02*
X007437D01*
Y004368D01*
X007442Y004369D01*
X007462Y004377D01*
X007479Y004390D01*
X007491Y004407D01*
X007499Y004426D01*
X007502Y004442D01*
D02*
G37*
G36*
X007407D02*
X007342D01*
X007344Y004426D01*
X007352Y004407D01*
X007364Y004390D01*
X007381Y004377D01*
X007401Y004369D01*
X007407Y004368D01*
Y004442D01*
D02*
G37*
G36*
X007691Y004292D02*
Y004218D01*
X007756D01*
X007753Y004234D01*
X007745Y004253D01*
X007733Y004270D01*
X007716Y004283D01*
X007696Y004291D01*
X007691Y004292D01*
D02*
G37*
G36*
X007661D02*
X007655Y004291D01*
X007635Y004283D01*
X007618Y004270D01*
X007606Y004253D01*
X007598Y004234D01*
X007596Y004218D01*
X007661D01*
Y004292D01*
D02*
G37*
G36*
X007502Y004293D02*
X007437D01*
Y004218D01*
X007502D01*
Y004293D01*
D02*
G37*
G36*
X007407D02*
X007342D01*
Y004218D01*
X007407D01*
Y004293D01*
D02*
G37*
G36*
X007756Y004188D02*
X007691D01*
Y004114D01*
X007696Y004115D01*
X007716Y004123D01*
X007733Y004136D01*
X007745Y004153D01*
X007753Y004172D01*
X007756Y004188D01*
D02*
G37*
G36*
X007661D02*
X007596D01*
X007598Y004172D01*
X007606Y004153D01*
X007618Y004136D01*
X007635Y004123D01*
X007655Y004115D01*
X007661Y004114D01*
Y004188D01*
D02*
G37*
G36*
X007502D02*
X007437D01*
Y004113D01*
X007502D01*
Y004188D01*
D02*
G37*
G36*
X007407D02*
X007342D01*
Y004113D01*
X007407D01*
Y004188D01*
D02*
G37*
G36*
X007103Y003825D02*
X006973D01*
Y003665D01*
X007103D01*
Y003825D01*
D02*
G37*
G36*
X006923D02*
X006793D01*
Y003665D01*
X006923D01*
Y003825D01*
D02*
G37*
G36*
X006341D02*
X006211D01*
Y003665D01*
X006341D01*
Y003825D01*
D02*
G37*
G36*
X006161D02*
X006031D01*
Y003665D01*
X006161D01*
Y003825D01*
D02*
G37*
G36*
X007103Y003615D02*
X006973D01*
Y003455D01*
X007103D01*
Y003615D01*
D02*
G37*
G36*
X006923D02*
X006793D01*
Y003455D01*
X006923D01*
Y003615D01*
D02*
G37*
G36*
X006341D02*
X006211D01*
Y003455D01*
X006341D01*
Y003615D01*
D02*
G37*
G36*
X006161D02*
X006031D01*
Y003455D01*
X006161D01*
Y003615D01*
D02*
G37*
%LPD*%
D13*
X010418Y004630D02*
Y004830D01*
X010618D01*
X010418Y004630D02*
X010618D01*
X010154D02*
X010418D01*
X010125Y004659D02*
X010154Y004630D01*
X004275Y006812D02*
X004744D01*
X004740Y006816D02*
X004744Y006812D01*
X010125Y005896D02*
Y006200D01*
X010030Y004190D02*
X010125Y004285D01*
Y004659D01*
X009793Y002535D02*
X010143D01*
X010418Y003430D02*
Y003630D01*
X010618Y003430D02*
Y003630D01*
X010418D02*
X010618D01*
X010418Y003830D02*
X010618D01*
X010418Y004030D02*
X010618D01*
X010418Y004230D02*
X010618D01*
X010418Y004430D02*
X010618D01*
X002700Y003875D02*
Y004197D01*
D27*
X010125Y005524D02*
D03*
Y005893D02*
D03*
Y005028D02*
D03*
Y004659D02*
D03*
D28*
X002700Y003305D02*
D03*
Y003875D02*
D03*
X010143Y002535D02*
D03*
Y003105D02*
D03*
D29*
X006188Y002220D02*
D03*
X006950D02*
D03*
X006186Y003640D02*
D03*
X006948D02*
D03*
X006941Y006420D02*
D03*
X006179D02*
D03*
X006943Y005000D02*
D03*
X006181D02*
D03*
D30*
X007671Y007090D02*
D03*
X007303D02*
D03*
X008439D02*
D03*
X008071D02*
D03*
X005480D02*
D03*
X005848D02*
D03*
X005108D02*
D03*
X004740D02*
D03*
D31*
X004740Y006816D02*
Y007090D01*
X004740Y007090D02*
X004740Y007090D01*
X007642Y007090D02*
X007647Y007085D01*
X008065D02*
X008071Y007090D01*
X007647Y007085D02*
X008065D01*
X005108Y007090D02*
X005109Y007090D01*
X005478D02*
X005478Y007090D01*
X005109Y007090D02*
X005478D01*
D32*
X007650Y003723D02*
D03*
X008666D02*
D03*
X009428D02*
D03*
Y002199D02*
D03*
X008412D02*
D03*
X007904D02*
D03*
X007650Y006438D02*
D03*
X008666D02*
D03*
X009428D02*
D03*
Y004914D02*
D03*
X008412D02*
D03*
X007904D02*
D03*
X003725Y003723D02*
D03*
X004741D02*
D03*
X005503D02*
D03*
Y002199D02*
D03*
X004487D02*
D03*
X003979D02*
D03*
X003725Y006453D02*
D03*
X004741D02*
D03*
X005503D02*
D03*
Y004929D02*
D03*
X004487D02*
D03*
X003979D02*
D03*
D33*
X007650Y002199D02*
D03*
Y004914D02*
D03*
X003725Y002199D02*
D03*
Y004929D02*
D03*
D34*
X005236Y004203D02*
D03*
Y004457D02*
D03*
X005490Y004203D02*
D03*
Y004457D02*
D03*
X005744Y004203D02*
D03*
X004982Y004457D02*
D03*
X004728Y004203D02*
D03*
Y004457D02*
D03*
X004474Y004203D02*
D03*
Y004457D02*
D03*
X004982Y004203D02*
D03*
X004220Y004457D02*
D03*
X003966Y004203D02*
D03*
Y004457D02*
D03*
X003712Y004203D02*
D03*
Y004457D02*
D03*
X004220Y004203D02*
D03*
X003458D02*
D03*
Y004457D02*
D03*
X007930Y004457D02*
D03*
Y004203D02*
D03*
X007676Y004457D02*
D03*
Y004203D02*
D03*
X007422Y004457D02*
D03*
X008184Y004203D02*
D03*
X008438Y004457D02*
D03*
Y004203D02*
D03*
X008692Y004457D02*
D03*
Y004203D02*
D03*
X008184Y004457D02*
D03*
X008946Y004203D02*
D03*
X009200Y004457D02*
D03*
Y004203D02*
D03*
X009454Y004457D02*
D03*
Y004203D02*
D03*
X008946Y004457D02*
D03*
X009708D02*
D03*
Y004203D02*
D03*
D35*
X005744Y004457D02*
D03*
X007422Y004203D02*
D03*
D36*
X010418Y005230D02*
D03*
X010618D02*
D03*
X010418Y005030D02*
D03*
X010618D02*
D03*
Y004630D02*
D03*
X010418D02*
D03*
X010618Y004830D02*
D03*
X010418D02*
D03*
X010418Y005630D02*
D03*
Y005430D02*
D03*
X010618D02*
D03*
Y003030D02*
D03*
X010418D02*
D03*
X010618Y003230D02*
D03*
X010418D02*
D03*
X010618Y003430D02*
D03*
X010418D02*
D03*
X010618Y003630D02*
D03*
X010418D02*
D03*
X010618Y003830D02*
D03*
X010418D02*
D03*
X010618Y004030D02*
D03*
X010418D02*
D03*
Y004430D02*
D03*
X010618D02*
D03*
X010418Y004230D02*
D03*
X010618D02*
D03*
X004275Y006815D02*
D03*
X009425Y006825D02*
D03*
X004070Y006250D02*
D03*
X004744Y006815D02*
D03*
X005083Y002455D02*
D03*
X010125Y006200D02*
D03*
X006025Y004100D02*
D03*
X007156Y004549D02*
D03*
X004225Y003825D02*
D03*
X009040D02*
D03*
X004848Y005118D02*
D03*
X005723D02*
D03*
X006548D02*
D03*
X008073D02*
D03*
X008975Y004914D02*
D03*
X009270Y006200D02*
D03*
X010030Y004190D02*
D03*
X008439Y006815D02*
D03*
X009793Y002535D02*
D03*
X002700Y004197D02*
D03*
X007870Y007085D02*
D03*
X005296Y007090D02*
D03*
X007030Y006828D02*
D03*
X006153D02*
D03*
D37*
X010618Y005630D02*
D03*
D38*
X004070Y007130D02*
D03*
X009070D02*
D03*
Y001530D02*
D03*
X004070D02*
D03*
D39*
X006570Y004330D02*
D03*
M02*
