M48
;Layer_Color=9474304
;FILE_FORMAT=4:2
METRIC
;TYPE=PLATED
T1F00S00C0.30
T2F00S00C0.60
T3F00S00C0.70
T4F00S00C0.80
T5F00S00C0.85
T6F00S00C0.90
T7F00S00C1.10
T8F00S00C2.00
T9F00S00C2.70
%
T01
X003594Y003098
X003847
Y003494
X003594
Y003890
X003847
X004100
X004100Y003494
Y003098
X004983Y002960
Y003722
X008143Y003732
Y002970
X003847Y004274
Y004670
Y005066
T02
X003850Y002100
X005600Y002800
X005950Y003500
X006650
X007350
X007460Y003750
X007700Y002800
X006650Y002100
X008400Y001400
X009450Y002100
X009100Y002800
X008400Y004200
X009820Y004900
X010010
X010150Y006300
X009330Y006097
X007920Y006090
X007000Y005600
X006300
X005600
X004900
X004200
X004550Y006300
X004900Y007000
X005600
X006300
X007000
X006650Y006300
X005960Y004500
X004900Y004200
X004550Y004900
X007700Y004200
X003322Y004900
X003130
X002800Y005600
X003150Y006300
X003850
X003710Y006000
T03
X009032Y003700
X010418Y003630
X010618
Y003830
X010418
Y003430
X010618
Y004030
X010418
Y004230
X010618
Y004430
X010418
Y004630
X010618
Y004830
X010418
Y005030
X010618
Y005230
X010418
X009757Y004597
Y004125
X009032Y004272
Y005267
Y005638
Y006005
Y006690
T04
X009658Y005650
X009912
X009785Y005523
X003513Y005650
X003259
X003386Y005523
T05
X010518Y003330
Y005330
T06
X008010Y004898
X009026
Y006422
X008772
X008264
X007248
X005892Y006394
X005130
X004114
Y004870
X004368
X004876
X005892
X007248Y004898
T07
X004030Y002176
Y002430
X004284
Y002176
X004538
X004792
Y002430
X005046
X005300
X005554
X005808
X006062
X006316
Y002176
X006062
X005808
X005554
X005300
X005046
X004538Y002430
X006824Y002430
Y002176
X007078
Y002430
X007332
Y002176
X007586
Y002430
X007840
Y002176
X008094
X008348
Y002430
X008094
X008602
X008856
X009110
Y002176
X008856
X008602
T08
X005253Y002960
Y003722
X006142
Y002960
X006993Y002965
Y003727
X007882
Y002965
T09
X004070Y001530
X009070
Y007130
X004070
X006570Y004330
M30
