G04*
G04 #@! TF.GenerationSoftware,Altium Limited,Altium Designer,20.1.10 (176)*
G04*
G04 Layer_Physical_Order=2*
G04 Layer_Color=32768*
%FSAX42Y42*%
%MOMM*%
G71*
G04*
G04 #@! TF.SameCoordinates,EC29B362-C5D2-4197-BC47-CE10F38E6FBA*
G04*
G04*
G04 #@! TF.FilePolarity,Negative*
G04*
G01*
G75*
%ADD56C,1.02*%
%ADD57C,1.72*%
G04:AMPARAMS|DCode=58|XSize=2.224mm|YSize=2.224mm|CornerRadius=0mm|HoleSize=0mm|Usage=FLASHONLY|Rotation=0.000|XOffset=0mm|YOffset=0mm|HoleType=Round|Shape=Relief|Width=0.25mm|Gap=0.25mm|Entries=4|*
%AMTHD58*
7,0,0,2.22,1.72,0.25,45*
%
%ADD58THD58*%
%ADD59C,1.87*%
%ADD60C,1.82*%
G04:AMPARAMS|DCode=61|XSize=2.324mm|YSize=2.324mm|CornerRadius=0mm|HoleSize=0mm|Usage=FLASHONLY|Rotation=0.000|XOffset=0mm|YOffset=0mm|HoleType=Round|Shape=Relief|Width=0.25mm|Gap=0.25mm|Entries=4|*
%AMTHD61*
7,0,0,2.32,1.82,0.25,45*
%
%ADD61THD61*%
%ADD62C,1.92*%
G04:AMPARAMS|DCode=63|XSize=2.424mm|YSize=2.424mm|CornerRadius=0mm|HoleSize=0mm|Usage=FLASHONLY|Rotation=0.000|XOffset=0mm|YOffset=0mm|HoleType=Round|Shape=Relief|Width=0.25mm|Gap=0.25mm|Entries=4|*
%AMTHD63*
7,0,0,2.42,1.92,0.25,45*
%
%ADD63THD63*%
%ADD64C,2.12*%
G04:AMPARAMS|DCode=65|XSize=2.624mm|YSize=2.624mm|CornerRadius=0mm|HoleSize=0mm|Usage=FLASHONLY|Rotation=0.000|XOffset=0mm|YOffset=0mm|HoleType=Round|Shape=Relief|Width=0.25mm|Gap=0.25mm|Entries=4|*
%AMTHD65*
7,0,0,2.62,2.12,0.25,45*
%
%ADD65THD65*%
%ADD66C,3.02*%
G04:AMPARAMS|DCode=67|XSize=2.124mm|YSize=2.124mm|CornerRadius=0mm|HoleSize=0mm|Usage=FLASHONLY|Rotation=0.000|XOffset=0mm|YOffset=0mm|HoleType=Round|Shape=Relief|Width=0.25mm|Gap=0.25mm|Entries=4|*
%AMTHD67*
7,0,0,2.12,1.62,0.25,45*
%
%ADD67THD67*%
%ADD68C,3.72*%
%ADD69C,1.62*%
G04:AMPARAMS|DCode=70|XSize=4.224mm|YSize=4.224mm|CornerRadius=0mm|HoleSize=0mm|Usage=FLASHONLY|Rotation=0.000|XOffset=0mm|YOffset=0mm|HoleType=Round|Shape=Relief|Width=0.25mm|Gap=0.25mm|Entries=4|*
%AMTHD70*
7,0,0,4.22,3.72,0.25,45*
%
%ADD70THD70*%
%ADD71C,1.32*%
D56*
X004770Y001230D02*
G03*
X005070Y001530I000000J000300D01*
G01*
X005370Y001830D02*
G03*
X005070Y001530I000000J-000300D01*
G01*
X008070D02*
G03*
X007770Y001830I-000300J000000D01*
G01*
X008070Y001530D02*
G03*
X008370Y001230I000300J000000D01*
G01*
X009146D02*
G03*
X009358Y001318I000000J000300D01*
G01*
X010782Y002742D02*
G03*
X010870Y002954I-000212J000212D01*
G01*
Y005706D02*
G03*
X010782Y005918I-000300J000000D01*
G01*
X009358Y007342D02*
G03*
X009146Y007430I-000212J-000212D01*
G01*
X007176D02*
G03*
X006916Y007280I000000J-000300D01*
G01*
X006224D02*
G03*
X006916Y007280I000346J000200D01*
G01*
X006224Y007280D02*
G03*
X005964Y007430I-000260J-000150D01*
G01*
X003994D02*
G03*
X003782Y007342I000000J-000300D01*
G01*
X002358Y005918D02*
G03*
X002270Y005706I000212J-000212D01*
G01*
Y002954D02*
G03*
X002358Y002742I000300J000000D01*
G01*
X003782Y001318D02*
G03*
X003994Y001230I000212J000212D01*
G01*
X002358Y002742D02*
X003782Y001318D01*
X002358Y002742D02*
X002358D01*
X002270Y002954D02*
X002270D01*
X002270D02*
Y005706D01*
X002270D01*
X002358Y005918D02*
X002358D01*
X002358D02*
X003782Y007342D01*
Y007342D02*
Y007342D01*
X003994Y007430D02*
Y007430D01*
X005964D01*
Y007430D02*
Y007430D01*
X006224Y007280D02*
X006224D01*
X006916Y007280D02*
X006916Y007280D01*
X007176Y007430D02*
Y007430D01*
X009146D01*
Y007430D02*
Y007430D01*
X009358Y007342D02*
Y007342D01*
X010782Y005918D01*
Y005918D02*
Y005918D01*
X010870Y002954D02*
Y005706D01*
X010782Y002742D02*
Y002742D01*
X009358Y001318D02*
X010782Y002742D01*
X009358Y001318D02*
X009358D01*
X008370Y001230D02*
X009146D01*
X008070Y001530D02*
X008070D01*
X007770Y001830D02*
Y001830D01*
X005370D02*
X007770D01*
X005370Y001830D02*
Y001830D01*
X005070Y001530D02*
X005070D01*
X003994Y001230D02*
X004770D01*
D57*
X010618Y003430D02*
D03*
X010418D02*
D03*
X010618Y003630D02*
D03*
X010418D02*
D03*
X010618Y003830D02*
D03*
X010418D02*
D03*
X010618Y004030D02*
D03*
X010418D02*
D03*
Y005230D02*
D03*
X010618D02*
D03*
X010418Y005030D02*
D03*
X010618D02*
D03*
X010418Y004430D02*
D03*
X010618D02*
D03*
X010418Y004230D02*
D03*
X010618D02*
D03*
X009032Y003700D02*
D03*
Y004272D02*
D03*
Y005638D02*
D03*
Y006005D02*
D03*
Y006690D02*
D03*
Y005267D02*
D03*
X009757Y004125D02*
D03*
D58*
X010418Y004830D02*
D03*
X010618D02*
D03*
X010418Y004630D02*
D03*
X010618D02*
D03*
X009757Y004597D02*
D03*
D59*
X010518Y005330D02*
D03*
Y003330D02*
D03*
D60*
X009912Y005650D02*
D03*
X009785Y005523D02*
D03*
X003513Y005650D02*
D03*
X003386Y005523D02*
D03*
D61*
X009658Y005650D02*
D03*
X003259D02*
D03*
D62*
X009026Y004898D02*
D03*
X008010D02*
D03*
X008264Y006422D02*
D03*
X008772D02*
D03*
X009026D02*
D03*
X004114Y006394D02*
D03*
X005130D02*
D03*
X004876Y004870D02*
D03*
X004368D02*
D03*
X004114D02*
D03*
D63*
X007248Y004898D02*
D03*
Y006422D02*
D03*
X005892Y006394D02*
D03*
Y004870D02*
D03*
D64*
X006316Y002176D02*
D03*
Y002430D02*
D03*
X005554D02*
D03*
X006062Y002176D02*
D03*
Y002430D02*
D03*
X005808Y002176D02*
D03*
Y002430D02*
D03*
X005554Y002176D02*
D03*
X004792Y002430D02*
D03*
Y002176D02*
D03*
X004030D02*
D03*
Y002430D02*
D03*
X004284Y002176D02*
D03*
Y002430D02*
D03*
X004538Y002176D02*
D03*
Y002430D02*
D03*
X006824Y002430D02*
D03*
Y002176D02*
D03*
X007586D02*
D03*
X007078Y002430D02*
D03*
Y002176D02*
D03*
X007332Y002430D02*
D03*
Y002176D02*
D03*
X007586Y002430D02*
D03*
X008348Y002176D02*
D03*
Y002430D02*
D03*
X009110D02*
D03*
Y002176D02*
D03*
X008856Y002430D02*
D03*
Y002176D02*
D03*
X008602Y002430D02*
D03*
Y002176D02*
D03*
D65*
X005300Y002176D02*
D03*
Y002430D02*
D03*
X005046Y002176D02*
D03*
Y002430D02*
D03*
X007840Y002430D02*
D03*
Y002176D02*
D03*
X008094Y002430D02*
D03*
Y002176D02*
D03*
D66*
X006993Y003727D02*
D03*
X007882D02*
D03*
X006142Y002960D02*
D03*
X005253D02*
D03*
Y003722D02*
D03*
X006142D02*
D03*
X006993Y002965D02*
D03*
X007882D02*
D03*
D67*
X010150Y006300D02*
D03*
X009100Y002800D02*
D03*
X009450Y002100D02*
D03*
X008400Y004200D02*
D03*
Y001400D02*
D03*
X007700Y004200D02*
D03*
Y002800D02*
D03*
X007000Y007000D02*
D03*
Y005600D02*
D03*
X007350Y003500D02*
D03*
X006300Y007000D02*
D03*
X006650Y006300D02*
D03*
X006300Y005600D02*
D03*
X006650Y003500D02*
D03*
Y002100D02*
D03*
X005600Y007000D02*
D03*
Y005600D02*
D03*
X005950Y003500D02*
D03*
X005600Y002800D02*
D03*
X004900Y007000D02*
D03*
Y005600D02*
D03*
Y004200D02*
D03*
X004550Y006300D02*
D03*
X004200Y005600D02*
D03*
X004550Y004900D02*
D03*
X003850Y006300D02*
D03*
Y002100D02*
D03*
X003150Y006300D02*
D03*
X002800Y005600D02*
D03*
X007460Y003750D02*
D03*
X005960Y004500D02*
D03*
X003710Y006000D02*
D03*
X003322Y004900D02*
D03*
X007920Y006090D02*
D03*
X009820Y004900D02*
D03*
D68*
X006570Y004330D02*
D03*
D69*
X009330Y006097D02*
D03*
X010010Y004900D02*
D03*
X003130D02*
D03*
D70*
X009070Y007130D02*
D03*
X004070D02*
D03*
X009070Y001530D02*
D03*
X004070D02*
D03*
D71*
X008143Y003732D02*
D03*
X003847Y005066D02*
D03*
Y004670D02*
D03*
Y004274D02*
D03*
X004100Y003890D02*
D03*
X004100Y003494D02*
D03*
Y003098D02*
D03*
X003847Y003890D02*
D03*
Y003494D02*
D03*
Y003098D02*
D03*
X003594D02*
D03*
Y003494D02*
D03*
Y003890D02*
D03*
X008143Y002970D02*
D03*
X004983Y003722D02*
D03*
Y002960D02*
D03*
M02*
