G04*
G04 #@! TF.GenerationSoftware,Altium Limited,Altium Designer,20.1.10 (176)*
G04*
G04 Layer_Physical_Order=1*
G04 Layer_Color=5064179*
%FSAX42Y42*%
%MOMM*%
G71*
G04*
G04 #@! TF.SameCoordinates,FCFB62F1-B148-46F0-B019-BB0DAA43D111*
G04*
G04*
G04 #@! TF.FilePolarity,Positive*
G04*
G01*
G75*
%ADD11C,0.30*%
%ADD34C,1.00*%
%ADD35R,0.80X1.30*%
%ADD36R,3.20X2.60*%
%ADD37R,2.00X2.80*%
%ADD38R,2.80X2.00*%
%ADD39C,0.50*%
%ADD40C,1.50*%
%ADD41C,1.00*%
%ADD42C,1.20*%
%ADD43P,1.70X4X90.0*%
%ADD44C,1.52*%
%ADD45R,1.52X1.52*%
%ADD46C,1.60*%
%ADD47R,1.60X1.60*%
%ADD48C,2.60*%
%ADD49C,1.30*%
%ADD50C,6.00*%
%ADD51C,0.80*%
%ADD52C,4.00*%
%ADD53C,0.60*%
G36*
X009146Y007359D02*
Y007359D01*
X009165Y007358D01*
X009191Y007355D01*
X009234Y007342D01*
X009273Y007321D01*
X009293Y007305D01*
X009308Y007292D01*
X009308Y007292D01*
X010732Y005868D01*
X010734Y005867D01*
X010761Y005833D01*
X010782Y005794D01*
X010795Y005751D01*
X010800Y005706D01*
X010799Y005706D01*
X010799D01*
X010800Y005698D01*
Y002962D01*
X010799Y002954D01*
X010799D01*
X010800Y002954D01*
X010795Y002909D01*
X010782Y002866D01*
X010761Y002827D01*
X010745Y002807D01*
X010732Y002792D01*
X010718Y002778D01*
X009308Y001368D01*
X009308Y001368D01*
X009293Y001355D01*
X009273Y001339D01*
X009234Y001318D01*
X009191Y001305D01*
X009148Y001300D01*
X009146Y001301D01*
X008370D01*
X008368Y001300D01*
X008325Y001305D01*
X008282Y001318D01*
X008242Y001339D01*
X008208Y001368D01*
X008179Y001402D01*
X008158Y001442D01*
X008145Y001485D01*
X008142Y001510D01*
X008141Y001530D01*
X008141D01*
X008137Y001588D01*
X008123Y001645D01*
X008101Y001698D01*
X008070Y001748D01*
X008032Y001792D01*
X007988Y001830D01*
X007938Y001861D01*
X007885Y001883D01*
X007828Y001897D01*
X007770Y001901D01*
Y001901D01*
X005370D01*
Y001901D01*
X005312Y001897D01*
X005255Y001883D01*
X005202Y001861D01*
X005152Y001830D01*
X005108Y001792D01*
X005070Y001748D01*
X005039Y001698D01*
X005017Y001645D01*
X005003Y001588D01*
X004999Y001530D01*
X004999D01*
X004998Y001510D01*
X004995Y001485D01*
X004982Y001442D01*
X004961Y001402D01*
X004932Y001368D01*
X004898Y001339D01*
X004858Y001318D01*
X004815Y001305D01*
X004772Y001300D01*
X004770Y001301D01*
X003994D01*
X003992Y001300D01*
X003949Y001305D01*
X003906Y001318D01*
X003867Y001339D01*
X003833Y001366D01*
X003832Y001368D01*
X002422Y002778D01*
X002408Y002792D01*
X002395Y002807D01*
X002379Y002827D01*
X002358Y002866D01*
X002345Y002909D01*
X002342Y002935D01*
X002341Y002954D01*
X002341Y002954D01*
X002341Y002974D01*
Y005686D01*
X002341Y005686D01*
X002341Y005706D01*
X002342Y005725D01*
X002345Y005751D01*
X002358Y005794D01*
X002379Y005833D01*
X002395Y005853D01*
X002408Y005868D01*
X002408Y005868D01*
X003832Y007292D01*
X003832Y007292D01*
X003832Y007292D01*
X003847Y007305D01*
X003867Y007321D01*
X003906Y007342D01*
X003949Y007355D01*
X003975Y007358D01*
X003994Y007359D01*
Y007359D01*
X004014Y007359D01*
X005944D01*
X005944Y007359D01*
X005964Y007359D01*
X005983Y007358D01*
X006009Y007355D01*
X006052Y007342D01*
X006091Y007321D01*
X006126Y007292D01*
X006155Y007258D01*
X006162Y007244D01*
X006162Y007244D01*
X006196Y007193D01*
X006237Y007147D01*
X006283Y007106D01*
X006300Y007095D01*
X006294Y007075D01*
X006280Y007073D01*
X006262Y007066D01*
X006246Y007054D01*
X006234Y007038D01*
X006227Y007020D01*
X006226Y007013D01*
X006374D01*
X006373Y007020D01*
X006368Y007033D01*
X006378Y007046D01*
X006382Y007049D01*
X006390Y007045D01*
X006448Y007025D01*
X006509Y007013D01*
X006570Y007009D01*
X006631Y007013D01*
X006692Y007025D01*
X006750Y007045D01*
X006806Y007072D01*
X006857Y007106D01*
X006903Y007147D01*
X006944Y007193D01*
X006978Y007244D01*
X006978Y007244D01*
X006985Y007258D01*
X007014Y007292D01*
X007049Y007321D01*
X007088Y007342D01*
X007131Y007355D01*
X007157Y007358D01*
X007176Y007359D01*
Y007359D01*
X007196Y007359D01*
X009126D01*
X009146Y007359D01*
D02*
G37*
%LPC*%
G36*
X007013Y007074D02*
Y007013D01*
X007074D01*
X007073Y007020D01*
X007066Y007038D01*
X007054Y007054D01*
X007038Y007066D01*
X007020Y007073D01*
X007013Y007074D01*
D02*
G37*
G36*
X006987D02*
X006980Y007073D01*
X006962Y007066D01*
X006946Y007054D01*
X006934Y007038D01*
X006927Y007020D01*
X006926Y007013D01*
X006987D01*
Y007074D01*
D02*
G37*
G36*
X005613D02*
Y007013D01*
X005674D01*
X005673Y007020D01*
X005666Y007038D01*
X005654Y007054D01*
X005638Y007066D01*
X005620Y007073D01*
X005613Y007074D01*
D02*
G37*
G36*
X005587D02*
X005580Y007073D01*
X005562Y007066D01*
X005546Y007054D01*
X005534Y007038D01*
X005527Y007020D01*
X005526Y007013D01*
X005587D01*
Y007074D01*
D02*
G37*
G36*
X004913D02*
Y007013D01*
X004974D01*
X004973Y007020D01*
X004966Y007038D01*
X004954Y007054D01*
X004938Y007066D01*
X004920Y007073D01*
X004913Y007074D01*
D02*
G37*
G36*
X004887D02*
X004880Y007073D01*
X004862Y007066D01*
X004846Y007054D01*
X004834Y007038D01*
X004827Y007020D01*
X004826Y007013D01*
X004887D01*
Y007074D01*
D02*
G37*
G36*
X007074Y006987D02*
X007013D01*
Y006926D01*
X007020Y006927D01*
X007038Y006934D01*
X007054Y006946D01*
X007066Y006962D01*
X007073Y006980D01*
X007074Y006987D01*
D02*
G37*
G36*
X006987D02*
X006926D01*
X006927Y006980D01*
X006934Y006962D01*
X006946Y006946D01*
X006962Y006934D01*
X006980Y006927D01*
X006987Y006926D01*
Y006987D01*
D02*
G37*
G36*
X006374D02*
X006313D01*
Y006926D01*
X006320Y006927D01*
X006338Y006934D01*
X006354Y006946D01*
X006366Y006962D01*
X006373Y006980D01*
X006374Y006987D01*
D02*
G37*
G36*
X006287D02*
X006226D01*
X006227Y006980D01*
X006234Y006962D01*
X006246Y006946D01*
X006262Y006934D01*
X006280Y006927D01*
X006287Y006926D01*
Y006987D01*
D02*
G37*
G36*
X005674D02*
X005613D01*
Y006926D01*
X005620Y006927D01*
X005638Y006934D01*
X005654Y006946D01*
X005666Y006962D01*
X005673Y006980D01*
X005674Y006987D01*
D02*
G37*
G36*
X005587D02*
X005526D01*
X005527Y006980D01*
X005534Y006962D01*
X005546Y006946D01*
X005562Y006934D01*
X005580Y006927D01*
X005587Y006926D01*
Y006987D01*
D02*
G37*
G36*
X004974D02*
X004913D01*
Y006926D01*
X004920Y006927D01*
X004938Y006934D01*
X004954Y006946D01*
X004966Y006962D01*
X004973Y006980D01*
X004974Y006987D01*
D02*
G37*
G36*
X004887D02*
X004826D01*
X004827Y006980D01*
X004834Y006962D01*
X004846Y006946D01*
X004862Y006934D01*
X004880Y006927D01*
X004887Y006926D01*
Y006987D01*
D02*
G37*
G36*
X007655Y007026D02*
X007543D01*
Y006874D01*
X007655D01*
Y007026D01*
D02*
G37*
G36*
X007517D02*
X007405D01*
Y006874D01*
X007517D01*
Y007026D01*
D02*
G37*
G36*
X007655Y006848D02*
X007543D01*
Y006696D01*
X007655D01*
Y006848D01*
D02*
G37*
G36*
X007517D02*
X007405D01*
Y006696D01*
X007517D01*
Y006848D01*
D02*
G37*
G36*
X007261Y006523D02*
Y006435D01*
X007349D01*
X007347Y006448D01*
X007337Y006473D01*
X007320Y006494D01*
X007299Y006511D01*
X007274Y006521D01*
X007261Y006523D01*
D02*
G37*
G36*
X007235Y006523D02*
X007221Y006521D01*
X007197Y006511D01*
X007175Y006494D01*
X007159Y006473D01*
X007149Y006448D01*
X007147Y006435D01*
X007235D01*
Y006523D01*
D02*
G37*
G36*
X005904Y006495D02*
Y006407D01*
X005992D01*
X005991Y006421D01*
X005980Y006445D01*
X005964Y006466D01*
X005943Y006483D01*
X005918Y006493D01*
X005904Y006495D01*
D02*
G37*
G36*
X005879D02*
X005865Y006493D01*
X005840Y006483D01*
X005819Y006466D01*
X005803Y006445D01*
X005793Y006421D01*
X005791Y006407D01*
X005879D01*
Y006495D01*
D02*
G37*
G36*
X008800Y006820D02*
X008792Y006819D01*
X008786Y006814D01*
X008781Y006808D01*
X008780Y006800D01*
Y006526D01*
X008772Y006519D01*
X008747Y006516D01*
X008723Y006506D01*
X008703Y006491D01*
X008688Y006470D01*
X008678Y006447D01*
X008675Y006422D01*
X008678Y006397D01*
X008688Y006373D01*
X008703Y006353D01*
X008723Y006338D01*
X008747Y006328D01*
X008772Y006325D01*
X008780Y006318D01*
Y003550D01*
X008781Y003542D01*
X008786Y003536D01*
X008792Y003531D01*
X008800Y003530D01*
X010085D01*
X010093Y003531D01*
X010099Y003536D01*
X010104Y003542D01*
X010105Y003550D01*
Y004803D01*
X010125Y004812D01*
X010212Y004725D01*
Y003700D01*
X010215Y003686D01*
X010222Y003675D01*
X010292Y003605D01*
X010303Y003597D01*
X010317Y003595D01*
X010357D01*
X010368Y003580D01*
X010382Y003569D01*
X010400Y003562D01*
X010418Y003560D01*
X010436Y003562D01*
X010453Y003569D01*
X010468Y003580D01*
X010471Y003585D01*
X010565D01*
X010568Y003580D01*
X010582Y003569D01*
X010600Y003562D01*
X010618Y003560D01*
X010636Y003562D01*
X010653Y003569D01*
X010668Y003580D01*
X010679Y003595D01*
X010686Y003612D01*
X010688Y003630D01*
X010686Y003649D01*
X010679Y003666D01*
X010668Y003680D01*
X010653Y003692D01*
X010636Y003699D01*
X010618Y003701D01*
X010600Y003699D01*
X010582Y003692D01*
X010568Y003680D01*
X010565Y003676D01*
X010471D01*
X010468Y003680D01*
X010453Y003692D01*
X010436Y003699D01*
X010418Y003701D01*
X010400Y003699D01*
X010382Y003692D01*
X010368Y003680D01*
X010357Y003666D01*
X010332D01*
X010283Y003715D01*
Y004740D01*
X010280Y004754D01*
X010273Y004765D01*
X010113Y004925D01*
X010101Y004933D01*
X010088Y004936D01*
X010058D01*
X010053Y004943D01*
X010046Y004948D01*
Y004972D01*
X010070D01*
Y005142D01*
X010046D01*
Y005172D01*
X010070D01*
Y005342D01*
X009950D01*
Y005172D01*
X009974D01*
Y005142D01*
X009950D01*
Y004972D01*
X009974D01*
Y004948D01*
X009967Y004943D01*
X009953Y004923D01*
X009949Y004900D01*
X009953Y004877D01*
X009964Y004860D01*
X009960Y004847D01*
X009955Y004840D01*
X009882D01*
X009872Y004860D01*
X009882Y004874D01*
X009884Y004887D01*
X009756D01*
X009758Y004874D01*
X009768Y004860D01*
X009758Y004840D01*
X009270D01*
Y004908D01*
X009269Y004916D01*
X009264Y004923D01*
X009269Y004944D01*
X009459Y005134D01*
X009469Y005149D01*
X009472Y005166D01*
Y005787D01*
X009509Y005824D01*
X009850D01*
X009867Y005808D01*
Y005716D01*
X009855Y005707D01*
X009843Y005690D01*
X009834Y005671D01*
X009832Y005650D01*
X009834Y005629D01*
X009843Y005610D01*
X009848Y005603D01*
X009851Y005599D01*
X009837Y005585D01*
X009833Y005588D01*
X009826Y005593D01*
X009806Y005601D01*
X009785Y005604D01*
X009765Y005601D01*
X009754Y005597D01*
X009743Y005614D01*
X009779Y005650D01*
X009728Y005701D01*
X009667Y005641D01*
X009607Y005581D01*
X009658Y005529D01*
X009695Y005566D01*
X009712Y005554D01*
X009707Y005544D01*
X009705Y005523D01*
X009707Y005502D01*
X009716Y005483D01*
X009728Y005466D01*
X009745Y005453D01*
X009765Y005445D01*
X009784Y005442D01*
Y005342D01*
X009760D01*
Y005172D01*
X009880D01*
Y005342D01*
X009856D01*
Y005464D01*
X009853Y005478D01*
X009852Y005479D01*
X009855Y005483D01*
X009863Y005502D01*
X009866Y005523D01*
X009863Y005544D01*
X009855Y005563D01*
X009850Y005570D01*
X009847Y005574D01*
X009861Y005588D01*
X009865Y005585D01*
X009872Y005580D01*
X009892Y005572D01*
X009912Y005569D01*
X009933Y005572D01*
X009953Y005580D01*
X009969Y005593D01*
X009982Y005610D01*
X009990Y005629D01*
X009993Y005650D01*
X009990Y005671D01*
X009982Y005690D01*
X009969Y005707D01*
X009958Y005716D01*
Y005827D01*
X009955Y005844D01*
X009945Y005859D01*
X009902Y005902D01*
X009887Y005912D01*
X009869Y005916D01*
X009490D01*
X009472Y005912D01*
X009458Y005902D01*
X009394Y005839D01*
X009384Y005824D01*
X009380Y005806D01*
Y005185D01*
X009289Y005094D01*
X009270Y005101D01*
Y006043D01*
X009277Y006048D01*
X009290Y006052D01*
X009307Y006041D01*
X009330Y006036D01*
X009353Y006041D01*
X009369Y006052D01*
X009420D01*
Y005998D01*
X009740D01*
Y006238D01*
X009420D01*
Y006143D01*
X009369D01*
X009353Y006154D01*
X009330Y006159D01*
X009307Y006154D01*
X009290Y006143D01*
X009277Y006147D01*
X009270Y006152D01*
Y006376D01*
X009420D01*
Y006366D01*
X009740D01*
Y006606D01*
X009420D01*
Y006468D01*
X009270D01*
Y006800D01*
X009269Y006808D01*
X009264Y006814D01*
X009258Y006819D01*
X009250Y006820D01*
X008925Y006820D01*
X008800Y006820D01*
D02*
G37*
G36*
X008018Y007021D02*
X007778D01*
Y006701D01*
X008018D01*
Y006815D01*
X008200D01*
X008218Y006797D01*
Y006507D01*
X008215Y006506D01*
X008195Y006491D01*
X008180Y006470D01*
X008170Y006447D01*
X008167Y006422D01*
X008170Y006397D01*
X008180Y006373D01*
X008195Y006353D01*
X008215Y006338D01*
X008239Y006328D01*
X008264Y006325D01*
X008289Y006328D01*
X008312Y006338D01*
X008332Y006353D01*
X008348Y006373D01*
X008358Y006397D01*
X008361Y006422D01*
X008358Y006447D01*
X008348Y006470D01*
X008332Y006491D01*
X008312Y006506D01*
X008310Y006507D01*
Y006816D01*
X008306Y006834D01*
X008296Y006849D01*
X008251Y006893D01*
X008237Y006903D01*
X008219Y006907D01*
X008018D01*
Y007021D01*
D02*
G37*
G36*
X007349Y006409D02*
X007261D01*
Y006321D01*
X007274Y006323D01*
X007299Y006333D01*
X007320Y006349D01*
X007337Y006371D01*
X007347Y006395D01*
X007349Y006409D01*
D02*
G37*
G36*
X007235D02*
X007147D01*
X007149Y006395D01*
X007159Y006371D01*
X007175Y006349D01*
X007197Y006333D01*
X007221Y006323D01*
X007235Y006321D01*
Y006409D01*
D02*
G37*
G36*
X010163Y006374D02*
Y006313D01*
X010224D01*
X010223Y006320D01*
X010216Y006338D01*
X010204Y006354D01*
X010188Y006366D01*
X010170Y006373D01*
X010163Y006374D01*
D02*
G37*
G36*
X010137D02*
X010130Y006373D01*
X010112Y006366D01*
X010096Y006354D01*
X010084Y006338D01*
X010077Y006320D01*
X010076Y006313D01*
X010137D01*
Y006374D01*
D02*
G37*
G36*
X006663D02*
Y006313D01*
X006724D01*
X006723Y006320D01*
X006716Y006338D01*
X006704Y006354D01*
X006688Y006366D01*
X006670Y006373D01*
X006663Y006374D01*
D02*
G37*
G36*
X006637D02*
X006630Y006373D01*
X006612Y006366D01*
X006596Y006354D01*
X006584Y006338D01*
X006577Y006320D01*
X006576Y006313D01*
X006637D01*
Y006374D01*
D02*
G37*
G36*
X004563D02*
Y006313D01*
X004624D01*
X004623Y006320D01*
X004616Y006338D01*
X004604Y006354D01*
X004588Y006366D01*
X004570Y006373D01*
X004563Y006374D01*
D02*
G37*
G36*
X004537D02*
X004530Y006373D01*
X004512Y006366D01*
X004496Y006354D01*
X004484Y006338D01*
X004477Y006320D01*
X004476Y006313D01*
X004537D01*
Y006374D01*
D02*
G37*
G36*
X003863D02*
Y006313D01*
X003924D01*
X003923Y006320D01*
X003916Y006338D01*
X003904Y006354D01*
X003888Y006366D01*
X003870Y006373D01*
X003863Y006374D01*
D02*
G37*
G36*
X003837D02*
X003830Y006373D01*
X003812Y006366D01*
X003796Y006354D01*
X003784Y006338D01*
X003777Y006320D01*
X003776Y006313D01*
X003837D01*
Y006374D01*
D02*
G37*
G36*
X003163D02*
Y006313D01*
X003224D01*
X003223Y006320D01*
X003216Y006338D01*
X003204Y006354D01*
X003188Y006366D01*
X003170Y006373D01*
X003163Y006374D01*
D02*
G37*
G36*
X003137D02*
X003130Y006373D01*
X003112Y006366D01*
X003096Y006354D01*
X003084Y006338D01*
X003077Y006320D01*
X003076Y006313D01*
X003137D01*
Y006374D01*
D02*
G37*
G36*
X005130Y006491D02*
X005104Y006488D01*
X005081Y006478D01*
X005061Y006463D01*
X005046Y006443D01*
X005036Y006419D01*
X005033Y006394D01*
X005036Y006369D01*
X005046Y006345D01*
X005061Y006325D01*
X005081Y006310D01*
X005104Y006300D01*
X005130Y006297D01*
X005155Y006300D01*
X005178Y006310D01*
X005198Y006325D01*
X005214Y006345D01*
X005223Y006369D01*
X005227Y006394D01*
X005223Y006419D01*
X005214Y006443D01*
X005198Y006463D01*
X005178Y006478D01*
X005155Y006488D01*
X005130Y006491D01*
D02*
G37*
G36*
X005992Y006381D02*
X005904D01*
Y006293D01*
X005918Y006295D01*
X005943Y006305D01*
X005964Y006322D01*
X005980Y006343D01*
X005991Y006367D01*
X005992Y006381D01*
D02*
G37*
G36*
X005879D02*
X005791D01*
X005793Y006367D01*
X005803Y006343D01*
X005819Y006322D01*
X005840Y006305D01*
X005865Y006295D01*
X005879Y006293D01*
Y006381D01*
D02*
G37*
G36*
X010224Y006287D02*
X010163D01*
Y006226D01*
X010170Y006227D01*
X010188Y006234D01*
X010204Y006246D01*
X010216Y006262D01*
X010223Y006280D01*
X010224Y006287D01*
D02*
G37*
G36*
X010137D02*
X010076D01*
X010077Y006280D01*
X010084Y006262D01*
X010096Y006246D01*
X010112Y006234D01*
X010130Y006227D01*
X010137Y006226D01*
Y006287D01*
D02*
G37*
G36*
X006724D02*
X006663D01*
Y006226D01*
X006670Y006227D01*
X006688Y006234D01*
X006704Y006246D01*
X006716Y006262D01*
X006723Y006280D01*
X006724Y006287D01*
D02*
G37*
G36*
X006637D02*
X006576D01*
X006577Y006280D01*
X006584Y006262D01*
X006596Y006246D01*
X006612Y006234D01*
X006630Y006227D01*
X006637Y006226D01*
Y006287D01*
D02*
G37*
G36*
X004624D02*
X004563D01*
Y006226D01*
X004570Y006227D01*
X004588Y006234D01*
X004604Y006246D01*
X004616Y006262D01*
X004623Y006280D01*
X004624Y006287D01*
D02*
G37*
G36*
X004537D02*
X004476D01*
X004477Y006280D01*
X004484Y006262D01*
X004496Y006246D01*
X004512Y006234D01*
X004530Y006227D01*
X004537Y006226D01*
Y006287D01*
D02*
G37*
G36*
X003924D02*
X003863D01*
Y006226D01*
X003870Y006227D01*
X003888Y006234D01*
X003904Y006246D01*
X003916Y006262D01*
X003923Y006280D01*
X003924Y006287D01*
D02*
G37*
G36*
X003837D02*
X003776D01*
X003777Y006280D01*
X003784Y006262D01*
X003796Y006246D01*
X003812Y006234D01*
X003830Y006227D01*
X003837Y006226D01*
Y006287D01*
D02*
G37*
G36*
X003224D02*
X003163D01*
Y006226D01*
X003170Y006227D01*
X003188Y006234D01*
X003204Y006246D01*
X003216Y006262D01*
X003223Y006280D01*
X003224Y006287D01*
D02*
G37*
G36*
X003137D02*
X003076D01*
X003077Y006280D01*
X003084Y006262D01*
X003096Y006246D01*
X003112Y006234D01*
X003130Y006227D01*
X003137Y006226D01*
Y006287D01*
D02*
G37*
G36*
X007933Y006154D02*
Y006103D01*
X007984D01*
X007982Y006116D01*
X007967Y006137D01*
X007946Y006152D01*
X007933Y006154D01*
D02*
G37*
G36*
X007907D02*
X007894Y006152D01*
X007873Y006137D01*
X007858Y006116D01*
X007856Y006103D01*
X007907D01*
Y006154D01*
D02*
G37*
G36*
X007984Y006077D02*
X007933D01*
Y006026D01*
X007946Y006028D01*
X007967Y006043D01*
X007982Y006064D01*
X007984Y006077D01*
D02*
G37*
G36*
X007907D02*
X007856D01*
X007858Y006064D01*
X007873Y006043D01*
X007894Y006028D01*
X007907Y006026D01*
Y006077D01*
D02*
G37*
G36*
X003697Y006074D02*
X003690Y006073D01*
X003672Y006066D01*
X003656Y006054D01*
X003644Y006038D01*
X003637Y006020D01*
X003636Y006013D01*
X003697D01*
Y006074D01*
D02*
G37*
G36*
X004114Y006491D02*
X004088Y006488D01*
X004065Y006478D01*
X004045Y006463D01*
X004030Y006443D01*
X004020Y006419D01*
X004017Y006394D01*
X004020Y006369D01*
X004030Y006345D01*
X004045Y006325D01*
X004060Y006314D01*
Y006262D01*
X003805Y006007D01*
X003784Y006014D01*
X003783Y006020D01*
X003776Y006038D01*
X003764Y006054D01*
X003748Y006066D01*
X003730Y006073D01*
X003723Y006074D01*
Y006000D01*
X003710D01*
Y005987D01*
X003636D01*
X003637Y005980D01*
X003644Y005962D01*
X003656Y005946D01*
X003672Y005934D01*
X003690Y005927D01*
X003696Y005926D01*
X003703Y005905D01*
X003527Y005729D01*
X003513Y005731D01*
X003492Y005728D01*
X003473Y005720D01*
X003456Y005707D01*
X003443Y005690D01*
X003435Y005671D01*
X003433Y005650D01*
X003435Y005629D01*
X003443Y005610D01*
X003449Y005603D01*
X003452Y005599D01*
X003437Y005585D01*
X003433Y005588D01*
X003427Y005593D01*
X003407Y005601D01*
X003386Y005604D01*
X003365Y005601D01*
X003355Y005597D01*
X003344Y005614D01*
X003380Y005650D01*
X003329Y005701D01*
X003268Y005641D01*
X003208Y005581D01*
X003259Y005529D01*
X003296Y005566D01*
X003313Y005554D01*
X003308Y005544D01*
X003306Y005523D01*
X003308Y005502D01*
X003316Y005484D01*
X003294Y005463D01*
X003287Y005451D01*
X003284Y005437D01*
Y005342D01*
X003260D01*
Y005172D01*
X003380D01*
Y005342D01*
X003355D01*
Y005423D01*
X003376Y005444D01*
X003386Y005442D01*
X003407Y005445D01*
X003427Y005453D01*
X003443Y005466D01*
X003456Y005483D01*
X003464Y005502D01*
X003467Y005523D01*
X003464Y005544D01*
X003456Y005563D01*
X003451Y005570D01*
X003448Y005574D01*
X003462Y005588D01*
X003466Y005585D01*
X003473Y005580D01*
X003492Y005572D01*
X003513Y005569D01*
X003534Y005572D01*
X003554Y005580D01*
X003570Y005593D01*
X003583Y005610D01*
X003591Y005629D01*
X003594Y005650D01*
X003592Y005664D01*
X004138Y006210D01*
X004148Y006225D01*
X004152Y006243D01*
Y006306D01*
X004162Y006310D01*
X004182Y006325D01*
X004198Y006345D01*
X004207Y006369D01*
X004211Y006394D01*
X004207Y006419D01*
X004198Y006443D01*
X004182Y006463D01*
X004162Y006478D01*
X004139Y006488D01*
X004114Y006491D01*
D02*
G37*
G36*
X009658Y005771D02*
X009607Y005719D01*
X009658Y005668D01*
X009710Y005719D01*
X009658Y005771D01*
D02*
G37*
G36*
X003259D02*
X003208Y005719D01*
X003259Y005668D01*
X003311Y005719D01*
X003259Y005771D01*
D02*
G37*
G36*
X007013Y005674D02*
Y005613D01*
X007074D01*
X007073Y005620D01*
X007066Y005638D01*
X007054Y005654D01*
X007038Y005666D01*
X007020Y005673D01*
X007013Y005674D01*
D02*
G37*
G36*
X006987D02*
X006980Y005673D01*
X006962Y005666D01*
X006946Y005654D01*
X006934Y005638D01*
X006927Y005620D01*
X006926Y005613D01*
X006987D01*
Y005674D01*
D02*
G37*
G36*
X006313D02*
Y005613D01*
X006374D01*
X006373Y005620D01*
X006366Y005638D01*
X006354Y005654D01*
X006338Y005666D01*
X006320Y005673D01*
X006313Y005674D01*
D02*
G37*
G36*
X006287D02*
X006280Y005673D01*
X006262Y005666D01*
X006246Y005654D01*
X006234Y005638D01*
X006227Y005620D01*
X006226Y005613D01*
X006287D01*
Y005674D01*
D02*
G37*
G36*
X005613D02*
Y005613D01*
X005674D01*
X005673Y005620D01*
X005666Y005638D01*
X005654Y005654D01*
X005638Y005666D01*
X005620Y005673D01*
X005613Y005674D01*
D02*
G37*
G36*
X005587D02*
X005580Y005673D01*
X005562Y005666D01*
X005546Y005654D01*
X005534Y005638D01*
X005527Y005620D01*
X005526Y005613D01*
X005587D01*
Y005674D01*
D02*
G37*
G36*
X004913D02*
Y005613D01*
X004974D01*
X004973Y005620D01*
X004966Y005638D01*
X004954Y005654D01*
X004938Y005666D01*
X004920Y005673D01*
X004913Y005674D01*
D02*
G37*
G36*
X004887D02*
X004880Y005673D01*
X004862Y005666D01*
X004846Y005654D01*
X004834Y005638D01*
X004827Y005620D01*
X004826Y005613D01*
X004887D01*
Y005674D01*
D02*
G37*
G36*
X004213D02*
Y005613D01*
X004274D01*
X004273Y005620D01*
X004266Y005638D01*
X004254Y005654D01*
X004238Y005666D01*
X004220Y005673D01*
X004213Y005674D01*
D02*
G37*
G36*
X004187D02*
X004180Y005673D01*
X004162Y005666D01*
X004146Y005654D01*
X004134Y005638D01*
X004127Y005620D01*
X004126Y005613D01*
X004187D01*
Y005674D01*
D02*
G37*
G36*
X002813D02*
Y005613D01*
X002874D01*
X002873Y005620D01*
X002866Y005638D01*
X002854Y005654D01*
X002838Y005666D01*
X002820Y005673D01*
X002813Y005674D01*
D02*
G37*
G36*
X002787D02*
X002780Y005673D01*
X002762Y005666D01*
X002746Y005654D01*
X002734Y005638D01*
X002727Y005620D01*
X002726Y005613D01*
X002787D01*
Y005674D01*
D02*
G37*
G36*
X009589Y005701D02*
X009538Y005650D01*
X009589Y005599D01*
X009640Y005650D01*
X009589Y005701D01*
D02*
G37*
G36*
X003190D02*
X003138Y005650D01*
X003190Y005599D01*
X003241Y005650D01*
X003190Y005701D01*
D02*
G37*
G36*
X007074Y005587D02*
X007013D01*
Y005526D01*
X007020Y005527D01*
X007038Y005534D01*
X007054Y005546D01*
X007066Y005562D01*
X007073Y005580D01*
X007074Y005587D01*
D02*
G37*
G36*
X006987D02*
X006926D01*
X006927Y005580D01*
X006934Y005562D01*
X006946Y005546D01*
X006962Y005534D01*
X006980Y005527D01*
X006987Y005526D01*
Y005587D01*
D02*
G37*
G36*
X006374D02*
X006313D01*
Y005526D01*
X006320Y005527D01*
X006338Y005534D01*
X006354Y005546D01*
X006366Y005562D01*
X006373Y005580D01*
X006374Y005587D01*
D02*
G37*
G36*
X006287D02*
X006226D01*
X006227Y005580D01*
X006234Y005562D01*
X006246Y005546D01*
X006262Y005534D01*
X006280Y005527D01*
X006287Y005526D01*
Y005587D01*
D02*
G37*
G36*
X005674D02*
X005613D01*
Y005526D01*
X005620Y005527D01*
X005638Y005534D01*
X005654Y005546D01*
X005666Y005562D01*
X005673Y005580D01*
X005674Y005587D01*
D02*
G37*
G36*
X005587D02*
X005526D01*
X005527Y005580D01*
X005534Y005562D01*
X005546Y005546D01*
X005562Y005534D01*
X005580Y005527D01*
X005587Y005526D01*
Y005587D01*
D02*
G37*
G36*
X004974D02*
X004913D01*
Y005526D01*
X004920Y005527D01*
X004938Y005534D01*
X004954Y005546D01*
X004966Y005562D01*
X004973Y005580D01*
X004974Y005587D01*
D02*
G37*
G36*
X004887D02*
X004826D01*
X004827Y005580D01*
X004834Y005562D01*
X004846Y005546D01*
X004862Y005534D01*
X004880Y005527D01*
X004887Y005526D01*
Y005587D01*
D02*
G37*
G36*
X004274D02*
X004213D01*
Y005526D01*
X004220Y005527D01*
X004238Y005534D01*
X004254Y005546D01*
X004266Y005562D01*
X004273Y005580D01*
X004274Y005587D01*
D02*
G37*
G36*
X004187D02*
X004126D01*
X004127Y005580D01*
X004134Y005562D01*
X004146Y005546D01*
X004162Y005534D01*
X004180Y005527D01*
X004187Y005526D01*
Y005587D01*
D02*
G37*
G36*
X002874D02*
X002813D01*
Y005526D01*
X002820Y005527D01*
X002838Y005534D01*
X002854Y005546D01*
X002866Y005562D01*
X002873Y005580D01*
X002874Y005587D01*
D02*
G37*
G36*
X002787D02*
X002726D01*
X002727Y005580D01*
X002734Y005562D01*
X002746Y005546D01*
X002762Y005534D01*
X002780Y005527D01*
X002787Y005526D01*
Y005587D01*
D02*
G37*
G36*
X010518Y005394D02*
X010493Y005389D01*
X010473Y005375D01*
X010459Y005355D01*
X010454Y005330D01*
X010458Y005311D01*
X010447Y005299D01*
X010442Y005296D01*
X010436Y005299D01*
X010418Y005301D01*
X010400Y005299D01*
X010382Y005292D01*
X010368Y005280D01*
X010357Y005266D01*
X010350Y005249D01*
X010347Y005230D01*
X010350Y005212D01*
X010357Y005195D01*
X010368Y005180D01*
X010382Y005169D01*
X010400Y005162D01*
X010418Y005160D01*
X010436Y005162D01*
X010453Y005169D01*
X010468Y005180D01*
X010471Y005185D01*
X010565D01*
X010568Y005180D01*
X010582Y005169D01*
X010600Y005162D01*
X010618Y005160D01*
X010636Y005162D01*
X010653Y005169D01*
X010668Y005180D01*
X010679Y005195D01*
X010686Y005212D01*
X010688Y005230D01*
X010686Y005249D01*
X010679Y005266D01*
X010668Y005280D01*
X010653Y005292D01*
X010636Y005299D01*
X010618Y005301D01*
X010600Y005299D01*
X010594Y005296D01*
X010589Y005299D01*
X010578Y005311D01*
X010582Y005330D01*
X010577Y005355D01*
X010563Y005375D01*
X010542Y005389D01*
X010518Y005394D01*
D02*
G37*
G36*
X010618Y005101D02*
X010600Y005099D01*
X010582Y005092D01*
X010568Y005080D01*
X010565Y005076D01*
X010471D01*
X010468Y005080D01*
X010453Y005092D01*
X010436Y005099D01*
X010418Y005101D01*
X010400Y005099D01*
X010382Y005092D01*
X010368Y005080D01*
X010357Y005066D01*
X010350Y005049D01*
X010347Y005030D01*
X010350Y005012D01*
X010357Y004995D01*
X010368Y004980D01*
X010382Y004969D01*
X010400Y004962D01*
X010418Y004960D01*
X010436Y004962D01*
X010453Y004969D01*
X010468Y004980D01*
X010471Y004985D01*
X010565D01*
X010568Y004980D01*
X010582Y004969D01*
X010600Y004962D01*
X010618Y004960D01*
X010636Y004962D01*
X010653Y004969D01*
X010668Y004980D01*
X010679Y004995D01*
X010686Y005012D01*
X010688Y005030D01*
X010686Y005049D01*
X010679Y005066D01*
X010668Y005080D01*
X010653Y005092D01*
X010636Y005099D01*
X010618Y005101D01*
D02*
G37*
G36*
X003385Y005147D02*
X003332D01*
Y005070D01*
X003385D01*
Y005147D01*
D02*
G37*
G36*
X009885D02*
X009833D01*
Y005070D01*
X009885D01*
Y005147D01*
D02*
G37*
G36*
X009807D02*
X009754D01*
Y005070D01*
X009807D01*
Y005147D01*
D02*
G37*
G36*
X003307D02*
X003254D01*
Y005070D01*
X003307D01*
Y005147D01*
D02*
G37*
G36*
X004563Y004974D02*
Y004913D01*
X004624D01*
X004623Y004920D01*
X004616Y004938D01*
X004604Y004954D01*
X004588Y004966D01*
X004570Y004973D01*
X004563Y004974D01*
D02*
G37*
G36*
X009885Y005044D02*
X009754D01*
Y004967D01*
X009766D01*
X009772Y004950D01*
X009772Y004947D01*
X009758Y004926D01*
X009756Y004913D01*
X009884D01*
X009882Y004926D01*
X009868Y004947D01*
X009868Y004950D01*
X009874Y004967D01*
X009885D01*
Y005044D01*
D02*
G37*
G36*
X003385D02*
X003320D01*
X003254D01*
Y004967D01*
X003268D01*
X003274Y004950D01*
X003275Y004947D01*
X003261Y004926D01*
X003258Y004913D01*
X003387D01*
X003384Y004926D01*
X003370Y004947D01*
X003371Y004950D01*
X003377Y004967D01*
X003385D01*
Y005044D01*
D02*
G37*
G36*
X007261Y004999D02*
Y004911D01*
X007349D01*
X007347Y004924D01*
X007337Y004949D01*
X007320Y004970D01*
X007299Y004987D01*
X007274Y004997D01*
X007261Y004999D01*
D02*
G37*
G36*
X007235Y004999D02*
X007221Y004997D01*
X007197Y004987D01*
X007175Y004970D01*
X007159Y004949D01*
X007149Y004924D01*
X007147Y004911D01*
X007235D01*
Y004999D01*
D02*
G37*
G36*
X004537Y004974D02*
X004530Y004973D01*
X004512Y004966D01*
X004496Y004954D01*
X004484Y004938D01*
X004477Y004920D01*
X004476Y004913D01*
X004455Y004910D01*
X004452Y004919D01*
X004436Y004939D01*
X004416Y004954D01*
X004393Y004964D01*
X004368Y004967D01*
X004342Y004964D01*
X004319Y004954D01*
X004299Y004939D01*
X004284Y004919D01*
X004274Y004895D01*
X004271Y004870D01*
X004274Y004845D01*
X004284Y004821D01*
X004299Y004801D01*
X004319Y004786D01*
X004342Y004776D01*
X004368Y004773D01*
X004393Y004776D01*
X004401Y004780D01*
X004414Y004766D01*
Y004540D01*
X004297D01*
Y004220D01*
X004538D01*
Y004540D01*
X004486D01*
Y004781D01*
X004483Y004795D01*
X004475Y004806D01*
X004454Y004827D01*
X004461Y004845D01*
X004463Y004860D01*
X004484Y004863D01*
X004484Y004862D01*
X004496Y004846D01*
X004512Y004834D01*
X004530Y004827D01*
X004537Y004826D01*
Y004900D01*
Y004974D01*
D02*
G37*
G36*
X005904Y004971D02*
Y004883D01*
X005992D01*
X005991Y004897D01*
X005980Y004921D01*
X005964Y004942D01*
X005943Y004959D01*
X005918Y004969D01*
X005904Y004971D01*
D02*
G37*
G36*
X005879D02*
X005865Y004969D01*
X005840Y004959D01*
X005819Y004942D01*
X005803Y004921D01*
X005793Y004897D01*
X005791Y004883D01*
X005879D01*
Y004971D01*
D02*
G37*
G36*
X010631Y004905D02*
Y004843D01*
X010692D01*
X010691Y004850D01*
X010684Y004868D01*
X010672Y004884D01*
X010656Y004896D01*
X010637Y004904D01*
X010631Y004905D01*
D02*
G37*
G36*
X010431D02*
Y004843D01*
X010492D01*
X010491Y004850D01*
X010484Y004868D01*
X010472Y004884D01*
X010456Y004896D01*
X010437Y004904D01*
X010431Y004905D01*
D02*
G37*
G36*
X010605Y004905D02*
X010598Y004904D01*
X010580Y004896D01*
X010564Y004884D01*
X010552Y004868D01*
X010544Y004850D01*
X010543Y004843D01*
X010605D01*
Y004905D01*
D02*
G37*
G36*
X010405D02*
X010398Y004904D01*
X010380Y004896D01*
X010364Y004884D01*
X010352Y004868D01*
X010344Y004850D01*
X010343Y004843D01*
X010405D01*
Y004905D01*
D02*
G37*
G36*
X003190Y005342D02*
X003070D01*
Y005172D01*
X003094D01*
Y005142D01*
X003070D01*
Y004972D01*
X003094D01*
Y004948D01*
X003087Y004943D01*
X003082Y004936D01*
X002900D01*
X002886Y004933D01*
X002875Y004925D01*
X002731Y004781D01*
X002723Y004770D01*
X002720Y004756D01*
Y002794D01*
X002723Y002780D01*
X002731Y002769D01*
X002905Y002595D01*
X002916Y002587D01*
X002930Y002584D01*
X010060D01*
X010074Y002587D01*
X010085Y002595D01*
X010443Y002953D01*
X010451Y002964D01*
X010453Y002978D01*
Y003278D01*
X010469Y003284D01*
X010473Y003285D01*
X010493Y003272D01*
X010518Y003267D01*
X010542Y003272D01*
X010563Y003285D01*
X010577Y003306D01*
X010582Y003330D01*
X010578Y003350D01*
X010589Y003362D01*
X010594Y003365D01*
X010600Y003362D01*
X010618Y003360D01*
X010636Y003362D01*
X010653Y003369D01*
X010668Y003380D01*
X010679Y003395D01*
X010686Y003412D01*
X010688Y003430D01*
X010686Y003449D01*
X010679Y003466D01*
X010668Y003480D01*
X010653Y003492D01*
X010636Y003499D01*
X010618Y003501D01*
X010600Y003499D01*
X010582Y003492D01*
X010568Y003480D01*
X010565Y003476D01*
X010471D01*
X010468Y003480D01*
X010453Y003492D01*
X010436Y003499D01*
X010418Y003501D01*
X010400Y003499D01*
X010382Y003492D01*
X010368Y003480D01*
X010357Y003466D01*
X010350Y003449D01*
X010347Y003430D01*
X010350Y003412D01*
X010357Y003395D01*
X010368Y003380D01*
X010382Y003370D01*
Y002993D01*
X010045Y002656D01*
X002945D01*
X002792Y002809D01*
Y004741D01*
X002915Y004864D01*
X003082D01*
X003087Y004857D01*
X003107Y004843D01*
X003130Y004839D01*
X003153Y004843D01*
X003173Y004857D01*
X003187Y004877D01*
X003191Y004900D01*
X003187Y004923D01*
X003173Y004943D01*
X003165Y004949D01*
Y004972D01*
X003190D01*
Y005142D01*
X003165D01*
Y005172D01*
X003190D01*
Y005342D01*
D02*
G37*
G36*
X003387Y004887D02*
X003335D01*
Y004836D01*
X003348Y004838D01*
X003370Y004853D01*
X003384Y004874D01*
X003387Y004887D01*
D02*
G37*
G36*
X003310D02*
X003258D01*
X003261Y004874D01*
X003275Y004853D01*
X003297Y004838D01*
X003310Y004836D01*
Y004887D01*
D02*
G37*
G36*
X004624Y004887D02*
X004563D01*
Y004826D01*
X004570Y004827D01*
X004588Y004834D01*
X004604Y004846D01*
X004616Y004862D01*
X004623Y004880D01*
X004624Y004887D01*
D02*
G37*
G36*
X008010Y004995D02*
X007985Y004992D01*
X007961Y004982D01*
X007941Y004967D01*
X007926Y004946D01*
X007916Y004923D01*
X007913Y004898D01*
X007916Y004873D01*
X007926Y004849D01*
X007941Y004829D01*
X007961Y004814D01*
X007985Y004804D01*
X008010Y004801D01*
X008035Y004804D01*
X008058Y004814D01*
X008078Y004829D01*
X008094Y004849D01*
X008104Y004873D01*
X008107Y004898D01*
X008104Y004923D01*
X008094Y004946D01*
X008078Y004967D01*
X008058Y004982D01*
X008035Y004992D01*
X008010Y004995D01*
D02*
G37*
G36*
X007349Y004885D02*
X007261D01*
Y004797D01*
X007274Y004799D01*
X007299Y004809D01*
X007320Y004825D01*
X007337Y004847D01*
X007347Y004871D01*
X007349Y004885D01*
D02*
G37*
G36*
X007235D02*
X007147D01*
X007149Y004871D01*
X007159Y004847D01*
X007175Y004825D01*
X007197Y004809D01*
X007221Y004799D01*
X007235Y004797D01*
Y004885D01*
D02*
G37*
G36*
X005992Y004857D02*
X005904D01*
Y004769D01*
X005918Y004771D01*
X005943Y004781D01*
X005964Y004798D01*
X005980Y004819D01*
X005991Y004843D01*
X005992Y004857D01*
D02*
G37*
G36*
X005879D02*
X005791D01*
X005793Y004843D01*
X005803Y004819D01*
X005819Y004798D01*
X005840Y004781D01*
X005865Y004771D01*
X005879Y004769D01*
Y004857D01*
D02*
G37*
G36*
X010692Y004818D02*
X010631D01*
Y004756D01*
X010637Y004757D01*
X010656Y004765D01*
X010672Y004777D01*
X010684Y004792D01*
X010691Y004811D01*
X010692Y004818D01*
D02*
G37*
G36*
X010492D02*
X010431D01*
Y004756D01*
X010437Y004757D01*
X010456Y004765D01*
X010472Y004777D01*
X010484Y004792D01*
X010491Y004811D01*
X010492Y004818D01*
D02*
G37*
G36*
X010605D02*
X010543D01*
X010544Y004811D01*
X010552Y004792D01*
X010564Y004777D01*
X010580Y004765D01*
X010598Y004757D01*
X010605Y004756D01*
Y004818D01*
D02*
G37*
G36*
X010405D02*
X010343D01*
X010344Y004811D01*
X010352Y004792D01*
X010364Y004777D01*
X010380Y004765D01*
X010398Y004757D01*
X010405Y004756D01*
Y004818D01*
D02*
G37*
G36*
X010631Y004705D02*
Y004643D01*
X010692D01*
X010691Y004650D01*
X010684Y004668D01*
X010672Y004684D01*
X010656Y004696D01*
X010637Y004704D01*
X010631Y004705D01*
D02*
G37*
G36*
X010431D02*
Y004643D01*
X010492D01*
X010491Y004650D01*
X010484Y004668D01*
X010472Y004684D01*
X010456Y004696D01*
X010437Y004704D01*
X010431Y004705D01*
D02*
G37*
G36*
X010605Y004705D02*
X010598Y004704D01*
X010580Y004696D01*
X010564Y004684D01*
X010552Y004668D01*
X010544Y004650D01*
X010543Y004643D01*
X010605D01*
Y004705D01*
D02*
G37*
G36*
X010405D02*
X010398Y004704D01*
X010380Y004696D01*
X010364Y004684D01*
X010352Y004668D01*
X010344Y004650D01*
X010343Y004643D01*
X010405D01*
Y004705D01*
D02*
G37*
G36*
X010692Y004618D02*
X010631D01*
Y004556D01*
X010637Y004557D01*
X010656Y004565D01*
X010672Y004577D01*
X010684Y004592D01*
X010691Y004611D01*
X010692Y004618D01*
D02*
G37*
G36*
X010492D02*
X010431D01*
Y004556D01*
X010437Y004557D01*
X010456Y004565D01*
X010472Y004577D01*
X010484Y004592D01*
X010491Y004611D01*
X010492Y004618D01*
D02*
G37*
G36*
X010605D02*
X010543D01*
X010544Y004611D01*
X010552Y004592D01*
X010564Y004577D01*
X010580Y004565D01*
X010598Y004557D01*
X010605Y004556D01*
Y004618D01*
D02*
G37*
G36*
X010405D02*
X010343D01*
X010344Y004611D01*
X010352Y004592D01*
X010364Y004577D01*
X010380Y004565D01*
X010398Y004557D01*
X010405Y004556D01*
Y004618D01*
D02*
G37*
G36*
X005973Y004574D02*
Y004513D01*
X006034D01*
X006033Y004520D01*
X006026Y004538D01*
X006014Y004554D01*
X005998Y004566D01*
X005980Y004573D01*
X005973Y004574D01*
D02*
G37*
G36*
X005947D02*
X005940Y004573D01*
X005922Y004566D01*
X005906Y004554D01*
X005894Y004538D01*
X005887Y004520D01*
X005886Y004513D01*
X005947D01*
Y004574D01*
D02*
G37*
G36*
X010618Y004501D02*
X010600Y004499D01*
X010582Y004492D01*
X010568Y004480D01*
X010565Y004476D01*
X010471D01*
X010468Y004480D01*
X010453Y004492D01*
X010436Y004499D01*
X010418Y004501D01*
X010400Y004499D01*
X010382Y004492D01*
X010368Y004480D01*
X010357Y004466D01*
X010350Y004449D01*
X010347Y004430D01*
X010350Y004412D01*
X010357Y004395D01*
X010368Y004380D01*
X010382Y004369D01*
X010400Y004362D01*
X010418Y004360D01*
X010436Y004362D01*
X010453Y004369D01*
X010468Y004380D01*
X010471Y004385D01*
X010565D01*
X010568Y004380D01*
X010582Y004369D01*
X010600Y004362D01*
X010618Y004360D01*
X010636Y004362D01*
X010653Y004369D01*
X010668Y004380D01*
X010679Y004395D01*
X010686Y004412D01*
X010688Y004430D01*
X010686Y004449D01*
X010679Y004466D01*
X010668Y004480D01*
X010653Y004492D01*
X010636Y004499D01*
X010618Y004501D01*
D02*
G37*
G36*
X006034Y004487D02*
X005973D01*
Y004426D01*
X005980Y004427D01*
X005998Y004434D01*
X006014Y004446D01*
X006026Y004462D01*
X006033Y004480D01*
X006034Y004487D01*
D02*
G37*
G36*
X005947D02*
X005886D01*
X005887Y004480D01*
X005894Y004462D01*
X005906Y004446D01*
X005922Y004434D01*
X005940Y004427D01*
X005947Y004426D01*
Y004487D01*
D02*
G37*
G36*
X005685Y004545D02*
X005573D01*
Y004393D01*
X005685D01*
Y004545D01*
D02*
G37*
G36*
X005547D02*
X005435D01*
Y004393D01*
X005547D01*
Y004545D01*
D02*
G37*
G36*
X010618Y004301D02*
X010600Y004299D01*
X010582Y004292D01*
X010568Y004280D01*
X010565Y004276D01*
X010471D01*
X010468Y004280D01*
X010453Y004292D01*
X010436Y004299D01*
X010418Y004301D01*
X010400Y004299D01*
X010382Y004292D01*
X010368Y004280D01*
X010357Y004266D01*
X010350Y004249D01*
X010347Y004230D01*
X010350Y004212D01*
X010357Y004195D01*
X010368Y004180D01*
X010382Y004169D01*
X010400Y004162D01*
X010418Y004160D01*
X010436Y004162D01*
X010453Y004169D01*
X010468Y004180D01*
X010471Y004185D01*
X010565D01*
X010568Y004180D01*
X010582Y004169D01*
X010600Y004162D01*
X010618Y004160D01*
X010636Y004162D01*
X010653Y004169D01*
X010668Y004180D01*
X010679Y004195D01*
X010686Y004212D01*
X010688Y004230D01*
X010686Y004249D01*
X010679Y004266D01*
X010668Y004280D01*
X010653Y004292D01*
X010636Y004299D01*
X010618Y004301D01*
D02*
G37*
G36*
X004876Y004967D02*
X004850Y004964D01*
X004827Y004954D01*
X004807Y004939D01*
X004792Y004919D01*
X004782Y004895D01*
X004779Y004870D01*
X004782Y004845D01*
X004792Y004821D01*
X004807Y004801D01*
X004827Y004786D01*
X004830Y004785D01*
Y004444D01*
X004833Y004427D01*
X004843Y004412D01*
X004908Y004348D01*
X004922Y004338D01*
X004940Y004334D01*
X005072D01*
Y004220D01*
X005312D01*
Y004540D01*
X005072D01*
Y004426D01*
X004959D01*
X004921Y004463D01*
Y004785D01*
X004924Y004786D01*
X004944Y004801D01*
X004960Y004821D01*
X004969Y004845D01*
X004973Y004870D01*
X004969Y004895D01*
X004960Y004919D01*
X004944Y004939D01*
X004924Y004954D01*
X004901Y004964D01*
X004876Y004967D01*
D02*
G37*
G36*
X005685Y004367D02*
X005573D01*
Y004215D01*
X005685D01*
Y004367D01*
D02*
G37*
G36*
X005547D02*
X005435D01*
Y004215D01*
X005547D01*
Y004367D01*
D02*
G37*
G36*
X008413Y004274D02*
Y004213D01*
X008474D01*
X008473Y004220D01*
X008466Y004238D01*
X008454Y004254D01*
X008438Y004266D01*
X008420Y004273D01*
X008413Y004274D01*
D02*
G37*
G36*
X008387D02*
X008380Y004273D01*
X008362Y004266D01*
X008346Y004254D01*
X008334Y004238D01*
X008327Y004220D01*
X008326Y004213D01*
X008387D01*
Y004274D01*
D02*
G37*
G36*
X007713D02*
Y004213D01*
X007774D01*
X007773Y004220D01*
X007766Y004238D01*
X007754Y004254D01*
X007738Y004266D01*
X007720Y004273D01*
X007713Y004274D01*
D02*
G37*
G36*
X007687D02*
X007680Y004273D01*
X007662Y004266D01*
X007646Y004254D01*
X007634Y004238D01*
X007627Y004220D01*
X007626Y004213D01*
X007687D01*
Y004274D01*
D02*
G37*
G36*
X004913D02*
Y004213D01*
X004974D01*
X004973Y004220D01*
X004966Y004238D01*
X004954Y004254D01*
X004938Y004266D01*
X004920Y004273D01*
X004913Y004274D01*
D02*
G37*
G36*
X004887D02*
X004880Y004273D01*
X004862Y004266D01*
X004846Y004254D01*
X004834Y004238D01*
X004827Y004220D01*
X004826Y004213D01*
X004887D01*
Y004274D01*
D02*
G37*
G36*
X008474Y004187D02*
X008413D01*
Y004126D01*
X008420Y004127D01*
X008438Y004134D01*
X008454Y004146D01*
X008466Y004162D01*
X008473Y004180D01*
X008474Y004187D01*
D02*
G37*
G36*
X008387D02*
X008326D01*
X008327Y004180D01*
X008334Y004162D01*
X008346Y004146D01*
X008362Y004134D01*
X008380Y004127D01*
X008387Y004126D01*
Y004187D01*
D02*
G37*
G36*
X007774D02*
X007713D01*
Y004126D01*
X007720Y004127D01*
X007738Y004134D01*
X007754Y004146D01*
X007766Y004162D01*
X007773Y004180D01*
X007774Y004187D01*
D02*
G37*
G36*
X007687D02*
X007626D01*
X007627Y004180D01*
X007634Y004162D01*
X007646Y004146D01*
X007662Y004134D01*
X007680Y004127D01*
X007687Y004126D01*
Y004187D01*
D02*
G37*
G36*
X004974D02*
X004913D01*
Y004126D01*
X004920Y004127D01*
X004938Y004134D01*
X004954Y004146D01*
X004966Y004162D01*
X004973Y004180D01*
X004974Y004187D01*
D02*
G37*
G36*
X004887D02*
X004826D01*
X004827Y004180D01*
X004834Y004162D01*
X004846Y004146D01*
X004862Y004134D01*
X004880Y004127D01*
X004887Y004126D01*
Y004187D01*
D02*
G37*
G36*
X010618Y004101D02*
X010600Y004099D01*
X010582Y004092D01*
X010568Y004080D01*
X010565Y004076D01*
X010471D01*
X010468Y004080D01*
X010453Y004092D01*
X010436Y004099D01*
X010418Y004101D01*
X010400Y004099D01*
X010382Y004092D01*
X010368Y004080D01*
X010357Y004066D01*
X010350Y004049D01*
X010347Y004030D01*
X010350Y004012D01*
X010357Y003995D01*
X010368Y003980D01*
X010382Y003969D01*
X010400Y003962D01*
X010418Y003960D01*
X010436Y003962D01*
X010453Y003969D01*
X010468Y003980D01*
X010471Y003985D01*
X010565D01*
X010568Y003980D01*
X010582Y003969D01*
X010600Y003962D01*
X010618Y003960D01*
X010636Y003962D01*
X010653Y003969D01*
X010668Y003980D01*
X010679Y003995D01*
X010686Y004012D01*
X010688Y004030D01*
X010686Y004049D01*
X010679Y004066D01*
X010668Y004080D01*
X010653Y004092D01*
X010636Y004099D01*
X010618Y004101D01*
D02*
G37*
G36*
X006570Y004651D02*
X006520Y004647D01*
X006471Y004635D01*
X006424Y004616D01*
X006381Y004590D01*
X006343Y004557D01*
X006310Y004519D01*
X006284Y004476D01*
X006264Y004429D01*
X006253Y004380D01*
X006249Y004330D01*
X006253Y004280D01*
X006264Y004231D01*
X006284Y004184D01*
X006310Y004141D01*
X006343Y004103D01*
X006381Y004070D01*
X006424Y004044D01*
X006471Y004025D01*
X006520Y004013D01*
X006570Y004009D01*
X006620Y004013D01*
X006669Y004025D01*
X006715Y004044D01*
X006758Y004070D01*
X006797Y004103D01*
X006829Y004141D01*
X006856Y004184D01*
X006875Y004231D01*
X006887Y004280D01*
X006891Y004330D01*
X006887Y004380D01*
X006875Y004429D01*
X006856Y004476D01*
X006829Y004519D01*
X006797Y004557D01*
X006758Y004590D01*
X006715Y004616D01*
X006669Y004635D01*
X006620Y004647D01*
X006570Y004651D01*
D02*
G37*
G36*
X010618Y003901D02*
X010600Y003899D01*
X010582Y003892D01*
X010568Y003880D01*
X010565Y003876D01*
X010471D01*
X010468Y003880D01*
X010453Y003892D01*
X010436Y003899D01*
X010418Y003901D01*
X010400Y003899D01*
X010382Y003892D01*
X010368Y003880D01*
X010357Y003866D01*
X010350Y003849D01*
X010347Y003830D01*
X010350Y003812D01*
X010357Y003795D01*
X010368Y003780D01*
X010382Y003769D01*
X010400Y003762D01*
X010418Y003760D01*
X010436Y003762D01*
X010453Y003769D01*
X010468Y003780D01*
X010471Y003785D01*
X010565D01*
X010568Y003780D01*
X010582Y003769D01*
X010600Y003762D01*
X010618Y003760D01*
X010636Y003762D01*
X010653Y003769D01*
X010668Y003780D01*
X010679Y003795D01*
X010686Y003812D01*
X010688Y003830D01*
X010686Y003849D01*
X010679Y003866D01*
X010668Y003880D01*
X010653Y003892D01*
X010636Y003899D01*
X010618Y003901D01*
D02*
G37*
G36*
X005253Y003873D02*
X005214Y003868D01*
X005178Y003853D01*
X005146Y003829D01*
X005138Y003818D01*
X004833D01*
Y003872D01*
X004472D01*
Y003572D01*
X004833D01*
Y003626D01*
X005138D01*
X005146Y003615D01*
X005178Y003591D01*
X005214Y003576D01*
X005253Y003571D01*
X005292Y003576D01*
X005329Y003591D01*
X005360Y003615D01*
X005384Y003646D01*
X005399Y003683D01*
X005404Y003722D01*
X005399Y003761D01*
X005384Y003798D01*
X005360Y003829D01*
X005329Y003853D01*
X005292Y003868D01*
X005253Y003873D01*
D02*
G37*
G36*
X007473Y003824D02*
Y003763D01*
X007534D01*
X007533Y003770D01*
X007526Y003788D01*
X007514Y003804D01*
X007498Y003816D01*
X007480Y003823D01*
X007473Y003824D01*
D02*
G37*
G36*
X007447D02*
X007440Y003823D01*
X007422Y003816D01*
X007406Y003804D01*
X007394Y003788D01*
X007387Y003770D01*
X007386Y003763D01*
X007447D01*
Y003824D01*
D02*
G37*
G36*
X007534Y003737D02*
X007473D01*
Y003676D01*
X007480Y003677D01*
X007498Y003684D01*
X007514Y003696D01*
X007526Y003712D01*
X007533Y003730D01*
X007534Y003737D01*
D02*
G37*
G36*
X007447D02*
X007386D01*
X007387Y003730D01*
X007394Y003712D01*
X007406Y003696D01*
X007422Y003684D01*
X007440Y003677D01*
X007447Y003676D01*
Y003737D01*
D02*
G37*
G36*
X007882Y003878D02*
X007842Y003873D01*
X007806Y003858D01*
X007775Y003834D01*
X007750Y003802D01*
X007735Y003766D01*
X007730Y003727D01*
X007735Y003688D01*
X007750Y003651D01*
X007775Y003620D01*
X007806Y003596D01*
X007842Y003581D01*
X007882Y003575D01*
X007921Y003581D01*
X007957Y003596D01*
X007988Y003620D01*
X007997Y003631D01*
X008282D01*
Y003577D01*
X008643D01*
Y003877D01*
X008282D01*
Y003823D01*
X007997D01*
X007988Y003834D01*
X007957Y003858D01*
X007921Y003873D01*
X007882Y003878D01*
D02*
G37*
G36*
X006993D02*
X006953Y003873D01*
X006917Y003858D01*
X006886Y003834D01*
X006861Y003802D01*
X006846Y003766D01*
X006841Y003727D01*
X006846Y003688D01*
X006861Y003651D01*
X006886Y003620D01*
X006917Y003596D01*
X006953Y003581D01*
X006993Y003575D01*
X007032Y003581D01*
X007068Y003596D01*
X007099Y003620D01*
X007124Y003651D01*
X007139Y003688D01*
X007144Y003727D01*
X007139Y003766D01*
X007124Y003802D01*
X007099Y003834D01*
X007068Y003858D01*
X007032Y003873D01*
X006993Y003878D01*
D02*
G37*
G36*
X006142Y003873D02*
X006103Y003868D01*
X006067Y003853D01*
X006035Y003829D01*
X006011Y003798D01*
X005996Y003761D01*
X005991Y003722D01*
X005996Y003683D01*
X006011Y003646D01*
X006035Y003615D01*
X006067Y003591D01*
X006103Y003576D01*
X006142Y003571D01*
X006181Y003576D01*
X006218Y003591D01*
X006249Y003615D01*
X006273Y003646D01*
X006288Y003683D01*
X006293Y003722D01*
X006288Y003761D01*
X006273Y003798D01*
X006249Y003829D01*
X006218Y003853D01*
X006181Y003868D01*
X006142Y003873D01*
D02*
G37*
G36*
X007363Y003574D02*
Y003513D01*
X007424D01*
X007423Y003520D01*
X007416Y003538D01*
X007404Y003554D01*
X007388Y003566D01*
X007370Y003573D01*
X007363Y003574D01*
D02*
G37*
G36*
X007337D02*
X007330Y003573D01*
X007312Y003566D01*
X007296Y003554D01*
X007284Y003538D01*
X007277Y003520D01*
X007276Y003513D01*
X007337D01*
Y003574D01*
D02*
G37*
G36*
X006663D02*
Y003513D01*
X006724D01*
X006723Y003520D01*
X006716Y003538D01*
X006704Y003554D01*
X006688Y003566D01*
X006670Y003573D01*
X006663Y003574D01*
D02*
G37*
G36*
X006637D02*
X006630Y003573D01*
X006612Y003566D01*
X006596Y003554D01*
X006584Y003538D01*
X006577Y003520D01*
X006576Y003513D01*
X006637D01*
Y003574D01*
D02*
G37*
G36*
X005963D02*
Y003513D01*
X006024D01*
X006023Y003520D01*
X006016Y003538D01*
X006004Y003554D01*
X005988Y003566D01*
X005970Y003573D01*
X005963Y003574D01*
D02*
G37*
G36*
X005937D02*
X005930Y003573D01*
X005912Y003566D01*
X005896Y003554D01*
X005884Y003538D01*
X005877Y003520D01*
X005876Y003513D01*
X005937D01*
Y003574D01*
D02*
G37*
G36*
X007424Y003487D02*
X007363D01*
Y003426D01*
X007370Y003427D01*
X007388Y003434D01*
X007404Y003446D01*
X007416Y003462D01*
X007423Y003480D01*
X007424Y003487D01*
D02*
G37*
G36*
X007337D02*
X007276D01*
X007277Y003480D01*
X007284Y003462D01*
X007296Y003446D01*
X007312Y003434D01*
X007330Y003427D01*
X007337Y003426D01*
Y003487D01*
D02*
G37*
G36*
X006724D02*
X006663D01*
Y003426D01*
X006670Y003427D01*
X006688Y003434D01*
X006704Y003446D01*
X006716Y003462D01*
X006723Y003480D01*
X006724Y003487D01*
D02*
G37*
G36*
X006637D02*
X006576D01*
X006577Y003480D01*
X006584Y003462D01*
X006596Y003446D01*
X006612Y003434D01*
X006630Y003427D01*
X006637Y003426D01*
Y003487D01*
D02*
G37*
G36*
X006024D02*
X005963D01*
Y003426D01*
X005970Y003427D01*
X005988Y003434D01*
X006004Y003446D01*
X006016Y003462D01*
X006023Y003480D01*
X006024Y003487D01*
D02*
G37*
G36*
X005937D02*
X005876D01*
X005877Y003480D01*
X005884Y003462D01*
X005896Y003446D01*
X005912Y003434D01*
X005930Y003427D01*
X005937Y003426D01*
Y003487D01*
D02*
G37*
G36*
X005253Y003111D02*
X005214Y003106D01*
X005178Y003091D01*
X005146Y003067D01*
X005138Y003056D01*
X004833D01*
Y003110D01*
X004472D01*
Y002810D01*
X004833D01*
Y002864D01*
X005138D01*
X005146Y002853D01*
X005178Y002829D01*
X005214Y002814D01*
X005253Y002809D01*
X005292Y002814D01*
X005329Y002829D01*
X005360Y002853D01*
X005384Y002884D01*
X005399Y002921D01*
X005404Y002960D01*
X005399Y002999D01*
X005384Y003036D01*
X005360Y003067D01*
X005329Y003091D01*
X005292Y003106D01*
X005253Y003111D01*
D02*
G37*
G36*
X007882Y003116D02*
X007842Y003111D01*
X007806Y003096D01*
X007775Y003072D01*
X007750Y003040D01*
X007735Y003004D01*
X007730Y002965D01*
X007735Y002926D01*
X007750Y002889D01*
X007765Y002871D01*
X007750Y002856D01*
X007738Y002866D01*
X007720Y002873D01*
X007713Y002874D01*
Y002813D01*
X007774D01*
X007773Y002820D01*
X007766Y002838D01*
X007764Y002841D01*
X007778Y002855D01*
X007806Y002834D01*
X007842Y002819D01*
X007882Y002813D01*
X007921Y002819D01*
X007957Y002834D01*
X007988Y002858D01*
X007995Y002867D01*
X008282D01*
Y002815D01*
X008643D01*
Y003115D01*
X008282D01*
Y003058D01*
X007999D01*
X007988Y003072D01*
X007957Y003096D01*
X007921Y003111D01*
X007882Y003116D01*
D02*
G37*
G36*
X010062Y003117D02*
X009703D01*
Y002817D01*
X010062D01*
Y003117D01*
D02*
G37*
G36*
X006993Y003116D02*
X006953Y003111D01*
X006917Y003096D01*
X006886Y003072D01*
X006861Y003040D01*
X006846Y003004D01*
X006841Y002965D01*
X006846Y002926D01*
X006861Y002889D01*
X006886Y002858D01*
X006917Y002834D01*
X006953Y002819D01*
X006993Y002813D01*
X007032Y002819D01*
X007068Y002834D01*
X007099Y002858D01*
X007124Y002889D01*
X007139Y002926D01*
X007144Y002965D01*
X007139Y003004D01*
X007124Y003040D01*
X007099Y003072D01*
X007068Y003096D01*
X007032Y003111D01*
X006993Y003116D01*
D02*
G37*
G36*
X009113Y002874D02*
Y002813D01*
X009174D01*
X009173Y002820D01*
X009166Y002838D01*
X009154Y002854D01*
X009138Y002866D01*
X009120Y002873D01*
X009113Y002874D01*
D02*
G37*
G36*
X009087D02*
X009080Y002873D01*
X009062Y002866D01*
X009046Y002854D01*
X009034Y002838D01*
X009027Y002820D01*
X009026Y002813D01*
X009087D01*
Y002874D01*
D02*
G37*
G36*
X007687D02*
X007680Y002873D01*
X007662Y002866D01*
X007646Y002854D01*
X007634Y002838D01*
X007627Y002820D01*
X007626Y002813D01*
X007687D01*
Y002874D01*
D02*
G37*
G36*
X005613D02*
Y002813D01*
X005674D01*
X005673Y002820D01*
X005666Y002838D01*
X005654Y002854D01*
X005638Y002866D01*
X005620Y002873D01*
X005613Y002874D01*
D02*
G37*
G36*
X005587D02*
X005580Y002873D01*
X005562Y002866D01*
X005546Y002854D01*
X005534Y002838D01*
X005527Y002820D01*
X005526Y002813D01*
X005587D01*
Y002874D01*
D02*
G37*
G36*
X006142Y003111D02*
X006103Y003106D01*
X006067Y003091D01*
X006035Y003067D01*
X006011Y003036D01*
X005996Y002999D01*
X005991Y002960D01*
X005996Y002921D01*
X006011Y002884D01*
X006035Y002853D01*
X006067Y002829D01*
X006103Y002814D01*
X006142Y002809D01*
X006181Y002814D01*
X006218Y002829D01*
X006249Y002853D01*
X006273Y002884D01*
X006288Y002921D01*
X006293Y002960D01*
X006288Y002999D01*
X006273Y003036D01*
X006249Y003067D01*
X006218Y003091D01*
X006181Y003106D01*
X006142Y003111D01*
D02*
G37*
G36*
X004185Y005345D02*
X003600D01*
X003592Y005344D01*
X003586Y005339D01*
X003581Y005333D01*
X003580Y005325D01*
Y004270D01*
X003000D01*
X002992Y004269D01*
X002986Y004264D01*
X002981Y004258D01*
X002980Y004250D01*
Y002750D01*
X002981Y002742D01*
X002986Y002736D01*
X002992Y002731D01*
X003000Y002730D01*
X004185D01*
X004193Y002731D01*
X004199Y002736D01*
X004204Y002742D01*
X004205Y002750D01*
Y004209D01*
X004205Y004212D01*
X004205Y004215D01*
X004204Y004216D01*
X004204Y004217D01*
X004202Y004219D01*
X004201Y004222D01*
X004200Y004223D01*
X004199Y004223D01*
X004197Y004225D01*
X004195Y004227D01*
X004184Y004233D01*
X004183Y004233D01*
X004182Y004233D01*
X004179Y004234D01*
X004177Y004235D01*
X004170Y004251D01*
X004169Y004254D01*
Y004506D01*
X004170Y004509D01*
X004177Y004525D01*
X004179Y004526D01*
X004182Y004527D01*
X004183Y004527D01*
X004184Y004527D01*
X004195Y004533D01*
X004197Y004535D01*
X004199Y004537D01*
X004200Y004537D01*
X004201Y004538D01*
X004202Y004541D01*
X004204Y004543D01*
X004204Y004544D01*
X004205Y004545D01*
X004205Y004548D01*
X004205Y004551D01*
Y004768D01*
X004205Y004768D01*
X004210Y004774D01*
X004210D01*
Y004966D01*
X004210D01*
X004205Y004972D01*
X004205Y004972D01*
Y005325D01*
X004204Y005333D01*
X004199Y005339D01*
X004193Y005344D01*
X004185Y005345D01*
D02*
G37*
G36*
X009174Y002787D02*
X009113D01*
Y002726D01*
X009120Y002727D01*
X009138Y002734D01*
X009154Y002746D01*
X009166Y002762D01*
X009173Y002780D01*
X009174Y002787D01*
D02*
G37*
G36*
X009087D02*
X009026D01*
X009027Y002780D01*
X009034Y002762D01*
X009046Y002746D01*
X009062Y002734D01*
X009080Y002727D01*
X009087Y002726D01*
Y002787D01*
D02*
G37*
G36*
X007774D02*
X007713D01*
Y002726D01*
X007720Y002727D01*
X007738Y002734D01*
X007754Y002746D01*
X007766Y002762D01*
X007773Y002780D01*
X007774Y002787D01*
D02*
G37*
G36*
X007687D02*
X007626D01*
X007627Y002780D01*
X007634Y002762D01*
X007646Y002746D01*
X007662Y002734D01*
X007680Y002727D01*
X007687Y002726D01*
Y002787D01*
D02*
G37*
G36*
X005674D02*
X005613D01*
Y002726D01*
X005620Y002727D01*
X005638Y002734D01*
X005654Y002746D01*
X005666Y002762D01*
X005673Y002780D01*
X005674Y002787D01*
D02*
G37*
G36*
X005587D02*
X005526D01*
X005527Y002780D01*
X005534Y002762D01*
X005546Y002746D01*
X005562Y002734D01*
X005580Y002727D01*
X005587Y002726D01*
Y002787D01*
D02*
G37*
G36*
X005312Y002535D02*
Y002443D01*
X005404D01*
X005402Y002458D01*
X005392Y002483D01*
X005375Y002505D01*
X005353Y002522D01*
X005327Y002533D01*
X005312Y002535D01*
D02*
G37*
G36*
X005287D02*
X005272Y002533D01*
X005247Y002522D01*
X005225Y002505D01*
X005208Y002483D01*
X005197Y002458D01*
X005195Y002443D01*
X005287D01*
Y002535D01*
D02*
G37*
G36*
X005058D02*
Y002443D01*
X005150D01*
X005148Y002458D01*
X005138Y002483D01*
X005121Y002505D01*
X005099Y002522D01*
X005073Y002533D01*
X005058Y002535D01*
D02*
G37*
G36*
X005033D02*
X005018Y002533D01*
X004993Y002522D01*
X004971Y002505D01*
X004954Y002483D01*
X004943Y002458D01*
X004941Y002443D01*
X005033D01*
Y002535D01*
D02*
G37*
G36*
X007852Y002535D02*
Y002443D01*
X007944D01*
X007942Y002458D01*
X007932Y002483D01*
X007915Y002505D01*
X007893Y002522D01*
X007867Y002533D01*
X007852Y002535D01*
D02*
G37*
G36*
X008106D02*
Y002443D01*
X008198D01*
X008196Y002458D01*
X008186Y002483D01*
X008169Y002505D01*
X008147Y002522D01*
X008121Y002533D01*
X008106Y002535D01*
D02*
G37*
G36*
X007827Y002535D02*
X007812Y002533D01*
X007787Y002522D01*
X007765Y002505D01*
X007748Y002483D01*
X007737Y002458D01*
X007735Y002443D01*
X007827D01*
Y002535D01*
D02*
G37*
G36*
X008081D02*
X008066Y002533D01*
X008041Y002522D01*
X008019Y002505D01*
X008002Y002483D01*
X007991Y002458D01*
X007989Y002443D01*
X008081D01*
Y002535D01*
D02*
G37*
G36*
X009210Y002530D02*
X009010D01*
Y002330D01*
X009210D01*
Y002530D01*
D02*
G37*
G36*
X006316Y002531D02*
X006290Y002527D01*
X006265Y002517D01*
X006244Y002501D01*
X006228Y002480D01*
X006218Y002456D01*
X006215Y002430D01*
X006218Y002404D01*
X006228Y002380D01*
X006244Y002359D01*
X006265Y002343D01*
X006290Y002333D01*
X006316Y002329D01*
X006342Y002333D01*
X006366Y002343D01*
X006387Y002359D01*
X006403Y002380D01*
X006413Y002404D01*
X006417Y002430D01*
X006413Y002456D01*
X006403Y002480D01*
X006387Y002501D01*
X006366Y002517D01*
X006342Y002527D01*
X006316Y002531D01*
D02*
G37*
G36*
X006062D02*
X006036Y002527D01*
X006011Y002517D01*
X005990Y002501D01*
X005974Y002480D01*
X005964Y002456D01*
X005961Y002430D01*
X005964Y002404D01*
X005974Y002380D01*
X005990Y002359D01*
X006011Y002343D01*
X006036Y002333D01*
X006062Y002329D01*
X006088Y002333D01*
X006112Y002343D01*
X006133Y002359D01*
X006149Y002380D01*
X006159Y002404D01*
X006163Y002430D01*
X006159Y002456D01*
X006149Y002480D01*
X006133Y002501D01*
X006112Y002517D01*
X006088Y002527D01*
X006062Y002531D01*
D02*
G37*
G36*
X005808D02*
X005782Y002527D01*
X005757Y002517D01*
X005736Y002501D01*
X005720Y002480D01*
X005710Y002456D01*
X005707Y002430D01*
X005710Y002404D01*
X005720Y002380D01*
X005736Y002359D01*
X005757Y002343D01*
X005782Y002333D01*
X005808Y002329D01*
X005834Y002333D01*
X005858Y002343D01*
X005879Y002359D01*
X005895Y002380D01*
X005905Y002404D01*
X005909Y002430D01*
X005905Y002456D01*
X005895Y002480D01*
X005879Y002501D01*
X005858Y002517D01*
X005834Y002527D01*
X005808Y002531D01*
D02*
G37*
G36*
X005554D02*
X005528Y002527D01*
X005503Y002517D01*
X005482Y002501D01*
X005466Y002480D01*
X005456Y002456D01*
X005453Y002430D01*
X005456Y002404D01*
X005466Y002380D01*
X005482Y002359D01*
X005503Y002343D01*
X005528Y002333D01*
X005554Y002329D01*
X005580Y002333D01*
X005604Y002343D01*
X005625Y002359D01*
X005641Y002380D01*
X005651Y002404D01*
X005655Y002430D01*
X005651Y002456D01*
X005641Y002480D01*
X005625Y002501D01*
X005604Y002517D01*
X005580Y002527D01*
X005554Y002531D01*
D02*
G37*
G36*
X004792D02*
X004766Y002527D01*
X004741Y002517D01*
X004720Y002501D01*
X004704Y002480D01*
X004694Y002456D01*
X004691Y002430D01*
X004694Y002404D01*
X004704Y002380D01*
X004720Y002359D01*
X004741Y002343D01*
X004766Y002333D01*
X004792Y002329D01*
X004818Y002333D01*
X004842Y002343D01*
X004863Y002359D01*
X004879Y002380D01*
X004889Y002404D01*
X004893Y002430D01*
X004889Y002456D01*
X004879Y002480D01*
X004863Y002501D01*
X004842Y002517D01*
X004818Y002527D01*
X004792Y002531D01*
D02*
G37*
G36*
X004538D02*
X004512Y002527D01*
X004487Y002517D01*
X004466Y002501D01*
X004450Y002480D01*
X004440Y002456D01*
X004437Y002430D01*
X004440Y002404D01*
X004450Y002380D01*
X004466Y002359D01*
X004487Y002343D01*
X004512Y002333D01*
X004538Y002329D01*
X004564Y002333D01*
X004588Y002343D01*
X004609Y002359D01*
X004625Y002380D01*
X004635Y002404D01*
X004639Y002430D01*
X004635Y002456D01*
X004625Y002480D01*
X004609Y002501D01*
X004588Y002517D01*
X004564Y002527D01*
X004538Y002531D01*
D02*
G37*
G36*
X004284D02*
X004258Y002527D01*
X004233Y002517D01*
X004212Y002501D01*
X004196Y002480D01*
X004186Y002456D01*
X004183Y002430D01*
X004186Y002404D01*
X004196Y002380D01*
X004212Y002359D01*
X004233Y002343D01*
X004258Y002333D01*
X004284Y002329D01*
X004310Y002333D01*
X004334Y002343D01*
X004355Y002359D01*
X004371Y002380D01*
X004381Y002404D01*
X004385Y002430D01*
X004381Y002456D01*
X004371Y002480D01*
X004355Y002501D01*
X004334Y002517D01*
X004310Y002527D01*
X004284Y002531D01*
D02*
G37*
G36*
X004030D02*
X004004Y002527D01*
X003979Y002517D01*
X003958Y002501D01*
X003942Y002480D01*
X003932Y002456D01*
X003929Y002430D01*
X003932Y002404D01*
X003942Y002380D01*
X003958Y002359D01*
X003979Y002343D01*
X004004Y002333D01*
X004030Y002329D01*
X004056Y002333D01*
X004080Y002343D01*
X004101Y002359D01*
X004117Y002380D01*
X004127Y002404D01*
X004131Y002430D01*
X004127Y002456D01*
X004117Y002480D01*
X004101Y002501D01*
X004080Y002517D01*
X004056Y002527D01*
X004030Y002531D01*
D02*
G37*
G36*
X008856Y002531D02*
X008830Y002527D01*
X008805Y002517D01*
X008784Y002501D01*
X008768Y002480D01*
X008758Y002456D01*
X008755Y002430D01*
X008758Y002404D01*
X008768Y002380D01*
X008784Y002359D01*
X008805Y002343D01*
X008830Y002333D01*
X008856Y002329D01*
X008882Y002333D01*
X008906Y002343D01*
X008927Y002359D01*
X008943Y002380D01*
X008953Y002404D01*
X008957Y002430D01*
X008953Y002456D01*
X008943Y002480D01*
X008927Y002501D01*
X008906Y002517D01*
X008882Y002527D01*
X008856Y002531D01*
D02*
G37*
G36*
X008602D02*
X008576Y002527D01*
X008551Y002517D01*
X008530Y002501D01*
X008514Y002480D01*
X008504Y002456D01*
X008501Y002430D01*
X008504Y002404D01*
X008514Y002380D01*
X008530Y002359D01*
X008551Y002343D01*
X008576Y002333D01*
X008602Y002329D01*
X008628Y002333D01*
X008652Y002343D01*
X008673Y002359D01*
X008689Y002380D01*
X008699Y002404D01*
X008703Y002430D01*
X008699Y002456D01*
X008689Y002480D01*
X008673Y002501D01*
X008652Y002517D01*
X008628Y002527D01*
X008602Y002531D01*
D02*
G37*
G36*
X008348D02*
X008322Y002527D01*
X008297Y002517D01*
X008276Y002501D01*
X008260Y002480D01*
X008250Y002456D01*
X008247Y002430D01*
X008250Y002404D01*
X008260Y002380D01*
X008276Y002359D01*
X008297Y002343D01*
X008322Y002333D01*
X008348Y002329D01*
X008374Y002333D01*
X008398Y002343D01*
X008419Y002359D01*
X008435Y002380D01*
X008445Y002404D01*
X008449Y002430D01*
X008445Y002456D01*
X008435Y002480D01*
X008419Y002501D01*
X008398Y002517D01*
X008374Y002527D01*
X008348Y002531D01*
D02*
G37*
G36*
X007586D02*
X007560Y002527D01*
X007535Y002517D01*
X007514Y002501D01*
X007498Y002480D01*
X007488Y002456D01*
X007485Y002430D01*
X007488Y002404D01*
X007498Y002380D01*
X007514Y002359D01*
X007535Y002343D01*
X007560Y002333D01*
X007586Y002329D01*
X007612Y002333D01*
X007636Y002343D01*
X007657Y002359D01*
X007673Y002380D01*
X007683Y002404D01*
X007687Y002430D01*
X007683Y002456D01*
X007673Y002480D01*
X007657Y002501D01*
X007636Y002517D01*
X007612Y002527D01*
X007586Y002531D01*
D02*
G37*
G36*
X007332D02*
X007306Y002527D01*
X007281Y002517D01*
X007260Y002501D01*
X007244Y002480D01*
X007234Y002456D01*
X007231Y002430D01*
X007234Y002404D01*
X007244Y002380D01*
X007260Y002359D01*
X007281Y002343D01*
X007306Y002333D01*
X007332Y002329D01*
X007358Y002333D01*
X007382Y002343D01*
X007403Y002359D01*
X007419Y002380D01*
X007429Y002404D01*
X007433Y002430D01*
X007429Y002456D01*
X007419Y002480D01*
X007403Y002501D01*
X007382Y002517D01*
X007358Y002527D01*
X007332Y002531D01*
D02*
G37*
G36*
X007078D02*
X007052Y002527D01*
X007027Y002517D01*
X007006Y002501D01*
X006990Y002480D01*
X006980Y002456D01*
X006977Y002430D01*
X006980Y002404D01*
X006990Y002380D01*
X007006Y002359D01*
X007027Y002343D01*
X007052Y002333D01*
X007078Y002329D01*
X007104Y002333D01*
X007128Y002343D01*
X007149Y002359D01*
X007165Y002380D01*
X007175Y002404D01*
X007179Y002430D01*
X007175Y002456D01*
X007165Y002480D01*
X007149Y002501D01*
X007128Y002517D01*
X007104Y002527D01*
X007078Y002531D01*
D02*
G37*
G36*
X006824D02*
X006798Y002527D01*
X006773Y002517D01*
X006752Y002501D01*
X006736Y002480D01*
X006726Y002456D01*
X006723Y002430D01*
X006726Y002404D01*
X006736Y002380D01*
X006752Y002359D01*
X006773Y002343D01*
X006798Y002333D01*
X006824Y002329D01*
X006850Y002333D01*
X006874Y002343D01*
X006895Y002359D01*
X006911Y002380D01*
X006921Y002404D01*
X006925Y002430D01*
X006921Y002456D01*
X006911Y002480D01*
X006895Y002501D01*
X006874Y002517D01*
X006850Y002527D01*
X006824Y002531D01*
D02*
G37*
G36*
X005404Y002417D02*
X005312D01*
Y002325D01*
X005327Y002327D01*
X005353Y002338D01*
X005375Y002355D01*
X005392Y002377D01*
X005402Y002402D01*
X005404Y002417D01*
D02*
G37*
G36*
X005287D02*
X005195D01*
X005197Y002402D01*
X005208Y002377D01*
X005225Y002355D01*
X005247Y002338D01*
X005272Y002327D01*
X005287Y002325D01*
Y002417D01*
D02*
G37*
G36*
X005150D02*
X005058D01*
Y002325D01*
X005073Y002327D01*
X005099Y002338D01*
X005121Y002355D01*
X005138Y002377D01*
X005148Y002402D01*
X005150Y002417D01*
D02*
G37*
G36*
X005033D02*
X004941D01*
X004943Y002402D01*
X004954Y002377D01*
X004971Y002355D01*
X004993Y002338D01*
X005018Y002327D01*
X005033Y002325D01*
Y002417D01*
D02*
G37*
G36*
X008081Y002417D02*
X007989D01*
X007991Y002402D01*
X008002Y002377D01*
X008019Y002355D01*
X008041Y002338D01*
X008066Y002327D01*
X008081Y002325D01*
Y002417D01*
D02*
G37*
G36*
X007827D02*
X007735D01*
X007737Y002402D01*
X007748Y002377D01*
X007765Y002355D01*
X007787Y002338D01*
X007812Y002327D01*
X007827Y002325D01*
Y002417D01*
D02*
G37*
G36*
X008198D02*
X008106D01*
Y002325D01*
X008121Y002327D01*
X008147Y002338D01*
X008169Y002355D01*
X008186Y002377D01*
X008196Y002402D01*
X008198Y002417D01*
D02*
G37*
G36*
X007944D02*
X007852D01*
Y002325D01*
X007867Y002327D01*
X007893Y002338D01*
X007915Y002355D01*
X007932Y002377D01*
X007942Y002402D01*
X007944Y002417D01*
D02*
G37*
G36*
X005312Y002281D02*
Y002189D01*
X005404D01*
X005402Y002204D01*
X005392Y002229D01*
X005375Y002251D01*
X005353Y002268D01*
X005327Y002279D01*
X005312Y002281D01*
D02*
G37*
G36*
X005287D02*
X005272Y002279D01*
X005247Y002268D01*
X005225Y002251D01*
X005208Y002229D01*
X005197Y002204D01*
X005195Y002189D01*
X005287D01*
Y002281D01*
D02*
G37*
G36*
X005058D02*
Y002189D01*
X005150D01*
X005148Y002204D01*
X005138Y002229D01*
X005121Y002251D01*
X005099Y002268D01*
X005073Y002279D01*
X005058Y002281D01*
D02*
G37*
G36*
X005033D02*
X005018Y002279D01*
X004993Y002268D01*
X004971Y002251D01*
X004954Y002229D01*
X004943Y002204D01*
X004941Y002189D01*
X005033D01*
Y002281D01*
D02*
G37*
G36*
X007852Y002281D02*
Y002189D01*
X007944D01*
X007942Y002204D01*
X007932Y002229D01*
X007915Y002251D01*
X007893Y002268D01*
X007867Y002279D01*
X007852Y002281D01*
D02*
G37*
G36*
X008106D02*
Y002189D01*
X008198D01*
X008196Y002204D01*
X008186Y002229D01*
X008169Y002251D01*
X008147Y002268D01*
X008121Y002279D01*
X008106Y002281D01*
D02*
G37*
G36*
X007827Y002281D02*
X007812Y002279D01*
X007787Y002268D01*
X007765Y002251D01*
X007748Y002229D01*
X007737Y002204D01*
X007735Y002189D01*
X007827D01*
Y002281D01*
D02*
G37*
G36*
X008081D02*
X008066Y002279D01*
X008041Y002268D01*
X008019Y002251D01*
X008002Y002229D01*
X007991Y002204D01*
X007989Y002189D01*
X008081D01*
Y002281D01*
D02*
G37*
G36*
X006824Y002277D02*
X006798Y002273D01*
X006773Y002263D01*
X006752Y002247D01*
X006736Y002226D01*
X006726Y002202D01*
X006723Y002176D01*
X006725Y002159D01*
X006706Y002151D01*
X006704Y002154D01*
X006688Y002166D01*
X006670Y002173D01*
X006663Y002174D01*
Y002100D01*
Y002026D01*
X006670Y002027D01*
X006688Y002034D01*
X006704Y002046D01*
X006716Y002062D01*
X006723Y002080D01*
X006726Y002100D01*
X006725Y002107D01*
X006744Y002115D01*
X006752Y002105D01*
X006773Y002089D01*
X006798Y002079D01*
X006824Y002075D01*
X006850Y002079D01*
X006874Y002089D01*
X006895Y002105D01*
X006911Y002126D01*
X006921Y002150D01*
X006925Y002176D01*
X006921Y002202D01*
X006911Y002226D01*
X006895Y002247D01*
X006874Y002263D01*
X006850Y002273D01*
X006824Y002277D01*
D02*
G37*
G36*
X004130Y002276D02*
X003930D01*
Y002153D01*
X003910Y002146D01*
X003904Y002154D01*
X003888Y002166D01*
X003870Y002173D01*
X003863Y002174D01*
Y002100D01*
Y002026D01*
X003870Y002027D01*
X003888Y002034D01*
X003904Y002046D01*
X003916Y002062D01*
X003930Y002076D01*
X003942Y002076D01*
X004130D01*
Y002276D01*
D02*
G37*
G36*
X009463Y002174D02*
Y002113D01*
X009524D01*
X009523Y002120D01*
X009516Y002138D01*
X009504Y002154D01*
X009488Y002166D01*
X009470Y002173D01*
X009463Y002174D01*
D02*
G37*
G36*
X009437D02*
X009430Y002173D01*
X009412Y002166D01*
X009396Y002154D01*
X009384Y002138D01*
X009377Y002120D01*
X009376Y002113D01*
X009437D01*
Y002174D01*
D02*
G37*
G36*
X006637D02*
X006630Y002173D01*
X006612Y002166D01*
X006596Y002154D01*
X006584Y002138D01*
X006577Y002120D01*
X006576Y002113D01*
X006637D01*
Y002174D01*
D02*
G37*
G36*
X003837D02*
X003830Y002173D01*
X003812Y002166D01*
X003796Y002154D01*
X003784Y002138D01*
X003777Y002120D01*
X003776Y002113D01*
X003837D01*
Y002174D01*
D02*
G37*
G36*
X006316Y002277D02*
X006290Y002273D01*
X006265Y002263D01*
X006244Y002247D01*
X006228Y002226D01*
X006218Y002202D01*
X006215Y002176D01*
X006218Y002150D01*
X006228Y002126D01*
X006244Y002105D01*
X006265Y002089D01*
X006290Y002079D01*
X006316Y002075D01*
X006342Y002079D01*
X006366Y002089D01*
X006387Y002105D01*
X006403Y002126D01*
X006413Y002150D01*
X006417Y002176D01*
X006413Y002202D01*
X006403Y002226D01*
X006387Y002247D01*
X006366Y002263D01*
X006342Y002273D01*
X006316Y002277D01*
D02*
G37*
G36*
X006062D02*
X006036Y002273D01*
X006011Y002263D01*
X005990Y002247D01*
X005974Y002226D01*
X005964Y002202D01*
X005961Y002176D01*
X005964Y002150D01*
X005974Y002126D01*
X005990Y002105D01*
X006011Y002089D01*
X006036Y002079D01*
X006062Y002075D01*
X006088Y002079D01*
X006112Y002089D01*
X006133Y002105D01*
X006149Y002126D01*
X006159Y002150D01*
X006163Y002176D01*
X006159Y002202D01*
X006149Y002226D01*
X006133Y002247D01*
X006112Y002263D01*
X006088Y002273D01*
X006062Y002277D01*
D02*
G37*
G36*
X005808D02*
X005782Y002273D01*
X005757Y002263D01*
X005736Y002247D01*
X005720Y002226D01*
X005710Y002202D01*
X005707Y002176D01*
X005710Y002150D01*
X005720Y002126D01*
X005736Y002105D01*
X005757Y002089D01*
X005782Y002079D01*
X005808Y002075D01*
X005834Y002079D01*
X005858Y002089D01*
X005879Y002105D01*
X005895Y002126D01*
X005905Y002150D01*
X005909Y002176D01*
X005905Y002202D01*
X005895Y002226D01*
X005879Y002247D01*
X005858Y002263D01*
X005834Y002273D01*
X005808Y002277D01*
D02*
G37*
G36*
X005554D02*
X005528Y002273D01*
X005503Y002263D01*
X005482Y002247D01*
X005466Y002226D01*
X005456Y002202D01*
X005453Y002176D01*
X005456Y002150D01*
X005466Y002126D01*
X005482Y002105D01*
X005503Y002089D01*
X005528Y002079D01*
X005554Y002075D01*
X005580Y002079D01*
X005604Y002089D01*
X005625Y002105D01*
X005641Y002126D01*
X005651Y002150D01*
X005655Y002176D01*
X005651Y002202D01*
X005641Y002226D01*
X005625Y002247D01*
X005604Y002263D01*
X005580Y002273D01*
X005554Y002277D01*
D02*
G37*
G36*
X004792D02*
X004766Y002273D01*
X004741Y002263D01*
X004720Y002247D01*
X004704Y002226D01*
X004694Y002202D01*
X004691Y002176D01*
X004694Y002150D01*
X004704Y002126D01*
X004720Y002105D01*
X004741Y002089D01*
X004766Y002079D01*
X004792Y002075D01*
X004818Y002079D01*
X004842Y002089D01*
X004863Y002105D01*
X004879Y002126D01*
X004889Y002150D01*
X004893Y002176D01*
X004889Y002202D01*
X004879Y002226D01*
X004863Y002247D01*
X004842Y002263D01*
X004818Y002273D01*
X004792Y002277D01*
D02*
G37*
G36*
X004538D02*
X004512Y002273D01*
X004487Y002263D01*
X004466Y002247D01*
X004450Y002226D01*
X004440Y002202D01*
X004437Y002176D01*
X004440Y002150D01*
X004450Y002126D01*
X004466Y002105D01*
X004487Y002089D01*
X004512Y002079D01*
X004538Y002075D01*
X004564Y002079D01*
X004588Y002089D01*
X004609Y002105D01*
X004625Y002126D01*
X004635Y002150D01*
X004639Y002176D01*
X004635Y002202D01*
X004625Y002226D01*
X004609Y002247D01*
X004588Y002263D01*
X004564Y002273D01*
X004538Y002277D01*
D02*
G37*
G36*
X004284D02*
X004258Y002273D01*
X004233Y002263D01*
X004212Y002247D01*
X004196Y002226D01*
X004186Y002202D01*
X004183Y002176D01*
X004186Y002150D01*
X004196Y002126D01*
X004212Y002105D01*
X004233Y002089D01*
X004258Y002079D01*
X004284Y002075D01*
X004310Y002079D01*
X004334Y002089D01*
X004355Y002105D01*
X004371Y002126D01*
X004381Y002150D01*
X004385Y002176D01*
X004381Y002202D01*
X004371Y002226D01*
X004355Y002247D01*
X004334Y002263D01*
X004310Y002273D01*
X004284Y002277D01*
D02*
G37*
G36*
X009110Y002277D02*
X009084Y002273D01*
X009059Y002263D01*
X009038Y002247D01*
X009022Y002226D01*
X009012Y002202D01*
X009009Y002176D01*
X009012Y002150D01*
X009022Y002126D01*
X009038Y002105D01*
X009059Y002089D01*
X009084Y002079D01*
X009110Y002075D01*
X009136Y002079D01*
X009160Y002089D01*
X009181Y002105D01*
X009197Y002126D01*
X009207Y002150D01*
X009211Y002176D01*
X009207Y002202D01*
X009197Y002226D01*
X009181Y002247D01*
X009160Y002263D01*
X009136Y002273D01*
X009110Y002277D01*
D02*
G37*
G36*
X008856D02*
X008830Y002273D01*
X008805Y002263D01*
X008784Y002247D01*
X008768Y002226D01*
X008758Y002202D01*
X008755Y002176D01*
X008758Y002150D01*
X008768Y002126D01*
X008784Y002105D01*
X008805Y002089D01*
X008830Y002079D01*
X008856Y002075D01*
X008882Y002079D01*
X008906Y002089D01*
X008927Y002105D01*
X008943Y002126D01*
X008953Y002150D01*
X008957Y002176D01*
X008953Y002202D01*
X008943Y002226D01*
X008927Y002247D01*
X008906Y002263D01*
X008882Y002273D01*
X008856Y002277D01*
D02*
G37*
G36*
X008602D02*
X008576Y002273D01*
X008551Y002263D01*
X008530Y002247D01*
X008514Y002226D01*
X008504Y002202D01*
X008501Y002176D01*
X008504Y002150D01*
X008514Y002126D01*
X008530Y002105D01*
X008551Y002089D01*
X008576Y002079D01*
X008602Y002075D01*
X008628Y002079D01*
X008652Y002089D01*
X008673Y002105D01*
X008689Y002126D01*
X008699Y002150D01*
X008703Y002176D01*
X008699Y002202D01*
X008689Y002226D01*
X008673Y002247D01*
X008652Y002263D01*
X008628Y002273D01*
X008602Y002277D01*
D02*
G37*
G36*
X008348D02*
X008322Y002273D01*
X008297Y002263D01*
X008276Y002247D01*
X008260Y002226D01*
X008250Y002202D01*
X008247Y002176D01*
X008250Y002150D01*
X008260Y002126D01*
X008276Y002105D01*
X008297Y002089D01*
X008322Y002079D01*
X008348Y002075D01*
X008374Y002079D01*
X008398Y002089D01*
X008419Y002105D01*
X008435Y002126D01*
X008445Y002150D01*
X008449Y002176D01*
X008445Y002202D01*
X008435Y002226D01*
X008419Y002247D01*
X008398Y002263D01*
X008374Y002273D01*
X008348Y002277D01*
D02*
G37*
G36*
X007586D02*
X007560Y002273D01*
X007535Y002263D01*
X007514Y002247D01*
X007498Y002226D01*
X007488Y002202D01*
X007485Y002176D01*
X007488Y002150D01*
X007498Y002126D01*
X007514Y002105D01*
X007535Y002089D01*
X007560Y002079D01*
X007586Y002075D01*
X007612Y002079D01*
X007636Y002089D01*
X007657Y002105D01*
X007673Y002126D01*
X007683Y002150D01*
X007687Y002176D01*
X007683Y002202D01*
X007673Y002226D01*
X007657Y002247D01*
X007636Y002263D01*
X007612Y002273D01*
X007586Y002277D01*
D02*
G37*
G36*
X007332D02*
X007306Y002273D01*
X007281Y002263D01*
X007260Y002247D01*
X007244Y002226D01*
X007234Y002202D01*
X007231Y002176D01*
X007234Y002150D01*
X007244Y002126D01*
X007260Y002105D01*
X007281Y002089D01*
X007306Y002079D01*
X007332Y002075D01*
X007358Y002079D01*
X007382Y002089D01*
X007403Y002105D01*
X007419Y002126D01*
X007429Y002150D01*
X007433Y002176D01*
X007429Y002202D01*
X007419Y002226D01*
X007403Y002247D01*
X007382Y002263D01*
X007358Y002273D01*
X007332Y002277D01*
D02*
G37*
G36*
X007078D02*
X007052Y002273D01*
X007027Y002263D01*
X007006Y002247D01*
X006990Y002226D01*
X006980Y002202D01*
X006977Y002176D01*
X006980Y002150D01*
X006990Y002126D01*
X007006Y002105D01*
X007027Y002089D01*
X007052Y002079D01*
X007078Y002075D01*
X007104Y002079D01*
X007128Y002089D01*
X007149Y002105D01*
X007165Y002126D01*
X007175Y002150D01*
X007179Y002176D01*
X007175Y002202D01*
X007165Y002226D01*
X007149Y002247D01*
X007128Y002263D01*
X007104Y002273D01*
X007078Y002277D01*
D02*
G37*
G36*
X005404Y002163D02*
X005312D01*
Y002071D01*
X005327Y002073D01*
X005353Y002084D01*
X005375Y002101D01*
X005392Y002123D01*
X005402Y002148D01*
X005404Y002163D01*
D02*
G37*
G36*
X005287D02*
X005195D01*
X005197Y002148D01*
X005208Y002123D01*
X005225Y002101D01*
X005247Y002084D01*
X005272Y002073D01*
X005287Y002071D01*
Y002163D01*
D02*
G37*
G36*
X005150D02*
X005058D01*
Y002071D01*
X005073Y002073D01*
X005099Y002084D01*
X005121Y002101D01*
X005138Y002123D01*
X005148Y002148D01*
X005150Y002163D01*
D02*
G37*
G36*
X005033D02*
X004941D01*
X004943Y002148D01*
X004954Y002123D01*
X004971Y002101D01*
X004993Y002084D01*
X005018Y002073D01*
X005033Y002071D01*
Y002163D01*
D02*
G37*
G36*
X008081Y002163D02*
X007989D01*
X007991Y002148D01*
X008002Y002123D01*
X008019Y002101D01*
X008041Y002084D01*
X008066Y002073D01*
X008081Y002071D01*
Y002163D01*
D02*
G37*
G36*
X007827D02*
X007735D01*
X007737Y002148D01*
X007748Y002123D01*
X007765Y002101D01*
X007787Y002084D01*
X007812Y002073D01*
X007827Y002071D01*
Y002163D01*
D02*
G37*
G36*
X008198D02*
X008106D01*
Y002071D01*
X008121Y002073D01*
X008147Y002084D01*
X008169Y002101D01*
X008186Y002123D01*
X008196Y002148D01*
X008198Y002163D01*
D02*
G37*
G36*
X007944D02*
X007852D01*
Y002071D01*
X007867Y002073D01*
X007893Y002084D01*
X007915Y002101D01*
X007932Y002123D01*
X007942Y002148D01*
X007944Y002163D01*
D02*
G37*
G36*
X009524Y002087D02*
X009463D01*
Y002026D01*
X009470Y002027D01*
X009488Y002034D01*
X009504Y002046D01*
X009516Y002062D01*
X009523Y002080D01*
X009524Y002087D01*
D02*
G37*
G36*
X009437D02*
X009376D01*
X009377Y002080D01*
X009384Y002062D01*
X009396Y002046D01*
X009412Y002034D01*
X009430Y002027D01*
X009437Y002026D01*
Y002087D01*
D02*
G37*
G36*
X006637D02*
X006576D01*
X006577Y002080D01*
X006584Y002062D01*
X006596Y002046D01*
X006612Y002034D01*
X006630Y002027D01*
X006637Y002026D01*
Y002087D01*
D02*
G37*
G36*
X003837D02*
X003776D01*
X003777Y002080D01*
X003784Y002062D01*
X003796Y002046D01*
X003812Y002034D01*
X003830Y002027D01*
X003837Y002026D01*
Y002087D01*
D02*
G37*
G36*
X008413Y001474D02*
Y001413D01*
X008474D01*
X008473Y001420D01*
X008466Y001438D01*
X008454Y001454D01*
X008438Y001466D01*
X008420Y001473D01*
X008413Y001474D01*
D02*
G37*
G36*
X008387D02*
X008380Y001473D01*
X008362Y001466D01*
X008346Y001454D01*
X008334Y001438D01*
X008327Y001420D01*
X008326Y001413D01*
X008387D01*
Y001474D01*
D02*
G37*
G36*
X008474Y001387D02*
X008413D01*
Y001326D01*
X008420Y001327D01*
X008438Y001334D01*
X008454Y001346D01*
X008466Y001362D01*
X008473Y001380D01*
X008474Y001387D01*
D02*
G37*
G36*
X008387D02*
X008326D01*
X008327Y001380D01*
X008334Y001362D01*
X008346Y001346D01*
X008362Y001334D01*
X008380Y001327D01*
X008387Y001326D01*
Y001387D01*
D02*
G37*
%LPD*%
G36*
X008925Y006800D02*
X009250Y006800D01*
Y006468D01*
X009127D01*
Y006524D01*
X009039D01*
Y006422D01*
Y006320D01*
X009127D01*
Y006376D01*
X009250D01*
Y005055D01*
X009158Y004963D01*
X009097D01*
X009094Y004967D01*
X009074Y004982D01*
X009051Y004992D01*
X009026Y004995D01*
X009001Y004992D01*
X008977Y004982D01*
X008957Y004967D01*
X008942Y004946D01*
X008932Y004923D01*
X008929Y004898D01*
X008932Y004873D01*
X008942Y004849D01*
X008957Y004829D01*
X008977Y004814D01*
X009001Y004804D01*
X009026Y004801D01*
X009051Y004804D01*
X009074Y004814D01*
X009094Y004829D01*
X009110Y004849D01*
X009119Y004871D01*
X009177D01*
X009195Y004875D01*
X009209Y004884D01*
X009238Y004913D01*
X009250Y004908D01*
Y004820D01*
X010085D01*
Y003550D01*
X008800D01*
Y006329D01*
X008820Y006338D01*
X008840Y006353D01*
X008856Y006373D01*
X008866Y006397D01*
X008869Y006422D01*
X008866Y006447D01*
X008856Y006470D01*
X008840Y006491D01*
X008820Y006506D01*
X008800Y006514D01*
Y006800D01*
X008925Y006800D01*
D02*
G37*
%LPC*%
G36*
X009045Y006780D02*
Y006703D01*
X009122D01*
X009121Y006714D01*
X009111Y006736D01*
X009097Y006754D01*
X009078Y006769D01*
X009056Y006778D01*
X009045Y006780D01*
D02*
G37*
G36*
X009020D02*
X009009Y006778D01*
X008987Y006769D01*
X008968Y006754D01*
X008954Y006736D01*
X008944Y006714D01*
X008943Y006703D01*
X009020D01*
Y006780D01*
D02*
G37*
G36*
X009122Y006677D02*
X009045D01*
Y006600D01*
X009056Y006602D01*
X009078Y006611D01*
X009097Y006626D01*
X009111Y006644D01*
X009121Y006666D01*
X009122Y006677D01*
D02*
G37*
G36*
X009020D02*
X008943D01*
X008944Y006666D01*
X008954Y006644D01*
X008968Y006626D01*
X008987Y006611D01*
X009009Y006602D01*
X009020Y006600D01*
Y006677D01*
D02*
G37*
G36*
X009013Y006524D02*
X008924D01*
Y006435D01*
X009013D01*
Y006524D01*
D02*
G37*
G36*
Y006409D02*
X008924D01*
Y006320D01*
X009013D01*
Y006409D01*
D02*
G37*
G36*
X009045Y006095D02*
Y006018D01*
X009122D01*
X009121Y006029D01*
X009111Y006051D01*
X009097Y006069D01*
X009078Y006084D01*
X009056Y006093D01*
X009045Y006095D01*
D02*
G37*
G36*
X009020D02*
X009009Y006093D01*
X008987Y006084D01*
X008968Y006069D01*
X008954Y006051D01*
X008944Y006029D01*
X008943Y006018D01*
X009020D01*
Y006095D01*
D02*
G37*
G36*
X009122Y005992D02*
X009045D01*
Y005915D01*
X009056Y005917D01*
X009078Y005926D01*
X009097Y005941D01*
X009111Y005959D01*
X009121Y005981D01*
X009122Y005992D01*
D02*
G37*
G36*
X009020D02*
X008943D01*
X008944Y005981D01*
X008954Y005959D01*
X008968Y005941D01*
X008987Y005926D01*
X009009Y005917D01*
X009020Y005915D01*
Y005992D01*
D02*
G37*
G36*
X009045Y005727D02*
Y005650D01*
X009122D01*
X009121Y005661D01*
X009111Y005683D01*
X009097Y005702D01*
X009078Y005716D01*
X009056Y005726D01*
X009045Y005727D01*
D02*
G37*
G36*
X009020D02*
X009009Y005726D01*
X008987Y005716D01*
X008968Y005702D01*
X008954Y005683D01*
X008944Y005661D01*
X008943Y005650D01*
X009020D01*
Y005727D01*
D02*
G37*
G36*
X009122Y005625D02*
X009045D01*
Y005548D01*
X009056Y005549D01*
X009078Y005559D01*
X009097Y005573D01*
X009111Y005592D01*
X009121Y005614D01*
X009122Y005625D01*
D02*
G37*
G36*
X009020D02*
X008943D01*
X008944Y005614D01*
X008954Y005592D01*
X008968Y005573D01*
X008987Y005559D01*
X009009Y005549D01*
X009020Y005548D01*
Y005625D01*
D02*
G37*
G36*
X009045Y005357D02*
Y005280D01*
X009122D01*
X009121Y005291D01*
X009111Y005313D01*
X009097Y005332D01*
X009078Y005346D01*
X009056Y005356D01*
X009045Y005357D01*
D02*
G37*
G36*
X009020D02*
X009009Y005356D01*
X008987Y005346D01*
X008968Y005332D01*
X008954Y005313D01*
X008944Y005291D01*
X008943Y005280D01*
X009020D01*
Y005357D01*
D02*
G37*
G36*
X009122Y005255D02*
X009045D01*
Y005178D01*
X009056Y005179D01*
X009078Y005189D01*
X009097Y005203D01*
X009111Y005222D01*
X009121Y005244D01*
X009122Y005255D01*
D02*
G37*
G36*
X009020D02*
X008943D01*
X008944Y005244D01*
X008954Y005222D01*
X008968Y005203D01*
X008987Y005189D01*
X009009Y005179D01*
X009020Y005178D01*
Y005255D01*
D02*
G37*
G36*
X009757Y004683D02*
X009735Y004680D01*
X009715Y004672D01*
X009697Y004658D01*
X009683Y004640D01*
X009675Y004620D01*
X009672Y004597D01*
X009675Y004575D01*
X009683Y004555D01*
X009697Y004537D01*
X009715Y004523D01*
X009735Y004515D01*
X009757Y004512D01*
X009780Y004515D01*
X009800Y004523D01*
X009818Y004537D01*
X009832Y004555D01*
X009840Y004575D01*
X009843Y004597D01*
X009840Y004620D01*
X009832Y004640D01*
X009818Y004658D01*
X009800Y004672D01*
X009780Y004680D01*
X009757Y004683D01*
D02*
G37*
G36*
X009045Y004362D02*
Y004285D01*
X009122D01*
X009121Y004296D01*
X009111Y004318D01*
X009097Y004337D01*
X009078Y004351D01*
X009056Y004361D01*
X009045Y004362D01*
D02*
G37*
G36*
X009020D02*
X009009Y004361D01*
X008987Y004351D01*
X008968Y004337D01*
X008954Y004318D01*
X008944Y004296D01*
X008943Y004285D01*
X009020D01*
Y004362D01*
D02*
G37*
G36*
X009122Y004260D02*
X009045D01*
Y004183D01*
X009056Y004184D01*
X009078Y004194D01*
X009097Y004208D01*
X009111Y004227D01*
X009121Y004249D01*
X009122Y004260D01*
D02*
G37*
G36*
X009020D02*
X008943D01*
X008944Y004249D01*
X008954Y004227D01*
X008968Y004208D01*
X008987Y004194D01*
X009009Y004184D01*
X009020Y004183D01*
Y004260D01*
D02*
G37*
G36*
X009770Y004215D02*
Y004138D01*
X009847D01*
X009846Y004149D01*
X009836Y004171D01*
X009822Y004189D01*
X009803Y004204D01*
X009781Y004213D01*
X009770Y004215D01*
D02*
G37*
G36*
X009745D02*
X009734Y004213D01*
X009712Y004204D01*
X009693Y004189D01*
X009679Y004171D01*
X009669Y004149D01*
X009668Y004138D01*
X009745D01*
Y004215D01*
D02*
G37*
G36*
X009847Y004112D02*
X009770D01*
Y004035D01*
X009781Y004037D01*
X009803Y004046D01*
X009822Y004061D01*
X009836Y004079D01*
X009846Y004101D01*
X009847Y004112D01*
D02*
G37*
G36*
X009745D02*
X009668D01*
X009669Y004101D01*
X009679Y004079D01*
X009693Y004061D01*
X009712Y004046D01*
X009734Y004037D01*
X009745Y004035D01*
Y004112D01*
D02*
G37*
G36*
X010068Y003884D02*
X009895D01*
Y003741D01*
X010068D01*
Y003884D01*
D02*
G37*
G36*
X009870D02*
X009697D01*
Y003741D01*
X009870D01*
Y003884D01*
D02*
G37*
G36*
X009045Y003790D02*
Y003713D01*
X009122D01*
X009121Y003724D01*
X009111Y003746D01*
X009097Y003764D01*
X009078Y003779D01*
X009056Y003788D01*
X009045Y003790D01*
D02*
G37*
G36*
X009020D02*
X009009Y003788D01*
X008987Y003779D01*
X008968Y003764D01*
X008954Y003746D01*
X008944Y003724D01*
X008943Y003713D01*
X009020D01*
Y003790D01*
D02*
G37*
G36*
X009122Y003687D02*
X009045D01*
Y003610D01*
X009056Y003612D01*
X009078Y003621D01*
X009097Y003636D01*
X009111Y003654D01*
X009121Y003676D01*
X009122Y003687D01*
D02*
G37*
G36*
X009020D02*
X008943D01*
X008944Y003676D01*
X008954Y003654D01*
X008968Y003636D01*
X008987Y003621D01*
X009009Y003612D01*
X009020Y003610D01*
Y003687D01*
D02*
G37*
G36*
X010068Y003716D02*
X009895D01*
Y003573D01*
X010068D01*
Y003716D01*
D02*
G37*
G36*
X009870D02*
X009697D01*
Y003573D01*
X009870D01*
Y003716D01*
D02*
G37*
%LPD*%
G36*
X004185Y004972D02*
X004126D01*
Y004870D01*
Y004768D01*
X004185D01*
Y004551D01*
X004175Y004545D01*
X004172Y004545D01*
X004062D01*
Y004380D01*
Y004215D01*
X004172D01*
X004175Y004215D01*
X004185Y004209D01*
Y002750D01*
X003000D01*
Y004250D01*
X003600D01*
Y005325D01*
X004185D01*
Y004972D01*
D02*
G37*
%LPC*%
G36*
X003860Y005120D02*
Y005079D01*
X003901D01*
X003899Y005088D01*
X003887Y005106D01*
X003869Y005118D01*
X003860Y005120D01*
D02*
G37*
G36*
X003835D02*
X003826Y005118D01*
X003807Y005106D01*
X003795Y005088D01*
X003793Y005079D01*
X003835D01*
Y005120D01*
D02*
G37*
G36*
X003901Y005053D02*
X003860D01*
Y005012D01*
X003869Y005014D01*
X003887Y005026D01*
X003899Y005044D01*
X003901Y005053D01*
D02*
G37*
G36*
X003835D02*
X003793D01*
X003795Y005044D01*
X003807Y005026D01*
X003826Y005014D01*
X003835Y005012D01*
Y005053D01*
D02*
G37*
G36*
X004101Y004972D02*
X004012D01*
Y004883D01*
X004101D01*
Y004972D01*
D02*
G37*
G36*
Y004857D02*
X004012D01*
Y004768D01*
X004101D01*
Y004857D01*
D02*
G37*
G36*
X003860Y004724D02*
Y004683D01*
X003901D01*
X003899Y004692D01*
X003887Y004710D01*
X003869Y004722D01*
X003860Y004724D01*
D02*
G37*
G36*
X003835D02*
X003826Y004722D01*
X003807Y004710D01*
X003795Y004692D01*
X003793Y004683D01*
X003835D01*
Y004724D01*
D02*
G37*
G36*
X003901Y004657D02*
X003860D01*
Y004616D01*
X003869Y004618D01*
X003887Y004630D01*
X003899Y004648D01*
X003901Y004657D01*
D02*
G37*
G36*
X003835D02*
X003793D01*
X003795Y004648D01*
X003807Y004630D01*
X003826Y004618D01*
X003835Y004616D01*
Y004657D01*
D02*
G37*
G36*
X004037Y004545D02*
X003924D01*
Y004393D01*
X004037D01*
Y004545D01*
D02*
G37*
G36*
X003860Y004328D02*
Y004287D01*
X003901D01*
X003899Y004296D01*
X003887Y004314D01*
X003869Y004326D01*
X003860Y004328D01*
D02*
G37*
G36*
X003835D02*
X003826Y004326D01*
X003807Y004314D01*
X003795Y004296D01*
X003793Y004287D01*
X003835D01*
Y004328D01*
D02*
G37*
G36*
X003901Y004261D02*
X003860D01*
Y004220D01*
X003869Y004222D01*
X003887Y004234D01*
X003899Y004252D01*
X003901Y004261D01*
D02*
G37*
G36*
X003835D02*
X003793D01*
X003795Y004252D01*
X003807Y004234D01*
X003826Y004222D01*
X003835Y004220D01*
Y004261D01*
D02*
G37*
G36*
X004037Y004367D02*
X003924D01*
Y004215D01*
X004037D01*
Y004367D01*
D02*
G37*
G36*
X004113Y003944D02*
Y003903D01*
X004154D01*
X004152Y003912D01*
X004140Y003930D01*
X004122Y003942D01*
X004113Y003944D01*
D02*
G37*
G36*
X004087D02*
X004078Y003942D01*
X004060Y003930D01*
X004048Y003912D01*
X004046Y003903D01*
X004087D01*
Y003944D01*
D02*
G37*
G36*
X003860D02*
Y003903D01*
X003901D01*
X003899Y003912D01*
X003887Y003930D01*
X003869Y003942D01*
X003860Y003944D01*
D02*
G37*
G36*
X003835D02*
X003826Y003942D01*
X003807Y003930D01*
X003795Y003912D01*
X003793Y003903D01*
X003835D01*
Y003944D01*
D02*
G37*
G36*
X003607D02*
Y003903D01*
X003648D01*
X003647Y003912D01*
X003634Y003930D01*
X003616Y003942D01*
X003607Y003944D01*
D02*
G37*
G36*
X003582D02*
X003573Y003942D01*
X003555Y003930D01*
X003542Y003912D01*
X003541Y003903D01*
X003582D01*
Y003944D01*
D02*
G37*
G36*
X004154Y003877D02*
X004113D01*
Y003836D01*
X004122Y003838D01*
X004140Y003850D01*
X004152Y003868D01*
X004154Y003877D01*
D02*
G37*
G36*
X004087D02*
X004046D01*
X004048Y003868D01*
X004060Y003850D01*
X004078Y003838D01*
X004087Y003836D01*
Y003877D01*
D02*
G37*
G36*
X003901D02*
X003860D01*
Y003836D01*
X003869Y003838D01*
X003887Y003850D01*
X003899Y003868D01*
X003901Y003877D01*
D02*
G37*
G36*
X003835D02*
X003793D01*
X003795Y003868D01*
X003807Y003850D01*
X003826Y003838D01*
X003835Y003836D01*
Y003877D01*
D02*
G37*
G36*
X003648D02*
X003607D01*
Y003836D01*
X003616Y003838D01*
X003634Y003850D01*
X003647Y003868D01*
X003648Y003877D01*
D02*
G37*
G36*
X003582D02*
X003541D01*
X003542Y003868D01*
X003555Y003850D01*
X003573Y003838D01*
X003582Y003836D01*
Y003877D01*
D02*
G37*
G36*
X003412Y003870D02*
X003052D01*
Y003570D01*
X003412D01*
Y003870D01*
D02*
G37*
G36*
X004113Y003548D02*
Y003507D01*
X004154D01*
X004152Y003516D01*
X004140Y003534D01*
X004122Y003546D01*
X004113Y003548D01*
D02*
G37*
G36*
X004087D02*
X004078Y003546D01*
X004060Y003534D01*
X004048Y003516D01*
X004046Y003507D01*
X004087D01*
Y003548D01*
D02*
G37*
G36*
X003860D02*
Y003507D01*
X003901D01*
X003899Y003516D01*
X003887Y003534D01*
X003869Y003546D01*
X003860Y003548D01*
D02*
G37*
G36*
X003835D02*
X003826Y003546D01*
X003807Y003534D01*
X003795Y003516D01*
X003793Y003507D01*
X003835D01*
Y003548D01*
D02*
G37*
G36*
X003607D02*
Y003507D01*
X003648D01*
X003647Y003516D01*
X003634Y003534D01*
X003616Y003546D01*
X003607Y003548D01*
D02*
G37*
G36*
X003582D02*
X003573Y003546D01*
X003555Y003534D01*
X003542Y003516D01*
X003541Y003507D01*
X003582D01*
Y003548D01*
D02*
G37*
G36*
X004154Y003481D02*
X004113D01*
Y003440D01*
X004122Y003442D01*
X004140Y003454D01*
X004152Y003472D01*
X004154Y003481D01*
D02*
G37*
G36*
X004087D02*
X004046D01*
X004048Y003472D01*
X004060Y003454D01*
X004078Y003442D01*
X004087Y003440D01*
Y003481D01*
D02*
G37*
G36*
X003901D02*
X003860D01*
Y003440D01*
X003869Y003442D01*
X003887Y003454D01*
X003899Y003472D01*
X003901Y003481D01*
D02*
G37*
G36*
X003835D02*
X003793D01*
X003795Y003472D01*
X003807Y003454D01*
X003826Y003442D01*
X003835Y003440D01*
Y003481D01*
D02*
G37*
G36*
X003648D02*
X003607D01*
Y003440D01*
X003616Y003442D01*
X003634Y003454D01*
X003647Y003472D01*
X003648Y003481D01*
D02*
G37*
G36*
X003582D02*
X003541D01*
X003542Y003472D01*
X003555Y003454D01*
X003573Y003442D01*
X003582Y003440D01*
Y003481D01*
D02*
G37*
G36*
X004113Y003152D02*
Y003111D01*
X004154D01*
X004152Y003120D01*
X004140Y003138D01*
X004122Y003150D01*
X004113Y003152D01*
D02*
G37*
G36*
X004087D02*
X004078Y003150D01*
X004060Y003138D01*
X004048Y003120D01*
X004046Y003111D01*
X004087D01*
Y003152D01*
D02*
G37*
G36*
X003860D02*
Y003111D01*
X003901D01*
X003899Y003120D01*
X003887Y003138D01*
X003869Y003150D01*
X003860Y003152D01*
D02*
G37*
G36*
X003835D02*
X003826Y003150D01*
X003807Y003138D01*
X003795Y003120D01*
X003793Y003111D01*
X003835D01*
Y003152D01*
D02*
G37*
G36*
X003607D02*
Y003111D01*
X003648D01*
X003647Y003120D01*
X003634Y003138D01*
X003616Y003150D01*
X003607Y003152D01*
D02*
G37*
G36*
X003582D02*
X003573Y003150D01*
X003555Y003138D01*
X003542Y003120D01*
X003541Y003111D01*
X003582D01*
Y003152D01*
D02*
G37*
G36*
X004154Y003085D02*
X004113D01*
Y003044D01*
X004122Y003046D01*
X004140Y003058D01*
X004152Y003076D01*
X004154Y003085D01*
D02*
G37*
G36*
X004087D02*
X004046D01*
X004048Y003076D01*
X004060Y003058D01*
X004078Y003046D01*
X004087Y003044D01*
Y003085D01*
D02*
G37*
G36*
X003901D02*
X003860D01*
Y003044D01*
X003869Y003046D01*
X003887Y003058D01*
X003899Y003076D01*
X003901Y003085D01*
D02*
G37*
G36*
X003835D02*
X003793D01*
X003795Y003076D01*
X003807Y003058D01*
X003826Y003046D01*
X003835Y003044D01*
Y003085D01*
D02*
G37*
G36*
X003648D02*
X003607D01*
Y003044D01*
X003616Y003046D01*
X003634Y003058D01*
X003647Y003076D01*
X003648Y003085D01*
D02*
G37*
G36*
X003582D02*
X003541D01*
X003542Y003076D01*
X003555Y003058D01*
X003573Y003046D01*
X003582Y003044D01*
Y003085D01*
D02*
G37*
G36*
X003418Y003113D02*
X003245D01*
Y002971D01*
X003418D01*
Y003113D01*
D02*
G37*
G36*
X003220D02*
X003047D01*
Y002971D01*
X003220D01*
Y003113D01*
D02*
G37*
G36*
X003418Y002945D02*
X003245D01*
Y002803D01*
X003418D01*
Y002945D01*
D02*
G37*
G36*
X003220D02*
X003047D01*
Y002803D01*
X003220D01*
Y002945D01*
D02*
G37*
%LPD*%
D11*
X010010Y004900D02*
Y005257D01*
X010010Y005257D02*
X010010Y005257D01*
Y004900D02*
X010010Y004900D01*
X010088D01*
X010247Y003700D02*
Y004740D01*
X010088Y004900D02*
X010247Y004740D01*
X003130Y004900D02*
Y005057D01*
X010247Y003700D02*
X010317Y003630D01*
X010418D02*
X010418Y003630D01*
X010317Y003630D02*
X010418D01*
X010418Y003430D02*
Y003430D01*
Y002978D02*
Y003430D01*
X010060Y002620D02*
X010418Y002978D01*
X003321Y004901D02*
X003322Y004900D01*
X003321Y004901D02*
Y005055D01*
X003320Y005057D02*
X003321Y005055D01*
X009785Y005499D02*
Y005523D01*
Y005499D02*
X009820Y005464D01*
Y005257D02*
Y005464D01*
X009820Y004900D02*
Y005057D01*
X009820Y005057D02*
X009820Y005057D01*
Y004900D02*
X009820Y004900D01*
X003130Y005057D02*
Y005257D01*
X003320D02*
Y005437D01*
X003386Y005504D01*
Y005523D01*
X002756Y004756D02*
X002900Y004900D01*
X003130D01*
X004417Y004380D02*
X004450Y004412D01*
X004368Y004863D02*
Y004870D01*
Y004863D02*
X004450Y004781D01*
Y004412D02*
Y004781D01*
X002930Y002620D02*
X010060D01*
X002756Y002794D02*
Y004756D01*
Y002794D02*
X002930Y002620D01*
D34*
X007176Y007430D02*
G03*
X006916Y007280I000000J-000300D01*
G01*
X008070Y001530D02*
G03*
X007770Y001830I-000300J000000D01*
G01*
X003994Y007430D02*
G03*
X003782Y007342I000000J-000300D01*
G01*
X006224Y007280D02*
G03*
X006916Y007280I000346J000200D01*
G01*
X003782Y001318D02*
G03*
X003994Y001230I000212J000212D01*
G01*
X010870Y005706D02*
G03*
X010782Y005918I-000300J000000D01*
G01*
X009358Y007342D02*
G03*
X009146Y007430I-000212J-000212D01*
G01*
X006224Y007280D02*
G03*
X005964Y007430I-000260J-000150D01*
G01*
X005370Y001830D02*
G03*
X005070Y001530I000000J-000300D01*
G01*
X002358Y005918D02*
G03*
X002270Y005706I000212J-000212D01*
G01*
X010782Y002742D02*
G03*
X010870Y002954I-000212J000212D01*
G01*
X009146Y001230D02*
G03*
X009358Y001318I000000J000300D01*
G01*
X008070Y001530D02*
G03*
X008370Y001230I000300J000000D01*
G01*
X004770D02*
G03*
X005070Y001530I000000J000300D01*
G01*
X002270Y002954D02*
G03*
X002358Y002742I000300J000000D01*
G01*
X010871Y002962D02*
Y005713D01*
X003994Y007430D02*
X005964D01*
X002358Y005918D02*
X003782Y007342D01*
X002358Y002742D02*
X003782Y001318D01*
X007176Y007430D02*
X009146D01*
X005370Y001830D02*
X007770D01*
X008370Y001230D02*
X009146D01*
X009358Y007342D02*
X010782Y005918D01*
X009358Y001318D02*
X010782Y002742D01*
X003994Y001230D02*
X004770D01*
X002270Y002954D02*
Y005706D01*
D35*
X009820Y005257D02*
D03*
X010010D02*
D03*
Y005057D02*
D03*
X009820D02*
D03*
X003130Y005257D02*
D03*
X003320D02*
D03*
X003130Y005057D02*
D03*
X003320D02*
D03*
D36*
X008462Y003727D02*
D03*
Y002965D02*
D03*
X009882Y003729D02*
D03*
Y002967D02*
D03*
X004653Y002960D02*
D03*
Y003722D02*
D03*
X003233Y002958D02*
D03*
Y003720D02*
D03*
D37*
X007898Y006861D02*
D03*
X007530D02*
D03*
X004049Y004380D02*
D03*
X004417D02*
D03*
X005192D02*
D03*
X005560D02*
D03*
D38*
X009580Y006486D02*
D03*
Y006118D02*
D03*
D39*
X010418Y003830D02*
X010618D01*
X010418Y004030D02*
X010618D01*
X010418Y004630D02*
X010618D01*
X010418Y004830D02*
X010618D01*
X010418Y005030D02*
X010618D01*
X010418Y005230D02*
X010618D01*
X010408Y003640D02*
X010418Y003630D01*
Y003630D02*
X010618D01*
X010418Y003430D02*
X010618D01*
X010418Y004430D02*
X010618D01*
X010418Y004230D02*
X010618D01*
X009026Y006422D02*
X009515D01*
X009580Y006486D01*
X009559Y006097D02*
X009580Y006118D01*
X009330Y006097D02*
X009559D01*
X009426Y005166D02*
Y005806D01*
X009490Y005870D02*
X009869D01*
X009426Y005806D02*
X009490Y005870D01*
X009869D02*
X009912Y005827D01*
X007898Y006861D02*
X008219D01*
X008264Y006422D02*
Y006816D01*
X008219Y006861D02*
X008264Y006816D01*
X007248Y006828D02*
X007281Y006861D01*
X007248Y006422D02*
Y006828D01*
X007281Y006861D02*
X007530D01*
X009912Y005650D02*
Y005827D01*
X003513Y005650D02*
X004106Y006243D01*
Y006386D01*
X004114Y006394D01*
X009177Y004917D02*
X009426Y005166D01*
X009026Y004898D02*
X009045Y004917D01*
X009177D01*
X005890Y004710D02*
Y004868D01*
X005560Y004380D02*
Y004420D01*
X005675Y004495D02*
X005890Y004710D01*
X005560Y004420D02*
X005635Y004495D01*
X005675D01*
X005890Y004868D02*
X005892Y004870D01*
X004940Y004380D02*
X005192D01*
X004876Y004444D02*
Y004870D01*
Y004444D02*
X004940Y004380D01*
D40*
X007882Y003727D02*
X008462D01*
X007884Y002962D02*
X008460D01*
X004653Y002960D02*
X005253D01*
X004653Y003722D02*
X005253D01*
D41*
X010618Y003430D02*
D03*
X010418D02*
D03*
X010618Y003630D02*
D03*
X010418D02*
D03*
X010618Y003830D02*
D03*
X010418D02*
D03*
X010618Y004030D02*
D03*
X010418D02*
D03*
Y005230D02*
D03*
X010618D02*
D03*
X010418Y005030D02*
D03*
X010618D02*
D03*
X010418Y004830D02*
D03*
X010618D02*
D03*
X010418Y004630D02*
D03*
X010618D02*
D03*
X010418Y004430D02*
D03*
X010618D02*
D03*
X010418Y004230D02*
D03*
X010618D02*
D03*
X010150Y006300D02*
D03*
X009100Y002800D02*
D03*
X009450Y002100D02*
D03*
X008400Y004200D02*
D03*
Y001400D02*
D03*
X007700Y004200D02*
D03*
Y002800D02*
D03*
X007000Y007000D02*
D03*
Y005600D02*
D03*
X007350Y003500D02*
D03*
X006300Y007000D02*
D03*
X006650Y006300D02*
D03*
X006300Y005600D02*
D03*
X006650Y003500D02*
D03*
Y002100D02*
D03*
X005600Y007000D02*
D03*
Y005600D02*
D03*
X005950Y003500D02*
D03*
X005600Y002800D02*
D03*
X004900Y007000D02*
D03*
Y005600D02*
D03*
Y004200D02*
D03*
X004550Y006300D02*
D03*
X004200Y005600D02*
D03*
X004550Y004900D02*
D03*
X003850Y006300D02*
D03*
Y002100D02*
D03*
X003150Y006300D02*
D03*
X002800Y005600D02*
D03*
X007460Y003750D02*
D03*
X005960Y004500D02*
D03*
X003710Y006000D02*
D03*
D42*
X009912Y005650D02*
D03*
X009785Y005523D02*
D03*
X003513Y005650D02*
D03*
X003386Y005523D02*
D03*
D43*
X009658Y005650D02*
D03*
X003259D02*
D03*
D44*
X009026Y004898D02*
D03*
X008010D02*
D03*
X007248D02*
D03*
Y006422D02*
D03*
X008264D02*
D03*
X008772D02*
D03*
X004114Y006394D02*
D03*
X005130D02*
D03*
X005892D02*
D03*
Y004870D02*
D03*
X004876D02*
D03*
X004368D02*
D03*
D45*
X009026Y006422D02*
D03*
X004114Y004870D02*
D03*
D46*
X006316Y002176D02*
D03*
Y002430D02*
D03*
X005554D02*
D03*
X006062Y002176D02*
D03*
Y002430D02*
D03*
X005808Y002176D02*
D03*
Y002430D02*
D03*
X005554Y002176D02*
D03*
X004792Y002430D02*
D03*
X005300Y002176D02*
D03*
Y002430D02*
D03*
X005046Y002176D02*
D03*
Y002430D02*
D03*
X004792Y002176D02*
D03*
X004030Y002430D02*
D03*
X004284Y002176D02*
D03*
Y002430D02*
D03*
X004538Y002176D02*
D03*
Y002430D02*
D03*
X006824Y002430D02*
D03*
Y002176D02*
D03*
X007586D02*
D03*
X007078Y002430D02*
D03*
Y002176D02*
D03*
X007332Y002430D02*
D03*
Y002176D02*
D03*
X007586Y002430D02*
D03*
X008348Y002176D02*
D03*
X007840Y002430D02*
D03*
Y002176D02*
D03*
X008094Y002430D02*
D03*
Y002176D02*
D03*
X008348Y002430D02*
D03*
X009110Y002176D02*
D03*
X008856Y002430D02*
D03*
Y002176D02*
D03*
X008602Y002430D02*
D03*
Y002176D02*
D03*
D47*
X004030Y002176D02*
D03*
X009110Y002430D02*
D03*
D48*
X006993Y003727D02*
D03*
X007882D02*
D03*
X006142Y002960D02*
D03*
X005253D02*
D03*
Y003722D02*
D03*
X006142D02*
D03*
X006993Y002965D02*
D03*
X007882D02*
D03*
D49*
X009757Y004597D02*
D03*
X009032Y003700D02*
D03*
Y004272D02*
D03*
Y005638D02*
D03*
Y006005D02*
D03*
Y006690D02*
D03*
Y005267D02*
D03*
X009757Y004125D02*
D03*
D50*
X006570Y004330D02*
D03*
D51*
X009330Y006097D02*
D03*
X003322Y004900D02*
D03*
X007920Y006090D02*
D03*
X009820Y004900D02*
D03*
X010010D02*
D03*
X003130D02*
D03*
D52*
X009070Y007130D02*
D03*
X004070D02*
D03*
X009070Y001530D02*
D03*
X004070D02*
D03*
D53*
X008143Y003732D02*
D03*
X003847Y005066D02*
D03*
Y004670D02*
D03*
Y004274D02*
D03*
X004100Y003890D02*
D03*
X004100Y003494D02*
D03*
Y003098D02*
D03*
X003847Y003890D02*
D03*
Y003494D02*
D03*
Y003098D02*
D03*
X003594D02*
D03*
Y003494D02*
D03*
Y003890D02*
D03*
X008143Y002970D02*
D03*
X004983Y003722D02*
D03*
Y002960D02*
D03*
M02*
