G04*
G04 #@! TF.GenerationSoftware,Altium Limited,Altium Designer,20.1.10 (176)*
G04*
G04 Layer_Color=439754*
%FSAX42Y42*%
%MOMM*%
G71*
G04*
G04 #@! TF.SameCoordinates,FCFB62F1-B148-46F0-B019-BB0DAA43D111*
G04*
G04*
G04 #@! TF.FilePolarity,Positive*
G04*
G01*
G75*
%ADD10C,0.25*%
%ADD11C,0.30*%
%ADD12C,0.40*%
%ADD13C,0.20*%
%ADD14C,0.15*%
%ADD15C,0.20*%
D10*
X009242Y004624D02*
G03*
X009369Y004751I000000J000127D01*
G01*
X007007Y006668D02*
G03*
X006892Y006541I000006J-000121D01*
G01*
X006892Y004751D02*
G03*
X007007Y004624I000121J-000006D01*
G01*
X006247Y006541D02*
G03*
X006133Y006668I-000121J000006D01*
G01*
Y004624D02*
G03*
X006247Y004751I-000006J000121D01*
G01*
X003898Y006668D02*
G03*
X003771Y006541I000000J-000127D01*
G01*
X009588Y005730D02*
G03*
X009588Y005730I-000010J000000D01*
G01*
X003189D02*
G03*
X003189Y005730I-000010J000000D01*
G01*
X009647Y002865D02*
Y003957D01*
X009520Y002738D02*
X009647Y002865D01*
X008695Y002738D02*
X009520D01*
X008695Y003957D02*
X009647D01*
X008695Y002738D02*
Y003957D01*
X009369Y004751D02*
Y006668D01*
X006892Y004751D02*
Y006541D01*
X007019Y004624D02*
X009242D01*
X007019Y006668D02*
X009369D01*
X003771Y004624D02*
Y006541D01*
X006247Y004751D02*
Y006541D01*
X003898Y006668D02*
X006120D01*
X003771Y004624D02*
X006120D01*
X007771Y006734D02*
Y006988D01*
X009453Y006359D02*
X009707D01*
X004176Y004253D02*
Y004507D01*
X005319Y004253D02*
Y004507D01*
X003468Y002729D02*
Y003822D01*
X003595Y003949D01*
X004420D01*
X003468Y002729D02*
X004420D01*
Y003949D01*
D11*
X009817Y001825D02*
G03*
X009864Y001828I000000J000300D01*
G01*
X008702Y001232D02*
G03*
X008773Y001425I-000230J000193D01*
G01*
X007176Y007430D02*
G03*
X006916Y007280I000000J-000300D01*
G01*
X004073Y006825D02*
G03*
X004373Y007125I000000J000300D01*
G01*
X006224Y007280D02*
G03*
X005964Y007430I-000260J-000150D01*
G01*
X009073Y001825D02*
G03*
X008773Y001525I000000J-000300D01*
G01*
X008070Y001530D02*
G03*
X008370Y001230I000300J000000D01*
G01*
X004770D02*
G03*
X005070Y001530I000000J000300D01*
G01*
X008773Y007125D02*
G03*
X009073Y006825I000300J000000D01*
G01*
X009879Y006818D02*
G03*
X009817Y006825I-000062J-000293D01*
G01*
X003782Y001318D02*
G03*
X003994Y001230I000212J000212D01*
G01*
X002358Y005918D02*
G03*
X002270Y005706I000212J-000212D01*
G01*
X009146Y001230D02*
G03*
X009358Y001318I000000J000300D01*
G01*
X004373Y001525D02*
G03*
X004073Y001825I-000300J000000D01*
G01*
X003328Y006825D02*
G03*
X003261Y006817I000000J-000300D01*
G01*
X010782Y002742D02*
G03*
X010870Y002954I-000212J000212D01*
G01*
X004373Y001425D02*
G03*
X004450Y001224I000300J000000D01*
G01*
X009358Y007342D02*
G03*
X009146Y007430I-000212J-000212D01*
G01*
X002270Y002954D02*
G03*
X002358Y002742I000300J000000D01*
G01*
X006224Y007280D02*
G03*
X006916Y007280I000346J000200D01*
G01*
X008070Y001530D02*
G03*
X007770Y001830I-000300J000000D01*
G01*
X010870Y005706D02*
G03*
X010782Y005918I-000300J000000D01*
G01*
X003276Y001829D02*
G03*
X003328Y001825I000052J000295D01*
G01*
X004450Y007425D02*
G03*
X004373Y007225I000223J-000201D01*
G01*
X003994Y007430D02*
G03*
X003782Y007342I000000J-000300D01*
G01*
X005370Y001830D02*
G03*
X005070Y001530I000000J-000300D01*
G01*
X008773Y007225D02*
G03*
X008694Y007427I-000300J000000D01*
G01*
X009358Y001318D02*
X010782Y002742D01*
X010870Y002954D02*
Y005706D01*
X007176Y007430D02*
X009146D01*
X002358Y002742D02*
X003782Y001318D01*
X003994Y007430D02*
X005964D01*
X003328Y006825D02*
X004073D01*
X005370Y001830D02*
X007770D01*
X004373Y001425D02*
Y001525D01*
X003994Y001230D02*
X004770D01*
X009073Y001825D02*
X009817D01*
X009358Y007342D02*
X010782Y005918D01*
X002270Y002954D02*
Y005706D01*
X002358Y005918D02*
X003782Y007342D01*
X009073Y006825D02*
X009817D01*
X003328Y001825D02*
X004073D01*
X004373Y007125D02*
Y007225D01*
X008773Y001425D02*
Y001525D01*
X008370Y001230D02*
X009146D01*
X008773Y007125D02*
Y007225D01*
D12*
X009903Y002757D02*
G03*
X009903Y002757I-000020J000000D01*
G01*
X003253Y003930D02*
G03*
X003253Y003930I-000020J000000D01*
G01*
D13*
X009564Y005821D02*
G03*
X009615Y005871I000221J-000171D01*
G01*
X003165Y005821D02*
G03*
X003215Y005871I000221J-000171D01*
G01*
X009535Y005850D02*
X009564Y005821D01*
X009535Y005850D02*
X009585Y005900D01*
X009585D01*
X009614Y005871D01*
X008025Y006691D02*
Y007031D01*
X007886D02*
X008025D01*
X007886Y006691D02*
X008025D01*
X007403D02*
Y007031D01*
Y006691D02*
X007543D01*
X007403Y007031D02*
X007543D01*
X006506Y002048D02*
Y002558D01*
X003905D02*
X006506D01*
X003903Y002048D02*
X006506D01*
X003903D02*
Y002557D01*
X006633Y002048D02*
Y002558D01*
Y002048D02*
X009234D01*
X006633Y002558D02*
X009237D01*
Y002049D02*
Y002558D01*
X009410Y006613D02*
X009750D01*
X009410Y006474D02*
Y006613D01*
X009750Y006474D02*
Y006613D01*
X009410Y005991D02*
X009750D01*
Y006131D01*
X009410Y005991D02*
Y006131D01*
X003922Y004210D02*
Y004550D01*
Y004210D02*
X004062D01*
X003922Y004550D02*
X004062D01*
X004544Y004210D02*
Y004550D01*
X004405D02*
X004544D01*
X004405Y004210D02*
X004544D01*
X005065D02*
Y004550D01*
Y004210D02*
X005204D01*
X005065Y004550D02*
X005204D01*
X005687Y004210D02*
Y004550D01*
X005547D02*
X005687D01*
X005547Y004210D02*
X005687D01*
X007043Y003930D02*
X007818D01*
X007043Y003524D02*
X007818D01*
X008212Y003473D02*
Y003981D01*
X003136Y005850D02*
X003165Y005821D01*
X003136Y005850D02*
X003186Y005900D01*
X003186D01*
X003215Y005871D01*
X005317Y002757D02*
X006091D01*
X005317Y003163D02*
X006091D01*
X004923Y002706D02*
Y003214D01*
Y003468D02*
Y003976D01*
X005317Y003925D02*
X006091D01*
X005317Y003519D02*
X006091D01*
X007043Y003168D02*
X007818D01*
X007043Y002761D02*
X007818D01*
X008212Y002711D02*
Y003219D01*
X007345Y004156D02*
X007285D01*
Y004111D01*
X007315D01*
X007285D01*
Y004066D01*
X007375Y004156D02*
Y004081D01*
X007390Y004066D01*
X007420D01*
X007435Y004081D01*
Y004156D01*
X007465Y004141D02*
X007480Y004156D01*
X007510D01*
X007525Y004141D01*
Y004126D01*
X007510Y004111D01*
X007495D01*
X007510D01*
X007525Y004096D01*
Y004081D01*
X007510Y004066D01*
X007480D01*
X007465Y004081D01*
X005656Y004081D02*
X005596D01*
Y004036D01*
X005626D01*
X005596D01*
Y003991D01*
X005686Y004081D02*
Y004006D01*
X005701Y003991D01*
X005731D01*
X005746Y004006D01*
Y004081D01*
X005836Y003991D02*
X005776D01*
X005836Y004051D01*
Y004066D01*
X005821Y004081D01*
X005791D01*
X005776Y004066D01*
X005655Y003320D02*
X005595D01*
Y003275D01*
X005625D01*
X005595D01*
Y003230D01*
X005684Y003320D02*
Y003245D01*
X005699Y003230D01*
X005729D01*
X005744Y003245D01*
Y003320D01*
X005774Y003230D02*
X005804D01*
X005789D01*
Y003320D01*
X005774Y003305D01*
X007103Y006817D02*
Y006743D01*
X007118Y006728D01*
X007148D01*
X007163Y006743D01*
Y006817D01*
X007252Y006728D02*
X007192D01*
X007252Y006787D01*
Y006802D01*
X007237Y006817D01*
X007207D01*
X007192Y006802D01*
X009325Y002375D02*
X009385Y002285D01*
Y002375D02*
X009325Y002285D01*
X009415Y002360D02*
X009430Y002375D01*
X009460D01*
X009475Y002360D01*
Y002345D01*
X009460Y002330D01*
X009445D01*
X009460D01*
X009475Y002315D01*
Y002300D01*
X009460Y002285D01*
X009430D01*
X009415Y002300D01*
X003873Y004153D02*
Y004093D01*
X003903Y004063D01*
X003933Y004093D01*
Y004153D01*
X003963D02*
Y004063D01*
X004007D01*
X004022Y004078D01*
Y004138D01*
X004007Y004153D01*
X003963D01*
X004052Y004063D02*
X004082D01*
X004067D01*
Y004153D01*
X004052Y004138D01*
X003680Y002375D02*
X003740Y002285D01*
Y002375D02*
X003680Y002285D01*
X003770D02*
X003800D01*
X003785D01*
Y002375D01*
X003770Y002360D01*
X004308Y006817D02*
Y006743D01*
X004323Y006728D01*
X004353D01*
X004367Y006743D01*
Y006817D01*
X004397Y006728D02*
X004427D01*
X004412D01*
Y006817D01*
X004397Y006802D01*
X009900Y006095D02*
Y006035D01*
X009930Y006005D01*
X009960Y006035D01*
Y006095D01*
X009990D02*
X010050D01*
X010020D01*
Y006005D01*
X010140D02*
X010080D01*
X010140Y006065D01*
Y006080D01*
X010125Y006095D01*
X010095D01*
X010080Y006080D01*
X003258Y006095D02*
Y006035D01*
X003288Y006005D01*
X003318Y006035D01*
Y006095D01*
X003348D02*
X003407D01*
X003377D01*
Y006005D01*
X003437D02*
X003467D01*
X003452D01*
Y006095D01*
X003437Y006080D01*
X009033Y004156D02*
Y004096D01*
X009063Y004066D01*
X009093Y004096D01*
Y004156D01*
X009123D02*
Y004066D01*
X009167D01*
X009182Y004081D01*
Y004141D01*
X009167Y004156D01*
X009123D01*
X009272Y004066D02*
X009212D01*
X009272Y004126D01*
Y004141D01*
X009257Y004156D01*
X009227D01*
X009212Y004141D01*
X009500Y005010D02*
Y005100D01*
X009545D01*
X009560Y005085D01*
Y005055D01*
X009545Y005040D01*
X009500D01*
X009530D02*
X009560Y005010D01*
X009635D02*
Y005100D01*
X009590Y005055D01*
X009650D01*
X002825Y005010D02*
Y005100D01*
X002870D01*
X002885Y005085D01*
Y005055D01*
X002870Y005040D01*
X002825D01*
X002855D02*
X002885Y005010D01*
X002975D02*
X002915D01*
X002975Y005070D01*
Y005085D01*
X002960Y005100D01*
X002930D01*
X002915Y005085D01*
X009500Y005210D02*
Y005300D01*
X009545D01*
X009560Y005285D01*
Y005255D01*
X009545Y005240D01*
X009500D01*
X009530D02*
X009560Y005210D01*
X009590Y005285D02*
X009605Y005300D01*
X009635D01*
X009650Y005285D01*
Y005270D01*
X009635Y005255D01*
X009620D01*
X009635D01*
X009650Y005240D01*
Y005225D01*
X009635Y005210D01*
X009605D01*
X009590Y005225D01*
X002823Y005210D02*
Y005300D01*
X002868D01*
X002883Y005285D01*
Y005255D01*
X002868Y005240D01*
X002823D01*
X002853D02*
X002883Y005210D01*
X002913D02*
X002943D01*
X002928D01*
Y005300D01*
X002913Y005285D01*
X007345Y003395D02*
X007285D01*
Y003350D01*
X007315D01*
X007285D01*
Y003305D01*
X007375Y003395D02*
Y003320D01*
X007390Y003305D01*
X007420D01*
X007435Y003320D01*
Y003395D01*
X007510Y003305D02*
Y003395D01*
X007465Y003350D01*
X007525D01*
X007715Y007170D02*
X007700Y007185D01*
X007670D01*
X007655Y007170D01*
Y007110D01*
X007670Y007095D01*
X007700D01*
X007715Y007110D01*
X007745Y007170D02*
X007760Y007185D01*
X007790D01*
X007805Y007170D01*
Y007155D01*
X007790Y007140D01*
X007805Y007125D01*
Y007110D01*
X007790Y007095D01*
X007760D01*
X007745Y007110D01*
Y007125D01*
X007760Y007140D01*
X007745Y007155D01*
Y007170D01*
X007760Y007140D02*
X007790D01*
X005835Y004430D02*
X005820Y004445D01*
X005790D01*
X005775Y004430D01*
Y004370D01*
X005790Y004355D01*
X005820D01*
X005835Y004370D01*
X005910Y004355D02*
Y004445D01*
X005865Y004400D01*
X005925D01*
X009565Y006760D02*
X009550Y006775D01*
X009520D01*
X009505Y006760D01*
Y006700D01*
X009520Y006685D01*
X009550D01*
X009565Y006700D01*
X009655Y006775D02*
X009625Y006760D01*
X009595Y006730D01*
Y006700D01*
X009610Y006685D01*
X009640D01*
X009655Y006700D01*
Y006715D01*
X009640Y006730D01*
X009595D01*
X003714Y004430D02*
X003699Y004445D01*
X003669D01*
X003654Y004430D01*
Y004370D01*
X003669Y004355D01*
X003699D01*
X003714Y004370D01*
X003804Y004355D02*
X003744D01*
X003804Y004415D01*
Y004430D01*
X003789Y004445D01*
X003759D01*
X003744Y004430D01*
D14*
X009883Y005181D02*
X009947D01*
X009883Y005333D02*
X009947D01*
X010074Y005193D02*
Y005320D01*
X009756Y005193D02*
Y005320D01*
Y004993D02*
Y005120D01*
X010074Y004993D02*
Y005120D01*
X009883Y005133D02*
X009947D01*
X009883Y004981D02*
X009947D01*
X003383Y005193D02*
Y005320D01*
X003066Y005193D02*
Y005320D01*
X003193Y005181D02*
X003256D01*
X003193Y005333D02*
X003256D01*
X003383Y004993D02*
Y005120D01*
X003066Y004993D02*
Y005120D01*
X003193Y004981D02*
X003256D01*
X003193Y005133D02*
X003256D01*
D15*
X007818Y003930D02*
X007869Y003981D01*
X007818Y003524D02*
X007869Y003473D01*
X006662D02*
X006993D01*
X006662Y003981D02*
X006993D01*
X006662Y003473D02*
Y003981D01*
X006993D02*
X007043Y003930D01*
X007869Y003981D02*
X008212D01*
X006993Y003473D02*
X007043Y003524D01*
X007869Y003473D02*
X008212D01*
X005266Y002706D02*
X005317Y002757D01*
X005266Y003214D02*
X005317Y003163D01*
X006142Y003214D02*
X006472D01*
X006142Y002706D02*
X006472D01*
Y003214D01*
X006091Y002757D02*
X006142Y002706D01*
X004923D02*
X005266D01*
X006091Y003163D02*
X006142Y003214D01*
X004923D02*
X005266D01*
X004923Y003976D02*
X005266D01*
X006091Y003925D02*
X006142Y003976D01*
X004923Y003468D02*
X005266D01*
X006091Y003519D02*
X006142Y003468D01*
X006472D02*
Y003976D01*
X006142Y003468D02*
X006472D01*
X006142Y003976D02*
X006472D01*
X005266D02*
X005317Y003925D01*
X005266Y003468D02*
X005317Y003519D01*
X007818Y003168D02*
X007869Y003219D01*
X007818Y002761D02*
X007869Y002711D01*
X006662D02*
X006993D01*
X006662Y003219D02*
X006993D01*
X006662Y002711D02*
Y003219D01*
X006993D02*
X007043Y003168D01*
X007869Y003219D02*
X008212D01*
X006993Y002711D02*
X007043Y002761D01*
X007869Y002711D02*
X008212D01*
M02*
