G04*
G04 #@! TF.GenerationSoftware,Altium Limited,Altium Designer,20.1.10 (176)*
G04*
G04 Layer_Color=16711935*
%FSAX42Y42*%
%MOMM*%
G71*
G04*
G04 #@! TF.SameCoordinates,FCFB62F1-B148-46F0-B019-BB0DAA43D111*
G04*
G04*
G04 #@! TF.FilePolarity,Positive*
G04*
G01*
G75*
%ADD13C,0.20*%
D13*
X006224Y007280D02*
G03*
X006916Y007280I000346J000200D01*
G01*
X010870Y005706D02*
G03*
X010782Y005918I-000300J000000D01*
G01*
X005370Y001830D02*
G03*
X005070Y001530I000000J-000300D01*
G01*
X009146Y001230D02*
G03*
X009358Y001318I000000J000300D01*
G01*
X008070Y001530D02*
G03*
X008370Y001230I000300J000000D01*
G01*
X007176Y007430D02*
G03*
X006916Y007280I000000J-000300D01*
G01*
X002270Y002954D02*
G03*
X002358Y002742I000300J000000D01*
G01*
X002358Y005918D02*
G03*
X002270Y005706I000212J-000212D01*
G01*
X010782Y002742D02*
G03*
X010870Y002954I-000212J000212D01*
G01*
X003994Y007430D02*
G03*
X003782Y007342I000000J-000300D01*
G01*
X003782Y001318D02*
G03*
X003994Y001230I000212J000212D01*
G01*
X008070Y001530D02*
G03*
X007770Y001830I-000300J000000D01*
G01*
X004770Y001230D02*
G03*
X005070Y001530I000000J000300D01*
G01*
X009358Y007342D02*
G03*
X009146Y007430I-000212J-000212D01*
G01*
X006224Y007280D02*
G03*
X005964Y007430I-000260J-000150D01*
G01*
X005370Y001830D02*
X007770D01*
X008370Y001230D02*
X009146D01*
X003994Y007430D02*
X005964D01*
X003994Y001230D02*
X004770D01*
X010870Y002954D02*
Y005706D01*
X002358Y005918D02*
X003782Y007342D01*
X007176Y007430D02*
X009146D01*
X009358Y001318D02*
X010782Y002742D01*
X002270Y002954D02*
Y005706D01*
X002358Y002742D02*
X003782Y001318D01*
X009358Y007342D02*
X010782Y005918D01*
M02*
